<svg id="Capa_2" data-name="Capa 2" xmlns="http://www.w3.org/2000/svg" viewBox="0 0 1920 1080"><defs><clipPath id="clippath"><path style="fill:none" d="M0 0h1920v1080H0z"/></clipPath><style>.cls-2{fill:none;stroke:#f5f5f5;stroke-miterlimit:10;stroke-width:.25px}.cls-3{opacity:.1}</style></defs><g style="clip-path:url(#clippath)" id="Capa_1-2" data-name="Capa 1"><g class="cls-3"><path class="cls-2" d="M3460.05 1081.14 1585.48-1.14m1952.73 1082.28L1663.63-1.14M3381.9 1081.14 1507.33-1.14m1796.42 1082.28L1429.18-1.14M3225.6 1081.14 1351.03-1.14m1796.42 1082.28L1272.87-1.14M3069.3 1081.14 1194.72-1.14m1796.42 1082.28L1116.57-1.14m1796.42 1082.28L1038.42-1.14m1796.42 1082.28L960.27-1.14m1796.42 1082.28L882.12-1.14m1796.42 1082.28L803.96-1.14m1796.42 1082.28L725.81-1.14m1796.42 1082.28L647.66-1.14m1796.42 1082.28L569.51-1.14m1796.42 1082.28L491.36-1.14m1796.42 1082.28L413.21-1.14m1796.42 1082.28L335.05-1.14m1796.42 1082.28L256.9-1.14m1796.42 1082.28L178.75-1.14m1796.42 1082.28L100.6-1.14m1796.42 1082.28L22.45-1.14m3593.91 1082.28L1741.79-1.14m1952.72 1082.28L1819.94-1.14m1952.72 1082.28L1898.09-1.14"/></g><g class="cls-3"><path class="cls-2" d="M256.37 1081.14-1618.21-1.14M334.52 1081.14-1540.05-1.14M178.21 1081.14-1696.36-1.14M100.06 1081.14-1774.51-1.14M21.91 1081.14-1852.66-1.14M412.67 1081.14-1461.9-1.14M490.82 1081.14-1383.75-1.14M568.97 1081.14-1305.6-1.14M647.13 1081.14-1227.45-1.14M725.28 1081.14-1149.3-1.14M803.43 1081.14-1071.14-1.14M881.58 1081.14-992.99-1.14M959.73 1081.14-914.84-1.14m1952.72 1082.28L-836.69-1.14m1952.73 1082.28L-758.54-1.14m1952.73 1082.28L-680.38-1.14m1952.72 1082.28L-602.23-1.14m1952.72 1082.28L-524.08-1.14m1952.72 1082.28L-445.93-1.14m1952.72 1082.28L-367.78-1.14m1952.73 1082.28L-289.63-1.14M1663.1 1081.14-211.47-1.14m1952.72 1082.28L-133.32-1.14M1819.4 1081.14-55.17-1.14"/></g><g class="cls-3"><path class="cls-2" d="M-1540.05 1081.14 334.52-1.14m-1952.73 1082.28L256.37-1.14M-1461.9 1081.14 412.67-1.14m-1796.42 1082.28L490.82-1.14M-1305.6 1081.14 568.97-1.14m-1796.42 1082.28L647.13-1.14M-1149.3 1081.14 725.28-1.14m-1796.42 1082.28L803.43-1.14M-992.99 1081.14 881.58-1.14M-914.84 1081.14 959.73-1.14M-836.69 1081.14 1037.88-1.14M-758.54 1081.14 1116.04-1.14M-680.38 1081.14 1194.19-1.14M-602.23 1081.14 1272.34-1.14M-524.08 1081.14 1350.49-1.14M-445.93 1081.14 1428.64-1.14M-367.78 1081.14 1506.79-1.14M-289.63 1081.14 1584.95-1.14M-211.47 1081.14 1663.1-1.14M-133.32 1081.14 1741.25-1.14M-55.17 1081.14 1819.4-1.14M22.98 1081.14 1897.55-1.14m-3593.91 1082.28L178.21-1.14m-1952.72 1082.28L100.06-1.14m-1952.72 1082.28L21.91-1.14"/></g><g class="cls-3"><path class="cls-2" d="M1663.63 1081.14 3538.21-1.14M1585.48 1081.14 3460.05-1.14M1741.79 1081.14 3616.36-1.14M1819.94 1081.14 3694.51-1.14M1898.09 1081.14 3772.66-1.14M1507.33 1081.14 3381.9-1.14M1429.18 1081.14 3303.75-1.14M1351.03 1081.14 3225.6-1.14M1272.87 1081.14 3147.45-1.14M1194.72 1081.14 3069.3-1.14M1116.57 1081.14 2991.14-1.14M1038.42 1081.14 2912.99-1.14M960.27 1081.14 2834.84-1.14M882.12 1081.14 2756.69-1.14M803.96 1081.14 2678.54-1.14M725.81 1081.14 2600.38-1.14M647.66 1081.14 2522.23-1.14M569.51 1081.14 2444.08-1.14M491.36 1081.14 2365.93-1.14M413.21 1081.14 2287.78-1.14M335.05 1081.14 2209.63-1.14M256.9 1081.14 2131.47-1.14M178.75 1081.14 2053.32-1.14M100.6 1081.14 1975.17-1.14"/></g></g></svg>