<svg width="2245" height="1597" viewBox="0 0 2245 1597" fill="none" xmlns="http://www.w3.org/2000/svg">
<g clip-path="url(#clip0_502_50)">
<line x1="-3496.25" y1="1837.46" x2="104.491" y2="-241.433" stroke="#797979"/>
<line x1="-3347.9" y1="1837.46" x2="252.84" y2="-241.433" stroke="#797979"/>
<line x1="-3199.55" y1="1837.46" x2="401.189" y2="-241.433" stroke="#797979"/>
<line x1="-3051.2" y1="1837.46" x2="549.538" y2="-241.433" stroke="#797979"/>
<line x1="-2902.85" y1="1837.46" x2="697.887" y2="-241.433" stroke="#797979"/>
<line x1="-2754.51" y1="1837.46" x2="846.235" y2="-241.433" stroke="#797979"/>
<line x1="-2606.16" y1="1837.46" x2="994.584" y2="-241.433" stroke="#797979"/>
<line x1="-2457.81" y1="1837.46" x2="1142.93" y2="-241.433" stroke="#797979"/>
<line x1="-2309.46" y1="1837.46" x2="1291.28" y2="-241.433" stroke="#797979"/>
<line x1="-2161.11" y1="1837.46" x2="1439.63" y2="-241.433" stroke="#797979"/>
<line x1="-2012.76" y1="1837.46" x2="1587.98" y2="-241.433" stroke="#797979"/>
<line x1="-1864.41" y1="1837.46" x2="1736.33" y2="-241.433" stroke="#797979"/>
<line x1="-1716.06" y1="1837.46" x2="1884.68" y2="-241.433" stroke="#797979"/>
<line x1="-1567.71" y1="1837.46" x2="2033.03" y2="-241.433" stroke="#797979"/>
<line x1="-1419.37" y1="1837.46" x2="2181.38" y2="-241.433" stroke="#797979"/>
<line x1="-1271.02" y1="1837.46" x2="2329.72" y2="-241.433" stroke="#797979"/>
<line x1="-1122.67" y1="1837.46" x2="2478.07" y2="-241.433" stroke="#797979"/>
<line x1="-974.319" y1="1837.46" x2="2626.42" y2="-241.433" stroke="#797979"/>
<line x1="-825.97" y1="1837.46" x2="2774.77" y2="-241.433" stroke="#797979"/>
<line x1="-677.622" y1="1837.46" x2="2923.12" y2="-241.433" stroke="#797979"/>
<line x1="-529.273" y1="1837.46" x2="3071.47" y2="-241.433" stroke="#797979"/>
<line x1="-380.924" y1="1837.46" x2="3219.82" y2="-241.433" stroke="#797979"/>
<line x1="-232.575" y1="1837.46" x2="3368.17" y2="-241.433" stroke="#797979"/>
<line x1="-84.2261" y1="1837.46" x2="3516.52" y2="-241.433" stroke="#797979"/>
<line x1="64.123" y1="1837.46" x2="3664.86" y2="-241.433" stroke="#797979"/>
<line x1="212.472" y1="1837.46" x2="3813.21" y2="-241.433" stroke="#797979"/>
<line x1="360.82" y1="1837.46" x2="3961.56" y2="-241.433" stroke="#797979"/>
<line x1="509.169" y1="1837.46" x2="4109.91" y2="-241.433" stroke="#797979"/>
<line x1="657.518" y1="1837.46" x2="4258.26" y2="-241.433" stroke="#797979"/>
<line x1="805.867" y1="1837.46" x2="4406.61" y2="-241.433" stroke="#797979"/>
<line x1="954.216" y1="1837.46" x2="4554.96" y2="-241.433" stroke="#797979"/>
<line x1="1102.57" y1="1837.46" x2="4703.31" y2="-241.433" stroke="#797979"/>
<line x1="1250.91" y1="1837.46" x2="4851.65" y2="-241.433" stroke="#797979"/>
<line x1="1399.26" y1="1837.46" x2="5000" y2="-241.433" stroke="#797979"/>
<line x1="1547.61" y1="1837.46" x2="5148.35" y2="-241.433" stroke="#797979"/>
<line x1="1695.96" y1="1837.46" x2="5296.7" y2="-241.433" stroke="#797979"/>
<line x1="1844.31" y1="1837.46" x2="5445.05" y2="-241.433" stroke="#797979"/>
<line x1="1992.66" y1="1837.46" x2="5593.4" y2="-241.433" stroke="#797979"/>
<line x1="2141.01" y1="1837.46" x2="5741.75" y2="-241.433" stroke="#797979"/>
<line y1="-0.5" x2="4157.78" y2="-0.5" transform="matrix(-0.866025 -0.5 -0.5 0.866025 5742 1837.89)" stroke="#797979"/>
<line y1="-0.5" x2="4157.78" y2="-0.5" transform="matrix(-0.866025 -0.5 -0.5 0.866025 5593.65 1837.89)" stroke="#797979"/>
<line y1="-0.5" x2="4157.78" y2="-0.5" transform="matrix(-0.866025 -0.5 -0.5 0.866025 5445.3 1837.89)" stroke="#797979"/>
<line y1="-0.5" x2="4157.78" y2="-0.5" transform="matrix(-0.866025 -0.5 -0.5 0.866025 5296.95 1837.89)" stroke="#797979"/>
<line y1="-0.5" x2="4157.78" y2="-0.5" transform="matrix(-0.866025 -0.5 -0.5 0.866025 5148.61 1837.89)" stroke="#797979"/>
<line y1="-0.5" x2="4157.78" y2="-0.5" transform="matrix(-0.866025 -0.5 -0.5 0.866025 5000.26 1837.89)" stroke="#797979"/>
<line y1="-0.5" x2="4157.78" y2="-0.5" transform="matrix(-0.866025 -0.5 -0.5 0.866025 4851.91 1837.89)" stroke="#797979"/>
<line y1="-0.5" x2="4157.78" y2="-0.5" transform="matrix(-0.866025 -0.5 -0.5 0.866025 4703.56 1837.89)" stroke="#797979"/>
<line y1="-0.5" x2="4157.78" y2="-0.5" transform="matrix(-0.866025 -0.5 -0.5 0.866025 4555.21 1837.89)" stroke="#797979"/>
<line y1="-0.5" x2="4157.78" y2="-0.5" transform="matrix(-0.866025 -0.5 -0.5 0.866025 4406.86 1837.89)" stroke="#797979"/>
<line y1="-0.5" x2="4157.78" y2="-0.5" transform="matrix(-0.866025 -0.5 -0.5 0.866025 4258.51 1837.89)" stroke="#797979"/>
<line y1="-0.5" x2="4157.78" y2="-0.5" transform="matrix(-0.866025 -0.5 -0.5 0.866025 4110.16 1837.89)" stroke="#797979"/>
<line y1="-0.5" x2="4157.78" y2="-0.5" transform="matrix(-0.866025 -0.5 -0.5 0.866025 3961.81 1837.89)" stroke="#797979"/>
<line y1="-0.5" x2="4157.78" y2="-0.5" transform="matrix(-0.866025 -0.5 -0.5 0.866025 3813.46 1837.89)" stroke="#797979"/>
<line y1="-0.5" x2="4157.78" y2="-0.5" transform="matrix(-0.866025 -0.5 -0.5 0.866025 3665.12 1837.89)" stroke="#797979"/>
<line y1="-0.5" x2="4157.78" y2="-0.5" transform="matrix(-0.866025 -0.5 -0.5 0.866025 3516.77 1837.89)" stroke="#797979"/>
<line y1="-0.5" x2="4157.78" y2="-0.5" transform="matrix(-0.866025 -0.5 -0.5 0.866025 3368.42 1837.89)" stroke="#797979"/>
<line y1="-0.5" x2="4157.78" y2="-0.5" transform="matrix(-0.866025 -0.5 -0.5 0.866025 3220.07 1837.89)" stroke="#797979"/>
<line y1="-0.5" x2="4157.78" y2="-0.5" transform="matrix(-0.866025 -0.5 -0.5 0.866025 3071.72 1837.89)" stroke="#797979"/>
<line y1="-0.5" x2="4157.78" y2="-0.5" transform="matrix(-0.866025 -0.5 -0.5 0.866025 2923.37 1837.89)" stroke="#797979"/>
<line y1="-0.5" x2="4157.78" y2="-0.5" transform="matrix(-0.866025 -0.5 -0.5 0.866025 2775.02 1837.89)" stroke="#797979"/>
<line y1="-0.5" x2="4157.78" y2="-0.5" transform="matrix(-0.866025 -0.5 -0.5 0.866025 2626.67 1837.89)" stroke="#797979"/>
<line y1="-0.5" x2="4157.78" y2="-0.5" transform="matrix(-0.866025 -0.5 -0.5 0.866025 2478.33 1837.89)" stroke="#797979"/>
<line y1="-0.5" x2="4157.78" y2="-0.5" transform="matrix(-0.866025 -0.5 -0.5 0.866025 2329.98 1837.89)" stroke="#797979"/>
<line y1="-0.5" x2="4157.78" y2="-0.5" transform="matrix(-0.866025 -0.5 -0.5 0.866025 2181.63 1837.89)" stroke="#797979"/>
<line y1="-0.5" x2="4157.78" y2="-0.5" transform="matrix(-0.866025 -0.5 -0.5 0.866025 2033.28 1837.89)" stroke="#797979"/>
<line y1="-0.5" x2="4157.78" y2="-0.5" transform="matrix(-0.866025 -0.5 -0.5 0.866025 1884.93 1837.89)" stroke="#797979"/>
<line y1="-0.5" x2="4157.78" y2="-0.5" transform="matrix(-0.866025 -0.5 -0.5 0.866025 1736.58 1837.89)" stroke="#797979"/>
<line y1="-0.5" x2="4157.78" y2="-0.5" transform="matrix(-0.866025 -0.5 -0.5 0.866025 1588.23 1837.89)" stroke="#797979"/>
<line y1="-0.5" x2="4157.78" y2="-0.5" transform="matrix(-0.866025 -0.5 -0.5 0.866025 1439.88 1837.89)" stroke="#797979"/>
<line y1="-0.5" x2="4157.78" y2="-0.5" transform="matrix(-0.866025 -0.5 -0.5 0.866025 1291.53 1837.89)" stroke="#797979"/>
<line y1="-0.5" x2="4157.78" y2="-0.5" transform="matrix(-0.866025 -0.5 -0.5 0.866025 1143.18 1837.89)" stroke="#797979"/>
<line y1="-0.5" x2="4157.78" y2="-0.5" transform="matrix(-0.866025 -0.5 -0.5 0.866025 994.836 1837.89)" stroke="#797979"/>
<line y1="-0.5" x2="4157.78" y2="-0.5" transform="matrix(-0.866025 -0.5 -0.5 0.866025 846.488 1837.89)" stroke="#797979"/>
<line y1="-0.5" x2="4157.78" y2="-0.5" transform="matrix(-0.866025 -0.5 -0.5 0.866025 698.139 1837.89)" stroke="#797979"/>
<line y1="-0.5" x2="4157.78" y2="-0.5" transform="matrix(-0.866025 -0.5 -0.5 0.866025 549.79 1837.89)" stroke="#797979"/>
<line y1="-0.5" x2="4157.78" y2="-0.5" transform="matrix(-0.866025 -0.5 -0.5 0.866025 401.44 1837.89)" stroke="#797979"/>
<line y1="-0.5" x2="4157.78" y2="-0.5" transform="matrix(-0.866025 -0.5 -0.5 0.866025 253.092 1837.89)" stroke="#797979"/>
<line y1="-0.5" x2="4157.78" y2="-0.5" transform="matrix(-0.866025 -0.5 -0.5 0.866025 104.743 1837.89)" stroke="#797979"/>
</g>
<defs>
<clipPath id="clip0_502_50">
<rect width="2245" height="1597" fill="white"/>
</clipPath>
</defs>
</svg>
