<svg xmlns="http://www.w3.org/2000/svg" viewBox="0 0 1374.96 375.23" fill="#fefefe"><path d="M348.07 353.73h12.47c.79 7.46.4 25.59-11.29 20.67.07-2.56 2.97-5.75 4.43-7.92-.84-1.75-2.98-.98-4.8-2.47-1.44-3.1-.89-6.93-.81-10.28M49.39 316.76l12.23.03-.07 48.58h-12.2zm-49.31-.01 11.94.03v38.61h25.49l-.11 9.98-37.35.05c-.07-16.22-.06-32.45.03-48.67m457.23.01 12.29.02v38.6l25.24-.01-.1 10.01h-37.48l.04-48.62Zm566.59.01h45.69l.01 9.92-16.77-.03c0 9.53 0 29.26-.01 38.69l-12.22.03v-38.7h-16.66zm-466.33-.01 45.56.02v9.91l-16.57-.03c-.01 9.3-.02 29.58 0 38.71l-12.32.02v-38.68h-16.71l.04-9.94Zm-430.67 0 45.73.02v9.92l-16.68-.04c.01 9.29.02 29.57 0 38.7l-12.31.03v-38.7h-16.75l.03-9.93Zm-49.45.01h39.82l.03 9.34H89.66l-.03 10.57c6.35-.07 20.98-1.42 26.35.61.04 2.77.25 5.51-.61 8.18-8.14 1.21-17.44.41-25.71.36v19.54l-12.24.02zm536.59-.01 39.64.02v9.33l-27.36-.01v10.61c8.12.77 19.11-2.06 26.3 1.25.04 2.46.3 5.1-.46 7.46-8.29 1.15-17.44.44-25.84.41v19.55l-12.31.04.04-48.65Zm522.38.01 12.26.02c.59 11.67-6.04 39.86 11.49 40.18 17.31.31 10.99-28.65 11.6-40.19h12.4c-.96 12.93 3.96 31.68-4.53 42.52-9.46 9.87-28.08 10.12-38.01.84-8.41-8.66-5.33-31.66-5.21-43.36Zm-952.99-.01h39.69l-.07 9.09-27.34-.05-.03 10.5h26.36l-.02 8.79c-1.36.08-25.02-.26-25.45.31-1.79 2.45-.99 7.86-.89 10.88h27.94l-.04 9.11h-40.19l.03-48.63Zm691.79-.75c11.7-1.48 22.56.13 30.72 9.18l-8.02 6.67c-4.43-6.9-24.01-12.37-25.36-1.1 2.8 5.32 20.11 5.37 25.99 8.21 7.97 3 9.13 12.96 4.88 19.52-10.86 13.29-36.6 10.09-46.11-3.47l8.99-6.41c5.08 10.08 29.51 13.11 26.97.99-5.57-5.35-17.54-3.8-24.79-7.03-13.9-6.55-7.27-25.29 6.73-26.56m-568.59.06c11.71-1.56 23.24-.24 31.28 9.11l-7.93 6.78c-4.15-7.19-25.63-12.67-25.6-.6 3.19 4.45 20.86 4.42 27.12 8.02 6.94 3.53 7.84 13.11 4.04 19.27-11.42 12.92-36.54 10.11-46.24-3.73l9.14-6.37c4.44 7.17 13.97 10.46 22 8.27 2.71-.75 6.79-3.65 4.87-6.76-5.94-4.83-14.92-4-21.94-6.57-16.22-5.43-12.65-24.71 3.27-27.43Zm965.83-.61c10.31.4 16.58 2.37 24.03 9.66-2.72 2.24-5.36 4.57-8.02 6.86-5.62-7.44-20.98-11.78-26.37-2.15 3.77 6.46 23.1 5.29 30.3 11.66 18.42 25.35-31.58 34.45-44.69 13.53l9.05-6.43c5.09 8.35 22.46 13.85 27.59 3.27-3.62-7.42-20.78-6.14-27.94-11.23-6.35-3.86-6.77-13.06-2.25-18.5 4.77-5.57 11.48-6.12 18.3-6.67m-55.13-.01c10.19.43 16.51 2.34 23.73 9.73l-8.16 6.86c-5.02-7.32-20.95-12.18-25.51-2.31 3.87 7.3 22.71 5.52 29.94 11.97 5.82 4.8 4.33 14.24-.62 19.13-12.95 10.06-34.52 7.28-44.43-5.8l9.2-6.51c4.74 8.53 23.06 14.12 27.49 3-3.53-7.06-21.83-5.4-29.23-11.77-11.8-13.1 3.69-25.22 17.59-24.28Zm-678.89 1.31H523.8c-6.54 16.26-14.27 32.2-20.37 48.6l12.71.03 3.97-10.68h19.33c4.99-.1 5.13 7.25 6.95 10.73l12.7-.07-20.65-48.62Zm-4.85 29.69c-3.39 0-6.78-.06-10.16-.1 2.43-6.58 5.07-13.1 7.61-19.64 3.22 3.55 6.6 15.09 7.3 19.84zm-87.49-14.92c-1.86-20.17-30.42-14.44-45.04-14.77v48.62l12.29-.01v-16.66c12.9.51 33.44 1.02 32.75-17.17Zm-14.93 6.68c-5.62 2.72-11.73 1.95-17.82 1.88l.03-14.65c8.67-.88 25.85-.15 17.79 12.77m684.22 7.7c8.72-3.39 12.85-13.86 7.92-22.03-9.98-11.87-29-6.36-42.73-7.12l-.06 48.62 12.29-.03.02-18.05h10.14c2.81 5.11 6.61 14.53 11 18.04.42.12 11.91.05 12.76.06-3.71-6.54-7.49-13.04-11.34-19.49m-4.46-8.8c-5.66 2.68-12.05 1.94-18.15 1.86l.04-13.6c8.29-.58 25.03-1.25 18.11 11.74m-838.36 8.82c8.69-3.49 12.93-13.89 7.82-22.07-9.98-11.92-29.03-6.32-42.78-7.09l-.04 48.63 12.33-.04V347.3l10.24.01c3.16 5.75 6.25 13.04 10.73 17.88 1.43.35 11.43.2 13.11.23l-11.41-19.48Zm-4.6-8.78c-5.52 2.69-12.11 1.91-18.08 1.83v-13.59c8.24-.78 25.39-1.08 18.08 11.76m496.18 8.75c13.91-4.61 13.37-25.67-1.53-28.22-10-2.53-22.96-.95-33.33-.91v48.61l12.29-.02V347.3l10.37-.01c1.87 3.43 8.33 17.51 11.81 18.12-.03.08 11.64-.12 12-.07-3.86-6.48-7.63-13.03-11.61-19.44m-4.95-8.29c-5.35 2.12-11.97 1.43-17.65 1.38l.04-13.61c8.32-.86 26.55-.56 17.61 12.23m231.49 20.73c-2.29-1.72-4.18-1.75-6.99-1.95-1.96-3.13 4.61-12.62 5.08-17.23l-8.97-1.71c-1.16 4.26-2.35 8.24-4.18 12.27l-10.39-9.46c12.85-5.57 15.35-21.63-.4-24.82-16.14-3.81-28.25 11.12-14.81 23.76-29.84 17.86 5.99 35.73 25.5 23.05 4.99 3.46 10.11 5.03 16.06 3.03.05-2.73.5-4.55-.9-6.94m-35.77-31.82c.18-2.28 1.48-3.4 3.01-4.9 9.8-.61 9.82 8.84 3.12 13.53-3.87-.69-6.56-4.77-6.13-8.63m12.23 30.62c-9.42 5.14-22.84-3.73-11.79-12.72 4.27 3.43 9.27 6.63 12.16 11.34zM829.5 316.75l17.89.04-.03 48.57-11.37.05c-.11-7.86.28-29.02-.38-36.54-3.94 12.27-8.54 24.4-12.83 36.56h-10.9c-4.16-12.07-8.31-24.39-13.34-36.11l-.05 36.06-10.5.04-.03-48.64h17.49c4.34 11.22 8.13 22.72 12.13 34.09l11.92-34.11Zm-113.31 15.87c-11.34-31.08-64.32-16.87-52.73 17 11.36 30.94 64.25 16.78 52.73-17m-11.38 9.51c-.41 18.14-26.29 20.53-29.57 2.56-4.74-23.92 30.58-27.05 29.57-2.56"/><path d="M1372.82 19.78c-16.05-38.16-74.01-16.06-58.52 23.47 16.5 37.31 72.19 15 58.52-23.47m-1.87 13.18c-2.89 35.37-55.44 33.13-55.35-2.33 1.29-37.34 57.3-35.11 55.35 2.33" fill="#f57d00"/><path d="M1358.43 24.11c1.44-10.27-18.08-13.06-24.15-8.86-.83 3.32-.72 26.58.24 29.6 1.58.69 2.39.6 4.08.33 1.81-4.12.77-8.73 2.88-12.78l1.43-.45c5.79 2.95 5.58 10.4 10.86 13.47 1.99-.2 2.18.23 3.53-1.37-.17-3.81-3.99-8.49-5.98-11.84 3.11-1.88 6.32-4.29 7.11-8.1m-7.41 2.97c-8.98 3.39-12.46.6-11.12-8.84 6.45-.71 13.95.64 11.12 8.84M1094.94.3h67l-.01 251.73h-66.97zm126.34-.01 71.69.03-64.34 101.1c16.31 35.83 51.71 112.95 66.64 150.25-15.53 1.64-56.65-.26-72.9.36l-58.58-149.55zM665.1.29h184.1l-.03 53.48-58.36-.03c-.53 64.37.17 133.63-.05 198.28h-66.85l.05-198.25H665.1L665.09.29Z" fill="#f57d00"/><path d="M0 .31h152.72l-.02 49.64-85.8-.02v50.65h80.08v49.37c-10.91.05-67.97 0-80.08-.01v102.08H.05z"/><path d="M889.6.3h152.91l-.02 48.46-85.78-.02V98.4h80.59v48.34l-80.58-.01c0 14.02.01 42.24.01 56.26h88.39v49.05H889.59V.31Z" fill="#f57d00"/><path d="M339.56 85.97C334.3 65.85 320.96 19.8 316.1.31L232.16.29c-22.72 83.97-45.52 167.98-69.06 251.72h66.92l11.49-51.56 65.2-.04c3.38 17.21 7.92 34.37 11.08 51.61h67.31L339.56 85.96Zm-64.34 68.14h-23.59c7.53-34.47 15.76-68.8 22.13-103.51.53.62 20.5 94.4 22.47 103.48zM428.68.31h71.63c20.88 51.57 53.71 99.14 63.89 154.41.21-33.37-.28-119.82-.1-154.41h60.99l-.01 251.65c-.88.14-62.5.07-66.01.08-21.46-50.62-59.94-109.34-69.33-163.67.01 35.9.55 126.48.33 163.66h-61.42L428.69.32Z"/></svg>