<svg xmlns="http://www.w3.org/2000/svg" viewBox="0 0 48 48" fill="#ffa348"><path d="M37.9 16.27V5.97c0-.19-.1-.36-.26-.45L28.72.37a.53.53 0 0 0-.52 0l-17.84 10.3c-.16.09-.26.26-.26.45v10.3c0 .19.1.36.26.45l8.15 4.7-8.15 4.7c-.16.09-.26.26-.26.45v10.3c0 .19.1.36.26.45l8.92 5.15c.08.05.17.07.26.07s.18-.02.26-.07l17.85-10.3c.16-.09.26-.26.26-.45v-10.3c0-.19-.1-.36-.26-.45l-8.15-4.7 8.15-4.7c.16-.09.26-.26.26-.45ZM28.46 1.42l7.89 4.55-16.81 9.71-7.89-4.55zm-17.33 10.6 7.89 4.55v9.11l-7.89-4.55zm8.41 15.15 7.89 4.55-7.89 4.55-7.89-4.55zm-8.41 5.45 7.89 4.55v9.11l-7.89-4.55zm25.74-16.65-8.66 5c-.16.09-.26.26-.26.45s.1.36.26.45l8.66 5v9.71l-16.81 9.71v-9.11l8.66-5c.16-.09.26-.26.26-.45s-.1-.36-.26-.45l-8.66-5v-9.71l16.81-9.71z"/></svg>