<?xml version="1.0" encoding="UTF-8"?>
<svg id="Capa_2" data-name="Capa 2" xmlns="http://www.w3.org/2000/svg" viewBox="0 0 325.74 146.16">
  <defs>
    <style>
      .cls-1 {
        fill: #ffa348;
      }
    </style>
  </defs>
  <g id="Capa_1-2" data-name="Capa 1">
    <g>
      <path class="cls-1" d="M84.66,16.17L56.84.11c-.25-.14-.55-.14-.8,0L.4,32.23c-.25.14-.4.41-.4.69v32.12c0,.29.15.55.4.69l26.62,15.37L.4,96.48c-.25.14-.4.41-.4.69v32.12c0,.29.15.55.4.69l27.82,16.06c.12.07.26.11.4.11s.28-.04.4-.11l55.64-32.12c.25-.14.4-.41.4-.69v-32.12c0-.29-.15-.55-.4-.69l-26.62-15.37,26.62-15.37c.25-.14.4-.41.4-.69V16.86c0-.29-.15-.55-.4-.69ZM56.44,1.72l26.22,15.14-54.04,31.2L2.4,32.92,56.44,1.72ZM1.6,64.59v-30.28l19.67,11.35,6.56,3.78v30.28L1.6,64.59ZM27.82,143.97l-26.22-15.14v-30.28l26.22,15.14v30.28ZM28.62,112.31l-26.22-15.14,26.22-15.14,26.22,15.14-26.22,15.14ZM83.46,48.52l-27.42,15.83c-.25.14-.4.41-.4.69s.15.55.4.69l27.42,15.83v31.2l-54.04,31.2v-30.28l27.42-15.83c.25-.14.4-.41.4-.69s-.15-.55-.4-.69l-27.42-15.83v-31.2l13.51-7.8,40.53-23.4v30.28Z"/>
      <path class="cls-1" d="M152.11,66.96c0-10.48-8.95-13.15-15.96-14.95-4.67-1.2-8.21-2.2-8.21-5.01,0-2,1.74-3.74,5.41-3.74,4.41,0,6.54,2.14,6.54,5.27h11.08c0-9.55-5.87-15.42-17.09-15.42s-17.16,6.01-17.16,14.02c0,9.88,8.41,12.62,15.35,14.42,4.81,1.27,8.81,2.4,8.81,5.87,0,2.54-1.94,4.41-6.54,4.41-5.01,0-7.28-2.27-7.28-6.14h-11.22c0,9.61,6.68,16.29,18.49,16.29s17.76-6.34,17.76-15.02Z"/>
      <path class="cls-1" d="M193.91,65.16h13.15c-1.47,4.21-5.87,6.68-11.75,6.68-8.15,0-13.62-5.47-13.62-14.29s5.41-14.29,13.42-14.29c5.61,0,9.61,2.6,11.75,7.14h11.28c-2.2-9.88-11.15-17.29-23.57-17.29-13.75,0-24.1,10.35-24.1,24.43s10.08,24.43,24.3,24.43,23.97-9.88,23.97-25.44h-24.83v8.61Z"/>
      <polygon class="cls-1" points="267.42 70.77 249.99 70.77 249.99 34.18 239.04 34.18 239.04 80.92 267.42 80.92 267.42 70.77"/>
      <polygon class="cls-1" points="123.23 110.98 122.98 110.98 119.06 96.79 117.14 96.79 121.37 111.76 124.84 111.76 129.07 96.79 127.15 96.79 123.23 110.98"/>
      <polygon class="cls-1" points="146.42 98.45 150.27 98.45 150.27 110.09 146.42 110.09 146.42 111.76 155.91 111.76 155.91 110.09 152.06 110.09 152.06 98.45 155.91 98.45 155.91 96.79 146.42 96.79 146.42 98.45"/>
      <polygon class="cls-1" points="176.34 96.79 174.54 96.79 174.54 111.76 184.16 111.76 184.16 110.09 176.34 110.09 176.34 96.79"/>
      <path class="cls-1" d="M205.59,96.79l-4.53,14.97h1.93l1.09-3.72h6.42l1.09,3.72h1.92l-4.53-14.97h-3.38ZM204.57,106.37l2.59-8.81h.26l2.59,8.81h-5.43Z"/>
      <polygon class="cls-1" points="238.53 110.98 238.27 110.98 233.95 96.79 230.36 96.79 230.36 111.76 232.15 111.76 232.15 97.55 232.41 97.55 236.73 111.76 240.32 111.76 240.32 96.79 238.53 96.79 238.53 110.98"/>
      <path class="cls-1" d="M263.4,96.49c-1.65,0-2.94.53-3.87,1.6-.93,1.07-1.39,2.57-1.39,4.51v3.34c0,2,.46,3.51,1.39,4.56.93,1.04,2.22,1.56,3.87,1.56s2.94-.52,3.87-1.56c.93-1.04,1.39-2.56,1.39-4.56v-3.34c0-1.94-.46-3.44-1.39-4.51-.93-1.07-2.22-1.6-3.87-1.6ZM266.86,105.81c0,1.47-.29,2.6-.87,3.39-.58.79-1.44,1.19-2.6,1.19s-2.02-.39-2.6-1.19c-.58-.79-.87-1.92-.87-3.39v-3.08c0-1.37.29-2.47.87-3.31.58-.84,1.44-1.26,2.6-1.26s2.02.42,2.6,1.26c.58.84.87,1.95.87,3.31v3.08Z"/>
      <polygon class="cls-1" points="291.59 110.98 291.33 110.98 287.42 96.79 285.49 96.79 289.73 111.76 293.19 111.76 297.43 96.79 295.5 96.79 291.59 110.98"/>
      <path class="cls-1" d="M321.21,96.79h-3.38l-4.53,14.97h1.93l1.09-3.72h6.42l1.09,3.72h1.92l-4.53-14.97ZM316.8,106.37l2.59-8.81h.26l2.59,8.81h-5.43Z"/>
    </g>
  </g>
</svg>