<svg xmlns="http://www.w3.org/2000/svg" viewBox="0 0 3000 790" fill="#fff"><path d="M649.103 298.045c0 85.364-98.029 154.92-221.455 159.645l154.07-285.941H427.976a26.27 26.27 0 0 0-23.122 13.806L171.71 618.252h153.742c9.66 0 18.54-5.303 23.122-13.806l78.589-145.856c123.654 4.561 221.939 74.186 221.939 159.662 0-88.423 105.096-160.103 234.738-160.104-129.642 0-234.738-71.68-234.738-160.103Zm431.387-17.837-95.1 229.821h57.559l22.038-53.401h87.497l22.038 53.401h57.203l-95.1-229.821h-56.134Zm-4.455 135.433 32.73-80.25 32.73 80.25zm289.043-94.386h63.737v-41.046h-82.685c-32.017 0-48.233 5.168-65.104 20.315-24.473 22.038-36.887 54.114-36.887 93.378s11.702 72.35 32.73 92.665c17.582 17.226 41.343 23.403 88.21 23.403h63.737v-40.986h-61.658c-47.224 0-63.737-12.712-67.539-52.688h129.196v-40.987h-129.196c1.367-21.681 3.089-27.562 9.98-37.184 10.691-13.424 21.028-16.514 55.48-16.869Zm265.282 90.229c13.068-4.456 19.602-8.613 27.205-16.514 10.336-11.405 16.514-28.988 16.514-50.668 0-21.682-9.979-40.63-27.205-51.679-13.424-8.613-33.74-12.415-67.182-12.415h-112.327v229.821h49.005v-87.14h39.265c42.411-.357 58.925 14.078 62.37 54.411 1.068 12.059 1.722 18.949 2.078 21.028.654 4.811 1.01 6.535 2.733 11.702h54.767c-3.089-8.613-3.802-13.424-5.525-34.809-1.722-35.818-14.85-56.49-41.699-63.736Zm-21.384-34.809c-4.811 3.445-12.058 5.168-24.117 5.168h-68.548v-60.648h68.548c8.613 0 14.791.713 18.948 2.079 10.336 3.742 16.216 13.424 16.216 26.849 0 11.761-4.157 21.74-11.048 26.552Zm203.922-98.129c-33.74 0-62.668 8.613-80.606 24.117-21.384 17.939-32.73 51.025-32.73 93.734 0 31.661 7.246 57.5 21.383 76.806 17.94 24.473 52.392 38.254 95.457 38.254 32.077 0 58.926-8.257 76.152-22.751 21.681-18.651 33.74-51.024 33.74-90.289 0-36.887-8.613-67.894-23.761-86.487-17.226-21.383-49.956-33.383-89.635-33.383Zm.415 194.299c-41.343 0-59.935-24.473-59.934-78.231 0-25.127 3.742-43.778 11.345-55.123 9.623-14.138 26.849-22.038 48.589-22.038 41.045 0 59.282 24.829 59.282 77.874s-17.94 77.517-59.282 77.517Zm266.709-99.971h-36.888c-17.939 0-25.542-1.367-31.72-5.168-6.534-4.514-10.335-12.058-10.335-21.028 0-10.335 4.099-17.879 11.345-22.038 5.524-2.732 13.424-3.445 34.809-3.445h102.644v-40.987h-113.693c-28.215 0-40.273 1.367-51.321 5.525-22.751 8.613-37.898 33.798-37.898 62.37 0 20.671 8.613 39.619 23.107 51.678 11.702 9.682 29.581 14.137 56.134 14.137h42.353c11.345 0 20.315 1.367 25.482 4.456 8.97 4.455 14.137 13.78 14.137 24.116 0 9.327-4.157 16.93-12.058 21.384-5.821 3.802-15.8 5.168-33.383 5.168h-104.664v40.986h115.415c35.462 0 49.956-2.435 61.657-10.335 16.87-11.702 27.562-33.442 27.562-57.203 0-21.028-7.247-41.342-18.593-52.034-13.424-12.771-31.007-17.583-64.093-17.583Zm292.428-92.606h-198.1v40.987h73.359v188.774h48.946V321.255h75.795zm69.618-.059-95.1 229.821h57.559l22.038-53.401h87.497l22.038 53.401h57.202l-95.1-229.821zm-4.514 135.433 32.73-80.25 32.729 80.25zm385.212 59.579c-1.722-35.818-14.851-56.49-41.699-63.736 13.068-4.456 19.603-8.613 27.206-16.514 10.335-11.405 16.514-28.988 16.514-50.668 0-21.682-9.98-40.63-27.206-51.679-13.424-8.613-33.74-12.415-67.182-12.415h-112.326V510.03h49.005v-87.14h39.264c42.412-.357 58.926 14.078 62.37 54.411 1.069 12.059 1.722 18.949 2.079 21.028.653 4.811 1.01 6.535 2.732 11.702h54.767c-3.089-8.613-3.802-13.424-5.524-34.809Zm-63.084-98.545c-4.811 3.445-12.058 5.168-24.117 5.168h-68.548v-60.648h68.548c8.613 0 14.791.713 18.949 2.079 10.335 3.742 16.216 13.424 16.216 26.849 0 11.761-4.158 21.74-11.049 26.552Z"/></svg>