<svg xmlns="http://www.w3.org/2000/svg" viewBox="0 0 858.65 372.27" fill="#fff"><path d="M315.69 194.37c-2.26 5.95-6.05 15.68-6.05 18.92 0 2.06 1.2 2.38 3.03 2.38h6.16v3.57h-21.94v-3.57h3.45c1.63 0 2.28-.53 2.82-1.95 4.54-11.88 15.79-37.53 26.81-63.48 1.85-.43 7.03-1.73 8.66-1.73l1.08 1.41c0 1.29-2.16 1.51-2.16 3.67 0 3.8 12.1 35.59 18.06 51.92 3.24 8.75 4.11 10.16 7.79 10.16h2.6v3.57h-27.26v-3.57h4.87c2.05 0 2.38-.43 1.62-2.6l-6.49-18.71H315.7Zm12.45-29.95c-4 8.55-7.34 17.2-10.7 25.75h19.57z"/><path d="M391.61 228.44c0 11.79-9.52 17.84-18.92 17.84-3.47 0-12.01-1.4-12.01-6.27 0-2.28 2.16-3.24 4.1-3.24 3.58 0 6.26 2.71 7.78 5.62l1.31.32c6.38-.11 6.38-9.85 6.38-18.82v-31.67c0-10.92 0-15.68-3.67-15.68h-4.54v-3.24c6.49-.54 13.08-.97 19.57-1.84v56.99Zm-12.54-72.23c0-3.35 2.7-5.84 5.95-5.84s6.04 2.49 6.04 5.84-2.69 5.84-6.04 5.84c-3.22.06-5.88-2.5-5.95-5.72zm55.15 17.08c6.05-.54 12.65-.97 19.14-1.84v31.78c0 8.45 1.3 10.29 7.57 11.36l-4.2 6.38h-1.41c-4.87 0-10.71-3.34-12.44-8-5.3 4-10.38 8-16.21 8-14.28 0-14.28-12.22-14.28-18.91v-9.85c0-10.91 0-15.67-3.69-15.67h-4.1v-3.24c6.05-.54 12.64-.97 19.13-1.84v31.78c0 5.09.66 10.93 7.36 10.93 4.32 0 7.46-1.83 11.24-4.75-.33-1.62-.33-3.46-.33-5.4v-11.79c0-10.91 0-15.67-3.67-15.67h-4.1v-3.24Zm52.76 5.95c5.86-4.32 11.15-7.79 16.99-7.79 8.54 0 13.08 5.09 13.08 14.93v14.59c0 12.55.43 15.04 3.46 15.04h4.11v3.24h-23.91v-3.24h3.03c1.2 0 1.95-.11 1.95-1.74v-22.49c0-7.36 0-13.52-8.01-13.52-3.77 0-7.56 2.06-10.71 4.97v17.74c0 12.55.44 15.04 3.47 15.04h3.78v3.24h-24.43v-3.24h3.89c1.18 0 1.95-.11 1.95-1.74v-22.06c0-10.91 0-15.67-3.68-15.67h-4.53v-3.24c6.48-.54 13.07-.97 19.55-1.84v7.79Zm76.46 37.73c-4 2.49-9.63 4.01-14.28 4.01-8.98 0-11.68-3.9-11.68-12.44v-32.12h-3.77c-1.09 0-2.06-.11-2.06-1.18 0-.86 2.05-2.38 15.02-13.73h2.17v11.67h10.92c-.21 3.24-.75 3.24-2.38 3.24h-8.54v29.09c0 6.16.55 10.38 6.7 10.38 2.17 0 4.55-.65 6.49-1.52zm32.87-27.02v-3.15c0-6.81-.21-10.92-7.34-10.92-2.49 0-5.3.75-7.37 2.16 0 5.95-2.58 10.81-7.35 10.81-1.94 0-3.78-1.4-3.78-3.46 0-8.55 14.49-13.96 24.12-13.96 12 0 13.08 3.37 13.08 15.14v16.65c0 8.45 1.31 10.29 7.57 11.36l-4.22 6.38c-2.81 0-10.49-.32-13.84-8.86-4.44 3.56-11.26 8.86-17.3 8.86s-10.16-4.43-10.16-10.59c0-10.49 13.19-14.92 21.09-18.17l5.51-2.26Zm0 3.89-1.94.75c-6.28 2.49-13.31 6.6-13.31 13.08 0 3.24 1.74 5.73 5.19 5.73 3.9 0 7.46-2.49 10.06-5.3v-14.27Zm26.06 25.4V216h3.89c1.18 0 1.95-.1 1.95-1.74v-22.04c0-10.93 0-15.69-3.68-15.69h-4.55v-3.24c6.5-.53 13.09-.97 19.57-1.83v8.33c6.17-5.3 10.39-8.33 16.99-8.33 5.52 0 10.06 2.6 11.35 8.22 5.52-4.76 10.6-8.22 16.77-8.22 8.54 0 13.08 5.08 13.08 14.93v14.59c0 12.55.42 15.04 3.46 15.04h4.1v3.24h-24.12v-3.24h3.25c1.18 0 1.94-.11 1.94-1.74v-22.49c0-7.36 0-13.52-8-13.52-3.89 0-6.71 2.49-9.73 4.98v17.73c0 12.55.44 15.04 3.46 15.04h3.14v3.24H652.1v-3.24h3.24c1.19 0 1.95-.11 1.95-1.74v-22.49c0-7.36 0-13.52-8-13.52-3.89 0-6.71 2.49-9.73 4.98v17.73c0 12.55.43 15.04 3.46 15.04h3.13v3.24l-23.79-.02Zm133.55-6.48a31.15 31.15 0 0 1-21.09 8.22c-14.38 0-21.85-10.5-21.85-23.91s8.12-25.63 22.61-25.63c10.26 0 15.88 6.92 19.89 15.58l-30.71 8.1c.54 10.16 4.32 20.12 16.11 20.12 5.19 0 9.41-1.85 13.42-4.98l1.62 2.49Zm-30.5-21.2 18.06-4.97c-1.62-4.21-4.76-11.58-10.07-11.58-6.91 0-8.97 11.58-8.75 16.77l.75-.22Zm56.77-12.32c5.83-4.32 11.14-7.79 16.97-7.79 8.55 0 13.09 5.09 13.09 14.93v14.59c0 12.55.44 15.04 3.46 15.04h4.1v3.24h-23.9v-3.24h3.03c1.18 0 1.94-.11 1.94-1.74v-22.49c0-7.36 0-13.52-7.99-13.52-3.8 0-7.57 2.06-10.71 4.97v17.74c0 12.55.43 15.04 3.46 15.04h3.78v3.24h-24.43v-3.24h3.89c1.19 0 1.95-.11 1.95-1.74v-22.06c0-10.91 0-15.67-3.67-15.67h-4.55v-3.24c6.49-.54 13.08-.97 19.57-1.84v7.79Zm76.46 37.73c-4 2.49-9.62 4.01-14.28 4.01-8.97 0-11.69-3.9-11.69-12.44v-32.12h-3.77c-1.08 0-2.05-.11-2.05-1.18 0-.86 2.05-2.38 15.02-13.73h2.17v11.67h10.92c-.22 3.24-.75 3.24-2.38 3.24h-8.53v29.09c0 6.16.54 10.38 6.71 10.38 2.16 0 4.54-.65 6.48-1.52l1.41 2.6ZM344.9 290.56c0 10.93.21 15.79 3.34 15.79h4.75v3.24c-6.38.22-12.97.86-19.46 2.05v-7.03c-5.08 3.79-9.3 7.03-16 7.03-8.22 0-18.28-6.49-18.28-23.14 0-13.84 8.12-26.39 23.14-26.39 4.11 0 7.57 1.3 11.14 3.24v-6.16c0-16.98-.98-19.9-3.57-19.9h-4.54v-3.24c6.48-.65 12.98-1.3 19.47-2.38v56.88Zm-11.36-21.08a15.23 15.23 0 0 0-9.19-2.91c-10.49 0-13.3 9.94-13.3 18.59s2.05 19.68 12.65 19.68c4.11.32 6.93-1.73 9.84-4.44zm66.61 33.95a31.06 31.06 0 0 1-21.08 8.22c-14.39 0-21.85-10.49-21.85-23.9s8.11-25.63 22.6-25.63c10.27 0 15.89 6.92 19.89 15.58L369 285.8c.54 10.16 4.34 20.11 16.12 20.11 5.19 0 9.4-1.84 13.41-4.97l1.62 2.48Zm-30.49-21.19 18.06-4.98c-1.62-4.21-4.75-11.56-10.05-11.56-6.93 0-8.98 11.57-8.76 16.75zm123.28-29.52c-.98 0-1.09-.54-1.63-2.71-.75-3.13-8.65-6.38-15.24-6.38-18.06 0-28.98 14.71-28.98 32.55 0 16.12 9.4 31.36 26.71 31.36 6.04 0 18.91-3.34 20.22-10.7.22-.97.33-1.95 1.61-1.95.98 0 1.41.64 1.41 1.18 0 .87-.32 3.14-.87 10.38-7.56 3.67-17.3 5.51-25.63 5.51-21.51 0-36.65-11.14-36.65-33.73 0-23.91 20.33-39.03 43.03-39.03 6.28 0 12.54 1.51 18.39 3.78-.75 9.63-.97 9.73-2.38 9.73m38.82 27.91v-3.14c0-6.81-.22-10.93-7.35-10.93-2.49 0-5.3.75-7.36 2.17 0 5.95-2.6 10.81-7.35 10.81-1.95 0-3.8-1.41-3.8-3.46 0-8.54 14.5-13.94 24.12-13.94 12 0 13.08 3.35 13.08 15.13v16.66c0 8.44 1.28 10.26 7.58 11.35l-4.23 6.38c-2.81 0-10.49-.32-13.85-8.86-4.43 3.56-11.24 8.86-17.29 8.86s-10.17-4.43-10.17-10.59c0-10.49 13.19-14.93 21.08-18.17l5.52-2.26Zm0 3.89-1.95.75c-6.26 2.49-13.3 6.6-13.3 13.08 0 3.24 1.73 5.73 5.19 5.73 3.89 0 7.45-2.49 10.06-5.3V284.5Zm39.04-14.6c5.84-4.34 11.14-7.79 16.98-7.79 8.54 0 13.08 5.07 13.08 14.92v14.6c0 12.53.43 15.02 3.46 15.02h4.1v3.24h-23.89v-3.24h3.03c1.18 0 1.94-.11 1.94-1.72v-22.49c0-7.36 0-13.53-8-13.53-3.79 0-7.57 2.06-10.71 4.98v17.73c0 12.53.44 15.02 3.46 15.02h3.8v3.24h-24.43v-3.24h3.88c1.2 0 1.95-.11 1.95-1.72v-22.06c0-10.92 0-15.69-3.67-15.69h-4.55v-3.24c6.49-.54 13.09-.96 19.57-1.83v7.79Zm90.07-2.81h-2.26c-1.72 0-2.49.32-3.13 1.83-3.69 9.09-11.69 24.77-29.85 66.08a57 57 0 0 1-12.11 1.94c-.97 0-1.51-.43-1.51-1.41 0-.85.97-1.29 2.16-1.83 5.51-2.49 11.78-9.52 18.39-24.12l-13.85-29.84c-4-9.09-5.84-12.65-8.54-12.65h-2.26v-3.24h24v3.24h-4.22c-1.18 0-1.74.11-1.74.97 0 .97 4.23 9.29 12.87 28.98 8.54-20.22 10.81-26.06 10.81-27.78 0-1.84-.86-2.17-2.92-2.17h-4.65v-3.24h18.82v3.24Zm45.75 36.33a31.1 31.1 0 0 1-21.09 8.22c-14.38 0-21.84-10.49-21.84-23.9s8.1-25.63 22.59-25.63c10.28 0 15.89 6.92 19.9 15.58l-30.71 8.1c.54 10.16 4.32 20.11 16.12 20.11 5.18 0 9.4-1.84 13.4-4.97l1.63 2.48Zm-30.5-21.19 18.06-4.98c-1.62-4.21-4.75-11.56-10.05-11.56-6.93 0-8.98 11.57-8.77 16.75zm53.32 9.41c0 12.54.44 15.02 3.46 15.02h4.75v3.24h-25.4v-3.24h3.88c1.2 0 1.96-.11 1.96-1.73v-45.73c0-16.99-.98-19.91-3.58-19.91h-4.54v-3.24c6.49-.66 12.98-1.3 19.47-2.38zm29.84 0c0 12.54.44 15.02 3.46 15.02h4.75v3.24h-25.41v-3.24h3.9c1.18 0 1.94-.11 1.94-1.73v-45.73c0-16.99-.97-19.91-3.57-19.91h-4.53v-3.24c6.49-.66 12.96-1.3 19.45-2.38v57.97Zm54.93 11.78a31.1 31.1 0 0 1-21.09 8.22c-14.39 0-21.84-10.49-21.84-23.9s8.1-25.63 22.6-25.63c10.27 0 15.89 6.92 19.89 15.58l-30.71 8.1c.54 10.16 4.34 20.11 16.11 20.11 5.19 0 9.41-1.84 13.42-4.97l1.62 2.48Zm-30.5-21.19 18.07-4.98c-1.64-4.21-4.77-11.56-10.06-11.56-6.93 0-8.98 11.57-8.76 16.75zm70.07-10.06-1.29 1.3c-.97 0-1.3-.75-1.62-1.51-1.84-4.23-7.58-5.62-11.68-5.62s-9.84 1.84-9.84 6.81c0 10.16 27.9 4.66 27.9 21.95 0 12.22-13.3 16.55-23.35 16.55-4.63.03-9.23-.7-13.63-2.16l-1.51-8.44c-.21-1.41.32-2.38 1.61-2.38s1.52.87 1.95 2.28c1.29 4.63 8 6.49 12.76 6.49 5.08 0 12.44-1.95 12.44-8.22 0-10.71-27.9-4.54-27.9-21.96 0-8.1 8.1-15.14 20.54-15.14 4.33 0 8.97.66 12.87 2.49l.75 7.57ZM156.67 66.79c-.03.37-1.04.46-1.32.48-2.92.21-5.97.39-8.87.49-1.32.05-2.65-.05-3.97-.01l1.8-.48c4.14.11 8.23-.38 12.36-.48m0 2.39-13.92.72c-.31-.27-.04-.46.36-.48 1.2-.06 2.41.06 3.6 0 3.07-.15 6.15-.46 9.24-.62.37-.02.59-.12.72.38m0 2.16c-4.56.35-9.12.48-13.68.72l.36-.48 12.67-.56.66.32Zm-.24 1.69-.36.48-12.84.48 1.56-.48c3.91.11 7.76-.33 11.64-.48m0 2.4-12.96.72.35-.48 12.49-.72zm-.24 1.68c.31.27.04.46-.36.48-4.1.21-8.23.5-12.36.48l2.28-.48c3.51.08 6.96-.23 10.44-.48m-.48 3.84c.31.27.04.46-.35.48-3.94.19-7.91.51-11.88.48l1.8-.48c3.5.05 6.97-.2 10.44-.48Zm-.48 2.4-.83.49-11.17.47.35-.48zm.72-4.08-1.34.45c-2.96.15-5.89.16-8.86.26-.74.02-1.63.66-2.28-.12l12.48-.6Zm-1.92 8.16c.1.67-.11.45-.59.48-3.55.21-7.12.39-10.68.48-.31-.27-.04-.46.36-.48 3.63-.18 7.31.02 10.92-.48Zm.48-1.92-1.8.48c-3.26-.1-6.45.42-9.72.24l2.52-.48zm-1.68 5.76-1.56.48-9.24.24c.09-.44.47-.45.83-.49 1.95-.2 4.65-.14 6.73-.23 1.08-.04 2.17.03 3.24 0m.48-1.68c.31.27.04.46-.36.48-.96.05-1.93-.06-2.88 0-2.26.14-4.56.22-6.84.37-.41.03-.62.25-.95-.25l11.04-.6Zm-.96 3.36c-.09.43-.47.45-.83.49-3.23.32-6.49.1-9.73.47l.36-.48z"/><path d="M127.39 97.75c-20.83-.3-50.19-2.07-69.6-9.96-4.46-1.81-12.79-5.88-11.98-11.74.17-1.2 1.49-2.35 1.56-2.89.04-.33-.73-3.6-.92-4.03-.34-.8-1.61-1.19-2.11-1.97-.46-.73-.3-1.86-.52-2.24-.05-.08-1.23-.77-1.5-1.02-1.49-1.36-2.49-3.03-2.26-5.13.08-.73.9-2.8.86-3.15-.02-.2-1.02-1.1-1.12-1.93-.19-1.51 1.12-2.09.47-3.81-.41-1.08-2.04-1.69-2.87-2.65-2.2-2.55-1.6-4.95.48-7.32H34.4c-.55 0-3.25-1.06-3.88-1.4-8.33-4.39-8.46-16.87-.24-21.45 9.28-5.16 20.28 2.9 18.05 13.25-.21.98-.63 1.89-.85 2.87.58-.28 1.16-.62 1.82-.7.99-.13 1.82.27 2.56.18.78-.1 2.18-.79 3.06-1.04 15.24-4.34 30.76-6.87 46.56-8.28l-3.25-2.39C92.41 14.64 94.17 4.3 102.28.98c10.4-4.27 20.23 6.16 16.01 16.36 3.09-.85 5.63 1.68 5.04 4.8 4.42-.2 8.87-.33 13.33-.25 9.63.18 19.44.74 29.03 1.69 3.88.38 7.77.98 11.64 1.44-6.55-6.26-5.03-17.35 3.6-20.76 10-3.94 19.58 5.61 16.09 15.61l-1.45 2.99c3.8-.65 6.37 2.9 4.32 6.24 3.12.8 6.28 1.57 9.36 2.52 2.43.75 4.82 1.63 7.2 2.52-.29-1.11-.98-1.99-1.32-3.12-1.78-5.9 1.09-12.18 6.75-14.61 10.79-4.63 21.38 6.85 15.49 17.17-1.53 2.67-3.79 4.18-6.52 5.48 1.69 2 1.22 5.33-1.28 6.41-.66.28-1.51.27-2.07.57-.71.37-1.97 1.96-2.86 2.42-.27 1.28.53 2.02.46 3.33-.05 1.02-.67 1.48-.74 2.17-.12 1.26.46 3.08.19 4.72-.39 2.29-2.43 3.1-3.17 4.51-.33.63-.25 1.63-.64 2.24-.44.68-1.76.9-2.09 1.51l-1.18 4.97c6.21 8.99-6.41 14.37-13.13 16.72-20.17 7.05-47.07 8.8-68.29 9.11-2.87.04-5.77.04-8.64 0ZM105.73 2.29c-3.61.43-7.15 3.41-8.28 6.84-2.92 8.85 7.11 16.75 14.98 11.62 8.95-5.83 3.86-19.73-6.7-18.46m78.24 3.36c-5.96.82-9.99 7.34-8.11 13.03 2.62 7.95 13.32 9.7 17.97 2.59s-1.23-16.81-9.86-15.62m-148.31 12c-4.06.35-7.92 3.41-8.95 7.37-2.75 10.61 10.58 17.38 17.52 8.88 5.5-6.73-.13-16.98-8.57-16.26Zm189.83 0c-3.45.42-6.82 3.1-8.05 6.35-3.53 9.34 7.71 17.44 15.42 11.34 8.19-6.48 2.62-18.89-7.37-17.69m-106.81.71c-2.06.44-2.89 3.47-1.38 4.88 1.02.95 2.59 1.2 3.73.35 2.71-2.01.73-5.88-2.35-5.23m-3.05 4.02-.24-.96-1.2.84zm80.58 1.49c-4.61.7-2.26 7.87 1.82 5.44 2.77-1.65 1.06-5.88-1.82-5.44m.54 6.92c-1.25.29-2.02-.57-3.06-.9-3.32-1.03-8.64-1.65-12.21-2.19-9.87-1.5-19.8-2.36-29.73-2.91-.41-.02-.79-.22-1.2-.24-7.3.2-15.07-.95-22.33-.49-.61.04-1.17.27-1.79.25 1.19 1.48 1.07 3.09.48 4.8 1.35-.47 2.53 1.02 3.49 1.19 1.05.19 2.67-.05 3.83 0 5.75.28 11.54.41 17.28.72 15.41.83 30.76 2.48 45.85 5.99.14.03.39.07.35-.11-.65-.41-1.1-1.35-1.57-1.79-.63-.59-10.14-2.11-11.78-2.38-3.13-.5-6.3-.89-9.45-1.23-.02-.46-.11-.49.37-.49.62 0 1.68.19 2.37.28 6.17.76 12.28 2.03 18.39 3.09-.14-.51-.15-1.45-.64-1.64-3.52-.62-7.02-1.35-10.55-1.93-2.96-.48-6.19-.68-9.09-1.23-.35-.07-.74 0-.84-.48 7.05.68 14.07 1.84 20.98 3.37l.86-1.69Zm-74.47-6.44c-1.27.28-2.07 2.15-1.74 3.32.86 3.07 5.38 2.74 5.66-.36.22-2.38-1.76-3.43-3.92-2.96m-2.57.92c-1.22.15-2.05-.63-3.23-.73-2.46-.22-5.67.33-8.17.49-18.39 1.22-36.83 3.68-54.44 9.16l-.38.31.58 1.81c9.81-3.35 20.02-5.58 30.27-7.17 4.24-.66 8.9-1.38 13.16-1.72.26-.02 1.34-.17 1.33.25-13 1.54-26.08 3.37-38.64 7.08-1.52.45-4.59 1.17-5.84 1.84-.5.26-.49 1.11-.64 1.64.34.05.65-.03.97-.11 2.78-.63 5.93-1.94 8.82-2.7 11.62-3.08 23.63-4.84 35.57-6.07-.04.32-.32.43-.6.47-2.35.37-5 .43-7.41.75-12.07 1.61-24.09 3.93-35.67 7.66l2.29 1.2c13.23-3.81 26.87-5.9 40.55-7.45l8.16-.72 15-.72-1.2-1.08c-.99-1.2-.85-2.78-.48-4.2Zm72.96.48c-.08-.09-1.63.78-1.85.91s-.53.22-.55.53l2.4.24zm-65.82 4.36c-4.71.6-2.19 7.79 1.73 5.35 2.69-1.68 1.1-5.71-1.73-5.35m72.72.48c-.71.09-1.54.59-1.97 1.17-2.38 3.19 2.45 6.54 4.67 3.23 1.33-1.98-.47-4.69-2.7-4.4m7.55 8.78c5.67 1.74 11.32 3.7 16.44 6.74.6.11 2.3-1.39 2.43-2.06.52-2.71-5.7-5.88-7.72-6.83-4.62-2.16-9.6-3.46-14.45-4.99-.19.49-.26 1.73.12 2.04 4.52 1.28 9.1 2.51 13.44 4.32 2.31.96 4.94 2.08 6.72 3.84l-4.71-2.49c-5.01-2.26-10.3-3.74-15.57-5.26l-.83 1.39c4.31 1.09 8.64 2.28 12.78 3.9 1.33.52 8.17 3.46 8.58 4.38.06.14.04.41-.12.36-.46-.15-1.46-1.01-2.04-1.32-5.01-2.77-10.54-4.36-15.97-6.11l.89 2.1Zm-84.06-6.66c-17.64.57-35.5 2.12-52.8 5.87-3.86.84-7.65 1.95-11.51 2.77l-.25 2.39c5.84-1.67 11.75-3.08 17.71-4.25 1.38-.27 8.13-1.17 8.68-1.64.25-.21.33-.62.61-.83.45.54.69.76 1.43.73 3.39-.12 7.33-1.29 10.81-1.46l2.28.12-13.2 1.92c.72.81.9 1.1 2.04 1.1 2.94 0 6.56-1 9.6-1.22.6-.04 1.2.02 1.8 0l-.72.48c4.26 1.3 6.04 6.08 4.2 10.08-.5 1.08-1.41 1.78-2.04 2.76-3.73.89-7.55 1.41-11.36 1.84-.26.16-1.41 1.52-.52 1.4 3.99-.56 7.99-1.31 12.01-1.68.51-.05.45.08.13.37L89.7 55.12c-.88.1-1.1.78-1.19 1.57 3.95-.45 7.92-1.33 11.88-1.68.53-.05 1.86-.34 2.04.24-9.69.98-19.31 2.6-28.78 4.82l-.02 1.66c4.54-.95 9.06-2 13.63-2.81 8.32-1.47 16.72-2.37 25.13-3.19L125.1 55h6.37l-.41-1.2-19.34-9.16-.89-.19 13.8-8.16-1.14-1.51-.43-2.08Zm76.31 6.97c-5.13-1.17-10.3-2.26-15.49-3.1-10.98-1.79-22.03-2.8-33.09-3.39-.41-.02-.79-.22-1.2-.24h-4.32l-1.43-.25h-12.13l20.64 11.29-.31.53-12.89 6.31c1.14 1.15.99 2.72.72 4.2h6.85c19.09 1.22 39.13 2.36 57.3 8.93.33.12 1.24.84 1.1.1-.08-.44-.23-1.13-.6-1.32-10.15-2.95-20.6-4.89-31.12-6.08l-.41-.43c10.73 1.2 21.46 3.11 31.8 6.24l.36-1.44c-7.23-1.86-14.59-3.45-21.99-4.53-1.14-.17-5.42-.93-6.15-.7-.29.09-.48.52-.88.42-.29-1.37-2.28-.51-3.13-1.31l2.64.12c-.45-1.51-.7-1.9-2.4-1.68l1.08-.24.12-.48c-1.46-.11-2.96-.27-4.41-.51-2.25-.37-5.73-.62-7.21-2.39-2.6-3.09-2.19-7.75.95-10.3 2.25-1.82 3.78-1.47 6.48-1.21 2.16.21 4.32.67 6.47.96l1.33-.96c-1-.19-2.02-.26-3.01-.48-.42-.09-.7.24-.59-.48 1.97.25 4.39 1.42 5.4-.96l1 1.92c2.11.37 4.26.63 6.36 1.03 3.88.73 8.3 2.06 12.08 2.56.54.07.3.04.24-.24-.15-.68-.13-1.23-.14-1.9ZM49.08 33.72c-3.89.81-1.9 7.48 2.16 5.52 3.03-1.47 1.71-6.33-2.16-5.52m99.67 10.27-17.28-9.48-.96.48 2.76 1.31c.76.68.93 2.01 1.56 2.52 1.94 1.57 6.38 3.43 8.79 4.89.24.15.51.27.8.28l-7.29 3.63-.87 1.41 1.68.38 10.24-4.89.55-.52Zm-18.54-7.64c-.79.1-1.91.86-2.35 1.51-1.94 2.89 2.35 6.22 4.69 3.73 1.9-2.02.32-5.59-2.35-5.25Zm-11.46 7.64c1.01-.56 7.48-3.95 7.64-4.48.12-.39-.02-.91.08-1.36.09-.41.51-.66.43-1.13l-12.48 7.2 17.04 7.92.72-1.92c-.41.03-.76-.03-1.13-.19-3.09-1.27-6.12-3.21-9.27-4.41l-3.03-1.64Zm-68.16-3.36c-1.84.16-3.32-.5-4.28-2.08-.25-.42-.22-.96-.64-1.28-2.09 1.17-8.03 4.07-7.47 6.96.2 1.03 1.44 1.74 2.07 2.53l.31.08c2.99-1.99 6.2-3.6 9.61-4.75l.39-1.46Zm151.85-3.07c-2.85.6-2.63 5.03.2 5.45 4.66.7 4.6-6.46-.2-5.45m-117.77.91c-8.07 1.37-16.42 2.71-24.24 5.16-.23.07-.55.04-.48.35.84-.1 1.71.75 2.45.68 2.23-.21 5.86-1.52 8.3-2.04 4.38-.93 8.83-1.63 13.19-2.53l.77-1.62Zm118.08 5.76c-1.39.02-1.92-1.13-2.76-1.69-1.38-.92-10.1-2.4-12.32-2.8s-4.35-.71-6.53-1.03c-.26.24.84 1.3 1.13 1.39 3.12.64 7.03.88 9.98 2.02.58.23.96.66 1.55.85 2.38.78 5.46.88 7.89 1.73l1.05-.47ZM53.64 39.48c-1.05.24-2.35 2.01-2.28 3.13.2 2.89 4.03 4.21 5.67 1.7s-.51-5.49-3.39-4.83m126.87 1.55c-.26-.24-.99-1.6-1.16-1.6-.44.41-1.09 1.03-1.63 1.25-1.26.52-6.01-.61-7.73-.77-.9-.08-2.47-.3-3.26-.13-3.51.76-4.95 5.41-2.97 8.28.19.28 1.05 1.18 1.32 1.32.9.48 3.98.85 5.18 1.06 2.48.44 5.37-.09 6.46 2.69.63.07 1.25-.89 2.02-1.1 1.76-.48 7.04 1.1 9.28 1.3 2.06.18 3.26.08 4.65-1.54 1.74-2.03 1.89-4.81.24-6.96-.7-.91-1.34-1.14-2.4-1.44-2.08-.6-8.89-1.32-10.01-2.35Zm47.68 3.68c1.96-.4 3.15-2.18 2.28-4.08-.99-2.15-2.64-.77-4.44-.96 1.36 1.46 2.47 2.9 2.16 5.04m-142.32-4.8c-.25.91-.97 1.71-1.75 2.22-2.97.78-6.33.87-9.25 1.79-2.04.64-3.54 3.31-3.36 5.4.14 1.63 2 4.24 3.68 4.5 2.5.38 6.3-.95 8.89-1.16 1.75-.14 2.45.02 3.57 1.41.72-.88 1.05-1.95 2.27-2.29 2.98-.82 6.91-.63 9.96-1.56 2.25-.69 3.04-3.72 2.75-5.85-.2-1.5-1.92-3.73-3.47-3.97-2.84-.42-6.5.75-9.35.95-1.94.14-2.62-.05-3.96-1.44Zm136.54 9.1c.16-.23 0-.83-.2-1.08-.16-.2-2.29-1.36-2.73-1.59-3.92-1.99-8.26-3.38-12.49-4.53l-.87 1.34c.03.52 7.6 2.88 8.7 3.3 1.6.61 5.08 2.55 6.36 2.79.28.05 1.15-.08 1.24-.22ZM73.39 42.55l-10.8 2.52c.47.38.54 1.23 1.26 1.05l7.68-1.89zm58.73.77c-.72.15-1.55.81-1.9 1.46-1.7 3.17 2.63 6.3 5.09 3.41 2.03-2.38-.2-5.5-3.19-4.87m69.67 1.87-7.68-1.68.89 1.44c2.12.39 4.2 1 6.32 1.33zm-150.97-.96c-3.05.95-5.83 2.56-8.59 4.12l.49 2.31 16.51 4.01-10.62 12.91c-.44.97.68 2.65.54 3.77.22.25 2.53-1.48 2.96-1.72 4.17-2.34 8.81-4.06 13.36-5.48-1.1-1.4-1.45-3.13-.72-4.8-3.96.45-6.37-3.12-4.8-6.72-3.43.46-5.49-2.91-4.56-6-1.86.22-4.09-.38-4.57-2.4m153.78.29c-4.04.85-1.84 7.86 2.36 5.47 3.02-1.72 1.19-6.22-2.36-5.47m-133.61.19c-1.91.79-5.33.83-7.04 1.72-.14.07-.32.13-.34.31.29.65-.03 1.33.84 1.17 1.93-.36 3.81-1.09 5.77-1.32l.77-1.87Zm-11.4.36c-3.63-.07-4.59 5.18-1.02 6.41 4.52 1.56 6.16-6.32 1.02-6.41m160.92 4.2c-3.87-1.55-7.67-3.37-11.76-4.32l.88 1.93c1.28.33 2.56.73 3.8 1.19 1.98.73 5.39 2.88 7.07 1.21Zm-19.2-.96c-.03-.43.16-1.33-.23-1.57l-5.77-1.31.27 1.64 5.72 1.24Zm-131.28-1.2-5.96 1.24-.28 1.64 5.76-1.32zm147.84 3.12-8.4-2.88c.02.4-.14 1.09.23 1.33s2.79.83 3.49 1.07 2.68 1.22 3.24 1.11l1.43-.62Zm-16.37-1.4-5.71-1.25.23 1.57c2.18.29 4.26 1.05 6.38 1.54.13.03.39.07.35-.11-.6-.18-1.12-1.66-1.25-1.75m-131.71.2-3.84.83-1.67.6c.97-.18 1.63.7 2.52.74.5.02 3.12-.49 3.22-.88zm145.44 1.92-6-1.82-.72.98c.15.23.34.29.58.38 1.17.45 3.81 1.28 4.95 1.07.24-.04 1.17-.28 1.19-.61m-10.56.72-8.99-2.17-.27 1.46 7.97 1.9c.46.19 1.53-.88 1.29-1.19m-69.18-1.63c-2.86.19-4.19 3.84-2.08 5.81 2.74 2.55 7.07-.97 4.98-4.26-.55-.86-1.86-1.62-2.9-1.55m87.17.67-10.77 3.13c.05 1.34-.02 2.4-.47 3.65l6.12 7.15c1.11-.01 1.89-1.15 1.41-2.18l-6.84-6.72 9.91-2.69c.83-.63 1.1-1.38.64-2.34m-152.41.25c-.49.06-3.11.45-3.1.83l.64.85 2.96-.49zm-6.3.54c-5.34.17-3.54 8.6 1.28 6.52 3.57-1.54 2.09-6.63-1.28-6.52m139.76 1.85-8.84-1.89c-.01.35-.44.63-.51.81-.18.45.18.31.35.36 2.7.81 5.89 1.01 8.62 1.93l.39-1.22Zm8.64-1.44-1.92-.48c.12.28.62.86.87.91.1.02 1.13-.1 1.05-.43m-5.1-.19c-3.92.62-3.23 6.83.88 6.42 1.15-.12 2.5-1.45 2.73-2.56.44-2.06-1.53-4.18-3.61-3.86M56.11 55.51l-13.14-3.08c-1.71.17-.61 1.83.36 2.31 1.55.77 6.16 1.44 8.17 1.91.33.08.68.07 1.02.06.09.36-.08.39-.24.6-1.73 2.27-4.09 4.33-5.97 6.51-.62.97-.22 2.84 1.14 2.7l8.67-11.01Zm15.84-1.69-1.06-1.37-2.78.65.24 1.44zm131.48 1.24-9.26-2.15c-.5-.02-1.08.97-1.51 1.27l10.92 2.52-.15-1.65Zm-23.84-1.47v.24q.24-.12 0-.24M74.35 55.27l-2.17-1.1-3.81.88-.26 1.41c.73-.14 1.49.2 2.17.14.77-.07 2.91-.61 3.72-.85.34-.1.42.15.35-.48m131.24 5.24.52-.8c-.15-.23-.34-.29-.58-.38-1.86-.73-5.04-1.31-7.09-1.79-3.15-.73-6.37-1.39-9.56-1.96-2.57-.46-7.13-1.53-9.53-1.54-.98 0-1.17.48-1.8 1.1 7.14 1.17 14.3 2.27 21.36 3.84.91.2 6.36 1.75 6.68 1.52ZM86.35 55.26c-.43-.82-.89-1.01-1.79-.96-2.12.11-5.89.86-8.1 1.27-1.83.34-3.63.94-5.47 1.25l1.75 1.27zm120 3.61c-1.15.2-1.77-1.37-2.33-1.63-1.7-.8-8.18-2.01-10.34-2.38-.44-.08-1.47-.32-1.8-.27-.43.07-1.63.57-2.09.8 5.35.92 10.58 2.24 15.83 3.61.24.06.78.32.73-.13m-17.16-3.84v.24q.24-.12 0-.24m-101.4 1.92c-.15-1-.9-1.25-1.79-1.21-2.71.14-7.63 1.4-10.45 2.04-.71.16-1.64.34-2.3.58-.23.08-.45-.11-.31.36.1.33.5.67.47 1.1l14.39-2.88Zm46.8.72c-.57-.11-.94-.42-1.55-.49-4.16-.48-9.91.25-14.17.49-9.94.56-19.83 1.5-29.69 3.19-4.65.8-9.3 1.8-13.87 2.93 1.96.97 3.17 2.69 3.24 4.92 3.97-.95 8-1.73 12.04-2.36 8.68-1.37 17.4-2.15 26.13-2.67.41-.02.79-.22 1.2-.24l14.28-.48c-.15-2.22.9-3.79 2.4-5.28Zm71.76 9.6c-5.68-2.17-11.52-3.91-17.47-5.21-11.66-2.55-23.54-3.73-35.45-4.39-.48-.03-.93-.28-1.43-.25h-4.09l-1.43-.24h-7.09l1.8 1.21c1.22 1.25 1.75 3.06 1.56 4.8h7.09c17.03 1 34.3 2.43 50.75 7.32 1.09.32 2.14.74 3.22 1.09.47-1.22.8-2.37 1.69-3.38.39-.44 1-.32.85-.94ZM68.04 57.72c-.69.14-1.7.93-2.06 1.54-1.94 3.27 1.8 6.95 4.99 4.75s.99-7.12-2.93-6.29m68.4.48c-1.12.24-2.12 1.18-2.61 2.19-2.01 4.1 2.91 7.85 6.29 5.09s.79-8.21-3.67-7.27Zm72.73 1.2c-3.68.27-4.33 5.49-.67 6.55 1.93.56 4.05-1.14 4.11-3.13.05-1.82-1.56-3.56-3.44-3.43Zm4.74 3.55-.11.11.6.6.11-.11zm2.52 3.6c.52-.62-1.97-3.15-2.88-2.88l-.24 1.19zM73.09 64.68c-5.04.8-3.89 8.47 1.57 7.34 4.18-.87 2.99-8.06-1.57-7.34m112.62 4.51c-.87-.46-1.81-.55-2.79-.7-7.47-1.1-15.06-1.58-22.53-2.67h-4.56l-6.47-.49h-7.21c-1.77 1.41-3.05 2.45-5.46 2.11-2.18-.31-3.05-2.19-3.9-2.33-.51-.09-1.37-.03-1.92 0-4.63.25-9.3.45-13.92.72-1.91.11-3.85.12-5.76.24l-15.48 1.68 2.52.48 4.2.24-.61.49-8.15-.84-5.88.83 1.59.45 12.33 1.23-.4.45c-3.17-.39-6.36-.62-9.54-.96-3.46-.37-6.51-1.27-9.98.03l1.83.45c5.63.63 11.35 1.73 17.01 1.95.4.02.66.22.35.48-6.95-.62-13.89-1.4-20.76-2.6-.34.03-3.46.55-2.76 1.16 5.21.92 10.48 1.76 15.74 2.38 2.13.25 4.3.3 6.44.52.23.02.9.11.86.46-7.85-.48-15.67-1.61-23.41-3.02l-2.03 1.34c7.13 1.22 14.28 2.34 21.48 3.12 1.01.11 2.05.11 3.12.25.45.06.71-.24.61.47-9.31-.77-18.48-2.26-27.66-3.9-.43-.08-.82-.34-1.28-.4-1.26-.17-2.02.42-3.22.46-.07.63 0 .38.35.48 8.01 2.37 17.85 3.4 26.17 4.31 1.79.2 3.58.62 5.4.48.2.7-.6.53-1.08.48-10.75-1.07-21.48-2.59-31.96-5.2-.7.17-1.85.18-2.24.88 7.82 1.84 15.69 3.47 23.67 4.53 3.74.5 7.51.76 11.25 1.24.45.06.71-.24.61.47-10.33-.99-20.61-2.4-30.72-4.67-1.5-.34-4.41-1.45-5.68-1.49-.47-.02-1.73.55-2.23.78-.23.1-.55.01-.48.35 9.15 2.63 18.53 4.49 27.99 5.73 3.69.49 7.63.61 11.25 1.24.43.07.71-.26.6.47-3.75-.52-7.59-.75-11.37-1.23-8.14-1.04-16.28-2.53-24.2-4.6-1.45-.38-3.63-1.34-4.97-1.5-.52-.06-1.33.64-1.94.61 0 .23.22.34.41.43 2.17 1.05 6.22 2 8.66 2.62 11.2 2.88 21.88 3.75 33.27 5.13.33.04 1.55.19 1.47.69l-17.01-1.94c-9.27-1.52-18.6-3.13-27.4-6.45-.52-.03-1.54.46-1.78.96 14.03 5.32 29.14 7.4 44.04 8.88 1.1.11 2.2.1 3.36.25.45.06.71-.24.61.47-14.78-1.41-29.9-3.02-44.04-7.67-1-.33-3.59-1.61-4.33-1.69-.52-.06-1.03.16-1.47.43-.25.15-.42-.03-.31.53 2.42.83 4.79 1.91 7.26 2.71 14.48 4.71 29.42 5.89 44.48 7.36.36.04.74.06.83.49-17.9-1.47-36.44-3.25-53.02-10.44-.37-.14-1.23.51-.97.84 11.3 5.06 23.88 7.49 36.15 9.1 6.31.83 12.63 1.05 18.94 1.7.36.04.74.05.83.49-10.61-.64-21.26-1.72-31.73-3.67-8.4-1.56-17.02-3.64-24.65-7.5-.35-.08-1.07.32-.98.73.13.54 6.57 3.13 7.55 3.49 13.61 4.94 30.91 7.02 45.36 8.16 2.34.18 4.79.06 7.08.48.06.42-.54.23-.84.24-1.98.07-4.26-.34-6.24-.48-11.37-.83-22.82-2.09-33.97-4.67-5.92-1.37-12-3.09-17.4-5.88l1.64 1.24c11.76 5.56 25.34 7.96 38.23 9.53 21.74 2.66 44.46 2.84 66.21 1.22 15.06-1.12 41.05-3.83 53.72-12.04.39-.25 2.3-1.64 2.45-1.87.25-.39-.12-.79-.47-.71-.23.05-2.73 1.85-3.34 2.19-4.64 2.55-10.57 4.35-15.71 5.65-6.77 1.71-13.77 2.91-20.69 3.67-.06-.32.44-.38.66-.42 8.73-1.58 16.93-2.55 25.5-5.22 4.54-1.41 9.5-3.23 13.2-6.24.19-.45-.65-.59-.96-.5-.44.12-1.36.94-1.91 1.23-4.8 2.53-10.06 4.22-15.31 5.57-6.14 1.58-12.42 2.52-18.66 3.66-.17-.37.54-.6.78-.66 3.53-.93 8.11-1.25 11.87-2.05 5.08-1.08 10.53-2.46 15.37-4.31 1.04-.4 7.61-3.19 7.61-3.9-.93-1.18-2.23.32-3.27.81-7.26 3.44-15.44 5.44-23.32 6.92-2.31.43-4.67.91-7.01 1.03-.06-.33.43-.36.66-.41 2.94-.63 6.01-.96 8.98-1.58 7.76-1.61 15.44-3.77 22.51-7.37.16-.47-.27-.64-.65-.66-1.71-.11-4.45 1.5-6.18 2.11a112.2 112.2 0 0 1-23.16 5.51c-.06-.33.43-.36.66-.41 2.82-.59 5.69-.96 8.5-1.58 6.05-1.33 12.02-3.04 17.71-5.45l-1.93-.85c-7.52 3.06-15.52 4.72-23.5 6.13.09-.42.6-.52.95-.61 1.94-.51 4.24-.74 6.26-1.18 5.37-1.19 10.65-2.64 15.84-4.45.27-.2-.84-1.44-1.3-1.2-6.66 2.42-13.6 3.92-20.54 5.28-.09-.51.04-.49.47-.6 3.64-.89 7.42-1.4 11.1-2.35 3.06-.79 6.1-1.75 9.07-2.82-.21-.63-1.62-1.14-2.18-1.08-1.27.13-3.55 1.12-4.96 1.49-4.2 1.1-8.47 2.19-12.77 2.71l17.04-4.32c-.07-.36-1.08-.61-1.37-.66-1.52-.26-6.99 1.55-8.94 1.99-2.15.48-4.34.8-6.48 1.32-.11-.64.11-.42.52-.54 2.22-.65 4.85-.96 7.16-1.49 2.09-.48 4.15-1.1 6.23-1.57l-2.72-.88-10.96 2.32c-.11-.72.16-.39.59-.48 3.08-.65 6.17-1.26 9.25-1.92-.62-.82-2.09-.65-3-.96l-6.84 1.44c-.1-.57.06-.46.47-.59 1.58-.52 3.56-.41 5.04-1.21-1.82-.38-3.66-.91-5.52-.36l.48-.72Zm30.43-2.36c-.13-.18-2.53-1.56-2.82-1.63-.43-.1-1.15.53-.18 1.15.42.27 2.44 1.55 2.69 1.63.57.17.43-.97.31-1.15m-146.83-1c-.41.06-.83-.16-1.23-.11-1.39.16-4.33 1.33-5.79 1.85-3.38 1.21-12.96 4.95-14.15 8.41-.4 1.16.04 2.96 1.12 3.53 5.79-4.46 13.13-6.58 20.06-8.63-.76-1.67-.61-3.35 0-5.04Zm146.4 4.32c-.12-.63.52-1.29 0-1.8-.37-.36-3.09-1.94-3.54-2.01-.52-.09-.79.42-1.26.45l1.9 1.1zm-7.03-2.35c-6.35 1.08-3.15 10.9 2.59 7.87 4.22-2.23 1.94-8.64-2.59-7.87m8.23 8.59c.08-.66-.18-1.24-.47-1.81-.15-.29-1.55-2.46-1.93-2.03l-.72 2.4zm-.24 1.92c.88-1.88-1.79-2.27-3-3.05l-.59.54 3.59 2.52Z"/><path d="M193.39 11.59c.08.89.59 1.64.7 2.54.83 6.95-5.74 12.09-12.12 8.99l.14-.97c6.55 3.06 13.34-3.43 10.11-9.96z"/><path d="M190.02 12.07c2.63 3.99-.18 9.54-5.14 8.86-.62-.08-1.17-.5-1.82-.46l.24-1.2c3.76 1.78 7.71-1.13 6.36-5.28-.28-.86-1.23-1.56.36-1.92M114.9 8.23c3.22 7.49-3.88 15.02-11.41 11.52l.29-.99c6.77 3.02 13.19-3.69 9.93-10.3l1.19-.24Z"/><path d="M110.99 16.07c-1.55 1.47-4.61 2.1-6.4.68l.62-.82c3.09 1.61 6.97-1.18 6.23-4.6-.17-.78-1.08-1.7-.63-2.27.58-.74.78-.21 1.1.36 1.12 1.94.7 5.1-.93 6.65Zm-67.63 6.58c3.74 5.81.19 13.34-6.82 13.67-.85.04-1.65-.38-2.51-.25v-1.2c7 1.87 12.63-5.71 8.19-11.64.26-.38.64-.74 1.15-.57Z"/><path d="m34.75 32.95.24-1.09c3.72 1.05 7.11-2.63 5.23-6.17-.45-.84-1.61-1.07-.31-2.09 3.02 2.49 2.24 7.7-1.39 9.17-1.42.57-2.31.36-3.77.19Zm189.6 2.87.39-.98c6.12 1.48 11.36-4.4 8.85-10.3-.44-1.03-1.61-1.53.11-2.16.35.94.98 1.71 1.28 2.69 2.04 6.65-4.04 12.55-10.63 10.75"/><path d="M225.31 32.95v-1.2c1.04.1 1.54.34 2.6.07 2.69-.69 4.1-4 2.65-6.4-.22-.37-.99-.86-.91-1.21.87-1.54 1.94.6 2.26 1.54 1.53 4.41-2.15 8.04-6.6 7.2m-55.28 8.24c3.31.53 6.66.86 9.97 1.43 2.25.38 6.17.93 8.18 1.66 4.22 1.53 3.08 7.66-2.12 7.4-5.47-.28-11.84-2.42-17.38-3.01-3.98-1.66-2.92-7.22 1.36-7.47Zm-74.85.69c3.6-.16 5.78 3.86 3.14 6.52-1.29 1.29-4.1 1.5-5.89 1.79-4.53.73-9.12 1.16-13.64 1.97-4.28.05-5.43-5.96-1.45-7.47 1.63-.62 5.35-1.09 7.25-1.39 3.18-.51 7.46-1.28 10.6-1.41Zm112.85 33.07.24-1.2c2.28.87 3.93-.85 3.12-3.11l.96-.14c1.19 3.12-1.26 5.33-4.33 4.45Zm-70.8-9.85v-.95c1.5.2 2.84-.96 2.64-2.51-.12-.91-1.48-1.49.12-2.06 2.17 2.38.55 5.99-2.76 5.52m-63.6 6.25c-.27-1.29.6-1 1.22-1.54 1.05-.91.72-2.12-.23-2.93l.57-1.04c2.41 1.68 1.48 5.55-1.56 5.52Zm-2.9-8.17-1.19-.23c.24-.82 1.04-1.79.6-2.64-.11-.21-1.23-1.17-.24-1.44.76-.2 1.48 1.22 1.55 1.82.13 1.05-.49 1.55-.73 2.49Zm-5.51-10.31c.43 1.07 2.34 3.23-.02 2.77l-.9-1.97c-.05-.37.65-.99.93-.8Zm-3.35-3.6-1.15-.29-.77-2.23.73-.25c.81.78 1.41 1.58 1.2 2.77Zm147.59 3.6c.1.5 1.38 2.69.34 2.87s-.85-1.67-1.52-2.28l1.18-.6Zm-74.15 3.12c-.27-1.23 1.39-.87 1.8-1.68.47-.91-.45-1.84-.36-2.27.13-.66.89-.43 1.24.18 1.24 2.09-.33 4.21-2.69 3.77Zm76.31 4.8c.98 2.49.43 4.61-2.63 4.31-.28-1.28 1.59-.85 1.88-1.85.34-1.14-1.45-2.65.75-2.47ZM56.58 43.5c-1.41.19-.89-.36-1.13-.88-.16-.34-1.44-1.47-.42-1.75.73-.2 2.11 1.86 1.55 2.63m77.53 3.59c.45-.86-.57-1.47-.5-2.24l.83-.36c.96.84 1.71 3.39-.33 2.6m72-1.18.81-.22c.61.32 1.33 2.38.51 2.61-.92.26-1.16-1.76-1.31-2.39Zm-73.93-8.4c.29 1.09 1.08 1.69.49 2.88l-.92-.28c-.02-1.2-1.42-2.47.43-2.6m-80.16-.25-.98-.11-.93-2.04.95-.49c.28 1.06 1.46 1.41.96 2.64m146.17-12.23c.07 1.13.99 1.67.48 2.88-1.51-.03-.9-1.4-1.65-2.28zm-77.72-3.17-.54-1.97.82-.36c.68.14 1.6 3.52-.29 2.32Zm8.36 9.41c-.03 1.04 1.02 1.6.48 2.64l-1.16-.27-.49-1.77 1.18-.6Zm76.07 7.2c.54 1.26 1.48 3.25-.71 2.39.52-1.1-1.22-2.24.71-2.39m-79.45-10.58c-.18.13-.92.05-1.07-.22.15-.73-.19-1.21-.57-1.81l.82-.55c.44.02 1.36 2.21.82 2.58m103.94 12.26c.17 1.07 1.61 3.31-.61 2.41.15-.73-.19-1.21-.57-1.81zm-97.66 332.12-1.53-1.54L0 240.09l1.51-1.53 130.22-131.53L264.34 240.1 131.73 372.28ZM6.1 240.08l125.63 126.06 126.48-126.06-126.48-126.91z"/><path d="M126.21 162.08h-.74l-1.8-1.13c-1-1.43-1.51-3.52-1.99-5.58-.35-1.9-.59-3.82-.69-5.75l.38-1.91.22-.72.25.72.5 1.84c.08 1.52.28 3.56.66 5.55.45 1.94.98 3.96 1.8 5.1l.38.75.43.68.61.44Zm1.16-9.19-.57.05-1.45-.83c-.74-1.13-1.11-2.69-1.46-4.24q-.375-2.145-.51-4.32l.39-1.43.22-.54.25.53.48 1.38c.06 1.13.21 2.64.48 4.13.33 1.44.71 2.94 1.28 3.77l.46 1.12.44.39Zm1.06-8.31-.35.11-.98-.55c-.35-.8-.59-1.65-.7-2.51-.13-.82-.21-1.66-.24-2.49l.42-.83.23-.3.23.3.46.78c.03.63.1 1.49.23 2.32.14.82.32 1.67.57 2.13l-.05.71.2.34Zm2.47-3.58-.23-.25-.45-.66v-3.98l.45-.66.23-.26.23.26.45.66v3.98l-.45.66zm4.15 29.21.63-.38 1.21-1.11c.94-.89 1.94-2.57 2.51-4.41.6-1.85.88-3.79 1.02-5.24l.53-1.77.26-.68.19.69.35 1.86c-.16 1.88-.52 3.74-1.07 5.55-.63 1.98-1.68 3.85-2.93 5.03l-1.96.54-.73-.08Zm.83-7.99.6-.44.44-.68.38-.75c.83-1.13 1.36-3.17 1.8-5.1q.51-2.76.66-5.55l.5-1.85.26-.7.2.72.38 1.9c-.11 1.93-.34 3.85-.69 5.75-.49 2.05-.99 4.14-1.98 5.58l-1.81 1.13h-.74Zm-1.16-9.18.44-.39.45-1.12c.58-.83.96-2.32 1.28-3.77.27-1.49.42-2.99.48-4.13l.48-1.37.24-.53.22.54.39 1.43c-.08 1.45-.25 2.89-.5 4.32-.35 1.56-.73 3.12-1.46 4.24l-1.46.83-.57-.05Zm-1.06-8.32.2-.32-.05-.72c.25-.45.44-1.31.57-2.13.13-.83.2-1.69.23-2.32l.45-.77.23-.3.23.3.42.82c-.03.68-.1 1.58-.24 2.49s-.33 1.8-.71 2.51l-.98.55z"/><path d="m139.71 340.95-.66-2.14c-.01-.05-1.59-5.11-3.47-6.88-1.07-1.01-1.21-2.62-1.37-4.49v-.02c-.16 1.63-.12 3.01-.03 3.49.63 3.3-2.08 7.3-2.2 7.47l-1.13 1.66-.08-2c0-.05-.21-4.66-1.44-7.11-.67-1.34-1.25-3.12-1.66-4.57a22.7 22.7 0 0 0-.42 5.09c.11 2.92-3.87 6.79-4.33 7.23l-1.65 1.56.54-2.2s.94-3.88.69-6.29c-.1-.94-.43-2.22-.67-3.07-1.09.76-3.08 1.89-4.74 1.58-1.98-.39-5.56-.17-5.59-.16l-2.31.15 1.88-1.36c.29-.21 2.94-2.11 4.54-2.37.73-.13 1.61-.85 2.21-1.45-1.7-.86-5.76-2.86-7.7-3.32-2.8-.67-4.63.08-7.32 1.4l-2.21 1.08 1.36-2.05c1.83-2.77 3.69-4.67 7.25-5.62 2.14-.53 4.53.38 6.84 1.27 2.31.9 4.5 1.75 6.22 1.14 1.88-.63 4.04-2.96 4.63-3.63l.24-20.68c-3.02-.29-7.89-1.07-10.74-3.11-3.73-2.67-4.45-6.18-5.21-9.89-.44-2.13-.89-4.34-1.94-6.57-2.25-4.75-6.12-12.09-6.15-12.17l-1.11-2.09 2.04 1.21c.31.18 7.58 4.56 12.06 11.89l.49.8c1.81 2.95 2.81 4.58 4.25 8.15 1.29 3.18 4.55 5.22 6.38 6.17l.32-28.24c-2.4-.1-7.86-.53-11.04-2.51-2.56-1.59-3.77-3.48-5.05-5.48-.64-1.02-1.32-2.06-2.21-3.16-3.88-4.75-9.75-12.43-9.81-12.51l-1.34-1.76 2.09.72c.43.15 10.58 3.68 15.66 8.33 2.45 2.23 3.65 3.88 5.46 6.36l.49.69c1.55 2.1 4.22 3.81 5.8 4.69l.23-24.24c-2.55.04-8.47-.13-11.77-2.37-2.62-1.78-3.43-4.19-4.22-6.53-.59-1.75-1.2-3.57-2.58-5.22-2-2.37-5.79-5.56-5.83-5.6l-1.76-1.48 2.28.31c.39.05 9.51 1.33 13.29 5.48 1.2 1.3 1.62 2.67 2.03 3.99.4 1.27.77 2.47 1.85 3.55 1.72 1.72 5.1 2.95 6.78 3.49l.26-23.4c-3.07-.06-9.14-.52-12.37-3.18-2.25-1.85-2.89-4.09-3.5-6.25-.47-1.63-.95-3.31-2.12-4.92-2.11-2.89-6.37-6.73-6.42-6.76l-1.55-1.39 2.07.23c.43.05 10.66 1.23 14.46 6.04 1.11 1.4 1.41 2.81 1.71 4.17.28 1.29.55 2.51 1.51 3.67 1.4 1.68 4.33 3.22 6.25 4.06l.27-23.26c-3.45-2.09-5.8-7.5-5.9-7.73l-.78-1.8 1.71.95s4.56 2.51 7.66 2.51h.13c2.92-.06 7.22-2.48 7.26-2.51l1.68-.95-.73 1.78c-.1.24-2.34 5.65-5.68 7.75l.14 12.66c1.55-1.61 3.24-3.11 5.03-4.5 1.43-1.06 2.95-1.54 4.42-2.02 1.86-.6 3.62-1.16 5.19-2.83 2.42-2.56 4.03-4.71 4.8-6.38l.86-1.89.4 2.04c1.49 7.6-1.93 11.24-5.85 14.04-2.04 1.47-3.83 2.09-5.72 2.74-1.1.38-2.24.77-3.52 1.36-.9.41-1.85.9-2.73 1.35-1.29.67-2.19 1.13-2.83 1.35l.14 13.79c.61-.37 1.43-.81 2.48-1.38 1.72-.92 3.67-1.97 5.05-2.99l1.22-.89c2.29-1.67 3.34-2.42 5.98-5.6.4-.48.78-.91 1.13-1.31 1.04-1.16 1.85-2.08 2.56-3.64l.86-1.9.4 2.04c.63 3.24.47 6.08-.58 8.75l.05.04-.13.15c-1.06 2.56-2.94 4.96-5.72 7.38-3.62 3.15-10.74 4.19-13.24 4.46l.21 19.59c3.02-.99 5.44-2.06 6.86-3.07 1.31-.92 2.09-1.9 2.91-2.93.73-.92 1.5-1.88 2.67-2.85 4.02-3.33 11.43-6.45 11.74-6.58l1.96-.82-1.14 1.8s-1.88 2.94-3.92 5.93l.03.03q-.105.135-.24.27c-.86 1.25-1.75 2.5-2.54 3.54-.78 1.04-1.39 2.05-1.97 3.02-1.3 2.17-2.53 4.22-5.35 5.65-3.28 1.66-8.55 1.06-10.99.66l.27 22.06c1.51-.15 4.86-.66 6.76-1.75 1.55-.87 2.32-1.97 3.21-3.24.71-1.02 1.45-2.08 2.65-3.09 4.33-3.67 12.64-7.41 12.99-7.58l.8 1.02c-.05.07-5.08 6.64-7.88 10.7-.68.99-1.12 1.94-1.55 2.86-.76 1.63-1.47 3.17-3.31 4.53-3.82 2.85-11.14 1.47-13.64.88l.29 25.92c1.89-.31 6.67-1.36 9.14-4.34.99-1.19 1.6-2.37 2.19-3.52.87-1.69 1.68-3.28 3.57-4.75 4.58-3.57 14.14-3.18 14.54-3.2l.09 1.33c-2.2.41-8.16 2.04-9.28 4.65-.5 1.15-.76 2.63-1.03 4.19-.77 4.44-1.73 9.96-9 11.51-3.6.75-8.2-.13-10.17-.51l.21 20.09c.59.66 2.74 2.98 4.61 3.61 1.85.62 4.83.06 7.71-.49 2.95-.56 5.73-1.09 7.77-.56 3.66.96 4.7 5.58 4.74 5.78l.49 2.24-1.61-1.63s-2.68-2.73-5.3-2.07c-1.83.43-6.21 1.89-8.59 2.7.7.35 1.47.83 1.98 1.36 1.41 1.49 1.98 4.64 2 4.77l.25 1.41-1.24-.71s-2.91-1.67-4.8-2.56c-1.05-.49-2.56-1.13-3.33-1.44-.31.49-.66 1.39.03 2.25 2.06 2.58.42 8.42.35 8.67l-.62 2.16Zm-5.41-19.77.62 2.15c.4 1.4.52 2.79.62 4 .13 1.59.25 2.97.95 3.63 1.26 1.17 2.34 3.46 3.03 5.2.26-1.83.32-4.08-.58-5.2-1.37-1.71-.41-3.6.29-4.36l.31-.34.43.17c.1.04 2.4.96 3.88 1.66 1.11.53 2.52 1.29 3.54 1.86-.29-.94-.72-2.03-1.3-2.63-.76-.79-2.47-1.52-3.07-1.74l-1.77-.64 1.78-.62c.31-.1 7.7-2.66 10.33-3.29 1.75-.42 3.41.23 4.63.95-.59-1.11-1.53-2.3-2.97-2.67-1.76-.46-4.51.06-7.19.57-3.05.57-6.21 1.18-8.38.44-2.53-.85-5.25-4.06-5.37-4.2l-.15-.18v-.24l-.23-21.85.34.02v-.04c4.14-.38 13.46-3.8 15.66-8.01 1.34-2.34 2.86-4.58 4.52-6.67l.04.03c.9-1.5 2.84-2.63 4.78-3.43-2.87.32-6.23 1.05-8.3 2.67-1.66 1.3-2.38 2.7-3.21 4.32-.62 1.21-1.26 2.45-2.35 3.76-3.21 3.87-9.51 4.78-10.74 4.92l-.74.08-.02-.74-.3-26.59c-.57.39-1.21.63-1.89.71-.91.12-1.83-.1-2.7-.57l-.31 26.84-.92-.41c-1.44-.63-6.26-3.03-8-7.33-1.4-3.47-2.32-4.97-4.15-7.95l-.49-.8c-2.83-4.64-6.94-8.11-9.43-9.96.81 1.55 1.9 3.68 2.96 5.79l.08-.06c.32.4.7.83 1.12 1.29 1.46 1.62 3.28 3.65 4.37 6.67 3.31 9.04 10.99 14.52 13.74 15.01h.08l.62.05-.26 22.4-.15.18c-.11.14-2.84 3.35-5.38 4.22-2.18.74-4.71-.22-7.13-1.16-2.11-.82-4.28-1.67-6.02-1.22-2.26.59-3.7 1.57-4.97 3.02 1.84-.71 3.57-.99 5.86-.43 2.65.63 8.54 3.7 8.79 3.83l.73.38-.52.63c-.19.23-1.88 2.25-3.59 2.54-.51.09-1.26.44-1.98.85 1.15 0 2.49.05 3.51.25 1.41.29 3.66-1.27 4.4-1.89l.76-.63.31.94c.03.1.84 2.56 1.01 4.25.14 1.35-.04 3.04-.25 4.4 1.16-1.4 2.39-3.23 2.34-4.52-.15-4.44 1.07-7.9 1.13-8.05l.78-2.15.5 2.23s.98 4.33 2.2 6.79c.79 1.56 1.19 3.8 1.39 5.46.62-1.32 1.25-3.12.95-4.64-.22-1.18-.14-4.9.77-7.84l.66-2.14Zm3.41-26.71c2.14.32 4.96.59 7.24.09 6.39-1.36 7.19-5.97 7.97-10.43.07-.43.15-.85.23-1.27-.81 1.17-1.56 2.37-2.27 3.6-1.97 3.79-8.37 6.71-13.16 8Zm-27.1-19.53c.99 2.24 1.44 4.39 1.86 6.48.74 3.6 1.38 6.7 4.69 9.06 1.66 1.19 4.19 1.92 6.47 2.35-3.69-2.48-8.4-7.26-10.86-13.99-.56-1.54-1.34-2.81-2.16-3.91Zm25.07-12.03c2.79.58 8.82 1.49 11.88-.8 1.4-1.04 2.04-2.21 2.67-3.54-3.91 2.4-10.62 3.78-14.54 4.34Zm-6.87-.18c.8.63 1.67.95 2.53.83.75-.09 1.44-.48 2.02-1.15v-.08h.06c.08-.08.15-.18.23-.28l.03.02-.02-.25c4.51-.43 14.76-2.41 17.66-5.83l.14.12c.2-.35.42-.69.67-1.06 1.81-2.62 4.52-6.26 6.26-8.56-2.83 1.41-7.44 3.85-10.21 6.2-1.07.91-1.76 1.89-2.42 2.84-.9 1.29-1.83 2.62-3.64 3.64-2.84 1.63-8.01 1.97-8.06 1.97h-.68l-.3-25.06.8.15c1.23.23 7.53 1.33 10.94-.4 2.48-1.25 3.51-2.97 4.81-5.14.48-.8.97-1.62 1.57-2.47-4.45 3.04-10.67 5.84-14.51 5.48v-.04c-.96.35-1.9.66-2.74.92l-.85.26v-1.23c-.53.29-1.11.4-1.66.46-.81.06-1.61-.14-2.3-.52l-.24 24.86-.96-.49c-1.16-.59-5.11-2.73-7.23-5.62l-.5-.69c-1.76-2.42-2.93-4.02-5.28-6.16-1.74-1.59-4.15-3.07-6.55-4.3.58.76 1.27 1.61 2.01 2.53 1.22 1.53 2.6 3.24 3.82 4.95 2.88 4.02 6.52 7.14 8.83 7.58l-.25 1.31c-3.07-.59-7.07-4.5-9.67-8.11-1.2-1.68-2.57-3.39-3.78-4.89-1.46-1.82-2.73-3.39-3.4-4.54h.02c-1.54-.73-2.97-1.33-4.06-1.76 1.99 2.59 5.66 7.32 8.36 10.63.94 1.16 1.63 2.23 2.3 3.28 1.25 1.95 2.32 3.63 4.63 5.06 3.23 2.01 9.25 2.28 11.02 2.32h.66l-.04 3.21Zm.31-30.82c.57.56 1.32.93 2.18.82.94-.1 1.39-.34 1.67-.9l.07.03-.21-19.63.62-.05c.94-.09 9.34-.92 13.1-4.19 1.47-1.28 2.66-2.54 3.6-3.81-1.18.78-2.55 1.5-4.12 2.16-3.17 1.3-6.52 2.17-9.96 2.58l-.02-.15c-1 .55-1.85 1.05-2.1 1.32l-1.15 1.3-.06-5.48c-1.11.3-2.3.17-3.3-.07l-.26 23.54-.84-.24c-1.34-.38-5.91-1.81-8.2-4.09-1.31-1.32-1.75-2.73-2.18-4.1-.38-1.23-.74-2.39-1.74-3.49-1.04-1.13-2.56-2.03-4.19-2.75.45.75.92 1.67 1.44 2.69 1.13 2.2 2.4 4.71 4.07 6.56 2.01 2.25 4.04 3.46 6.6 3.93l-.24 1.31c-2.87-.53-5.14-1.86-7.35-4.35-1.78-1.97-3.1-4.56-4.26-6.85-.92-1.81-2.07-4.05-2.74-4.11v-.12c-1.25-.41-2.46-.71-3.45-.93 1.29 1.16 2.98 2.76 4.15 4.15 1.54 1.84 2.2 3.77 2.83 5.64.78 2.32 1.46 4.33 3.7 5.85 3.31 2.25 9.77 2.2 11.67 2.12l.7-.02v1.31Zm27.92-12.16c-2.51 1.17-6.76 3.3-9.36 5.47-1.07.88-1.79 1.78-2.48 2.65-.84 1.06-1.72 2.16-3.19 3.19-.4.29-.85.56-1.33.83 4.85-1.36 10.97-5.11 13.53-7.91 1.06-1.54 2.08-3.08 2.83-4.23m-4.28-24.93c-.55.81-1.15 1.48-1.8 2.22-.35.39-.71.8-1.11 1.27-2.75 3.3-3.91 4.14-6.22 5.83l-1.21.88c-.93.69-2.07 1.36-3.23 2.01 2.17-.46 4.28-1.11 6.32-1.95 2.87-1.2 4.99-2.59 6.49-4.23.73-1.88.97-3.85.76-6.04Zm-23.31 9.65c.99.27 2.27.46 3.27.03l-.12-11.09.61-.06c.42-.04 1.76-.74 2.95-1.36.9-.46 1.88-.97 2.79-1.38 1.34-.61 2.51-1.01 3.64-1.4 1.88-.64 3.5-1.2 5.38-2.56 3.69-2.63 6.06-5.55 5.59-10.79-.94 1.45-2.3 3.12-4.05 4.98-1.8 1.92-3.81 2.56-5.75 3.19-1.43.46-2.77.89-4.02 1.81a44.5 44.5 0 0 0-5.99 5.55l-1.15 1.28-.19-16.84.35-.19c2-1.09 3.66-3.76 4.6-5.55-1.64.77-4.1 1.74-6.12 1.78-2.23.11-4.89-.98-6.64-1.78.98 1.79 2.72 4.45 4.78 5.54l.36.19-.29 26-.9-.34c-.22-.09-5.42-2.09-7.69-4.82-1.18-1.41-1.49-2.86-1.79-4.25-.27-1.27-.53-2.47-1.45-3.63-2.47-3.12-8.28-4.61-11.44-5.2.56.54 1.22 1.18 1.89 1.88 2.32.34 6.25 3.31 8.22 6.95 1.45 3.52 3.53 5.46 6.38 6.01l-.25 1.31c-3.28-.62-5.75-2.89-7.33-6.74-1.21-2.22-3.18-4.08-4.88-5.17.35.42.68.83.97 1.23 1.32 1.8 1.83 3.6 2.32 5.34.62 2.15 1.14 4.01 3.07 5.59 3.25 2.67 10.16 2.88 12.2 2.88v.66h.67l-.01.95Z"/><path d="m127.08 170.31-.72.08-1.97-.54c-1.26-1.16-2.3-3.04-2.94-5.02-.55-1.81-.91-3.68-1.07-5.56l.35-1.86.2-.7.27.69.51 1.76c.15 1.46.42 3.4 1.03 5.25.57 1.85 1.56 3.52 2.5 4.41l1.22 1.11z"/></svg>