<svg xmlns="http://www.w3.org/2000/svg" viewBox="0 0 702.987 196.533"><path style="fill:#fff;fill-opacity:1;fill-rule:nonzero;stroke:none" d="M2055.83 237.641v412.718h-71.38V514.32c-12.6 15.414-40.06 27.973-77.79 27.973-30.34 0-54.36-9.141-72.64-23.984-35.41-29.121-53.11-74.278-53.11-132.598 0-56.02 17.13-100.629 52.54-129.77 18.28-14.882 42.87-25.171 72.62-25.171 32.62 0 65.78 11.992 83.51 39.41l4.58-32.539zm-67.94 149.179c0-42.89-11.45-96.09-67.5-96.09-22.33 0-37.78 10.29-48.07 23.461-14.86 19.43-18.87 46.891-18.87 72.629s4.01 52.621 18.87 72.071c10.29 13.148 25.74 23.437 48.07 23.437 56.05 0 67.5-52.617 67.5-95.508m404.7-2.851c1.14 37.133-4.02 70.902-25.74 103.5-24.59 37.129-64.61 54.824-108.61 54.824-40.61 0-72.62-14.848-94.89-37.68-28.57-29.136-42.85-71.504-42.85-118.922 0-48.589 16-90.371 45.71-118.953 23.41-22.258 53.14-36.539 93.75-36.539 37.71 0 74.88 11.992 100.04 41.68 11.42 13.711 23.43 37.172 25.15 54.922h-68.59c-2.87-10.879-8.03-18.903-14.32-25.192-10.27-10.3-22.87-14.3-43.44-14.3-19.45 0-33.73 8.57-44.02 18.3-14.3 13.75-22.3 35.493-21.74 58.379h198.99c0 6.274.56 19.981.56 19.981m-71.48 31.972h-128.63c.56 19.457 5.15 33.188 15.44 46.368 10.3 13.734 28.01 22.89 49.73 22.89 20.59 0 35.45-6.875 45.18-17.168 11.42-12.59 17.71-29.761 18.28-52.09m563.17-60.25c0 37.559-20 73.457-58.26 91.168 34.25 15.411 49.66 52.582 49.66 85.762 0 34.887-17.13 68.617-46.81 88.031-27.42 17.711-61.17 22.266-93.77 22.266h-161.22V237.641h161.22c38.88 0 76.62 3.418 108.03 27.41 29.14 22.281 41.15 54.781 41.15 90.64m-83.4 172.34c0-38.316-28.03-50.347-61.21-50.347h-92.66V579.52h90.94c33.16 0 62.93-12.579 62.93-51.489m8.55-170.64c0-40.981-37.16-53.5-71.48-53.5h-90.94V416.02h93.22c38.91 0 69.2-15.372 69.2-58.629m396.14-116.332v52.543s-4.57-1.153-9.14-1.153c-12.02 0-16.59 5.153-16.59 18.883v110.34c0 20.066-1.15 41.207-8.55 60.07-17.15 44.555-60.55 60.551-111.47 60.551-66.36 0-119.47-29.707-123.47-96.543h69.14c1.7 27.422 21.15 42.305 54.33 42.305 40.63 0 50.36-18.883 50.36-46.934v-18.32l-87.54-6.289c-56.6-3.981-100.57-36.543-100.57-93.141 0-48.621 36.54-93.172 107.44-93.172 42.33 0 76.64 20.551 90.35 44.551 2.31-22.262 19.44-41.68 50.28-41.68 17.15 0 23.43 2.852 35.43 7.989m-95.39 114.921c0-44.058-31.47-68.101-76.1-68.101-22.3 0-42.32 14.312-42.32 37.203 0 24.027 21.15 37.188 42.89 38.906l75.53 5.723zm326.95 112.641v68.535c-7.44 1.129-14.86 1.715-22.31 1.715-34.88 0-70.33-14.297-84.04-48.551l-6.29 44.547h-60.53V237.641h71.96v149.75c0 48.07 26.31 84.078 76.62 84.078 8.01 0 16.58-1.149 24.59-2.848m278.38-125.859h-70.31c-.59-10.864-4.03-20-8.6-27.422-8.57-13.168-24-22.309-45.72-22.309-19.45 0-33.73 8.578-43.46 18.867-17.15 18.872-20.02 46.903-20.02 74.922 0 28.032 2.87 56.621 20.02 75.489 9.73 10.312 24.01 18.324 43.46 18.324 21.72 0 37.15-9.164 45.72-22.324 4.57-7.43 8.01-16.571 8.6-27.43h70.31c-1.15 23.422-9.14 46.859-22.87 64.574-20.57 25.703-56.6 46.84-101.76 46.84-45.18 0-82.89-21.699-103.46-46.84-22.26-28.004-32.56-65.152-32.56-108.633 0-43.492 10.3-80.621 32.56-108.629 20.57-25.14 58.28-46.839 103.46-46.839 45.16 0 81.19 21.136 101.76 46.839 13.73 17.707 21.72 41.149 22.87 64.571m311.01 41.207c1.16 37.133-4 70.902-25.72 103.5-24.59 37.129-64.61 54.824-108.63 54.824-40.61 0-72.6-14.848-94.88-37.68-28.56-29.136-42.84-71.504-42.84-118.922 0-48.589 16-90.371 45.69-118.953 23.41-22.258 53.14-36.539 93.75-36.539 37.73 0 74.9 11.992 100.04 41.68 11.44 13.711 23.45 37.172 25.15 54.922h-68.59c-2.87-10.879-8.01-18.903-14.3-25.192-10.29-10.3-22.87-14.3-43.46-14.3-19.43 0-33.73 8.57-44.02 18.3-14.3 13.75-22.28 35.493-21.72 58.379h198.97c0 6.274.56 19.981.56 19.981m-71.46 31.972h-128.63c.56 19.457 5.13 33.188 15.43 46.368 10.29 13.734 28 22.89 49.74 22.89 20.59 0 35.43-6.875 45.16-17.168 11.44-12.59 17.73-29.761 18.3-52.09m245.25-177.73v59.961c-3.98 0-5.7-.57-11.99-.57-24.59 0-28.59 11.429-28.59 28.578v324.746h-71.98V314.172c0-56.551 32.56-79.961 81.14-79.961 14.29 0 17.15 1.129 31.42 4m312.09 148.027c0 50.352-12.56 81.793-34.82 109.805-20.59 25.113-58.89 46.25-104.06 46.25-45.2 0-83.5-21.137-104.07-46.25-22.26-28.012-34.82-59.453-34.82-109.805 0-50.316 12.56-81.777 34.82-109.789 20.57-25.117 58.87-46.25 104.07-46.25 45.17 0 83.47 21.133 104.06 46.25 22.26 28.012 34.82 59.473 34.82 109.789m-72.54 0c0-28.008-4-56.039-21.17-74.906-9.71-10.312-25.72-18.883-45.17-18.883-19.46 0-35.47 8.571-45.2 18.883-17.17 18.867-21.15 46.898-21.15 74.906 0 28.043 3.98 56.051 21.15 74.942 9.73 10.289 25.74 18.867 45.2 18.867 19.45 0 35.46-8.578 45.17-18.867 17.17-18.891 21.17-46.899 21.17-74.942m390.41-148.597V436.02c0 61.718-37.11 106.273-100.56 106.273-34.32 0-69.79-14.277-87.52-45.684l-5.14 38.258h-59.96V237.641h71.39v121.168c0 25.16-.57 56.023 9.72 79.461 9.73 21.781 26.31 37.773 51.49 37.773 37.75 0 49.2-21.152 49.2-56.031V237.641Zm339.61 3.418v52.543s-4.57-1.153-9.14-1.153c-12.01 0-16.58 5.153-16.58 18.883v110.34c0 20.066-1.15 41.207-8.57 60.07-17.13 44.555-60.53 60.551-111.47 60.551-66.35 0-119.47-29.707-123.46-96.543h69.13c1.71 27.422 21.17 42.305 54.33 42.305 40.63 0 50.35-18.883 50.35-46.934v-18.32l-87.52-6.289c-56.6-3.981-100.56-36.543-100.56-93.141 0-48.621 36.54-93.172 107.42-93.172 42.34 0 76.66 20.551 90.39 44.551 2.26-22.262 19.39-41.68 50.25-41.68 17.13 0 23.42 2.852 35.43 7.989m-95.41 114.921c0-44.058-31.46-68.101-76.07-68.101-22.33 0-42.35 14.312-42.35 37.203 0 24.027 21.18 37.188 42.91 38.906l75.51 5.723zM2122.2 812.746l-142.36 405.274h-80.61l-142.38-405.274h74.34l26.29 77.754h161.23l26.3-77.754zm-126.35 143.992h-115.5l57.75 170.962zm250.88 269.302h-76.54v-73.68h76.54zm-1.72-454.536v338.466h-71.97V785.234c0-20.019-12.01-32.019-34.31-32.019-10.86 0-13.72 1.14-34.87 3.426v-60.539c13.15-3.418 23.44-5.137 32.6-6.274 9.14-1.148 17.15-1.148 25.14-1.148 53.14 0 83.41 31.992 83.41 82.824m333.89 41.242v297.224h-71.4V952.785c0-24.015-4.58-50.871-21.74-66.887-8.58-8.621-20.02-14.91-36.62-14.91-37.76 0-51.49 21.727-51.49 56.602v182.38h-71.39V911.582c0-63.437 39.4-106.269 102.86-106.269 37.75 0 70.95 17.128 85.23 46.261l5.14-38.828zm338.46 0v198.384c0 61.72-37.13 106.27-100.56 106.27-34.34 0-69.81-14.27-87.52-45.69l-5.16 38.26h-59.98V812.746h71.41v121.18c0 25.148-.57 56.008 9.72 79.444 9.73 21.78 26.31 37.78 51.49 37.78 37.75 0 49.2-21.15 49.2-56.033V812.746Zm248.69 3.984v59.969c-19.45-2.273-31.44-2.859-46.3-2.859-22.87 0-33.17 9.734-33.17 32.617v144.693h74.9v58.82h-74.9v93.19l-71.38-17.72v-75.47h-54.32v-58.82h54.32V900.156c0-57.156 29.68-91.414 89.68-91.414 21.16 0 41.16 2.852 61.17 7.988m315.59-.566v52.539s-4.57-1.144-9.14-1.144c-12.01 0-16.58 5.156-16.58 18.886V996.77c0 20.08-1.13 41.22-8.58 60.08-17.13 44.56-60.52 60.55-111.44 60.55-66.37 0-119.47-29.7-123.48-96.55h69.12c1.72 27.43 21.17 42.31 54.36 42.31 40.6 0 50.33-18.89 50.33-46.93v-18.32l-87.52-6.289c-56.6-3.992-100.57-36.543-100.57-93.164 0-48.602 36.55-93.144 107.45-93.144 42.32 0 76.64 20.546 90.37 44.542 2.26-22.257 19.41-41.679 50.25-41.679 17.13 0 23.42 2.851 35.43 7.996zm-95.41 114.93c0-44.082-31.46-68.114-76.07-68.114-22.33 0-42.35 14.317-42.35 37.208 0 24.023 21.17 37.187 42.91 38.906l75.51 5.722zm575.08-118.348v200.674c0 61.73-33.11 103.98-96.54 103.98-40.06 0-72.09-17.7-89.83-48.54-14.84 30.27-43.4 48.54-85.14 48.54-39.47 0-68.08-19.42-84.66-46.82l-5.71 39.39h-59.41V812.746h70.82V975.07c0 37.21 18.32 80.09 58.95 80.09 36.03 0 45.76-21.16 45.76-57.746V812.746h70.82v162.363c0 37.171 17.73 80.051 58.36 80.051 36.03 0 45.76-21.16 45.76-57.746V812.746Zm332.19 146.336c1.13 37.121-4.01 70.888-25.73 103.498-24.59 37.12-64.61 54.82-108.63 54.82-40.59 0-72.6-14.85-94.88-37.69-28.56-29.13-42.83-71.49-42.83-118.917 0-48.594 15.99-90.371 45.68-118.938 23.42-22.273 53.14-36.542 93.73-36.542 37.75 0 74.9 11.992 100.06 41.679 11.44 13.711 23.46 37.16 25.15 54.903h-68.61c-2.85-10.868-7.99-18.887-14.28-25.176-10.29-10.301-22.87-14.305-43.45-14.305-19.44 0-33.73 8.582-44.03 18.309-14.29 13.742-22.3 35.48-21.72 58.371h198.95c0 6.277.59 19.988.59 19.988m-71.47 31.973h-128.65c.58 19.455 5.16 33.185 15.45 46.355 10.29 13.73 28.01 22.89 49.74 22.89 20.57 0 35.43-6.87 45.16-17.16 11.45-12.6 17.73-29.77 18.3-52.085m387.62-178.309v198.384c0 61.72-37.13 106.27-100.57 106.27-34.31 0-69.78-14.27-87.52-45.69l-5.13 38.26h-59.98V812.746h71.4v121.18c0 25.148-.58 56.008 9.71 79.444 9.74 21.78 26.33 37.78 51.5 37.78 37.76 0 49.2-21.15 49.2-56.033V812.746Zm248.69 3.984v59.969c-19.43-2.273-31.43-2.859-46.31-2.859-22.87 0-33.14 9.734-33.14 32.617v144.693h74.88v58.82h-74.88v93.19l-71.41-17.72v-75.47h-54.32v-58.82h54.32V900.156c0-57.156 29.71-91.414 89.69-91.414 21.15 0 41.17 2.852 61.17 7.988m-3627.33 602.64c133.48 0 241.6-108.17 241.6-241.6l-.08-880.438c.08-133.32-108.04-241.48-241.52-241.48H350.582c-133.398-.082-241.523 108.117-241.562 241.48l.039 880.438c0 133.43 108.125 241.6 241.523 241.6z" transform="matrix(.13333 0 0 -.13333 0 196.533)"/><g clip-path="url(#a)" transform="matrix(.13333 0 0 -.13333 0 196.533)"><g clip-path="url(#b)"><path style="fill:#231f20;fill-opacity:1;fill-rule:nonzero;stroke:none" d="M786.82 787.531h-73.289v125.438l-36.73-36.614v-88.824h-88.535l-36.75-36.707h125.285v-91.109H460.352l-5.223-5.293 5.215-5.274h33.133v-33.222l36.628-36.621v69.843h36.672V542.633l36.692-36.727v143.242h36.699V469.32l36.691-36.64v216.468h36.672V396.031l36.664-36.711v289.828h36.625v-326.41l5.235-5.187 5.273 5.187v198.567h73.395V395.871l36.636 36.809v88.625h88.555l36.626 36.593H907.359v91.25h216.321l5.38 5.438-5.16 5.129h-33.18v33.183l-36.71 36.653v-69.836h-36.62v106.543l-36.691 36.621V659.715h-36.715V839.5l-36.625 36.695v-216.48h-36.636V912.82l-36.684 36.625v-289.73h-36.711v326.426l-5.137 5.297-5.371-5.375zm0-127.816h-73.289v91.109h73.289zm10.508-10.567h73.395v-91.25h-73.395zm-5.348 413.072c36.442 0 70.77-8.93 99.883-22.35l12.844 19.48c-32.855 15.61-71.266 25.04-112.441 25.04-41.012 0-79.578-9.12-112.801-25.12l12.898-19.4c29.121 13.42 63.621 22.35 99.617 22.35m-81.937 43.84c-4.316-3.95-5.605-10.16-4.457-17.02 6.562-1.84 12.965-1.08 17.25 2.75 4.32 3.91 5.715 10.21 4.434 16.84 1.738-6.6 5.519-11.81 11.097-13.5 5.403-1.84 11.574.12 16.738 4.53-1.574 6.64-5.347 11.8-10.945 13.57-5.43 1.81-11.469-.07-16.64-4.45 4.867 4.72 7.32 10.59 6.117 16.23-1.172 5.63-5.828 9.97-12.348 12.31-4.941-4.84-7.359-10.71-6.266-16.3 1.188-5.64 5.946-9.93 12.247-12.39-6.528 1.95-12.821 1.22-17.227-2.57m-41.234.24c-2.383 5.32-7.84 8.54-14.621 9.54-3.918-5.71-5.258-11.93-2.84-17.26 2.418-5.29 7.898-8.63 14.722-9.54 3.754 5.78 5.121 12 2.739 17.26m123.382 131.53c8.633 0 15.575 6.97 15.575 15.57 0 8.63-6.942 15.61-15.575 15.61-8.66 0-15.699-6.98-15.699-15.61 0-8.6 7.039-15.57 15.699-15.57m-17.128-121.45c-5.063-2.99-7.696-8.75-7.977-15.61 6.074-3.26 12.434-3.81 17.5-.93 5.066 2.89 7.68 8.68 7.875 15.54.211-6.83 2.93-12.65 7.898-15.54 5.016-2.88 11.375-2.33 17.407.93-.25 6.86-2.895 12.62-7.981 15.61-4.945 2.87-11.25 2.38-17.324-.96 5.832 3.64 9.527 8.81 9.527 14.61 0 5.75-3.695 10.93-9.527 14.58-5.863-3.65-9.566-8.83-9.566-14.58 0-5.8 3.66-10.97 9.531-14.61-6.117 3.34-12.422 3.83-17.363.96m-95.52-38.24c5.75-.5 11.348 2.42 15.562 7.9-2.964 6.21-7.8 10.39-13.589 11.01-5.715.61-11.266-2.53-15.446-8.01 2.946-6.18 7.762-10.36 13.473-10.9m-20.664 58.29c-6.004 4.95-9.625 11.51-9.625 18.6 0 15.34 16.504 27.77 36.918 27.77 4.875 0 9.449-.73 13.726-2-.687-3.07-1.011-6.25-1.011-9.46 0-10.13 3.508-19.53 9.48-27.51l16.543 16.69c-1.851 3.26-2.953 6.97-2.953 10.82 0 15.37 16.5 27.72 36.844 27.72 8.285 0 15.929-2.04 22.16-5.52v-32.94h23.031v33.47c5.969 3.22 13.27 4.99 21.246 4.99 20.297 0 36.848-12.35 36.848-27.72 0-3.85-1.063-7.56-2.992-10.82l16.543-16.69c5.972 7.98 9.406 17.38 9.406 27.51 0 3.21-.32 6.39-.98 9.46 4.203 1.27 8.902 2 13.769 2 20.375 0 36.941-12.43 36.941-27.77 0-7.09-3.644-13.65-9.683-18.6l16.254-16.29c10.219 9.09 16.386 21.4 16.386 34.89 0 28.07-26.816 50.82-59.937 50.82a69.7 69.7 0 0 1-24.379-4.37c-10.773 12.5-28.473 20.7-48.246 20.7-12.273 0-23.703-3.14-33.188-8.51-9.48 5.37-20.91 8.51-33.179 8.51-19.781 0-37.317-8.2-48.297-20.7-7.441 2.79-15.609 4.37-24.332 4.37-33.074 0-59.922-22.75-59.922-50.82 0-13.49 6.191-25.8 16.293-34.89zm533.511-467.157c-8.32 0-15-6.679-15-14.851 0-8.32 6.68-14.942 15-14.942 8.21 0 14.91 6.622 14.91 14.942 0 8.172-6.7 14.851-14.91 14.851M792.055 268.93c-8.282 0-14.95-6.711-14.95-15 0-8.239 6.668-14.918 14.95-14.918 8.304 0 15.05 6.679 15.05 14.918 0 8.289-6.746 15-15.05 15M391.656 669.273c-8.281 0-14.992-6.64-14.992-14.851 0-8.32 6.711-14.942 14.992-14.942 8.207 0 14.871 6.622 14.871 14.942 0 8.211-6.664 14.851-14.871 14.851m598.852 187.485C865.371 981.844 792.672 1022.3 792.461 1022.38l-.481.23-.554-.23c-.039-.08-74.856-42.716-201.613-169.337-125.125-125.223-165.747-197.93-165.747-197.93l-.328-.566.328-.527s42.786-74.989 169.465-201.739C718.66 327.219 791.387 286.648 791.387 286.648l.593-.378.633.378S867.551 329.379 994.184 456c125.136 125.258 165.796 197.922 165.826 198.09l.29.496-.29.488c-.03.11-42.78 74.934-169.502 201.684M791.98 294.289 431.875 654.547 791.98 1014.75l360.27-360.164Zm125.497 794.751c-4.176 5.48-9.86 8.62-15.614 8.01-5.687-.62-10.476-4.8-13.519-11.01 4.25-5.48 9.769-8.4 15.504-7.9 5.804.54 10.617 4.72 13.629 10.9m14.652 9.54c2.375 5.33 1.086 11.55-2.82 17.26-6.789-1-12.254-4.22-14.629-9.54-2.418-5.26-1.164-11.48 2.797-17.26 6.804.91 12.304 4.25 14.652 9.54m-92.891 14.65c-5.433-1.77-9.343-6.93-10.957-13.57 5.278-4.41 11.309-6.37 16.93-4.53 5.402 1.69 9.227 6.9 10.91 13.5-1.164-6.63.246-12.93 4.539-16.84 4.227-3.83 10.617-4.59 17.176-2.75 1.246 6.86-.191 13.07-4.5 17.02-4.309 3.79-10.555 4.49-17.145 2.57 6.559 2.46 11.067 6.75 12.239 12.39 1.281 5.59-1.211 11.46-6.2 16.3-6.472-2.34-11.171-6.68-12.417-12.31-1.161-5.76 1.398-11.51 6.234-16.34-5.203 4.49-11.34 6.37-16.809 4.56"/></g></g></svg>