<svg viewBox="0 0 114 50" fill="none" xmlns="http://www.w3.org/2000/svg"><path d="M41.837 25.745c-.3.789-.802 2.078-.802 2.507 0 .273.159.316.402.316h.816v.473h-2.908v-.473h.457c.216 0 .302-.07.374-.258.601-1.575 2.092-4.973 3.553-8.412.245-.057.932-.229 1.147-.229l.143.187c0 .171-.286.2-.286.486 0 .503 1.604 4.716 2.393 6.88.43 1.16.545 1.346 1.032 1.346h.344v.473H44.89v-.473h.645c.272 0 .316-.057.215-.344l-.86-2.48zm1.649-3.97c-.53 1.133-.973 2.279-1.418 3.412h2.593z" fill="#fff"/><path d="M51.898 30.26c0 1.562-1.262 2.364-2.507 2.364-.46 0-1.591-.186-1.591-.831 0-.302.286-.43.544-.43.474 0 .83.359 1.031.745l.173.043c.845-.015.845-1.305.845-2.494V25.46c0-1.447 0-2.078-.487-2.078h-.602v-.43c.86-.071 1.734-.129 2.594-.244zm-1.662-9.573c0-.444.358-.774.788-.774.445 0 .801.33.801.774 0 .457-.356.774-.801.774a.773.773 0 0 1-.788-.774m7.308 2.264c.802-.072 1.676-.129 2.536-.244v4.212c0 1.12.172 1.363 1.003 1.506l-.557.845h-.187c-.646 0-1.419-.443-1.649-1.06-.702.53-1.375 1.06-2.148 1.06-1.892 0-1.892-1.619-1.892-2.506v-1.306c0-1.446 0-2.077-.489-2.077h-.543v-.43c.802-.072 1.675-.129 2.535-.244v4.212c0 .675.087 1.448.976 1.448.573 0 .988-.242 1.49-.63-.044-.215-.044-.459-.044-.716v-1.563c0-1.446 0-2.077-.487-2.077h-.544zm6.992.788c.776-.573 1.477-1.032 2.251-1.032 1.132 0 1.734.674 1.734 1.979v1.933c0 1.663.057 1.993.459 1.993h.545v.43h-3.168v-.43h.401c.159 0 .259-.015.259-.23v-2.98c0-.975 0-1.792-1.062-1.792-.5 0-1.002.273-1.419.658v2.351c0 1.663.058 1.993.46 1.993h.501v.43H62.26v-.43h.516c.157 0 .258-.015.258-.23v-2.924c0-1.446 0-2.077-.488-2.077h-.6v-.43c.859-.072 1.732-.129 2.591-.244zm10.133 5.001c-.53.33-1.276.531-1.892.531-1.19 0-1.548-.517-1.548-1.648v-4.257h-.5c-.144 0-.273-.014-.273-.157 0-.114.272-.316 1.991-1.82h.287v1.547h1.447c-.028.43-.1.43-.315.43h-1.132v3.855c0 .817.073 1.376.888 1.376.287 0 .603-.086.86-.201zm4.356-3.581v-.417c0-.902-.028-1.447-.973-1.447-.33 0-.703.1-.977.286 0 .788-.342 1.433-.974 1.433-.257 0-.501-.186-.501-.458 0-1.133 1.92-1.85 3.196-1.85 1.59 0 1.734.446 1.734 2.007v2.206c0 1.12.173 1.363 1.003 1.506l-.559.845c-.372 0-1.39-.042-1.834-1.174-.588.472-1.492 1.174-2.293 1.174-.83 0-1.347-.587-1.347-1.404 0-1.39 1.748-1.977 2.795-2.408zm0 .515-.257.1c-.832.33-1.764.875-1.764 1.734 0 .43.23.76.688.76.517 0 .989-.33 1.333-.703zm3.454 3.367v-.43h.516c.157 0 .258-.013.258-.23V25.46c0-1.448 0-2.079-.488-2.079h-.603v-.43c.861-.07 1.735-.128 2.594-.243v1.104c.818-.703 1.377-1.104 2.251-1.104.731 0 1.333.344 1.504 1.09.732-.631 1.405-1.09 2.222-1.09 1.132 0 1.734.673 1.734 1.978v1.934c0 1.663.056 1.993.459 1.993h.544v.43h-3.196v-.43h.431c.157 0 .257-.014.257-.23v-2.98c0-.975 0-1.792-1.06-1.792-.516 0-.889.33-1.29.66v2.349c0 1.663.058 1.993.458 1.993h.416v.43H86.42v-.43h.43c.158 0 .258-.014.258-.23v-2.98c0-.975 0-1.792-1.06-1.792-.516 0-.889.33-1.29.66v2.349c0 1.663.057 1.993.459 1.993h.415v.43zm17.698-.859a4.13 4.13 0 0 1-2.795 1.09c-1.906 0-2.896-1.391-2.896-3.169 0-1.79 1.076-3.396 2.997-3.396 1.36 0 2.105.917 2.636 2.065l-4.07 1.074c.072 1.347.573 2.666 2.135 2.666.688 0 1.247-.245 1.778-.66zm-4.042-2.81 2.394-.658c-.215-.558-.631-1.535-1.334-1.535-.916 0-1.189 1.535-1.159 2.222zm7.524-1.633c.773-.573 1.476-1.032 2.249-1.032 1.133 0 1.735.674 1.735 1.979v1.933c0 1.663.058 1.993.459 1.993h.544v.43h-3.167v-.43h.401c.157 0 .257-.015.257-.23v-2.98c0-.975 0-1.792-1.059-1.792-.503 0-1.003.273-1.419.658v2.351c0 1.663.057 1.993.459 1.993h.501v.43h-3.238v-.43h.515c.158 0 .258-.015.258-.23v-2.924c0-1.446 0-2.077-.486-2.077h-.603v-.43c.86-.072 1.734-.129 2.594-.244zm10.132 5.001c-.53.33-1.275.531-1.892.531-1.189 0-1.549-.517-1.549-1.648v-4.257h-.5c-.143 0-.272-.014-.272-.157 0-.114.272-.316 1.991-1.82h.287v1.547h1.447c-.029.43-.099.43-.316.43h-1.131v3.855c0 .817.071 1.376.889 1.376.286 0 .601-.086.859-.201zm-68.083 9.752c0 1.448.028 2.093.443 2.093h.63v.43c-.845.029-1.719.114-2.579.272v-.931c-.673.502-1.233.931-2.12.931-1.09 0-2.423-.86-2.423-3.067 0-1.834 1.076-3.497 3.067-3.497.545 0 1.003.172 1.476.43v-.816c0-2.25-.13-2.637-.473-2.637h-.601v-.43c.859-.086 1.72-.172 2.58-.316zm-1.506-2.794a2.02 2.02 0 0 0-1.218-.386c-1.39 0-1.763 1.317-1.763 2.464 0 1.146.272 2.608 1.677 2.608.545.042.918-.229 1.304-.588zm8.828 4.499a4.12 4.12 0 0 1-2.794 1.09c-1.907 0-2.895-1.39-2.895-3.167 0-1.792 1.075-3.397 2.995-3.397 1.361 0 2.106.917 2.636 2.065l-4.07 1.074c.072 1.346.575 2.665 2.136 2.665.688 0 1.246-.244 1.777-.659zm-4.041-2.808 2.393-.66c-.215-.558-.63-1.532-1.332-1.532-.918 0-1.19 1.533-1.161 2.22zm16.337-3.912c-.13 0-.144-.072-.216-.359-.1-.415-1.146-.845-2.02-.845-2.393 0-3.84 1.95-3.84 4.313 0 2.136 1.246 4.156 3.54 4.156.801 0 2.506-.443 2.679-1.418.029-.129.044-.258.214-.258.13 0 .187.085.187.157 0 .115-.043.416-.115 1.376-1.002.487-2.292.73-3.397.73-2.85 0-4.857-1.476-4.857-4.47 0-3.168 2.694-5.173 5.703-5.173.832 0 1.662.2 2.437.501-.1 1.276-.128 1.29-.316 1.29m5.145 3.698v-.416c0-.903-.029-1.448-.974-1.448-.33 0-.703.1-.975.287 0 .788-.344 1.433-.974 1.433-.258 0-.503-.187-.503-.459 0-1.132 1.921-1.848 3.197-1.848 1.59 0 1.734.444 1.734 2.005v2.208c0 1.118.17 1.36 1.004 1.504l-.56.845c-.373 0-1.39-.042-1.835-1.174-.587.472-1.49 1.174-2.291 1.174-.833 0-1.348-.587-1.348-1.403 0-1.39 1.748-1.978 2.794-2.408zm0 .515-.258.1c-.83.33-1.762.874-1.762 1.734 0 .43.229.76.688.76.515 0 .987-.33 1.333-.703zm5.173-1.934c.774-.575 1.476-1.032 2.25-1.032 1.132 0 1.734.672 1.734 1.977v1.935c0 1.661.057 1.991.459 1.991h.544v.43h-3.166v-.43h.401c.157 0 .257-.014.257-.228v-2.98c0-.976 0-1.793-1.06-1.793-.502 0-1.003.273-1.419.66v2.35c0 1.661.058 1.991.458 1.991h.503v.43h-3.238v-.43h.514c.159 0 .258-.014.258-.228v-2.924c0-1.447 0-2.079-.486-2.079h-.603v-.43c.86-.071 1.735-.127 2.594-.242zm11.937-.373h-.3c-.228 0-.33.043-.415.243-.489 1.204-1.549 3.282-3.956 8.757a7.5 7.5 0 0 1-1.605.257c-.129 0-.2-.057-.2-.187 0-.113.128-.171.286-.242.73-.33 1.561-1.262 2.437-3.196l-1.835-3.955c-.53-1.204-.774-1.677-1.132-1.677h-.3v-.43h3.18v.43h-.559c-.157 0-.23.014-.23.129 0 .128.56 1.231 1.706 3.84 1.132-2.68 1.433-3.453 1.433-3.682 0-.244-.114-.287-.387-.287h-.616v-.43h2.494zm6.063 4.814a4.12 4.12 0 0 1-2.795 1.09c-1.906 0-2.894-1.39-2.894-3.167 0-1.792 1.074-3.397 2.994-3.397 1.362 0 2.106.917 2.637 2.065l-4.07 1.074c.072 1.346.573 2.665 2.136 2.665.687 0 1.246-.244 1.776-.659zM89.6 37.39l2.393-.66c-.215-.558-.63-1.532-1.332-1.532-.918 0-1.19 1.533-1.162 2.22zm7.066 1.246c0 1.662.058 1.991.458 1.991h.63v.43h-3.366v-.43h.514c.159 0 .26-.014.26-.229v-6.06c0-2.252-.13-2.638-.474-2.638h-.602v-.43c.86-.087 1.72-.172 2.58-.316zm3.955 0c0 1.662.058 1.991.459 1.991h.629v.43h-3.367v-.43h.517c.157 0 .257-.014.257-.229v-6.06c0-2.252-.128-2.638-.473-2.638h-.6v-.43c.86-.087 1.718-.172 2.578-.316zm7.28 1.561a4.12 4.12 0 0 1-2.795 1.09c-1.907 0-2.894-1.39-2.894-3.167 0-1.792 1.074-3.397 2.995-3.397 1.361 0 2.106.917 2.636 2.065l-4.07 1.074c.072 1.346.575 2.665 2.135 2.665.688 0 1.247-.244 1.778-.659zm-4.042-2.808 2.395-.66c-.217-.558-.632-1.532-1.333-1.532-.918 0-1.19 1.533-1.161 2.22zm9.286-1.333-.171.172c-.129 0-.172-.1-.215-.2-.244-.56-1.004-.745-1.548-.745-.53 0-1.304.244-1.304.902 0 1.347 3.697.617 3.697 2.909 0 1.62-1.762 2.193-3.095 2.193a5.6 5.6 0 0 1-1.806-.286l-.2-1.118c-.028-.187.043-.316.214-.316.173 0 .201.115.259.302.171.614 1.06.86 1.691.86.673 0 1.648-.259 1.648-1.09 0-1.419-3.697-.601-3.697-2.91 0-1.074 1.074-2.006 2.722-2.006.574 0 1.189.087 1.705.33z" fill="#fff"/><path d="M18.037 7.369c-8.637 0-11.592 2.36-11.592 2.36l-.181-.74s-.212-.088-.28-.204l-.05-.28s-.386-.237-.462-.487c-.08-.262.133-.69.133-.69s-.161-.128-.18-.246c-.018-.12.104-.292.104-.292l-.095-.373c-.339-.195-.517-.403-.517-.618 0-1.199 5.624-2.757 12.578-2.757S30.097 4.6 30.097 5.799c0 .184-.2.327-.448.498l-.06.277s.112.148.102.254c-.012.107-.153.23-.153.23s.157.478.049.751c-.082.211-.379.443-.379.443l-.076.33-.28.152-.2.838s-1.637-2.203-10.615-2.203" fill="#FFF200"/><path d="M18.037 7.369c-8.637 0-11.592 2.36-11.592 2.36l-.181-.74s-.212-.088-.28-.204l-.05-.28s-.386-.237-.462-.487c-.08-.262.133-.69.133-.69s-.161-.128-.18-.246c-.018-.12.104-.292.104-.292l-.095-.373c-.339-.195-.517-.403-.517-.618 0-1.199 5.624-2.757 12.578-2.757S30.097 4.6 30.097 5.799c0 .184-.2.327-.448.498l-.06.277s.112.148.102.254c-.012.107-.153.23-.153.23s.157.478.049.751c-.082.211-.379.443-.379.443l-.076.33-.28.152-.2.838s-1.637-2.203-10.615-2.203Z" stroke="#231F20" stroke-width=".013" stroke-miterlimit="3.864"/><mask id="a" style="mask-type:luminance" maskUnits="userSpaceOnUse" x="6" y="3" width="8" height="7"><path d="m9.242 3.904-2.726.858 3.26 4.554 2.493-.428 1.463-.234-.666-5.249z" fill="#fff"/></mask><g mask="url(#a)"><path d="M5.706 8.247c1.361-1.04 6.084-2.136 11.844-2.136 5.675 0 10.463 1.05 11.915 2.075M5.706 5.543c1.361-1.04 6.084-2.137 11.845-2.137 5.674 0 10.462 1.05 11.914 2.076m-23.759.327c1.361-1.041 6.084-2.137 11.845-2.137 5.674 0 10.462 1.05 11.914 2.076m-23.759.98C7.067 5.688 11.79 4.59 17.551 4.59c5.674 0 10.462 1.05 11.914 2.076m-23.759.326c1.361-1.04 6.084-2.137 11.845-2.137 5.674 0 10.462 1.05 11.914 2.077m-23.759.293C7.067 6.186 11.79 5.09 17.551 5.09c5.674 0 10.462 1.05 11.914 2.076m-23.759.327c1.361-1.04 6.084-2.137 11.845-2.137 5.674 0 10.462 1.05 11.914 2.076m-23.759.322c1.361-1.04 6.084-2.137 11.845-2.137 5.674 0 10.462 1.05 11.914 2.076m-23.759.326c1.361-1.04 6.084-2.137 11.845-2.137 5.674 0 10.462 1.05 11.914 2.076m-23.759.556c1.361-1.04 6.084-2.137 11.845-2.137 5.674 0 10.462 1.05 11.914 2.076m-23.796.476c1.36-1.04 6.121-2.355 11.881-2.355 5.674 0 10.464 1.048 11.915 2.075M5.703 9.2c1.36-1.04 6.087-2.363 11.849-2.363 5.673 0 10.461 1.05 11.914 2.076m-23.659.521C7.17 8.395 11.79 7.07 17.551 7.07c5.673 0 10.463 1.05 11.914 2.076M5.807 10.215c1.362-1.04 5.983-2.32 11.744-2.32 5.673 0 10.463 1.05 11.914 2.077m-23.49.515c1.36-1.04 5.815-2.358 11.576-2.358 5.674 0 10.462 1.049 11.914 2.075" stroke="#231F20" stroke-width=".049" stroke-miterlimit="3.864"/></g><mask id="b" style="mask-type:luminance" maskUnits="userSpaceOnUse" x="22" y="3" width="8" height="8"><path d="m22.815 8.903 2.942.464 2.648.727.457.256.036-.223c-.003-.114-.064-.281-.064-.281l-.205-.263.14-.781-1.19-1.187-.103-.397 1.918-.565.267-.265.266-.53-.598-.663-1.787-.625-2.347-.63-1.983-.364z" fill="#fff"/></mask><g mask="url(#b)"><path d="M6.095 8.393c1.355-1.042 6.054-2.14 11.786-2.14 5.647 0 10.413 1.051 11.857 2.08M6.095 5.685c1.355-1.043 6.054-2.14 11.786-2.14 5.647 0 10.413 1.05 11.857 2.079M6.095 5.95C7.45 4.909 12.149 3.81 17.88 3.81c5.647 0 10.413 1.05 11.857 2.079m-23.643.982c1.355-1.043 6.11-2.244 11.841-2.244 5.647 0 10.358 1.154 11.802 2.182m-23.643.328c1.355-1.043 6.054-2.14 11.786-2.14 5.647 0 10.413 1.05 11.857 2.079M6.095 7.37c1.355-1.043 6.054-2.14 11.786-2.14 5.647 0 10.413 1.052 11.857 2.08m-23.643.326c1.355-1.043 6.054-2.14 11.786-2.14 5.647 0 10.413 1.05 11.857 2.079m-23.643.323c1.355-1.042 6.054-2.14 11.785-2.14 5.647 0 10.413 1.051 11.857 2.08m-23.643.326c1.355-1.042 6.054-2.14 11.786-2.14 5.647 0 10.413 1.052 11.857 2.08M6.095 8.66C7.45 7.617 12.149 6.52 17.88 6.52c5.647 0 10.413 1.052 11.857 2.079m-23.643.257c1.355-1.042 6.054-2.14 11.786-2.14 5.647 0 10.468 1.118 11.912 2.145m-23.698.261c1.355-1.043 6.054-2.14 11.786-2.14 5.647 0 10.413 1.052 11.857 2.08m-23.643.293c1.355-1.042 6.11-2.187 11.841-2.187 4.494 0 8.13.658 10.155 1.444m-21.996 1.57c1.355-1.043 6.062-1.84 11.786-2.14 5.676-.3 10.413 1.05 11.857 2.08m-23.643.293c1.355-1.042 6.061-1.849 11.786-2.14 5.78-.294 10.39 1.104 11.835 2.133" stroke="#231F20" stroke-width=".049" stroke-miterlimit="3.864"/></g><path d="M28.58 3.648a1.477 1.477 0 1 1 2.954.001 1.477 1.477 0 0 1-2.953 0" fill="#fff"/><path d="M28.58 3.648a1.477 1.477 0 1 1 2.954.001 1.477 1.477 0 0 1-2.953 0Z" stroke="#231F20" stroke-width=".288" stroke-miterlimit="3.864"/><path d="M30.895 3.001a1.059 1.059 0 0 1-1.145 1.66m.724-1.508a.648.648 0 0 1-.418 1.143l-.202-.033" stroke="#231F20" stroke-width=".144" stroke-miterlimit="3.864"/><path d="M3.344 3.659a1.476 1.476 0 1 1 2.952 0 1.476 1.476 0 0 1-2.952 0" fill="#fff"/><path d="M3.344 3.659a1.476 1.476 0 1 1 2.952 0 1.476 1.476 0 0 1-2.952 0Z" stroke="#231F20" stroke-width=".288" stroke-miterlimit="3.864"/><path d="M5.657 3.012A1.058 1.058 0 0 1 4.512 4.67m.725-1.508a.648.648 0 0 1-.417 1.144l-.204-.033" stroke="#231F20" stroke-width=".144" stroke-miterlimit="3.864"/><path d="M12.728 1.357a1.476 1.476 0 1 1 2.907.515 1.476 1.476 0 0 1-2.907-.515" fill="#fff"/><path d="M12.728 1.357a1.476 1.476 0 1 1 2.907.515 1.476 1.476 0 0 1-2.907-.515Z" stroke="#231F20" stroke-width=".288" stroke-miterlimit="3.864"/><path d="M15.138 1.098a1.058 1.058 0 0 1-1.121 1.534l-.295-.098m.976-1.36a.648.648 0 0 1-.61 1.053l-.194-.066" stroke="#231F20" stroke-width=".144" stroke-miterlimit="3.864"/><path d="M23.126 1.81a1.476 1.476 0 1 1 2.907.513 1.476 1.476 0 0 1-2.907-.514" fill="#fff"/><path d="M23.126 1.81a1.476 1.476 0 1 1 2.907.513 1.476 1.476 0 0 1-2.907-.514Z" stroke="#231F20" stroke-width=".288" stroke-miterlimit="3.864"/><path d="M25.536 1.55a1.057 1.057 0 0 1-1.12 1.533l-.296-.098m.976-1.359a.647.647 0 0 1-.61 1.053l-.194-.067" stroke="#231F20" stroke-width=".144" stroke-miterlimit="3.864"/><path d="M6.213 10.144c.05-1.13 5.169-2.682 11.434-2.731 6.429-.051 11.256 1.279 11.256 2.731 0 1.453-5.08 2.63-11.345 2.63s-11.41-1.178-11.345-2.63" fill="#FFF200"/><path d="M5.423 6.353c1.387-1.069 6.2-2.192 12.071-2.192 5.783 0 10.664 1.076 12.144 2.13M6.212 10.143c.05-1.13 5.169-2.682 11.434-2.731 6.429-.051 11.256 1.279 11.256 2.731 0 1.453-5.08 2.63-11.345 2.63s-11.41-1.178-11.345-2.63Z" stroke="#231F20" stroke-width=".288" stroke-miterlimit="3.864"/><path d="m5.534 6.79 2.127.496L6.24 9.013m11.154-4.591-2.47 1.423 2.53 1.199 2.521-1.2z" stroke="#231F20" stroke-width=".216" stroke-miterlimit="3.864"/><path d="m17.401 4.998-1.432.825 1.467.696 1.462-.696z" fill="#ED1C24"/><path d="m29.568 6.564-2.073.63 1.351 1.535M17.401 4.998l-1.432.825 1.467.696 1.462-.696z" stroke="#231F20" stroke-width=".216" stroke-miterlimit="3.864"/><path d="M29.796 5.303a.458.458 0 1 1 .32.675l-.078-.02m.272-.62.103.223-.037.088" stroke="#231F20" stroke-width=".144" stroke-miterlimit="3.864"/><path d="M6.74 5.617a.484.484 0 1 1 .969.002.484.484 0 0 1-.968-.002" fill="#fff"/><path d="M6.74 5.617a.484.484 0 1 1 .969.002.484.484 0 0 1-.968-.002Z" stroke="#231F20" stroke-width=".144" stroke-miterlimit="3.864"/><path d="M7.386 6.394a.508.508 0 1 1 1.017 0 .508.508 0 0 1-1.017 0" fill="#fff"/><path d="M7.386 6.394a.508.508 0 1 1 1.017 0 .508.508 0 0 1-1.017 0Z" stroke="#231F20" stroke-width=".144" stroke-miterlimit="3.864"/><path d="M7.955 7.264a.52.52 0 1 1 1.04-.001.52.52 0 0 1-1.04 0" fill="#fff"/><path d="M7.955 7.264a.52.52 0 1 1 1.04-.001.52.52 0 0 1-1.04 0Z" stroke="#231F20" stroke-width=".144" stroke-miterlimit="3.864"/><path d="M8.604 8.09a.54.54 0 1 1 1.08 0 .54.54 0 0 1-1.08 0" fill="#fff"/><path d="m7.284 5.418.156.225-.024.103m.563.424.154.225-.023.103m.45.537.159.23-.024.104m.545.455a.33.33 0 0 1 .16.28l-.116.245m-.68-.26a.54.54 0 1 1 1.08 0 .54.54 0 0 1-1.08 0Z" stroke="#231F20" stroke-width=".144" stroke-miterlimit="3.864"/><path d="M15.898 3.501a.455.455 0 1 1 .895.159.455.455 0 0 1-.895-.159" fill="#fff"/><path d="m16.478 3.372.102.22-.037.088m-.645-.179a.455.455 0 1 1 .895.159.455.455 0 0 1-.895-.159Z" stroke="#231F20" stroke-width=".144" stroke-miterlimit="3.864"/><path d="M16.398 4.293a.453.453 0 1 1 .892.157.453.453 0 0 1-.892-.157" fill="#fff"/><path d="m16.981 4.16.101.22-.036.088m-.648-.175a.453.453 0 1 1 .892.157.453.453 0 0 1-.892-.157Z" stroke="#231F20" stroke-width=".144" stroke-miterlimit="3.864"/><path d="M16.82 5.128a.474.474 0 1 1 .384.549.475.475 0 0 1-.384-.549" fill="#fff"/><path d="m17.435 4.982.106.23-.039.092m-.682-.176a.474.474 0 1 1 .384.549.475.475 0 0 1-.384-.549Z" stroke="#231F20" stroke-width=".144" stroke-miterlimit="3.864"/><path d="M17.14 6.047a.488.488 0 1 1 .961.17.488.488 0 0 1-.96-.17" fill="#fff"/><path d="m17.765 5.903.11.238-.04.094m-.695-.188a.488.488 0 1 1 .961.17.488.488 0 0 1-.96-.17Z" stroke="#231F20" stroke-width=".144" stroke-miterlimit="3.864"/><path d="M17.47 7a.51.51 0 1 1 1.003.178.51.51 0 0 1-1.003-.177" fill="#fff"/><path d="m18.183 6.84.098.272a.29.29 0 0 1-.338.232m-.473-.343a.51.51 0 1 1 1.003.177.51.51 0 0 1-1.003-.177Z" stroke="#231F20" stroke-width=".144" stroke-miterlimit="3.864"/><path d="M26.491 5.242a.45.45 0 0 1 .524-.366.451.451 0 1 1-.156.89.45.45 0 0 1-.368-.524" fill="#fff"/><path d="M26.491 5.242a.45.45 0 0 1 .524-.366.451.451 0 1 1-.156.89.45.45 0 0 1-.368-.524Z" stroke="#231F20" stroke-width=".144" stroke-miterlimit="3.864"/><path d="M26.754 6.202a.474.474 0 1 1 .933.166.474.474 0 0 1-.933-.166" fill="#fff"/><path d="M26.754 6.202a.474.474 0 1 1 .933.166.474.474 0 0 1-.933-.166Z" stroke="#231F20" stroke-width=".144" stroke-miterlimit="3.864"/><path d="M27.052 7.167a.487.487 0 1 1 .961.17.488.488 0 1 1-.96-.17" fill="#fff"/><path d="M27.052 7.167a.487.487 0 1 1 .961.17.488.488 0 1 1-.96-.17Z" stroke="#231F20" stroke-width=".144" stroke-miterlimit="3.864"/><path d="M27.236 8.21a.51.51 0 1 1 1.005.179.51.51 0 0 1-1.005-.178" fill="#fff"/><path d="m26.617 4.23.1.222-.036.088m.393.57.101.218-.036.089m.23.638.105.23-.038.092m.241.647.11.237-.04.093m.202.696.099.271a.293.293 0 0 1-.339.232m-.473-.342a.51.51 0 1 1 1.005.178.51.51 0 0 1-1.005-.178Z" stroke="#231F20" stroke-width=".144" stroke-miterlimit="3.864"/><mask id="c" style="mask-type:luminance" maskUnits="userSpaceOnUse" x="6" y="8" width="23" height="5"><path d="M17.647 8.48c-5.55.044-10.138 1.207-11.16 2.272 1.1 1.15 5.35 2.03 10.96 2.03 5.574 0 10.125-.893 11.267-2.162l-.01-.016c-1.015-1.19-5.261-2.126-10.681-2.126z" fill="#fff"/></mask><g mask="url(#c)"><path d="M16.906 12.414c-5.874-.044-10.616-1.118-10.9-2.462m10.9 2.223c-5.874-.044-10.616-1.119-10.9-2.462m10.948 2.256c-5.873-.043-10.615-1.118-10.9-2.461m10.9 2.189c-5.873-.044-10.615-1.119-10.9-2.461m10.9 2.188c-5.873-.044-10.615-1.118-10.9-2.461m10.9 2.193c-5.873-.044-10.615-1.118-10.9-2.461m10.9 2.155c-5.873-.044-10.615-1.118-10.9-2.461m10.9 2.222c-5.873-.044-10.615-1.118-10.9-2.461m10.9 2.193C11.081 10.3 6.34 9.225 6.054 7.882m10.9 2.188c-5.873-.043-10.615-1.118-10.9-2.46m10.9 2.188C11.081 9.754 6.34 8.68 6.054 7.337m10.9 2.193c-5.873-.043-10.615-1.118-10.9-2.461m10.9 2.172C11.081 9.198 6.34 8.124 6.054 6.78m11.861 5.63c5.873-.045 10.616-1.12 10.9-2.462m-10.9 2.221c5.873-.041 10.616-1.117 10.9-2.46m-10.949 2.256c5.874-.044 10.616-1.118 10.9-2.462m-10.9 2.189c5.874-.043 10.616-1.118 10.9-2.461m-10.9 2.188c5.874-.043 10.616-1.118 10.9-2.46m-10.9 2.192c5.874-.043 10.616-1.117 10.9-2.46m-10.9 2.154c5.874-.043 10.616-1.117 10.9-2.461m-10.9 2.222c5.874-.043 10.616-1.117 10.9-2.461m-10.9 2.193c5.874-.043 10.616-1.117 10.9-2.46m-10.9 2.188c5.874-.044 10.616-1.118 10.9-2.461m-10.9 2.188c5.874-.043 10.616-1.117 10.9-2.461m-10.9 2.193c5.874-.043 10.616-1.118 10.9-2.46m-10.9 2.172c5.874-.044 10.616-1.119 10.9-2.462m-10.9 2.189C23.74 8.92 28.28 7.846 28.563 6.503" stroke="#231F20" stroke-width=".05" stroke-miterlimit="3.864"/></g><path d="M6.486 10.751c1.023-1.064 5.61-2.227 11.16-2.27 5.6-.045 10.02.905 11.057 2.124l.01.014c-1.142 1.27-5.692 2.164-11.266 2.164-5.611 0-9.86-.881-10.96-2.032Z" stroke="#231F20" stroke-width=".288" stroke-miterlimit="3.864"/><path d="M13.666 8.928s-.477 1.074-.34 1.76c.192.964 1.731 1.832 1.731 1.832l3.659.067s.28-1.314.276-2.165c-.004-.652-.175-1.662-.175-1.662s-1.655-.073-2.713-.033c-.953.036-2.438.201-2.438.201" fill="#FFF200"/><path d="M13.666 8.928s-.477 1.074-.34 1.76c.192.964 1.731 1.832 1.731 1.832l3.659.067s.28-1.314.276-2.165c-.004-.652-.175-1.662-.175-1.662s-1.655-.073-2.713-.033c-.953.036-2.438.201-2.438.201Z" stroke="#FFF200" stroke-width=".05" stroke-miterlimit="3.864"/><path d="M24.508 9.134s.054.917-.138 1.453c-.302.844-1.555 1.693-1.555 1.693l-2.644.173s.425-1.2.54-2c.096-.667.071-1.726.071-1.726h.302z" fill="#FFF200"/><path d="M24.508 9.134s.054.917-.138 1.453c-.302.844-1.555 1.693-1.555 1.693l-2.644.173s.425-1.2.54-2c.096-.667.071-1.726.071-1.726h.302z" stroke="#FFF200" stroke-width=".05" stroke-miterlimit="3.864"/><path d="M17.609 8.13a.625.625 0 1 1 1.231.217.625.625 0 0 1-1.231-.217" fill="#fff"/><path d="M17.609 8.13a.625.625 0 1 1 1.231.217.625.625 0 0 1-1.231-.217Z" stroke="#231F20" stroke-width=".142" stroke-miterlimit="3.864"/><path d="M18.484 7.93a.36.36 0 0 1 .121.333.36.36 0 0 1-.415.287" stroke="#231F20" stroke-width=".144" stroke-miterlimit="3.864"/><path d="M27.184 9.233a.627.627 0 1 1 1.096.61.627.627 0 0 1-1.096-.61" fill="#fff"/><path d="M28.067 9.335c.06.103.07.24.006.353a.36.36 0 0 1-.486.136m-.403-.59a.627.627 0 1 1 1.096.608.627.627 0 0 1-1.096-.609Z" stroke="#231F20" stroke-width=".144" stroke-miterlimit="3.864"/><path d="M9.184 9.055a.569.569 0 1 1 1.138-.002.569.569 0 0 1-1.138.002" fill="#fff"/><path d="M9.915 8.775c.093.055.16.16.16.28a.326.326 0 0 1-.326.322m-.565-.322a.569.569 0 1 1 1.138-.002.569.569 0 0 1-1.138.002Z" stroke="#231F20" stroke-width=".144" stroke-miterlimit="3.864"/><path d="M11.273 7.061c-.437.074-.69.13-1.216.184-.274.029-.648-.332-.686-.703-.037-.358.22-.776.488-.84.37-.089.725-.153 1.205-.23.139-.035.296-.402.296-.402.067.07.238.297.382.296.488-.076.902-.136 1.324-.155.267-.013.61.319.663.663.054.358-.16.816-.466.88-.439.093-.833.14-1.308.205-.14.034-.3.398-.3.398-.066-.07-.239-.297-.382-.296" fill="#E0EB39"/><path d="M11.273 7.061c-.437.074-.69.13-1.216.184-.274.029-.648-.332-.686-.703-.037-.358.22-.776.488-.84.37-.089.725-.153 1.205-.23.139-.035.296-.402.296-.402.067.07.238.297.382.296.488-.076.902-.136 1.324-.155.267-.013.61.319.663.663.054.358-.16.816-.466.88-.439.093-.833.14-1.308.205-.14.034-.3.398-.3.398-.066-.07-.239-.297-.382-.296Z" stroke="#231F20" stroke-width=".216" stroke-miterlimit="3.864"/><path d="M10.398 5.991c.293-.044.617-.115 1.016-.176.464-.072.858-.105 1.196-.157a.4.4 0 0 1 .45.32c.038.22-.144.422-.341.46-.36.07-.733.11-1.201.18l-1.018.154a.386.386 0 0 1-.456-.34c-.026-.219.131-.407.354-.44" fill="#00A650"/><path d="M10.398 5.991c.293-.044.617-.115 1.016-.176.464-.072.858-.105 1.196-.157a.4.4 0 0 1 .45.32c.038.22-.144.422-.341.46-.36.07-.733.11-1.201.18l-1.018.154a.386.386 0 0 1-.456-.34c-.026-.219.131-.407.354-.44Z" stroke="#231F20" stroke-width=".216" stroke-miterlimit="3.864"/><path d="M23.121 6.863c-.438-.065-.694-.09-1.213-.2-.27-.059-.513-.516-.435-.882.075-.352.448-.67.724-.647.38.03.735.078 1.217.153.143.011.406-.291.406-.291.041.087.135.356.271.399.489.08.9.152 1.307.262.26.072.483.493.427.836-.06.357-.406.726-.716.693-.446-.048-.836-.126-1.307-.21-.143-.01-.41.286-.41.286-.04-.087-.133-.356-.27-.399" fill="#E0EB39"/><path d="M23.121 6.863c-.438-.065-.694-.09-1.213-.2-.27-.059-.513-.516-.435-.882.075-.352.448-.67.724-.647.38.03.735.078 1.217.153.143.011.406-.291.406-.291.041.087.135.356.271.399.489.08.9.152 1.307.262.26.072.483.493.427.836-.06.357-.406.726-.716.693-.446-.048-.836-.126-1.307-.21-.143-.01-.41.286-.41.286-.04-.087-.133-.356-.27-.399Z" stroke="#231F20" stroke-width=".216" stroke-miterlimit="3.864"/><path d="M22.62 5.575c.294.049.623.081 1.02.146.464.076.85.165 1.186.22a.4.4 0 0 1 .329.444c-.03.221-.265.356-.466.331-.364-.044-.73-.12-1.198-.198l-1.015-.169a.384.384 0 0 1-.328-.463c.042-.217.25-.347.472-.31" fill="#00A650"/><path d="M22.62 5.575c.294.049.623.081 1.02.146.464.076.85.165 1.186.22a.4.4 0 0 1 .329.444c-.03.221-.265.356-.466.331-.364-.044-.73-.12-1.198-.198l-1.015-.169a.384.384 0 0 1-.328-.463c.042-.217.25-.347.472-.31Z" stroke="#231F20" stroke-width=".216" stroke-miterlimit="3.864"/><path d="M28.17 8.552s.218.09.343.171c.12.078.284.231.284.231m-.73-.242s.22.112.356.195c.142.088.352.245.352.245m-.519.751s.19.078.304.143c.146.082.353.245.353.245" stroke="#231F20" stroke-width=".05" stroke-miterlimit="3.864"/><path d="m28.349 7.447 1.201-.344.068.676-.412.512z" fill="#ED1C24"/><path d="m28.349 7.447 1.201-.344.068.676-.412.512z" stroke="#231F20" stroke-width=".013" stroke-miterlimit="3.864"/><path d="m29.182 8.272-.864-.832 1.17-.33" stroke="#231F20" stroke-width=".216" stroke-miterlimit="3.864"/><path d="m5.554 7.35 1.199.245-.85.938-.496-.485z" fill="#ED1C24"/><path d="m5.554 7.35 1.199.245-.85.938-.496-.485z" stroke="#231F20" stroke-width=".013" stroke-miterlimit="3.864"/><path d="m5.629 7.336 1.143.254-.827.902" stroke="#231F20" stroke-width=".216" stroke-miterlimit="3.864"/><path d="m6.445 9.728-.18-.74s-.213-.086-.28-.204l-.05-.28s-.387-.235-.464-.486c-.08-.263.133-.69.133-.69s-.16-.129-.178-.246c-.02-.119.103-.291.103-.291l-.094-.374c-.34-.196-.518-.403-.518-.617 0-1.2 5.625-2.757 12.577-2.757 6.953 0 12.602 1.557 12.602 2.757 0 .183-.198.327-.445.497l-.062.278s.103.147.101.253c0 .113-.12.262-.12.262s.122.46.018.719c-.084.211-.38.442-.38.442l-.077.33-.28.153-.199.837" stroke="#231F20" stroke-width=".288" stroke-miterlimit="3.864"/><path d="M6.146 4.83a.47.47 0 1 1 .94 0 .47.47 0 0 1-.94 0" fill="#fff"/><path d="M6.146 4.83a.47.47 0 1 1 .94 0 .47.47 0 0 1-.94 0Z" stroke="#231F20" stroke-width=".144" stroke-miterlimit="3.864"/><path d="M26.036 4.36a.454.454 0 1 1 .894.157.454.454 0 0 1-.894-.156" fill="#fff"/><path d="M26.036 4.36a.454.454 0 1 1 .894.157.454.454 0 0 1-.894-.156Z" stroke="#231F20" stroke-width=".144" stroke-miterlimit="3.864"/><path d="M25.598 3.463a.459.459 0 1 1 .904.159.459.459 0 0 1-.904-.16" fill="#fff"/><path d="m26.176 3.339.102.223-.037.088m-19.547.974.143.206-.022.096m18.783-1.463a.459.459 0 1 1 .904.159.459.459 0 0 1-.904-.16Z" stroke="#231F20" stroke-width=".144" stroke-miterlimit="3.864"/><path d="M15.37 2.716a.459.459 0 1 1 .905.16.459.459 0 0 1-.904-.16" fill="#fff"/><path d="m15.949 2.592.102.223-.038.088m-.642-.187a.459.459 0 1 1 .904.16.459.459 0 0 1-.904-.16Z" stroke="#231F20" stroke-width=".144" stroke-miterlimit="3.864"/><path d="m17.458 14.577 17.168 17.226-17.168 17.111L.405 31.803z" fill="#FFF200"/><path d="m17.458 14.577 17.168 17.226-17.168 17.111L.405 31.803z" stroke="#231F20" stroke-width=".574" stroke-miterlimit="3.864"/><path d="M18.692 20.715c0 1.274-.59 2.308-1.319 2.308-.728 0-1.318-1.034-1.318-2.308s.59-2.307 1.319-2.307c.728 0 1.318 1.033 1.318 2.307" fill="#00A650"/><path d="M16.726 21.465h-.098l-.239-.15c-.132-.19-.2-.467-.264-.739a6 6 0 0 1-.092-.762l.05-.253.029-.095.033.095.066.244c.01.201.037.472.088.736.06.257.13.525.239.676l.05.1.057.09zm.154-1.217-.076.006-.192-.11c-.098-.15-.147-.356-.194-.562a5 5 0 0 1-.067-.573l.052-.189.029-.072.033.07.063.183c.008.15.028.35.063.547.044.191.094.39.17.5l.061.148zm.14-1.102-.047.014-.13-.073a1.2 1.2 0 0 1-.093-.333 3 3 0 0 1-.032-.33l.055-.11.03-.04.031.04.061.103c.004.084.013.198.03.308.019.109.043.221.076.282l-.007.094zm.328-.474-.03-.033-.06-.087v-.528l.06-.087.03-.034.03.034.059.087v.528l-.059.087zm.55 3.871.083-.05.16-.147c.125-.118.257-.34.333-.585.079-.245.117-.502.135-.695l.07-.234.034-.09.025.091.047.247a3.6 3.6 0 0 1-.142.736c-.083.263-.222.51-.388.666l-.26.071zm.11-1.059.08-.058.058-.09.05-.1c.11-.15.18-.42.239-.676a6 6 0 0 0 .088-.736l.066-.245.034-.093.027.095.05.252a6 6 0 0 1-.091.762c-.065.272-.131.549-.263.739l-.24.15zm-.154-1.217.058-.052.06-.148c.077-.11.127-.308.17-.5.036-.197.056-.396.064-.547l.064-.182.032-.07.029.071.052.19a5 5 0 0 1-.066.572c-.047.207-.097.413-.194.562l-.193.11zm-.141-1.102.027-.043-.007-.096c.033-.06.058-.173.076-.282.017-.11.026-.224.03-.308l.06-.102.031-.04.03.04.056.109c-.004.09-.013.21-.032.33s-.044.238-.094.333l-.13.073z" fill="#131112"/><path d="m17.069 26.959-.037 3.308c-.13-.036-.752-.224-1.048-.52-.31-.31-.22-.677-.517-1.001-.486-.532-1.708-.698-1.708-.698s.51.429.783.753c.444.53.311 1.15.883 1.54.48.327 1.415.304 1.599.297l-.033 3.45c-.169-.086-.663-.358-.927-.718-.278-.38-.431-.604-.778-.92-.667-.61-2.044-1.085-2.044-1.085s.78 1.02 1.299 1.657c.36.443.454.823.94 1.125.45.28 1.272.316 1.505.321l-.045 3.968c-.226-.1-.803-.404-1.014-.924-.205-.507-.336-.706-.622-1.173-.588-.964-1.567-1.546-1.567-1.546s.515.977.817 1.615c.388.825.18 1.617.92 2.147.416.298 1.191.381 1.461.403l-.033 2.856s-.356.423-.673.531c-.51.174-1.215-.453-1.738-.317-.434.114-.662.333-.91.707.367-.18.632-.288 1.03-.193.344.082 1.144.5 1.144.5s-.221.272-.422.306c-.198.032-.564.298-.564.298s.487-.033.764.022c.271.055.658-.27.658-.27s.108.328.13.545c.035.337-.093.862-.093.862s.56-.532.546-.891c-.02-.578.144-1.032.144-1.032s.13.58.299.92c.174.347.2.978.2.978s.355-.517.277-.924c-.024-.13-.021-.608.1-.996.124.433.034.864.233 1.05.27.252.484.95.484.95s.218-.76-.03-1.07c-.181-.226.035-.462.035-.462s.313.125.509.218c.256.122.642.343.642.343s-.072-.406-.242-.586c-.137-.143-.441-.253-.441-.253s1.013-.351 1.36-.434c.398-.095.786.298.786.298s-.127-.584-.564-.698c-.524-.136-1.544.311-2.057.137-.316-.106-.672-.53-.672-.53l-.03-2.8c.082.005.862.204 1.42.086 1.233-.262 1.004-1.42 1.266-2.03.2-.465 1.295-.668 1.295-.668s-1.28-.054-1.868.405c-.405.316-.421.688-.75 1.083-.43.517-1.325.615-1.367.62l-.041-3.652s1.267.358 1.845-.073c.359-.266.37-.592.623-.958.377-.547 1.047-1.422 1.047-1.422s-1.13.507-1.701.99c-.346.293-.396.628-.79.85-.35.2-.996.249-1.027.25l-.038-3.125c.229.044 1.041.175 1.507-.06.51-.258.595-.669.94-1.124.368-.485.88-1.29.88-1.29s-1.006.42-1.534.859c-.322.266-.403.53-.745.77-.317.224-.87.4-1.048.454l-.03-2.795c.23-.021 1.285-.141 1.786-.578.657-.573.996-1.165.817-2.08-.133.292-.292.423-.503.676-.415.498-.546.562-.97.875-.369.272-1.025.555-1.137.682l-.022-2.07c.118-.012.48-.23.789-.37.47-.215.798-.237 1.21-.534.588-.42.912-.895.74-1.772-.127.278-.4.603-.652.87-.393.42-.875.35-1.283.652a6 6 0 0 0-.807.748l-.022-1.951c.447-.242.76-1.01.76-1.01s-.59.336-1.004.344c-.44.01-1.076-.344-1.076-.344s.33.767.79 1.009l-.037 3.265c-.128-.049-.72-.297-.983-.613-.281-.337-.156-.698-.428-1.042-.486-.616-1.857-.767-1.857-.767s.575.515.863.91c.376.515.238 1.058.73 1.464.485.399 1.517.402 1.673.402" fill="#00A650"/><path d="M20.508 37.035a7 7 0 0 0-.59.87c-.322.618-1.614 1.06-2.146 1.109m2.347-5.046c-.426.504-1.91.757-2.399.803m2.82-5.085c-.426.503-1.749 1.251-2.42 1.182m2.124-4.243c-.196.232-.492.442-.926.623a5 5 0 0 1-1.297.336m-1.777-1.216c-.35-.066-.68-.29-.906-.84-.262-.481-.781-.854-1.045-.878m2.143 5.625c-.35-.065-.636-.226-.925-.548-.479-.533-.723-1.457-.985-1.482m1.76 5.784c-.348-.066-.85-.516-1.226-1.04-.346-.486-.788-.97-.946-1.243m2.84 7.215c-.354-.029-1.462-.779-1.926-2.051-.182-.5-.526-.794-.714-1.03m2.778-8.724c.17.053.377.082.542.008m-.587 3.616a.47.47 0 0 0 .358.137c.133-.014.236-.05.296-.168m-.721 4.095c.266.235.595.215.803-.08m-.714-7.806-.037 3.31c-.13-.037-.752-.225-1.048-.52-.31-.312-.22-.678-.517-1.002-.486-.532-1.708-.698-1.708-.698s.51.429.783.753c.444.53.311 1.15.883 1.54.48.327 1.415.304 1.599.297l-.033 3.45c-.169-.086-.663-.358-.927-.718-.278-.38-.431-.604-.778-.92-.667-.61-2.044-1.085-2.044-1.085s.78 1.02 1.299 1.657c.36.443.454.823.94 1.125.45.28 1.272.316 1.505.321l-.045 3.968c-.226-.1-.803-.404-1.014-.924-.205-.507-.336-.706-.622-1.173-.588-.964-1.567-1.546-1.567-1.546s.515.977.817 1.615c.388.825.18 1.617.92 2.147.416.298 1.191.381 1.461.403l-.033 2.856s-.356.423-.673.531c-.51.174-1.215-.453-1.738-.317-.434.114-.662.333-.91.707.367-.18.632-.288 1.03-.193.344.082 1.144.5 1.144.5s-.221.272-.422.306c-.198.032-.564.298-.564.298s.487-.033.764.022c.271.055.658-.27.658-.27s.108.328.13.545c.035.337-.093.862-.093.862s.56-.532.546-.891c-.02-.578.144-1.032.144-1.032s.13.58.299.92c.174.347.2.978.2.978s.355-.517.277-.924c-.024-.13-.021-.608.1-.996.124.433.034.864.233 1.05.27.252.484.95.484.95s.218-.76-.03-1.07c-.181-.226.035-.462.035-.462s.313.125.509.218c.256.122.642.343.642.343s-.072-.406-.242-.586c-.137-.143-.441-.253-.441-.253s1.013-.351 1.36-.434c.398-.095.786.298.786.298s-.127-.584-.564-.698c-.524-.136-1.544.311-2.057.137-.316-.106-.672-.53-.672-.53l-.03-2.8c.082.005.862.204 1.42.086 1.233-.262 1.004-1.42 1.266-2.03.2-.465 1.295-.668 1.295-.668s-1.28-.054-1.868.405c-.405.316-.421.688-.75 1.083-.43.517-1.325.615-1.367.62l-.041-3.652s1.267.358 1.845-.073c.359-.266.37-.592.623-.958.377-.547 1.047-1.422 1.047-1.422s-1.13.507-1.701.99c-.346.293-.396.628-.79.85-.35.2-.996.249-1.027.25l-.038-3.125c.229.044 1.041.175 1.507-.06.51-.258.595-.669.94-1.124.368-.485.88-1.29.88-1.29s-1.006.42-1.534.859c-.322.266-.403.53-.745.77-.317.224-.87.4-1.048.454l-.03-2.795c.23-.021 1.285-.141 1.786-.578.657-.573.996-1.165.817-2.08-.133.292-.292.423-.503.676-.415.498-.546.562-.97.875-.369.272-1.025.555-1.137.682l-.022-2.07c.118-.012.48-.23.789-.37.47-.215.798-.237 1.21-.534.588-.42.912-.895.74-1.772-.127.278-.4.603-.652.87-.393.42-.875.35-1.283.652a6 6 0 0 0-.807.748l-.022-1.951c.447-.242.76-1.01.76-1.01s-.59.336-1.004.344c-.44.01-1.076-.344-1.076-.344s.33.767.79 1.009l-.037 3.265c-.128-.049-.72-.297-.983-.613-.281-.337-.156-.698-.428-1.042-.486-.616-1.857-.767-1.857-.767s.575.515.863.91c.376.515.238 1.058.73 1.464.485.399 1.517.402 1.673.402Z" stroke="#231F20" stroke-width=".177" stroke-miterlimit="3.864"/><path d="m16.842 22.556-.095.01-.261-.072c-.167-.154-.305-.403-.389-.665a3.6 3.6 0 0 1-.142-.737l.047-.246.026-.093.036.092.067.233c.02.193.056.451.136.696.075.245.207.467.331.584l.162.147z" fill="#131112"/></svg>