<svg xmlns="http://www.w3.org/2000/svg" viewBox="0 0 674.76 181.8" fill="#fff"><path d="M233.12 70.51h21.5l3.51 10.37h10.29l-18.98-54.04h-10.75l-18.98 54.04h9.91l3.51-10.37Zm10.75-31.62 7.7 22.79h-15.4zm429.68 111.36c-1.6 0-2.21-.69-2.21-2.52v-14.71c0-2.68-.15-5.49-1.14-8.01-2.28-5.94-8.07-8.07-14.86-8.07-8.85 0-15.93 3.96-16.46 12.87h9.22c.23-3.66 2.82-5.64 7.24-5.64 5.42 0 6.71 2.52 6.71 6.26v2.44l-11.67.84c-7.55.53-13.41 4.87-13.41 12.42 0 6.48 4.87 12.42 14.32 12.42 5.65 0 10.22-2.74 12.05-5.94.3 2.97 2.59 5.56 6.7 5.56 2.28 0 3.12-.38 4.72-1.07v-7.01s-.61.15-1.22.15Zm-11.51-8.47c0 5.87-4.19 9.08-10.14 9.08-2.98 0-5.65-1.91-5.65-4.96 0-3.2 2.82-4.96 5.72-5.19l10.07-.76zm-375.48-24.84c-5.41 0-9.68 1.98-12.65 5.02-3.81 3.88-5.71 9.53-5.71 15.86s2.13 12.05 6.09 15.86c3.12 2.97 7.09 4.87 12.5 4.87 5.03 0 9.98-1.6 13.34-5.56 1.52-1.83 3.12-4.96 3.35-7.32h-9.15c-.38 1.45-1.07 2.52-1.91 3.36-1.37 1.37-3.05 1.91-5.79 1.91-2.59 0-4.5-1.14-5.87-2.44-1.91-1.83-2.97-4.73-2.9-7.78h26.53c0-.84.07-2.66.07-2.66.15-4.95-.54-9.45-3.43-13.8-3.28-4.95-8.61-7.31-14.48-7.31Zm-8.77 16.85c.07-2.59.69-4.42 2.06-6.18 1.37-1.83 3.73-3.05 6.63-3.05 2.75 0 4.73.92 6.02 2.29 1.52 1.68 2.36 3.97 2.44 6.95h-17.15Z"/><path d="M273.67 97.42c7.09 0 11.12-4.27 11.12-11.04V41.25h-9.6v43.3c0 2.67-1.6 4.27-4.57 4.27-1.45 0-1.83-.15-4.65-.46v8.07c1.75.46 3.13.68 4.35.84 1.22.15 2.29.15 3.35.15m-23.62 23.25c-1.68-2.06-5.34-3.73-10.37-3.73-4.05 0-7.25 1.22-9.69 3.2-4.72 3.88-7.08 9.9-7.08 17.68s2.28 13.42 7.01 17.3c2.44 1.98 5.72 3.36 9.68 3.36 4.35 0 8.77-1.6 11.13-5.25l.61 4.34h8.22v-55.03h-9.52v18.14Zm-8.54 29.81c-2.98 0-5.04-1.37-6.41-3.13-1.98-2.59-2.52-6.25-2.52-9.68s.53-7.02 2.52-9.61c1.37-1.75 3.43-3.12 6.41-3.12 7.47 0 9 7.02 9 12.73s-1.53 12.81-9 12.81M43.05 101.97 91.06 150l48.03-48.04-48.03-48.02zm48.72-44.21v43.52h4.89V62.65l4.89 4.88v33.75h4.88V72.42l4.88 4.89v23.97h4.9V82.19l4.89 4.88v14.21h4.88v-9.31l4.89 4.89v4.42h4.42l.69.68-.72.73h-28.84v12.17h16.69l-4.88 4.88h-11.81v11.82l-4.88 4.91v-16.72h-9.79v26.47l-.7.69-.7-.69V102.7h-4.88v38.64l-4.89-4.89V102.7h-4.89v28.86l-4.89-4.89v-23.98h-4.89v19.1l-4.89-4.9v-14.2h-4.89V112l-4.88-4.88v-4.43h-4.42l-.7-.7.7-.71h28.86V89.13h-16.7l4.9-4.89h11.8V72.4l4.9-4.88v16.72h9.77V57.77l.72-.72.68.71Z"/><path d="M91.77 102.69h9.79v12.17h-9.79zm461.8-26.37c1.53-1.83 3.13-4.95 3.35-7.32h-9.15c-.38 1.45-1.07 2.52-1.9 3.36-1.37 1.37-3.05 1.91-5.79 1.91-2.59 0-4.5-1.14-5.87-2.44-1.91-1.83-2.97-4.73-2.9-7.78h26.53c0-.84.08-2.66.08-2.66.15-4.95-.53-9.45-3.43-13.8-3.28-4.95-8.61-7.31-14.48-7.31-5.41 0-9.68 1.98-12.65 5.03-3.81 3.88-5.71 9.53-5.71 15.86s2.13 12.05 6.09 15.86c3.12 2.97 7.09 4.87 12.5 4.87 5.03 0 9.99-1.6 13.34-5.56Zm-20.28-25.39c1.37-1.83 3.73-3.05 6.63-3.05 2.74 0 4.72.92 6.02 2.29 1.53 1.68 2.36 3.97 2.44 6.94h-17.15c.08-2.59.69-4.42 2.06-6.18M80.6 89.14h9.77v12.15H80.6z"/><path d="M149.59 0H32.21C14.42 0 0 14.42 0 32.21V149.6c0 17.78 14.42 32.21 32.2 32.2h117.39c17.8 0 32.21-14.42 32.2-32.2V32.21C181.8 14.42 167.39 0 149.59 0m-58.5 20.05c1.15 0 2.08.93 2.08 2.08s-.93 2.08-2.08 2.08S89 23.28 89 22.13s.94-2.08 2.09-2.08m-14.14 8.42c1.16 0 2.25.21 3.24.58 1.46-1.67 3.8-2.76 6.44-2.76 1.64 0 3.16.42 4.42 1.13 1.26-.72 2.79-1.13 4.42-1.13 2.64 0 5 1.09 6.43 2.76 1.04-.39 2.14-.58 3.25-.58 4.42 0 7.99 3.03 7.99 6.78 0 1.8-.82 3.44-2.18 4.65l-2.17-2.17c.81-.66 1.29-1.53 1.29-2.48 0-2.05-2.21-3.7-4.93-3.7-.65 0-1.28.1-1.84.27.09.41.13.83.13 1.26 0 1.35-.46 2.6-1.25 3.67l-2.21-2.23c.26-.43.4-.93.4-1.44 0-2.05-2.21-3.7-4.91-3.7-1.06 0-2.04.24-2.83.67v4.46h-3.07v-4.39c-.83-.46-1.85-.74-2.95-.74-2.71 0-4.91 1.65-4.91 3.7 0 .51.15 1.01.39 1.44l-2.21 2.23c-.8-1.06-1.26-2.32-1.26-3.67 0-.43.04-.85.13-1.26-.57-.17-1.18-.27-1.83-.27-2.72 0-4.92 1.66-4.92 3.7 0 .95.48 1.82 1.28 2.48l-2.18 2.17c-1.35-1.21-2.17-2.85-2.17-4.65 0-3.74 3.58-6.78 7.99-6.78Zm-.62 14.5c.77.08 1.42.64 1.81 1.47-.56.73-1.31 1.12-2.07 1.05s-1.4-.63-1.8-1.45c-.91-.12-1.64-.57-1.96-1.27-.32-.71-.14-1.54.38-2.3.9.13 1.63.56 1.95 1.27.32.7.14 1.53-.37 2.3.56-.73 1.3-1.15 2.06-1.07m14.77 1.69c5.49 0 10.61 1.26 14.99 3.34l-1.71 2.6c-3.88-1.79-8.46-2.98-13.32-2.98s-9.4 1.19-13.28 2.98l-1.72-2.59c4.43-2.13 9.57-3.35 15.04-3.35m-10.3-4.88c-.15-.75.18-1.53.84-2.17.87.31 1.49.89 1.65 1.64s-.17 1.53-.82 2.16c.69-.58 1.49-.83 2.22-.59.75.24 1.25.92 1.46 1.81-.69.59-1.51.85-2.23.6-.74-.23-1.25-.92-1.48-1.8.17.88-.02 1.72-.59 2.25-.57.51-1.43.61-2.3.37-.15-.91.02-1.74.59-2.27.59-.51 1.43-.6 2.3-.34-.84-.33-1.47-.9-1.63-1.65Zm9.05-1.2c0-.77.49-1.46 1.28-1.94.78.49 1.27 1.18 1.27 1.94s-.49 1.46-1.27 1.95c.81-.45 1.65-.51 2.31-.13.68.4 1.03 1.17 1.06 2.08-.8.43-1.65.51-2.32.12-.66-.39-1.02-1.16-1.05-2.07-.03.91-.37 1.69-1.05 2.07s-1.52.31-2.33-.12c.04-.91.39-1.68 1.06-2.08.66-.38 1.5-.32 2.32.13-.78-.49-1.27-1.17-1.27-1.95Zm8.92.67c.17-.75.79-1.33 1.66-1.64.67.65 1 1.43.83 2.17-.16.75-.76 1.32-1.63 1.65.88-.26 1.71-.16 2.29.34.57.53.77 1.35.6 2.27-.87.25-1.73.14-2.29-.37-.57-.52-.76-1.36-.61-2.25-.22.88-.73 1.57-1.45 1.8-.75.25-1.55-.02-2.26-.6.22-.89.74-1.57 1.46-1.81.73-.24 1.55 0 2.24.61-.64-.64-.99-1.41-.83-2.18Zm7.2 6.25c-.76.07-1.5-.32-2.07-1.05.41-.83 1.04-1.39 1.8-1.47.77-.08 1.53.34 2.08 1.07-.53-.77-.7-1.6-.37-2.3.32-.71 1.05-1.14 1.95-1.27.52.76.69 1.59.38 2.3s-1.05 1.15-1.95 1.27c-.4.82-1.04 1.38-1.82 1.45m-68.29 58.48c-1.1 0-2-.88-2-1.99s.89-1.98 2-1.98 1.98.89 1.98 1.98-.89 1.99-1.98 1.99m53.39 53.4c-1.1 0-1.99-.89-1.99-1.99s.89-2 1.99-2 2.01.89 2.01 2-.9 1.99-2.01 1.99m49.06-55.35s-5.43 9.71-22.11 26.41c-16.88 16.88-26.88 22.58-26.88 22.58l-.08.05-.08-.05s-9.7-5.41-26.38-22.08c-16.89-16.9-22.59-26.9-22.59-26.9l-.04-.07.04-.08s5.42-9.69 22.1-26.39c16.9-16.88 26.88-22.57 26.88-22.58l.07-.03.06.03s9.72 5.4 26.41 22.08c16.9 16.9 22.6 26.88 22.6 26.89l.04.07zm4.32 1.95c-1.11 0-2-.88-2-1.99s.89-1.98 2-1.98 1.99.89 1.99 1.98-.89 1.99-1.99 1.99m243.03-34.75c0 7.62 3.96 12.19 11.96 12.19 2.82 0 5.49-.38 8.16-1.07v-8c-2.59.3-4.19.38-6.17.38-3.05 0-4.42-1.3-4.42-4.35V49.09H407v-7.84h-9.99V28.83l-9.52 2.36v10.06h-7.24v7.84h7.24v20.13Zm-58.17-27.98h-9.52v20.96c0 3.2-.61 6.78-2.9 8.92-1.14 1.15-2.67 1.99-4.88 1.99-5.03 0-6.87-2.9-6.87-7.55V41.25h-9.52V67.7c0 8.46 5.25 14.17 13.71 14.17 5.03 0 9.46-2.28 11.36-6.17l.69 5.18h7.92V41.25Zm-54.49-15.47h10.21v9.82h-10.21zm87.44 103.88c4.57-2.05 6.62-7.01 6.62-11.43 0-4.65-2.28-9.15-6.24-11.74-3.66-2.36-8.16-2.97-12.5-2.97h-21.5v54.04h21.5c5.18 0 10.22-.46 14.4-3.65 3.89-2.97 5.49-7.3 5.49-12.09 0-5.01-2.67-9.79-7.77-12.16m-23.87-17.68h12.12c4.42 0 8.39 1.68 8.39 6.87s-3.74 6.71-8.16 6.71h-12.35zm12.13 36.75H338.4v-14.95h12.43c5.19 0 9.23 2.05 9.23 7.82 0 5.46-4.95 7.13-9.53 7.13Zm99.15-68.31v.01zm14.57 44.74c2.9 0 4.95 1.22 6.1 2.98.61.99 1.07 2.21 1.15 3.66h9.37c-.15-3.12-1.22-6.25-3.05-8.61-2.74-3.43-7.55-6.25-13.57-6.25s-11.05 2.89-13.79 6.25c-2.97 3.73-4.34 8.69-4.34 14.48s1.37 10.75 4.34 14.48c2.74 3.35 7.77 6.25 13.79 6.25s10.83-2.82 13.57-6.25c1.83-2.36 2.9-5.49 3.05-8.61h-9.37a7.7 7.7 0 0 1-1.15 3.66c-1.14 1.76-3.2 2.97-6.1 2.97-2.59 0-4.5-1.14-5.79-2.52-2.29-2.52-2.67-6.25-2.67-9.99s.38-7.55 2.67-10.06c1.3-1.37 3.2-2.44 5.79-2.44m104.35-8.22c-6.03 0-11.13 2.82-13.88 6.17-2.97 3.73-4.64 7.93-4.64 14.64s1.67 10.9 4.64 14.64c2.74 3.35 7.85 6.17 13.88 6.17s11.13-2.82 13.87-6.17c2.97-3.73 4.64-7.93 4.64-14.64s-1.67-10.91-4.64-14.64c-2.75-3.35-7.85-6.17-13.87-6.17m6.02 30.79c-1.29 1.37-3.43 2.52-6.02 2.52s-4.73-1.14-6.03-2.52c-2.29-2.52-2.82-6.25-2.82-9.99s.53-7.47 2.82-9.99c1.3-1.37 3.43-2.52 6.03-2.52s4.73 1.14 6.02 2.52c2.29 2.52 2.82 6.25 2.82 9.99s-.53 7.47-2.82 9.99M449.67 73.42s-.61.15-1.22.15c-1.6 0-2.21-.69-2.21-2.52V56.34c0-2.68-.15-5.5-1.14-8.01-2.28-5.94-8.07-8.07-14.86-8.07-8.85 0-15.93 3.96-16.46 12.87H423c.23-3.66 2.82-5.64 7.25-5.64 5.41 0 6.71 2.52 6.71 6.26v2.44l-11.67.84c-7.55.53-13.41 4.87-13.41 12.42 0 6.48 4.87 12.42 14.33 12.42 5.64 0 10.22-2.74 12.05-5.94.3 2.97 2.59 5.56 6.7 5.56 2.28 0 3.12-.38 4.72-1.07v-7Zm-12.72-8.32c0 5.88-4.19 9.08-10.14 9.08-2.98 0-5.65-1.91-5.65-4.96 0-3.2 2.82-4.96 5.72-5.19l10.07-.76zm103.13 80.66v-43.3h-9.6v44.9c0 7.54 4.34 10.66 10.82 10.66 1.91 0 2.29-.15 4.19-.53v-7.99c-.53 0-.76.08-1.6.08-3.28 0-3.81-1.52-3.81-3.81Zm-35.67-28.82c-5.41 0-9.68 1.98-12.65 5.02-3.81 3.88-5.71 9.53-5.71 15.86s2.13 12.05 6.09 15.86c3.12 2.97 7.09 4.87 12.5 4.87 5.03 0 9.99-1.6 13.34-5.56 1.53-1.83 3.13-4.96 3.35-7.32h-9.15c-.38 1.45-1.07 2.52-1.91 3.36-1.37 1.37-3.05 1.91-5.79 1.91-2.59 0-4.5-1.14-5.87-2.44-1.91-1.83-2.97-4.73-2.9-7.78h26.53c0-.84.07-2.66.07-2.66.15-4.95-.53-9.45-3.43-13.8-3.28-4.95-8.61-7.31-14.48-7.31Zm-8.77 16.85c.07-2.59.68-4.42 2.06-6.18 1.37-1.83 3.73-3.05 6.63-3.05 2.75 0 4.72.92 6.02 2.29 1.53 1.68 2.36 3.97 2.44 6.95h-17.15Zm126.99-65.4V49.1h9.98v-7.84h-9.98V28.83l-9.52 2.36v10.06h-7.24v7.84h7.24v20.13c0 7.62 3.96 12.19 11.96 12.19 2.82 0 5.49-.38 8.16-1.07v-8c-2.59.3-4.19.38-6.17.38-3.05 0-4.42-1.3-4.42-4.35ZM490.3 80.88V59.23c0-4.96 2.36-10.67 7.78-10.67 4.8 0 6.1 2.82 6.1 7.7v24.62h9.44V54.12c0-8.23-4.41-13.86-12.87-13.86-5.34 0-9.61 2.36-11.98 6.47-1.98-4.04-5.79-6.47-11.35-6.47-5.26 0-9.08 2.59-11.29 6.24l-.76-5.25h-7.92v39.63h9.44V59.24c0-4.96 2.44-10.68 7.86-10.68 4.8 0 6.1 2.82 6.1 7.7v24.62h9.44ZM361.03 40.26c-4.58 0-9.31 1.9-11.67 6.09l-.69-5.1h-8v39.63h9.52V64.72c0-3.35-.08-7.47 1.3-10.59 1.3-2.9 3.51-5.04 6.87-5.04 5.03 0 6.56 2.82 6.56 7.47v24.32h9.52V54.43c0-8.23-4.95-14.17-13.41-14.17m255.05 76.68c-4.58 0-9.31 1.9-11.67 6.09l-.69-5.1h-7.99v39.63h9.52V141.4c0-3.35-.08-7.47 1.3-10.59 1.3-2.9 3.51-5.04 6.87-5.04 5.03 0 6.56 2.82 6.56 7.47v24.32h9.52v-26.45c0-8.23-4.95-14.17-13.41-14.17Zm-186.52 6.93-.84-5.94h-8.07v39.63h9.59v-19.97c0-6.41 3.51-11.21 10.22-11.21 1.07 0 2.21.15 3.28.38v-9.14c-.99-.15-1.98-.23-2.97-.23-4.65 0-9.38 1.91-11.21 6.47Zm170.51-42.99V54.43c0-8.23-4.95-14.17-13.41-14.17-4.57 0-9.3 1.9-11.67 6.09l-.68-5.1h-8v39.63h9.52V64.72c0-3.35-.08-7.47 1.29-10.59 1.3-2.9 3.51-5.04 6.87-5.04 5.03 0 6.56 2.82 6.56 7.47v24.32zm-190.64 66.85v-14.71c0-2.68-.15-5.49-1.14-8.01-2.29-5.94-8.07-8.07-14.86-8.07-8.85 0-15.93 3.96-16.46 12.87h9.22c.23-3.66 2.82-5.64 7.24-5.64 5.42 0 6.71 2.52 6.71 6.26v2.44l-11.67.84c-7.55.53-13.41 4.87-13.41 12.42 0 6.48 4.87 12.42 14.33 12.42 5.64 0 10.22-2.74 12.05-5.94.31 2.97 2.59 5.56 6.7 5.56 2.29 0 3.12-.38 4.72-1.07v-7.01s-.61.15-1.22.15c-1.6 0-2.21-.69-2.21-2.52ZM390 150.86c-2.97 0-5.64-1.91-5.64-4.96 0-3.2 2.82-4.96 5.72-5.19l10.07-.76v1.83c0 5.87-4.2 9.08-10.15 9.08"/></svg>