<svg xmlns="http://www.w3.org/2000/svg" viewBox="0 0 643.18 189.24" fill="#fff"><path d="M66.88 189.24h-1L0 123.06 66.38 55.9l66.35 66.29zM66.5 61.92 4.98 123.06l61.4 61.19 61.36-61.31-61.23-61.02ZM60.88.16l.51 2 1.45-.07C62.73.16 63.4-.26 65.39.14c.28.06 1.76 5.41 2.51.05h1.96l.05 1.92 1.47.05.71-1.72 2.79-.29v9.95l4.5-5.96 4.49 6.95c.56-3.04.09-8.39 2.99-9.95l.56 2.06 3.31-.92.15 1.84 2.49-1.97 1.51 2.97 2.98-1.98-.99 9.94c2.92.68 1.6-1.36 2.5-2.93.85-1.48 2.06-1.06 3.48-1.04l.5 4.97 3.51-7.95 1.06 1.94 2.79-.77.29 1.66 2.71-.67.28 1.66c.86.8 3.42-2.51 2.85.65-.34 1.9-4.4 13.17-5.51 13.43-3.88.88-1.13-5.61-1.49-5.96-3.6-1.33-3.91 3.48-5.58 3.85l-13.4-2.86c2.45-7.7-2.12-7.7-4.63-.95l-15.75-.98c-1.15-.18-.8-8.82-6.46-4.91l-.12 4.85-17.38 1.05c-1.32-.22-.57-6.12-3.08-5.03-2.97 1.29.49 5.32-3.47 6.45-3.7 1.06-7.71 1.42-11.41 2.57l-1.52-3.46-3.08-.59v5.98l-2.92-.06-5.05-13.39c1.33-1.92 3.05.4 3.13-2.32l2.71.65.71-1.85 2.32.9.59-1.84 3.51 7.96c4.16 1.09-.77-4.34 2.5-4.97 2.25-.44 2.5 3.67 4.47 3.98l-.99-9.95 3.98 1.99v-3l3 1.99.56-2.05 2.89 1.13c1.09-1.38-.12-2.61 2.54-2.06l1.01 8.96c3.37 1.05 1.69-4.51 3.6-5.02l3.27.16c1.17.79-.13 5.87 3.11 4.85V.66l2-.49Zm4 4.97h-2.99v4.99h2.99zm6.99 4.98c.72-6.63-4.7-6.63-3.99 0zM41.91 12.1c.42-2.35-.79-3.56-2.49-4.96l-1.5 1.5 1.09 3.39zm4.99-4.97h-2.99v3.98h2.99zm42.94 0-2.9.07-1.08 3.9h3.99V7.13Zm5 4.97c.11-2.09.39-3.72-1.49-4.96-1.88 1.23-1.61 2.86-1.49 4.96h2.99Zm-70.9-.99c-.11 2.09-.39 3.72 1.49 4.96l1.49-1.49c.39-2.07-.84-3.8-2.98-3.47m84.87 3.97.99-2.49c-.9-1.06-1.5-1.8-2.97-1.49l-1 3.97h2.98Zm-85.87 1.99c.43-2.22-.92-4.2-2.98-4.97-.27 2.63 0 5.26 2.98 4.97m89.87 0 1.01-3.46c-.76-3.86-7.09 3.34-1.01 3.46m387.48 142.31h-6l-.49-3.98c-16.14 14.13-33.11-3.42-26.97-21.9 5.36-16.14 30.96-16.54 32.47 1-1.97-.18-4.53.45-6.35-.14s-2.65-4.85-5.33-5.63c-12.01-3.5-16.13 9.68-12.99 18.93 2.89 8.51 18.18 7.79 17.67-2.2h-8v-5.97h15.98v19.9Zm-323.56-25.87c-1.97-.18-4.53.45-6.35-.14-1.62-.53-1.89-2.95-3.06-3.91-5.12-4.23-16.52 1.92-9.97 5.96 5.57 3.43 18.84 1.41 20.32 10.58 3.08 19.07-30.66 19.45-29.91 1.45l6.86.14c.23 8.25 16.26 8.45 16.12 1.31-.07-3.94-13.48-5.3-17-6.91-7.89-3.61-7.68-13.06-.92-17.86 8.46-6.01 23.89-2.13 23.91 9.39Zm-66.9-102.49-3.51 8.95c-5.54-.28 1.94-8.18-2-8.96-2.92-.57-3.06 5.52-4.44 6.55l-11.01-1.6.95-5.54c.33-2.08-3.45-3.54-3.96-1.77l-1.58 6.38-13.48-.48c-1.23-.85-.87-4.44-1.68-6.29-1.05-2.39-3.96-2.7-5.13-1.12s1.94 7.01-2.61 7.84c-1.64.3-10.55.3-11.86-.13-3-1 .15-8.13-5.62-6.83l-.12 7.83-10.26 2.18c-1.1-.06-1.74-8.02-5.59-7.03-.9.97 2.43 9.05-.5 8.94-.79-.03-5.68-8.18-1.79-9.74 6.76-2.72 21.27-4.8 28.71-5.22 18.47-1.05 37.9.38 55.47 6.03Zm311.57 91.54v36.82l-7.37.03-1.11-2.02c-13.42 10.22-23.73-8.7-16.32-20.24 4.16-6.48 10.85-7.73 16.8-2.65v-11.95h8Zm-14.34 15.17c-7.33.77-7.06 16.61.86 16.62 7.7.01 7.97-17.55-.86-16.62m-111.49-15.17v6.97H276.6v7.96h16.98c-.08 2.51.78 5.36-1.5 6.97H276.6v14.93h-6.99v-36.82h25.96Z"/><path d="M205.69 159.38c-2.24-.32-5.32.51-7.36.02-.81-.19-.57-2.05-1.16-2.06-1.62-.03-3.72 2.08-5.43 2.58-12 3.53-16.63-12.07-6.06-15.99 3.73-1.38 13.95-.24 10.04-5.97-4.44-1.61-6.64-.25-8.69 3.54l-6.32-.04c.35-9.37 9.81-11.82 17.7-9.18 10.54 3.53 3.94 19.12 7.27 27.09Zm-17.98-4.97c6.86.75 9.99-.55 8.98-7.96-5.18 1.74-10.23.66-8.98 7.96m135.82-6.97h-18.97c-.73 4.9 3.57 8.29 8.31 6.79 1.47-.47 2-2.41 4.18-2.8 1.28-.23 7.41-.85 6.48 1.48-4.69 11.69-26.65 9.95-27.03-5.95-.52-21.83 29.4-20.19 27.04.49Zm-7.98-3.98c1.47-7.37-9.82-8.05-11-1.5-.33 1.85.12 1.44 1.49 1.5 3.16.14 6.36-.1 9.51 0m135.81 3.98h-19.97c-.23 2.8 1.21 5.62 3.94 6.54 5.7 1.9 8.77-4.41 15.03-2.55-.79 6.96-8.75 9.8-15.25 8.72-17.59-2.94-13.65-33.84 7.3-28.16 6.64 1.8 9.61 9.14 8.95 15.46Zm-7.99-3.98c.1-7.95-11.99-8.2-10.98 0zm155.47-8.64c7.37 7.34 4.1 23.95-7.25 25.47-12.15 1.63-17.88-6.91-16.32-18.25 1.5-10.85 16.45-14.31 23.56-7.22Zm-5.92 3.92c-1.89-1.78-7.19-1.7-8.8.44-4.43 5.92-.54 18.22 7.04 14.73 4.78-2.2 5.2-11.92 1.76-15.17m-79.65-6.23v19.41c0 3.32 8.99 1.95 8.99-1v-18.41h7.99v26.87l-6.95-.06-.54-2.92c-3.84 4.05-10.11 5.62-14.56 1.56-.84-.77-2.92-4.27-2.92-5.05v-20.4zM106.8 42l.03 2.93c-19.9 5.1-40.86 6.51-61.3 3.88-4.42-.57-12.68-1.8-16.6-3.37-1.33-.53-3.13-1.22-3-2.98 26.02-7.93 54.65-7.25 80.87-.46m-7.97.96c-20.97-3.85-43.14-4.87-63.92.49 18.91 4.41 39.13 4.84 58.27 1.34 1.4-.26 5.42-.31 5.65-1.83m543.27 97.51c-1.93-.29-4.6.46-6.32.04-1.11-.28-.57-2.61-3.13-3.05-5.38-.91-9.8 2.27-3.35 4.33 5.78 1.85 14.25 1.18 13.87 10.12-.51 11.88-25.58 11.76-25.04-1.47 1.95.2 4.56-.47 6.35.14 2.35.79.71 4.75 8.17 3.89 3.87-.44 4.98-2.51 1.18-4.26-6.2-2.86-16.83-1.52-14.51-12s22.99-9.11 22.77 2.27Zm-282.62-7.96v16.42c0 1.78 2.57 5.06 4.66 5.27 1.44.15 5.33-2.48 5.33-3.28v-18.41h7.99v26.87l-6.95-.06-.54-2.92c-3.91 3.92-9.22 5.5-14.01 2.01-.81-.59-3.47-3.92-3.47-4.51v-21.4h6.99Zm-125.83 26.87h-6.99v-18.41c0-2.89-4.16-4.28-6.99-2.98-.46.21-3 2.77-3 2.98v18.41h-6.99v-26.87l6.37-.03 1.11 2.01c3.07-5.44 16.48-2.98 16.48 2.49v22.39Zm322.38-26.67 3.68 6.77c3.77-5.78 4.63-8.22 12.48-6.96l-7.85 13.26 8.85 13.6-9.01-.46-4.47-7.5-4.47 7.5-9.01.46 8.8-13.58-7.81-13.27 8.8.18ZM289.58 87.23c1.3-1.9 3.86-2.23 5.52-.52 1.88 1.95 4.93 14.84 6.38 18.52.51 1.3-.46 1.74 2.07 1.4.78-3.55 5.11-19.94 7.64-20.76 1.07-.35 2.27-.09 3.36-.14v26.87h-3V91.7l-7.53 20.95-3.33-.18-7.11-19.78v19.9c-1.85.22-2.92.05-3.99-1.49V87.22Zm-48.94 50.26h-4v-4.98h4.01l.55-7.97h6.43l-.01 7.98h4.01v4.98h-4v15.42l3.87 1.61.13 4.86c-2.19.22-10.99.47-10.99-2.49zM111.81 26.05l-1.51 2.99c-6.64-1.81-13.25-3.86-20.1-4.87-16.14-2.37-31.55-2.44-47.69-.02-6.06.91-11.88 3.35-17.54 4.43-1.96.37-2.63.96-4.03-1.06.09-1.66 12.4-4.7 14.75-5.19 25.24-5.26 51.53-3.5 76.11 3.72Zm110.86 86.56-3.04-.45c-.68-.53-.82-1.23-.96-2.03-.53-2.98-.54-18.97 0-21.91.5-2.75 2.39-2.93 4.85-2.31l13.13 20.73v-20.9h3v26.87l-4.51-.98-12.47-19.92zm101.86-22.89v7.96h13.98v2.99h-13.98v7.96h14.48c1.55 1.07 1.72 2.14 1.5 3.98h-18.47c-.11 0-1.5-1.39-1.5-1.49V87.24c0-.11 1.39-1.49 1.5-1.49h16.98l1.49 2.48-1.49 1.5h-14.48Zm109.85 0v7.96h13.98v2.99h-13.98v7.96h14.48c1.55 1.07 1.72 2.14 1.5 3.98h-18.47c-.11 0-1.5-1.39-1.5-1.49V87.24c0-.11 1.39-1.49 1.5-1.49h16.98l1.49 2.48-1.49 1.5h-14.48Zm-107.85 32.84h6.99v36.82h-6.99zm280.62 0h6.99v36.82h-6.99zm-202.73-9.95V85.74c9.82-.41 20.07-.73 21.02 11.39 1.16 14.87-8.44 16.32-21.02 15.48m3-3.98c5.29-.5 11.19 2.19 13.5-3.95 1.36-3.6 1.29-12.55-2.51-14.47l-10.99-.49zM345.5 85.74l4.51.98 12.47 19.92v-20.9h3v26.87l-3.81-.19-13.17-20.71v20.9h-3zm-135.81 0 3.04.45c1.4.96 1.29 15.34.9 17.91-1.14 7.54-7.49 9.66-14.39 8.47-2.46-.42-6.53-4.22-6.53-6.43v-20.4l3.04.45c2.04 1.4.5 14.51.9 18.02.98 8.82 13.04 5.3 13.04.94zm-38.95 26.87-3.86-.13-2.21-7.75-10.78.04c-1.31 3.1-1.34 8.61-6.11 7.84-.8-.84 6.4-19.3 7.5-21.88 1.47-3.44 3.9-8.13 6.69-2.71 3.63 7.06 5.6 17.1 8.77 24.59m-7.99-10.95-3.98-10.94-4 10.93h7.99Zm123.83 10.95-3.86-.13-2.21-7.75-10.78.04c-.09 1.75-3.41 10.58-6.11 7.84-1.02-1.03 8.47-24.19 10.56-26.81 2.16-.51 2.78.57 3.63 2.22 3.63 7.05 5.6 17.1 8.77 24.59m-7.99-10.95-3.98-10.94-4 10.93h7.99Zm60.92 30.85h6.99v26.87h-6.99zm196.73 0h6.99v26.87h-6.99zm-145.8-46.77.01 3.98h-9v22.89h-2.99V89.72h-8.99v-3.98zm-125.83 0 .01 3.98h-9v22.89h-2.99V89.72h-8.99v-3.98zm-77.89 0v23.39c0 .65-3.27 3.25-4.51 3.47-6.76 1.22-11.4-1.84-10.47-8.94h3.98c-2.44 8.08 8 7.17 8 2.49v-20.4h3Zm360.5 34.84c.99.91-5.08 7.04-6 7.45-1.94.87-3.97.49-5.98.5 3.54-5.26 4.36-9.52 11.98-7.95m-200.71 1.98v6.98l-6.06-.44c-1.57-1.03-.81-4.73-.94-6.53h7ZM96.84 105.65v21.89h21.97c.45 1.49-6.89 8.96-7.49 8.96H96.84v14.43l-8.99 8.46V136.5H70.87v-8.96h16.98v-21.89zm-33.96 14.92c-.48.51-7.45-4.74-8.91 5.55-.4 2.8 1.11 9.18-3.55 9.34-8.02.28-1.12-13.65-8.21-15.74-9.09-2.68-1.43 16.01-9.82 15.74-7-.22-1.07-18.22-9.77-15.76-4.37 1.24-1.76 9.25-3.7 12.8-3.75-3.01-8.15-6.29-8.91-11.36l1.43-1.57c.44-.19.44 2.65 3.14 2.75 6.18.22 4.28-8.27 5.85-11.7.68-1.49 3.89-3.39 4.98-4.97 4.65 3.14.22 15.26 6.16 16.81 7.91 2.06 2.75-16.33 8.84-16.89 8.03-.74 1.44 16.22 9.15 16.84 6.69.54 2.06-13.54 7.29-16.32 6.21-3.3 6.73 10.9 6 14.47Z"/><path d="M104.83 103.65H67.88v76.63c-.85.42-3-.84-3-1.49v-75.14H27.93c1.07-2.08 2.94-4.11 5.44-4.03 21.12 1.38 44.14-1.65 65.02 0 3.31.26 4.85.91 6.44 4.03"/><path d="M62.88 148.43c-1.01 1.09-3.56-3.88-6.97-.47-3.74 3.74.11 12.91-4.7 14.27-6.75 1.91-4.86-6.77-5.35-10.26-.86-6.13-7.8-7.24-7.95-.55l-2.54-1.98c-.47-1 1.29-2.89 1.52-4.53.53-3.75-1.75-10.63 3.56-11.42 8.17-1.22 1.8 10.78 6.87 15.03 2.13 1.79 5.59.99 6.39-1.76.94-3.22-1.19-12.62 3.69-13.3 7.62-1.06 5.14 10.13 5.48 14.97m13.99-50.75c-2.52-.08-5.37.77-6.99-1.49V68.82c1.32-.66 6.99 5.01 6.99 5.47zm-13.98 0h-7V75.29l7-6.47zm-.01 78.62c-5.14-4.52-13.78-9.66-5.32-15.83 7.43.75 4.97 10.43 5.32 15.83M48.9 97.68h-6.99c-1.14-7.38 1-10.97 6.99-14.93zm35.96-13.93c5.88 3.48 6.77 7.31 6 13.94h-6zm-56.94 57.72c-1.33-.62-8.18-6.86-6.98-7.96 6.2-.84 7.7 2.22 6.98 7.96"/></svg>