<svg viewBox="0 0 866 195" fill="#fff" xmlns="http://www.w3.org/2000/svg">
  <path d="M147.999 46.118C120.95 19.067 96.8.34 96.8.34S72.717 19.068 45.673 46.12C18.753 73.036.011 97.275.011 97.275s18.742 24.21 45.662 51.13c27.044 27.042 51.087 45.777 51.087 45.777s24.19-18.735 51.239-45.777c26.917-26.92 45.584-51.168 45.584-51.168S174.916 73.035 148 46.118m-9.512 92.778c-22.02 22.018-41.687 37.115-41.687 37.115s-19.6-15.097-41.619-37.115C33.27 116.982 18.143 97.28 18.143 97.28s15.126-19.741 37.038-41.655c22.019-22.022 41.62-37.12 41.62-37.12s19.667 15.098 41.686 37.12c21.914 21.914 36.927 41.617 36.927 41.617s-15.013 19.74-36.927 41.654M90.76 97.31v61.684c-5.569-4.643-14.377-12.27-24.188-21.758l-.038-39.962zm-36.305-.036v27.773c-14.313-15.054-23.86-27.314-24.192-27.74v-.033zm108.885.163c-1.123 1.428-10.519 13.268-24.229 27.683V97.274h24.344zm-36.307-.163v40.06c-9.835 9.506-18.645 17.134-24.194 21.745V97.274zm-24.194-12.14V73.02c0-3.69-2.388-6.045-6.079-6.045-3.692 0-6.038 2.354-6.038 6.045v12.116H66.529l9.056-33.317v-9.09h9.098v9.09h7.564v-9.09h9.102v9.09h7.564v-9.09h9.095v9.09l9.025 33.317zm162.429 66.678h-10.082l-19.24-54.48h11.746l9.62 29.228 2.96 9.898 2.959-9.898 9.435-29.228h11.748zm23.306.002v-39.673h10.453v39.673zm0-46.007V97.3h10.453v8.507zm18.776 46.005V97.345h10.545v54.467zm41.53-17.39h-10.73c-3.513 0-5.085 1.482-5.085 3.795 0 3.698 2.589 5.27 7.491 5.27 3.052 0 6.568-.926 8.326-1.85zm0 17.39v-2.037c-1.942 1.295-5.827 2.498-9.066 2.498-9.434 0-16.37-5.364-16.37-14.43 0-7.028 6.105-11.559 14.705-11.559h10.822v-1.666c0-3.144-1.664-4.255-7.305-4.255-4.533 0-10.361 1.203-14.245 2.868v-8.88c3.608-1.386 9.897-2.681 14.892-2.681 10.545 0 16.371 5.548 16.371 12.948v27.194zm42.178 0v-25.066c0-4.903-1.664-6.198-6.477-6.198-2.68 0-6.843.926-9.154 1.85v29.414h-9.806v-39.68h9.806v1.757c2.867-1.48 5.92-2.128 9.154-2.128 10.825 0 16.28 5.827 16.28 14.614v25.437zm42.44-26.452c0-3.24-2.313-5.182-5.735-5.182h-6.196c-3.424 0-5.736 1.942-5.736 5.182v13.317c0 3.331 2.312 5.274 5.736 5.274h6.196c3.422 0 5.735-1.943 5.735-5.274zm-5.826 27.284h-6.013c-8.42 0-15.539-5.827-15.539-14.245v-12.857c0-8.416 7.119-14.241 15.539-14.241h6.013c8.416 0 15.537 5.825 15.537 14.24V138.4c0 8.418-7.121 14.245-15.537 14.245m40.602-.832h-8.418l-15.262-39.68h10.639l5.642 15.816 3.328 10.913 3.148-10.913 5.548-15.817h10.728zm40.327-17.39h-10.735c-3.513 0-5.082 1.482-5.082 3.795 0 3.698 2.588 5.27 7.491 5.27 3.05 0 6.566-.926 8.326-1.85zm0 17.39v-2.037c-1.946 1.295-5.831 2.498-9.066 2.498-9.437 0-16.374-5.364-16.374-14.43 0-7.028 6.107-11.559 14.705-11.559h10.825v-1.666c0-3.144-1.666-4.255-7.306-4.255-4.535 0-10.36 1.203-14.248 2.868v-8.88c3.61-1.386 9.896-2.681 14.893-2.681 10.546 0 16.374 5.548 16.374 12.948v27.194zm34.55 0v-39.62h10.454v39.62zm0-45.983v-8.508h10.454v8.508zm35.538 45.983V97.31h10.543v54.502zm40.849-17.39H608.81c-3.516 0-5.087 1.482-5.087 3.795 0 3.698 2.59 5.27 7.489 5.27 3.052 0 6.57-.926 8.325-1.85zm0 17.39v-2.037c-1.94 1.295-5.825 2.498-9.065 2.498-9.432 0-16.37-5.364-16.37-14.43 0-7.028 6.105-11.559 14.708-11.559h10.82v-1.666c0-3.144-1.667-4.255-7.306-4.255-4.532 0-10.36 1.203-14.248 2.868v-8.88c3.61-1.386 9.898-2.681 14.896-2.681 10.54 0 16.371 5.548 16.371 12.948v27.194zm63.868.279h-8.044c-13.044 0-20.352-6.752-20.352-18.87v-17.3c0-11.744 8.141-19.236 22.568-19.236 6.477 0 12.95.647 19.149 2.865v9.621c-6.199-1.85-12.86-2.868-19.055-2.868-9.065 0-12.58 3.515-12.58 9.804v17.113c0 6.661 2.406 9.341 10.174 9.341h8.049c3.328 0 6.104-2.126 6.104-5.548v-8.695h-11.653v-9.159h21.736v17.854c0 8.785-7.677 15.078-16.096 15.078m47.173-27.473c0-2.59-1.017-3.607-3.979-3.607h-6.846c-3.421 0-4.901 1.387-4.901 4.808v2.13h15.726zm-15.726 11.1v1.758c0 4.347 1.758 6.012 8.325 6.012 5.09 0 10.08-1.296 13.876-2.868v8.97c-3.795 1.759-8.51 2.591-13.784 2.591-10.73 0-18.221-5.085-18.221-14.705v-11.38c0-9.064 6.473-14.335 15.817-14.335h5.55c7.307 0 13.413 5.457 13.413 11.933v12.025zm31.91 16.094V97.297h10.545v54.516zm34.99.46c-8.787 0-13.318-4.16-13.318-12.206v-19.611h-5.549v-8.324h5.55V97.297h9.71v14.835h9.805v8.324h-9.805v18.682c0 3.147.742 4.072 4.533 4.072 3.147 0 7.584-.739 9.436-1.294v9.065c-3.237.832-6.384 1.293-10.363 1.293m44.77-28.302h-9.156c.185-.925.185-1.296.185-1.758 0-1.665-1.387-1.942-2.87-1.942-3.233 0-6.75 1.295-8.601 2.497v29.044h-9.804v-39.68h9.804v2.311c2.589-1.573 5.737-2.588 8.789-2.588 5.458 0 11.932 2.774 11.932 9.156 0 .924-.093 1.85-.279 2.96m23.491-15.746h-7.118l7.952-10.915h7.862zm5.462 43.68v-1.944c-2.591 1.388-6.568 2.312-9.528 2.312-9.993 0-16.376-5.546-16.376-14.705V112.13h9.901v25.53c0 4.07 1.756 5.732 6.844 5.732 3.237 0 6.29-.832 9.159-2.217V112.13h9.895v39.774zm-602.51-95.558-1.871-5.716-1.923 5.716-1.373 4.012h6.538zm6.756 18.737-3.131-9.12h-10.882l-3.077 9.12h-6.649l12.254-32.366h5.77l12.363 32.366zm16.71.275c-2.527 0-5.275-.275-7.803-.933V68.82c2.528.496 5.22.825 7.638.825 3.682 0 4.506-.934 4.506-4.89V42.737h6.207v22.018c0 7.308-3.184 10.605-10.548 10.605m33.769.274h-4.066c-6.703 0-11.539-4.505-11.539-11.265v-21.65h6.263v21.65c0 3.572 1.758 5.551 5.33 5.551h3.848c3.625 0 5.384-1.979 5.384-5.55V42.72h6.265v21.65c0 6.76-4.834 11.264-11.485 11.264m40.66-.549L338.223 58.05l-3.075-5 .273 5.989v16.046h-6.156V42.719h5.057l12.53 16.924 3.406 5.222-.33-6.703V42.719h6.155v32.366zm27.956-26.704v26.704h-6.153V48.38h-10.496v-5.662h27.2v5.662zm25.882 7.967-1.87-5.716-1.922 5.716-1.372 4.012h6.538zm6.76 18.737-3.13-9.12h-10.882l-3.079 9.12h-6.647l12.253-32.366h5.769l12.366 32.366zm36.97 0v-15.22l.275-5.88-2.473 4.889-5.55 9.067h-3.238l-5.606-9.067-2.475-4.944.276 5.934v15.221h-6.209V42.719h5.33l10.274 17.419 10.278-17.419h5.273v32.366zm13.538 0V42.719h23.132v5.716h-17.147v7.252h14.674v5.66h-14.674v8.077h17.147v5.661zm52.708 0L502.033 58.05l-3.075-5 .273 5.989v16.046h-6.154V42.719h5.054l12.53 16.924 3.406 5.222-.327-6.703V42.719h6.155v32.366zm26.267-26.704v26.704h-6.153V48.38h-10.493v-5.662h27.198v5.662zm54.917 5.382c0-4.064-1.432-5.328-6.046-5.328h-8.57v20.989h8.518c4.396 0 6.098-1.483 6.098-5.823zm-6.046 21.322h-14.56V42.719h14.508c7.964 0 12.088 3.956 12.088 11.044v9.838c0 7.803-4.843 11.484-12.036 11.484m16.25 0V42.719H629.2v5.716h-17.145v7.252h14.672v5.66h-14.672v8.077H629.2v5.661z"/>
</svg>
