<svg xmlns="http://www.w3.org/2000/svg" viewBox="0 0 256.6 56.82" fill="#fff">
  <path d="m73.85 35.01-.48-1.57s-.04-.06-.07-.06h-3.87s-.05.02-.07.06l-.48 1.57c-.03.1-.09.15-.19.15h-1.47c-.06 0-.1-.02-.13-.05s-.03-.09-.01-.15l3.18-9.92c.03-.1.09-.15.19-.15h1.83c.1 0 .16.05.19.15l3.2 9.92s.01.04.01.07c0 .09-.05.13-.16.13h-1.47c-.1 0-.16-.05-.19-.15Zm-3.99-2.96h2.98q.09 0 .06-.09l-1.51-4.92s-.02-.06-.04-.06-.03.02-.04.06l-1.5 4.92c0 .06 0 .09.06.09Zm6.15 5.94V36.9c0-.12.06-.17.19-.16.56.01.95-.09 1.19-.3.23-.21.35-.56.35-1.03v-7.57s0-.09.04-.12c.03-.03.08-.05.12-.05h1.35s.09.02.12.05.05.08.05.12v7.56c0 .71-.1 1.27-.3 1.67s-.53.69-1 .87c-.46.18-1.11.25-1.94.23q-.18 0-.18-.18Zm1.82-11.65c-.2-.2-.29-.45-.29-.75s.1-.55.29-.75c.2-.2.45-.29.75-.29s.55.1.75.29c.2.2.29.45.29.75s-.1.55-.29.75c-.2.2-.45.29-.75.29s-.55-.1-.75-.29m8.65 1.37s.08-.05.12-.05h1.34s.09.02.12.05.05.08.05.12v7.15s-.02.09-.05.12-.08.05-.12.05H86.6s-.09-.02-.12-.05a.2.2 0 0 1-.05-.12v-.47s0-.05-.03-.06c-.02 0-.04 0-.06.03q-.6.78-1.8.78c-.74 0-1.37-.22-1.87-.65s-.76-1.04-.76-1.83v-4.94s.02-.09.05-.12.08-.05.12-.05h1.35s.09.02.12.05.05.08.05.12v4.46c0 .46.12.83.36 1.1s.57.41 1.01.41.79-.14 1.06-.41c.26-.27.4-.64.4-1.1v-4.46s.02-.09.05-.12Zm9.59.54c.47.47.71 1.11.71 1.92v4.81s-.02.09-.05.12-.08.05-.12.05h-1.35s-.09-.02-.12-.05a.2.2 0 0 1-.05-.12v-4.46c0-.45-.13-.81-.38-1.09s-.59-.42-1.01-.42-.76.14-1.02.41-.39.64-.39 1.09v4.48s-.02.09-.05.12-.08.05-.12.05h-1.35s-.09-.02-.12-.05a.2.2 0 0 1-.05-.12v-7.15s.02-.09.05-.12.08-.05.12-.05h1.35s.09.02.12.05.05.08.05.12v.47s0 .05.03.06c.02.01.03 0 .04-.03.4-.53 1.01-.79 1.82-.79s1.43.23 1.9.7Zm7.06.74s-.08.05-.12.05h-1.5s-.07.02-.07.07v3.54q0 .555.24.81c.16.17.42.25.77.25h.44s.09.02.12.05.05.08.05.12v1.1c0 .11-.06.17-.18.19h-.76c-.77.01-1.35-.12-1.73-.38s-.58-.76-.59-1.5v-4.18s-.02-.07-.07-.07h-.84s-.09-.02-.12-.05a.2.2 0 0 1-.05-.12v-1.03s.02-.09.05-.12.08-.05.12-.05h.84s.07-.02.07-.07v-1.72s.02-.09.05-.12.08-.05.12-.05h1.28s.09.02.12.05.05.08.05.12v1.72s.02.07.07.07h1.5s.09.02.12.05.05.08.05.12v1.03s-.02.09-.05.12Zm6.7-1.12c.47.22.83.51 1.09.89.25.38.38.8.38 1.28v4.94s-.02.09-.05.12-.08.05-.12.05h-1.35s-.09-.02-.12-.05a.2.2 0 0 1-.05-.12v-.47s0-.05-.03-.05c-.02 0-.04 0-.06.02-.48.53-1.17.79-2.08.79-.73 0-1.34-.19-1.81-.56s-.71-.92-.71-1.66.27-1.36.8-1.78c.53-.43 1.28-.64 2.25-.64h1.57s.07-.02.07-.07v-.35c0-.38-.11-.68-.34-.89s-.56-.32-1.01-.32c-.37 0-.67.07-.9.2s-.37.32-.43.55q-.045.18-.21.15l-1.42-.18s-.09-.03-.12-.05a.1.1 0 0 1-.04-.1q.12-.9.96-1.47c.56-.38 1.27-.57 2.12-.57.62 0 1.16.11 1.63.32Zm-.75 5.67c.34-.25.51-.58.51-.97v-.69s-.02-.07-.07-.07h-1.23c-.52 0-.93.1-1.23.29-.3.2-.45.47-.45.84 0 .31.11.56.34.73s.53.26.89.26c.48 0 .89-.13 1.23-.38Zm14.36-5.31c.43.46.64 1.09.64 1.9v4.86s-.02.09-.05.12-.08.05-.12.05h-1.34s-.09-.02-.12-.05a.2.2 0 0 1-.05-.12v-4.5c0-.45-.12-.81-.36-1.07s-.56-.4-.96-.4-.73.13-.98.4c-.25.26-.38.62-.38 1.06V35s-.02.09-.05.12-.08.05-.12.05h-1.34s-.09-.02-.12-.05a.2.2 0 0 1-.05-.12v-4.5c0-.45-.12-.81-.37-1.07-.24-.26-.57-.4-.97-.4-.37 0-.68.11-.92.32-.24.22-.38.51-.42.88V35s-.02.09-.05.12-.08.05-.12.05h-1.35s-.09-.02-.12-.05a.2.2 0 0 1-.05-.12v-7.15s.02-.09.05-.12.08-.05.12-.05h1.35s.09.02.12.05.05.08.05.12v.48s0 .05.03.06q.03.015.06-.03c.22-.27.48-.48.8-.61s.67-.2 1.06-.2c.48 0 .9.1 1.26.29.36.2.64.48.84.85.03.04.06.04.1 0 .22-.39.51-.68.9-.87.38-.19.81-.28 1.28-.28.75 0 1.34.23 1.77.68Zm9.34 3.16v.45c-.01.12-.07.18-.19.18H128s-.07.02-.07.07c.03.32.07.54.13.66.23.7.81 1.06 1.72 1.07.67 0 1.19-.27 1.58-.82q.06-.09.15-.09c.04 0 .07.01.1.04l.91.75c.09.07.1.15.04.23-.3.43-.71.76-1.21 1-.5.23-1.06.35-1.68.35-.76 0-1.41-.17-1.94-.51q-.795-.51-1.17-1.44c-.23-.53-.34-1.26-.34-2.2q0-.855.18-1.38c.2-.68.56-1.23 1.11-1.62.54-.4 1.2-.59 1.96-.59 1.93 0 3.01 1.01 3.26 3.02.04.24.06.52.06.82Zm-4.22-2.11c-.24.18-.41.43-.51.76-.06.17-.1.38-.12.65-.02.05 0 .07.06.07h2.98s.07-.02.07-.07c-.02-.24-.05-.43-.09-.56-.09-.35-.26-.63-.52-.82-.26-.2-.58-.29-.98-.29q-.54 0-.9.27Zm11.91-1.03c.47.47.71 1.11.71 1.92v4.81s-.02.09-.05.12-.08.05-.12.05h-1.35s-.09-.02-.12-.05a.2.2 0 0 1-.05-.12v-4.46c0-.45-.13-.81-.38-1.09s-.59-.42-1.01-.42-.76.14-1.02.41-.39.64-.39 1.09v4.48s-.02.09-.05.12-.08.05-.12.05h-1.35s-.09-.02-.12-.05a.2.2 0 0 1-.05-.12v-7.15s.02-.09.05-.12.08-.05.12-.05h1.35s.09.02.12.05.05.08.05.12v.47s0 .05.03.06c.02.01.03 0 .04-.03.4-.53 1.01-.79 1.82-.79s1.43.23 1.9.7Zm7.06.74s-.08.05-.12.05h-1.5s-.07.02-.07.07v3.54q0 .555.24.81c.16.17.42.25.77.25h.44s.09.02.12.05.05.08.05.12v1.1c0 .11-.06.17-.18.19h-.76c-.77.01-1.35-.12-1.73-.38s-.58-.76-.59-1.5v-4.18s-.02-.07-.07-.07h-.84s-.09-.02-.12-.05a.2.2 0 0 1-.05-.12v-1.03s.02-.09.05-.12.08-.05.12-.05h.84s.07-.02.07-.07v-1.72s.02-.09.05-.12.08-.05.12-.05h1.28s.09.02.12.05.05.08.05.12v1.72s.02.07.07.07h1.5s.09.02.12.05.05.08.05.12v1.03s-.02.09-.05.12Zm10.49-4.05s.08-.05.12-.05h1.35s.09.02.12.05.05.08.05.12v9.92s-.02.09-.05.12-.08.05-.12.05h-1.35s-.09-.02-.12-.05a.2.2 0 0 1-.05-.12v-.44s0-.05-.03-.06c-.02 0-.04 0-.06.03-.43.51-.99.76-1.69.76s-1.28-.18-1.76-.54-.83-.87-1.04-1.51c-.18-.55-.26-1.16-.26-1.83s.08-1.29.25-1.79c.22-.65.56-1.15 1.04-1.51q.72-.54 1.8-.54c.67 0 1.23.24 1.66.73.02.02.04.03.06.02.02 0 .03-.02.03-.05v-3.18s.02-.09.05-.12Zm-.06 6.46c0-.76-.12-1.35-.37-1.75-.26-.43-.64-.65-1.12-.65s-.89.21-1.17.62c-.29.43-.44 1.03-.44 1.79 0 .68.12 1.25.35 1.69.27.47.69.7 1.25.7.5 0 .89-.23 1.16-.7.22-.4.34-.97.34-1.7m10.59-.01v.45c-.01.12-.07.18-.19.18h-4.59s-.07.02-.07.07c.03.32.07.54.13.66.23.7.81 1.06 1.72 1.07.67 0 1.19-.27 1.58-.82q.06-.09.15-.09c.04 0 .07.01.1.04l.91.75c.09.07.1.15.04.23-.3.43-.71.76-1.21 1-.5.23-1.06.35-1.68.35-.76 0-1.41-.17-1.94-.51q-.795-.51-1.17-1.44c-.23-.53-.34-1.26-.34-2.2q0-.855.18-1.38c.2-.68.56-1.23 1.11-1.62.54-.4 1.2-.59 1.96-.59 1.93 0 3.01 1.01 3.26 3.02.04.24.06.52.06.82Zm-4.22-2.11c-.24.18-.41.43-.51.76-.06.17-.1.38-.12.65-.02.05 0 .07.06.07h2.98s.07-.02.07-.07c-.02-.24-.05-.43-.09-.56-.09-.35-.26-.63-.52-.82-.26-.2-.58-.29-.98-.29q-.54 0-.9.27Zm10.21 5.83s-.05-.08-.05-.12v-9.92s.02-.09.05-.12.08-.05.12-.05h1.35s.09.02.12.05.05.08.05.12v8.55s.02.07.07.07h4.92s.09.02.12.05.05.08.05.12v1.12s-.02.09-.05.12-.08.05-.12.05h-6.51s-.09-.02-.12-.05Zm16.89-10.17s.08-.05.12-.05h1.35s.09.02.12.05.05.08.05.12v9.92s-.02.09-.05.12-.08.05-.12.05h-1.35s-.09-.02-.12-.05a.2.2 0 0 1-.05-.12v-4.2s-.02-.07-.07-.07h-3.74s-.07.02-.07.07v4.2s-.02.09-.05.12-.08.05-.12.05h-1.35s-.09-.02-.12-.05a.2.2 0 0 1-.05-.12v-9.92s.02-.09.05-.12.08-.05.12-.05h1.35s.09.02.12.05.05.08.05.12v4.11s.02.07.07.07h3.74s.07-.02.07-.07v-4.11s.02-.09.05-.12m5.39 9.75c-.55-.39-.94-.93-1.17-1.63-.17-.53-.25-1.09-.25-1.67 0-.63.08-1.18.23-1.67.22-.68.62-1.22 1.17-1.6q.84-.57 2.01-.57c1.17 0 1.39.19 1.93.57s.93.91 1.15 1.58c.18.47.26 1.03.26 1.67s-.08 1.17-.25 1.67c-.23.69-.61 1.24-1.16 1.64s-1.2.59-1.95.59-1.44-.2-1.99-.59Zm2.92-1.19c.26-.21.45-.49.56-.87q.15-.48.15-1.23 0-.795-.15-1.23c-.11-.37-.29-.66-.56-.86-.26-.2-.59-.3-.97-.3s-.67.1-.94.3c-.26.2-.45.49-.57.86q-.15.51-.15 1.23c0 .72.05.89.15 1.23.11.37.3.66.56.87.27.21.59.31.98.31.36 0 .67-.1.93-.31Zm5.85 1.48q-.69-.27-1.08-.75a1.68 1.68 0 0 1-.38-1.06v-.13s.02-.09.05-.12.08-.05.12-.05h1.29s.09.02.12.05.05.08.05.12v.03c0 .24.13.46.4.64q.405.27 1.02.27c.615 0 .71-.08.95-.24s.37-.36.37-.61q0-.33-.3-.51c-.2-.11-.53-.23-.98-.36l-.56-.18c-.5-.15-.92-.3-1.26-.47s-.63-.39-.87-.68c-.23-.29-.35-.66-.35-1.11 0-.68.27-1.23.81-1.64s1.25-.61 2.13-.61c.6 0 1.12.1 1.57.29s.8.46 1.04.79c.24.34.37.72.37 1.15 0 .05-.02.09-.05.12s-.08.05-.12.05h-1.25s-.09-.02-.12-.05a.2.2 0 0 1-.05-.12c0-.25-.12-.47-.37-.64s-.59-.26-1.02-.26q-.57 0-.93.21c-.24.14-.36.34-.36.59 0 .23.11.41.34.54.23.12.61.26 1.15.4l.32.09c.52.16.95.32 1.31.48.35.16.65.39.9.68.24.29.37.66.37 1.12 0 .69-.27 1.24-.82 1.64s-1.28.59-2.19.59q-.93 0-1.62-.27Zm13.33-3.55c0 .69-.08 1.29-.25 1.79-.22.65-.56 1.15-1.03 1.51q-.705.54-1.8.54c-1.095 0-1.25-.25-1.67-.75-.02-.02-.04-.02-.06-.01-.02 0-.03.03-.03.06v3.18s-.02.09-.05.12-.08.05-.12.05h-1.35s-.09-.02-.12-.05a.2.2 0 0 1-.05-.12v-9.92s.02-.09.05-.12.08-.05.12-.05h1.35s.09.02.12.05.05.08.05.12v.44s0 .05.03.06c.02 0 .04 0 .06-.03.43-.51.99-.76 1.69-.76s1.28.18 1.76.54.83.87 1.04 1.51c.18.5.26 1.11.26 1.83Zm-1.73-.03c0-.71-.12-1.28-.35-1.69-.27-.48-.69-.72-1.25-.72-.51 0-.89.23-1.14.7-.23.38-.34.95-.34 1.7s.12 1.36.37 1.76c.25.43.62.65 1.1.65.52 0 .91-.21 1.17-.62.29-.45.44-1.05.44-1.79Zm4.24-5.06c-.2-.2-.29-.45-.29-.75s.1-.55.29-.75c.2-.2.44-.29.75-.29s.55.1.75.29c.2.2.29.45.29.75s-.1.55-.29.75c-.2.2-.45.29-.75.29s-.55-.1-.75-.29m-.08 8.77s-.05-.08-.05-.12v-7.16s.02-.09.05-.12.08-.05.12-.05h1.35s.09.02.12.05.05.08.05.12v7.16s-.02.09-.05.12-.08.05-.12.05h-1.35s-.09-.02-.12-.05m8.17-6.12s-.08.05-.12.05h-1.5s-.07.02-.07.07v3.54q0 .555.24.81c.16.17.42.25.77.25h.44s.09.02.12.05.05.08.05.12v1.1c0 .11-.06.17-.18.19h-.76c-.77.01-1.35-.12-1.73-.38s-.58-.76-.59-1.5v-4.18s-.02-.07-.07-.07h-.84s-.09-.02-.12-.05a.2.2 0 0 1-.05-.12v-1.03s.02-.09.05-.12.08-.05.12-.05h.84s.07-.02.07-.07v-1.72s.02-.09.05-.12.08-.05.12-.05h1.28s.09.02.12.05.05.08.05.12v1.72s.02.07.07.07h1.5s.09.02.12.05.05.08.05.12v1.03s-.02.09-.05.12Zm6.7-1.12c.47.22.83.51 1.09.89.25.38.38.8.38 1.28v4.94s-.02.09-.05.12-.08.05-.12.05h-1.35s-.09-.02-.12-.05a.2.2 0 0 1-.05-.12v-.47s0-.05-.03-.05c-.02 0-.04 0-.06.02-.48.53-1.17.79-2.08.79-.73 0-1.34-.19-1.81-.56s-.71-.92-.71-1.66.27-1.36.8-1.78c.53-.43 1.28-.64 2.25-.64h1.57s.07-.02.07-.07v-.35c0-.38-.11-.68-.34-.89s-.56-.32-1.01-.32c-.37 0-.67.07-.9.2s-.37.32-.43.55q-.045.18-.21.15l-1.42-.18s-.09-.03-.12-.05a.1.1 0 0 1-.04-.1q.12-.9.96-1.47c.56-.38 1.27-.57 2.12-.57.62 0 1.16.11 1.63.32Zm-.75 5.67c.34-.25.51-.58.51-.97v-.69s-.02-.07-.07-.07h-1.23c-.52 0-.93.1-1.23.29-.3.2-.45.47-.45.84 0 .31.11.56.34.73s.53.26.89.26c.48 0 .89-.13 1.23-.38Zm4.62 1.57s-.05-.08-.05-.12v-9.92s.02-.09.05-.12.08-.05.12-.05h1.35s.09.02.12.05.05.08.05.12v9.92s-.02.09-.05.12-.08.05-.12.05h-1.35s-.09-.02-.12-.05m10.48-3.72v.45c-.01.12-.07.18-.19.18h-4.59s-.07.02-.07.07c.03.32.07.54.13.66.23.7.81 1.06 1.72 1.07.67 0 1.19-.27 1.58-.82q.06-.09.15-.09c.04 0 .07.01.1.04l.91.75c.09.07.1.15.04.23-.3.43-.71.76-1.21 1-.5.23-1.06.35-1.68.35-.76 0-1.41-.17-1.94-.51q-.795-.51-1.17-1.44c-.23-.53-.34-1.26-.34-2.2q0-.855.18-1.38c.2-.68.56-1.23 1.11-1.62.54-.4 1.2-.59 1.96-.59 1.93 0 3.01 1.01 3.26 3.02.04.24.06.52.06.82Zm-4.22-2.11c-.24.18-.41.43-.51.76-.06.17-.1.38-.12.65-.02.05 0 .07.06.07h2.98s.07-.02.07-.07c-.02-.24-.05-.43-.09-.56-.09-.35-.26-.63-.52-.82-.26-.2-.58-.29-.98-.29q-.54 0-.9.27Zm10.2-.29s-.08.05-.12.05h-1.5s-.07.02-.07.07v3.54q0 .555.24.81c.16.17.42.25.77.25h.44s.09.02.12.05.05.08.05.12v1.1c0 .11-.06.17-.18.19h-.76c-.77.01-1.35-.12-1.73-.38s-.58-.76-.59-1.5v-4.18s-.02-.07-.07-.07h-.84s-.09-.02-.12-.05a.2.2 0 0 1-.05-.12v-1.03s.02-.09.05-.12.08-.05.12-.05h.84s.07-.02.07-.07v-1.72s.02-.09.05-.12.08-.05.12-.05h1.28s.09.02.12.05.05.08.05.12v1.72s.02.07.07.07h1.5s.09.02.12.05.05.08.05.12v1.03s-.02.09-.05.12ZM28.41 0C12.72 0 0 12.72 0 28.41s12.72 28.4 28.41 28.4 28.41-12.72 28.41-28.4S44.1 0 28.41 0m.01 17.99s1.69.82 4.11 2.59a53 53 0 0 0-4.11 3.36 50 50 0 0 0-4.12-3.36c2.43-1.77 4.12-2.59 4.12-2.59m-10.11-.12-.99-1.99c3.39-1.5 7.14-2.35 11.09-2.35s7.69.85 11.08 2.35l-.99 1.99a25.1 25.1 0 0 0-20.2 0Zm16.52 4.52c.87.74 1.79 1.57 2.73 2.5 3.12 3.11 5.08 6 6.08 7.67h-7.58a52 52 0 0 0-5.67-6.74c1.67-1.47 3.21-2.61 4.44-3.44ZM17.5 9.97c.24.74.93 1.28 1.76 1.28 1.02 0 1.85-.83 1.85-1.85 0-.16-.03-.31-.06-.46.8-.18 1.62-.34 2.45-.46.11.91.89 1.63 1.83 1.63 1.03 0 1.85-.83 1.85-1.85 0-.04 0-.08-.01-.12.41-.02.83-.03 1.25-.03s.83.02 1.24.03v.11c0 1.02.83 1.86 1.85 1.86.95 0 1.72-.71 1.83-1.62.83.12 1.64.28 2.44.46a1.846 1.846 0 0 0 1.79 2.31c.83 0 1.52-.54 1.76-1.28.88.31 1.75.65 2.59 1.03l-1.43 2.9a29.6 29.6 0 0 0-24.13 0l-1.43-2.9c.84-.38 1.71-.72 2.59-1.03Zm.9 31.56c-2.48-2.67-4.12-5.1-5.02-6.58h5.02zm-5.21-8.97c1-1.66 2.95-4.55 6.08-7.67.93-.93 1.85-1.77 2.73-2.5 1.24.83 2.78 1.96 4.44 3.44a52 52 0 0 0-5.67 6.73zM24.3 46.81c-.97-.72-2.05-1.59-3.19-2.62v-9.24h3.19zm5.91 1.83c-1 .61-1.6.9-1.6.9s-.6-.29-1.6-.9V34.96h3.2v13.69ZM24.2 32.56c1.06-1.44 2.45-3.13 4.21-4.89a42 42 0 0 1 4.21 4.89zm11.91 11.63c-1.14 1.03-2.23 1.9-3.2 2.62V34.95h3.2zm2.7-2.65v-6.59h5.02c-.89 1.48-2.53 3.92-5.02 6.59m142.68-13.82s-.05-.08-.05-.12v-2.54s.02-.09.05-.12.08-.05.12-.05h1.25s.09.02.12.05.05.08.05.12v1.82s-.02.09-.05.12q-.045.045-.12.09l-1.18.65c-.08.05-.16.01-.19-.02"/>
</svg>
