<svg xmlns="http://www.w3.org/2000/svg" viewBox="0 0 362.67 132.67" fill="#fff"><path d="M150.35 104.1c0-1.93.67-4.6 3.11-4.6s3.36 2.58 3.36 4.6-.81 4.68-3.31 4.68-3.17-2.69-3.17-4.68Zm6.62 7.26h3.64V90.34h-3.76v8.27h-.06c-1.12-1.37-2.44-2.02-4.32-2.02-4.43 0-6.05 3.53-6.05 7.51s1.63 7.6 6.05 7.6c1.77 0 3.31-.56 4.43-1.96h.06v1.62Zm9.89-8.63c.17-1.93 1.23-3.39 3.34-3.39s2.94 1.57 3.05 3.39zm8.92 4.76c-1.4.79-2.97 1.46-4.79 1.46-2.33 0-3.95-1.32-4.12-3.64h9.98c0-5.04-1.51-8.72-6.87-8.72-4.48 0-6.7 3.45-6.7 7.62 0 4.74 2.77 7.48 7.54 7.48 2.02 0 3.59-.39 4.96-1.15v-3.06Zm27.09-15.21c-1.68-.5-3.48-.81-5.75-.81-6.64 0-10.74 3.76-10.74 10.46s4.4 9.78 10.74 9.78c2.1 0 4.26-.45 6.33-1.01v-10.54h-7.9v3.08h4.15v5.1c-.67.17-1.51.28-2.58.28-4.18 0-6.64-3-6.64-6.98s2.52-7.09 7.09-7.09c1.57 0 3.53.34 5.04 1.04l.25-3.31Zm4.18 19.08h3.76v-5.3c0-2.07 0-5.89 3.06-5.89.67 0 1.34.11 1.68.31v-3.79c-.39-.11-.78-.11-1.15-.11-2.24 0-3.78 2.27-3.95 3.62h-.06v-3.28h-3.34zm11.29-10.45c1.26-.95 2.86-1.57 4.46-1.57 2.21 0 3.25.79 3.25 3.11h-2.07c-1.57 0-3.42.14-4.85.84s-2.47 1.96-2.47 4.12c0 2.75 2.5 4.29 5.04 4.29 1.71 0 3.59-.9 4.46-2.49h.06c.03.45.03 1.4.17 2.16h3.31c-.08-1.12-.14-2.13-.17-3.22-.03-1.06-.06-2.16-.06-3.62v-1.85c0-4.26-1.82-6.08-6.22-6.08-1.6 0-3.56.42-5.02 1.09zm1.91 6.28c0-2.21 2.49-2.5 4.18-2.5h1.63c0 1.12-.17 2.16-.78 2.97-.59.78-1.49 1.29-2.64 1.29-1.34 0-2.38-.53-2.38-1.77Zm12.58 4.17h3.76v-7.01c0-1.88.31-4.85 2.8-4.85 2.16 0 2.16 1.9 2.16 3.25v8.61h3.76v-7.01c0-1.88.31-4.85 2.8-4.85 2.16 0 2.16 1.9 2.16 3.25v8.61h3.76v-9.11c0-3.22-1.01-5.66-4.57-5.66-1.77 0-3.64.81-4.51 2.55-.81-1.79-2.24-2.55-4.26-2.55-1.4 0-3.11.59-4.29 2.36h-.06v-2.02h-3.5v14.44Zm27.36-8.63c.17-1.93 1.23-3.39 3.33-3.39s2.94 1.57 3.06 3.39zm8.91 4.76c-1.4.79-2.97 1.46-4.79 1.46-2.33 0-3.95-1.32-4.12-3.64h9.98c0-5.04-1.51-8.72-6.87-8.72-4.49 0-6.7 3.45-6.7 7.62 0 4.74 2.77 7.48 7.54 7.48 2.02 0 3.59-.39 4.96-1.15v-3.06Zm3.73 3.87h3.76v-7.06c0-1.85.59-4.79 3.31-4.79 2.41 0 2.44 2.38 2.44 4.15v7.71h3.76v-9.11c0-3.25-1.49-5.66-4.91-5.66-1.96 0-3.56.64-4.74 2.3h-.06v-1.96h-3.56v14.44Zm19.5-8.63c.17-1.93 1.23-3.39 3.34-3.39s2.94 1.57 3.05 3.39zm8.92 4.76c-1.4.79-2.97 1.46-4.79 1.46-2.33 0-3.95-1.32-4.12-3.64h9.98c0-5.04-1.51-8.72-6.87-8.72-4.48 0-6.7 3.45-6.7 7.62 0 4.74 2.77 7.48 7.54 7.48 2.02 0 3.59-.39 4.96-1.15v-3.06Zm4.95-.47c0 2.86 1.62 4.68 4.57 4.68 1.12 0 1.99-.11 2.78-.34l-.11-2.97c-.39.25-1.04.39-1.71.39-1.43 0-1.77-1.15-1.77-2.38v-6.73h3.33v-2.75h-3.33v-4.09l-3.76 1.21v2.89h-2.78v2.75h2.78zM150.35 73.64c0-1.93.67-4.6 3.11-4.6s3.36 2.58 3.36 4.6-.81 4.68-3.31 4.68-3.17-2.69-3.17-4.68Zm6.62 7.25h3.64V59.87h-3.76v8.27h-.06c-1.12-1.37-2.44-2.02-4.32-2.02-4.43 0-6.05 3.53-6.05 7.51s1.63 7.6 6.05 7.6c1.77 0 3.31-.56 4.43-1.96h.06v1.62Zm9.89-8.63c.17-1.93 1.23-3.39 3.34-3.39s2.94 1.57 3.05 3.39zm8.92 4.77c-1.4.78-2.97 1.46-4.79 1.46-2.33 0-3.95-1.32-4.12-3.64h9.98c0-5.04-1.51-8.72-6.87-8.72-4.48 0-6.7 3.45-6.7 7.62 0 4.74 2.77 7.48 7.54 7.48 2.02 0 3.59-.39 4.96-1.15zm22.44-15.33c-1.43-.48-3-.7-4.68-.7-3.45 0-6.84 1.6-6.84 5.97 0 6.47 8.58 4.93 8.58 8.66 0 1.77-1.99 2.52-3.48 2.52s-3.08-.48-4.43-1.21l-.36 3.53c1.93.48 2.89.76 5.02.76 3.95 0 7.34-1.62 7.34-5.91 0-6.56-8.58-5.13-8.58-8.52 0-2.13 1.74-2.72 3.08-2.72s2.75.31 3.98.84l.36-3.22Zm4.85 8.74c1.26-.95 2.86-1.57 4.46-1.57 2.21 0 3.25.78 3.25 3.11h-2.07c-1.57 0-3.42.14-4.85.84s-2.47 1.96-2.47 4.12c0 2.75 2.49 4.29 5.04 4.29 1.71 0 3.59-.9 4.46-2.49h.06c.03.45.03 1.4.17 2.16h3.31c-.08-1.12-.14-2.13-.17-3.22-.03-1.07-.06-2.16-.06-3.62v-1.85c0-4.26-1.82-6.08-6.22-6.08-1.6 0-3.56.42-5.02 1.09zm1.9 6.28c0-2.21 2.49-2.5 4.18-2.5h1.62c0 1.12-.17 2.16-.78 2.97-.59.78-1.49 1.29-2.63 1.29-1.34 0-2.38-.53-2.38-1.77Zm12.64 4.17h3.76v-7.06c0-1.85.59-4.79 3.31-4.79 2.41 0 2.44 2.38 2.44 4.15v7.71h3.76v-9.11c0-3.25-1.49-5.66-4.91-5.66-1.96 0-3.56.64-4.74 2.3h-.06v-1.96h-3.56V80.9Zm18.08-4.34c0 2.86 1.63 4.68 4.57 4.68 1.12 0 1.99-.11 2.78-.34l-.11-2.97c-.39.25-1.04.39-1.71.39-1.43 0-1.77-1.15-1.77-2.38V69.2h3.33v-2.75h-3.33v-4.09l-3.76 1.21v2.89h-2.77v2.75h2.77zm10.14-6.11c1.26-.95 2.86-1.57 4.46-1.57 2.21 0 3.25.78 3.25 3.11h-2.07c-1.57 0-3.42.14-4.85.84s-2.47 1.96-2.47 4.12c0 2.75 2.49 4.29 5.04 4.29 1.71 0 3.59-.9 4.46-2.49h.06c.03.45.03 1.4.17 2.16h3.31c-.08-1.12-.14-2.13-.17-3.22-.03-1.07-.06-2.16-.06-3.62v-1.85c0-4.26-1.82-6.08-6.22-6.08-1.6 0-3.56.42-5.02 1.09zm1.91 6.28c0-2.21 2.5-2.5 4.18-2.5h1.63c0 1.12-.17 2.16-.79 2.97-.59.78-1.49 1.29-2.63 1.29-1.35 0-2.38-.53-2.38-1.77Zm34.55.61c-.92.48-2.75.81-4.29.81-4.18 0-6.64-3-6.64-6.98s2.52-7.09 6.56-7.09c1.4 0 2.75.2 4.23 1.04l.28-3.31c-1.43-.56-3.14-.81-4.43-.81-6.64 0-10.73 3.76-10.73 10.46s4.4 9.78 10.73 9.78c1.49 0 3.03-.28 4.46-.62zm1.52-3.55c0 4.15 2.78 7.46 7.54 7.46s7.57-3.31 7.57-7.46c0-4.77-3.28-7.65-7.57-7.65s-7.54 2.89-7.54 7.65m3.92-.45c0-2.16 1.18-4.29 3.62-4.29s3.64 2.07 3.64 4.29c0 2.41-.76 4.99-3.64 4.99s-3.62-2.61-3.62-4.99m13.93-13.46h3.76v21.02h-3.76zm6.5 13.91c0 4.15 2.77 7.46 7.54 7.46s7.57-3.31 7.57-7.46c0-4.77-3.28-7.65-7.57-7.65s-7.54 2.89-7.54 7.65m3.92-.45c0-2.16 1.18-4.29 3.62-4.29s3.64 2.07 3.64 4.29c0 2.41-.76 4.99-3.64 4.99s-3.62-2.61-3.62-4.99m13.79 7.56h3.76v-7.01c0-1.88.31-4.85 2.8-4.85 2.16 0 2.16 1.91 2.16 3.25v8.61h3.76v-7.01c0-1.88.31-4.85 2.8-4.85 2.16 0 2.16 1.91 2.16 3.25v8.61h3.76v-9.11c0-3.22-1.01-5.66-4.57-5.66-1.77 0-3.64.81-4.51 2.55-.81-1.79-2.24-2.55-4.26-2.55-1.4 0-3.11.59-4.29 2.36h-.06v-2.02h-3.5v14.43Zm25.45-10.45c1.26-.95 2.86-1.57 4.46-1.57 2.21 0 3.25.78 3.25 3.11h-2.07c-1.57 0-3.42.14-4.85.84s-2.47 1.96-2.47 4.12c0 2.75 2.5 4.29 5.05 4.29 1.71 0 3.59-.9 4.46-2.49h.06c.03.45.03 1.4.17 2.16h3.31c-.08-1.12-.14-2.13-.17-3.22-.03-1.07-.06-2.16-.06-3.62v-1.85c0-4.26-1.82-6.08-6.22-6.08-1.6 0-3.56.42-5.02 1.09l.11 3.22Zm1.91 6.28c0-2.21 2.5-2.5 4.18-2.5h1.63c0 1.12-.17 2.16-.79 2.97-.59.78-1.49 1.29-2.63 1.29-1.35 0-2.38-.53-2.38-1.77ZM158.29 42.86h-5.72l2.83-8.07h.06zm-12.62 7.57h4.06l1.71-4.48h7.93l1.68 4.48h4.34l-7.68-19.56h-4.43l-7.62 19.56Zm19.29 5.99c.48.14 1.23.22 1.85.22 3.76 0 4.34-3.11 4.34-5.16v-15.5h-3.76v15c0 2.24-.28 2.63-2.3 2.75l-.14 2.69Zm2.44-23.06h3.76v-3.59h-3.76zm20.68 2.63h-3.76v7.06c0 1.85-.59 4.79-3.31 4.79-2.41 0-2.44-2.38-2.44-4.15v-7.71h-3.75v9.11c0 3.25 1.48 5.66 4.9 5.66 1.96 0 3.59-.9 4.74-2.3h.06v1.96h3.56V35.98Zm3.58 14.44h3.76v-7.06c0-1.85.59-4.79 3.31-4.79 2.41 0 2.44 2.38 2.44 4.15v7.71h3.76v-9.11c0-3.25-1.49-5.66-4.9-5.66-1.96 0-3.56.64-4.74 2.3h-.06v-1.96h-3.56v14.43Zm18.08-4.35c0 2.86 1.63 4.68 4.57 4.68 1.12 0 1.99-.11 2.78-.34l-.11-2.97c-.39.25-1.04.39-1.71.39-1.43 0-1.77-1.15-1.77-2.38v-6.73h3.34v-2.75h-3.34v-4.09l-3.76 1.21v2.89h-2.77v2.75h2.77zm10.14-6.11c1.26-.95 2.86-1.57 4.46-1.57 2.21 0 3.25.78 3.25 3.11h-2.07c-1.57 0-3.42.14-4.85.84s-2.47 1.96-2.47 4.12c0 2.75 2.49 4.29 5.04 4.29 1.71 0 3.59-.9 4.46-2.49h.06c.03.45.03 1.4.17 2.16h3.31c-.08-1.12-.14-2.13-.17-3.22-.03-1.07-.06-2.16-.06-3.62v-1.85c0-4.26-1.82-6.08-6.22-6.08-1.6 0-3.56.42-5.02 1.09zm1.91 6.28c0-2.21 2.49-2.49 4.18-2.49h1.62c0 1.12-.17 2.16-.79 2.97-.59.79-1.49 1.29-2.63 1.29-1.34 0-2.38-.53-2.38-1.77m12.58 4.18h3.76v-7.01c0-1.88.31-4.85 2.8-4.85 2.16 0 2.16 1.91 2.16 3.25v8.6h3.76v-7.01c0-1.88.31-4.85 2.8-4.85 2.16 0 2.16 1.91 2.16 3.25v8.6h3.76V41.3c0-3.22-1.01-5.66-4.57-5.66-1.76 0-3.64.81-4.51 2.55-.81-1.79-2.24-2.55-4.26-2.55-1.4 0-3.11.59-4.29 2.36h-.06v-2.02h-3.5v14.43Zm27.36-8.64c.17-1.93 1.23-3.39 3.33-3.39s2.94 1.57 3.05 3.39h-6.39Zm8.91 4.77c-1.4.78-2.97 1.46-4.79 1.46-2.33 0-3.95-1.32-4.12-3.64h9.98c0-5.04-1.51-8.72-6.87-8.72-4.48 0-6.7 3.45-6.7 7.62 0 4.74 2.78 7.48 7.54 7.48 2.02 0 3.59-.39 4.96-1.15zm3.73 3.87h3.76v-7.06c0-1.85.59-4.79 3.31-4.79 2.41 0 2.44 2.38 2.44 4.15v7.71h3.76v-9.11c0-3.25-1.49-5.66-4.91-5.66-1.96 0-3.56.64-4.74 2.3h-.06v-1.96h-3.56v14.43Zm18.08-4.35c0 2.86 1.63 4.68 4.57 4.68 1.12 0 1.99-.11 2.77-.34l-.11-2.97c-.39.25-1.04.39-1.71.39-1.43 0-1.77-1.15-1.77-2.38v-6.73h3.33v-2.75h-3.33v-4.09l-3.76 1.21v2.89h-2.77v2.75h2.77v7.34ZM87.42 29.2H24.65v43.33a35.53 35.53 0 0 0 11.83 26.52c6.33 5.71 14.7 9.18 23.87 9.18s17.04-3.27 23.3-8.67a36 36 0 0 0 3.77-3.78 35.5 35.5 0 0 0 8.25-18.05c.25-1.7.38-3.43.38-5.2V29.2zm-7.81 1.26v37.59c-1.42-.48-2.89-1.02-3.93-1.45-.52-.22-1.97-1.02-3.89-2.12V30.46zm-15.64 0v29.37c-2.88-1.75-5.72-3.53-7.81-4.92V30.46zm-15.63 0v7.5c-1.32-1.29-3.34-2.23-5.57-2.02-.82.07-1.57.38-2.25.89v-6.37zM25.91 72.53V30.46h6.8v62.6a34.27 34.27 0 0 1-6.8-20.53m34.44 34.45c-8.89 0-16.99-3.38-23.1-8.92 2.6-3.19 5.91-5.85 9.78-7.77 2.71-1.39 5.25-3.31 7.3-4.85l.2-.15 1.38-3.65-1.23-2.83-.19-.14c-.31-.23-.65-.45-.93-.59-1.14-.58-5.05-2.94-7.05-4.33-1.48-1.03-5.43-4.55-6.43-7.19-1.19-3.12-1.23-3.76-1.23-5.04s.34-4.37.76-6.13c.47-1.91 1.23-5.34 1.51-6.79l.09-.44c.36-1.76.7-3.41-.13-4.23-.59-.6-1.54-.87-2.37-.87-.29 0-.57.03-.81.1-.22.06-.44.12-.67.19.77-.92 1.37-1.45 1.8-1.83.37-.33.64-.56.8-.89l.08-.16c.3-.65 1.22-2.64 3.02-2.8 2.22-.22 4.21 1.14 4.97 2.52.77 1.41 1.39 3.68 1.8 6.57.08.57.13 1.11.17 1.63.17 1.83.32 3.56 1.68 5.22 1.81 2.22 21.71 13.86 23.46 14.59 2.1.88 5.81 2.15 7.64 2.54 1.18.25 2.43.42 3.35.55.49.07.9.13 1.16.18l.52.1c.17.03.38.07.62.11-.95.48-2.04 1.02-2.92 1.46l-1.58.8 1.6.76c1.73.83 3.85 1.84 5.72 2.74-6.05-.75-11.6-1.42-12.6-1.35-.83.05-4.49.57-7.42 1-4.23.62-5.74.84-6.34 1v-.04c-2.56.72-3.15 1.25-3.53 2.23-.14.36-.17.92-.2 1.79-.02.29-.03.71-.06.91l-.03.11c-.13.19-.8.63-1.2.89-.27.18-.54.35-.79.54l-.3.22c-1.08.9-.6 1.65-.43 1.85.38.47 1.07.53 2.26.58.28.02.53.02.65.05l.55.13.14.02c8.58.56 16.12 4.83 21.08 11.18a34.27 34.27 0 0 1-22.55 8.43M40.52 92.39V70.46c1.67 2.01 3.8 3.89 5 4.72a81 81 0 0 0 2.82 1.83v10.53c-.68.42-1.38.83-2.09 1.2a31.3 31.3 0 0 0-5.73 3.65m39.09-14.52v14.82a31 31 0 0 0-7.82-4.74v-9.2c3.05-.45 6.15-.88 6.85-.93.15-.01.5.01.97.05m-15.64 2.25v5.72a26 26 0 0 0-1.96-.2l-.48-.11c-.19-.05-.44-.07-.84-.09.81-.53 1.53-1 1.81-1.59.21-.33.23-.82.26-1.71.02-.4.04-1.06.12-1.29.06-.16.15-.37 1.09-.73m23.45 13.69V78.74c2.05.24 4.06.5 5.52.68.4.05.78.1 1.13.14a34.3 34.3 0 0 1-6.65 14.25m3.97-18.17-3.64-1.74c3.89-1.95 3.9-1.98 4.01-2.31l.12-.37-.2-.33q-.22-.39-3.68-1.03l-.52-.1s-.04 0-.06-.01V30.46h7.38v42.07c-.01 1.56-.11 3.1-.32 4.6-.78-.38-1.79-.87-3.09-1.49m-30.04 49.24-.07.57c-1.61 1.59-5.66 3.15-7.86 4.59-.92.6-3.51 2.88-4.55 2.62-.82-.2 1.03-1.9 1.26-2.08 3.73-2.95 6.71-4.23 11.22-5.7M89.33 111c-.11.29-.53.29-.45.64.07.09.24.06.38.02.1-.19.4-.1.55-.33.27-.06.47-.35.76-.5 2.82-2.09 5.14-5.28 6.95-8.45 1.17-1.85 1.91-3.91 2.47-6.07-.1-.04-.03-.2-.12-.21-1.1 3.41-2.94 6.59-5.24 9.35-1.82 1.85-3.33 4.09-5.29 5.55Zm-21.26 10.63c.28-.47 16.2-7.18 17.08-7.56.98-.42 2-1.32 2.04-2.48.08-2.49.12-3.09 1.09-5.43 1.07-2.58 4.76-6.46 6.97-8.19.97-.76 1.68-1.72 2.49-2.64.61-.69 2.64-4.6 3.72-3.89.44.28.72 2.83.71 3.37-.01 1.44-.82 5.43-1.42 6.73a34.8 34.8 0 0 1-5.98 8.9c-.9.98-1.76 1.58-2.85 2.29-1.26.82-4.11 1.75-5.62 2.17-1.55.43-17.18 6.62-18.24 6.73Zm39.59-19.46v-.09h-.52c-3.08 1.81-4.83 5.19-8.75 6.54-.36.12-.71.43-1.11.31-.22-.34.13-.68.31-.95 1.24-1.82 2.67-3.83 3.63-5.81.32-.65.44-1.1 1.09-1.51.79-.5 3.41-1.7 4.29-1.75.08-.06 4.63-1.45 5.38-1.79.02.19-.1.52-.19.69-1.08 1.94-1.33 2.7-2.04 4.79-.31.91-.79 1.62-1.21 2.48-1.42 2.89-3.7 4.99-6.64 6.23-1.97.83-4.7 1.26-6.73.47-.14-.13-.34-.07-.4-.26 1.15-1.13 1.44-1.04 2.89-1.6 1.47-.57 3.11-1.63 4.36-2.57 2.06-1.55 3.55-3.69 5.64-5.17Zm-4.13-28.85c.11-.09.12-.26.28-.28.94-.14 2.34 4.12 2.7 4.86.51 1.04.44 2.21.92 3.23-.1.79.37 1.86-.21 2.53-1.05 1.21-2.38 3.68-2.96 5.19l-.28.05c.06-1.17.16-2.33.28-3.49l-.19-.21c-.21.03-.22.19-.26.35-.36 1.41-.74 4.15-1.47 5.31-.46-.61-.56-1.44-.97-2.01-.12-.16-.24-.23-.33-.43-.71-.18-.55.46-.95.87-1.19-1.05-.37-5.71.43-6.89 1.81-2.69 2.62-5.91 3.01-9.09Zm-1.16-23.3c.16.01.25.24.36.35.61.67 1.22 1.16 1.92 1.72 2.44 1.97 4.31 8.46 4.79 11.5-.2.37-1.3 2.89-1.33 2.93-.08.1-.25.1-.36.05-.21-.31-.36-.52-.5-.87-.36-.91-.7-1.76-.95-2.71-.4-1.5-.9-4.58-1.59-5.82a.56.56 0 0 0-.33-.21c-.37.63 2.8 12.44 2.28 13.38-.08.15-.25.04-.33-.02-1.5-1.14-2.67-3.22-3.42-4.93-2.7-6.21-.98-9.2-.54-15.37m.07-18.83c.07-.13.27-.05.47-.07.44.39.82.74 1.3 1.06 1 .94 1.9 1.95 2.85 2.95.08.39.46.47.62.8.65.71 1.17 1.54 1.66 2.38.24.28.23.67.36.97-.03.22-.04.45-.07.59-.56 1.34-1.21 2.59-1.73 3.85-.21.17-.24.17-.38 0-.69-1.08-1.13-2.32-1.47-3.66-.38-.63-.66-1.31-1.11-1.91-.13.01-.27.06-.21.14.17.34.03.73.31.97.33 1.24.49 2.63.78 3.9 0 .92.4 1.9.76 2.76.2.6-.18 1.13-.12 1.7-.29.33-.21.76-.4 1.04-.28.05-.52-.21-.71-.33-.51-.43-1.02-.96-1.37-1.54-.5-.53-.82-1.25-1.19-1.89-.03-.03-.03-.1-.07-.14-.14-.62-.6-1.23-.59-1.91-.19-.82-.31-1.81-.26-2.83.2-2.83.95-5.87.59-8.83Zm14.25 44.64c.54.07.34-1.07 1.16-.26.05.49-.19.92-.21 1.39-.15 2.79.03 5.37-.81 8.1-.63 2.07-1.56 3.95-2.7 5.78-.67 1.08-1.61 1.82-2.43 2.76-.23.27-.41.63-.63.87-.92.98-1.29 1.33-1.68 2.69-1.22.56-2.71 1.13-4.06 1.3 1.18-2.22 2.56-4.23 3.53-6.56.56-1.33 1.18-2.69 1.9-3.94-.38-.7-1.26 1.29-1.42 1.51-1.4 1.95-2.18 4.25-3.7 6.16-.66.83-1.14 1.74-1.9 2.5-.33.33-.56.87-1.04 1.02-.03.16-.21.11-.21-.05-.06-1.84 1.16-6.22 1.78-8.05 1.21-3.58 4.16-8.78 7.04-11.28 1.67-1.45 3.82-2.39 5.38-3.94m-5.67-37.09c.46-.76.9-1.61 1.42-2.43.15-.01.24.23.33.35.52 1.41 1.2 2.54 1.73 3.97.66 2.4 1.07 4.89 1.02 7.46.05 3.54-.47 7.12-1.56 10.39-.27.55-.48 1.18-.92 1.46-.78.54-1.42 1.27-2.06 1.82-.04-.04-.11-.09-.02-.19.94-2.84 1.69-6 1.64-9.14-.1-.23-.08-.58-.29-.73-.37.07-.27.53-.33.71-.24 2.87-.95 5.63-2.23 8.05-.08.12-.19.12-.19-.02-.73-2.24-1.42-4.68-2.54-6.7-.24-.47-.72-.86-.62-1.51-.03-4.98 2.67-9.11 4.62-13.48Z"/><path d="M118 57.04c-.21 1.36-.35 2.48-.07 3.85.74 3.58-.04 6.91-1.45 10.17-.91 2.11-2.77 3.95-4.34 5.62-.32.34-.55.64-.81 1.02-.6.86-1.32 1.6-1.9 2.52l-.22.34c-.1.11-.27.21-.4.26-.18-.17-.06-.45 0-.64 1.04-3.09 3.45-6.22 3.75-9.44-.1-.1-.25-.09-.36-.02-.75 1.46-1.21 3.03-2.04 4.46-.53.91-1.16 1.73-1.73 2.62-.18.29-.37.74-.78.73-.46-.48-.59-1.15-.62-1.79-.31-7.57 2.36-14.08 8.85-18.13.76-.48 1.37-1.09 2.11-1.56ZM2.34 72.62c2.05.96 2.8 2.69 5.34 3.56.76.26 1.65.6 2.23 1.18 1.22 1.22 1.91 2.87 2.96 4.22.79 1 2.06 1.27 2.42 2.64l.07.05c1.08 2.54.86 5.29.21 7.91-6.04-2.44-7.71-11.89-11.45-15.7l-.43.14c4.7 8.28 4.48 9.89 11.22 17.63l.12.8c-.43.31-4.19-.73-4.77-1.04-1.52-.81-2.15-2.5-3.87-3.14-3.68-1.37-1.77-3.72-3.89-5.22-.82-.58-1.65-1.4-1.68-2.48-.06-1.82.37-3.62.12-5.45-.35-2.57-2.59-4.8 1.4-5.12Z"/><path d="M9.58 63.5c.22 1.13.91 2.1 1.02 3.26.13 1.33-1.02 6.91-2.51 7.11-1.09-3.96-.56-8.94-3.11-12.39l-.09.17c.79 1.87 2.12 11.31 1.23 12.91-1.6-.15-2.56-2.44-4.01-2.67-1.06-1.34.1-4.01-1-5.86-1.37-2.31-.49-3.38.21-5.64.53-1.72-2.13-5.61-.59-6.75.27-.2.64-.46.95-.59 1.27-.54 2.53 1.35 3.04 2.2 1.4 2.36 6.9 4.35 4.86 8.26Zm2.87-11.35c-.56-.2-.69-2.78-.76-3.38-.44-4.03-2.82-8.86-4.53-12.56l-.28.19c.45 2.32 1.89 4.3 2.39 6.61.25 1.12 3.57 15.26-1.59 11.1-2.11-1.7-1.6-5.09-2.92-7.29-.02-2.47-.09-4.95.05-7.41.12-2.13-2.14-5.94.81-7.04 1.96-.73 3.86 3.68 4.93 4.98 4.08 4.95 8.14 9.11 1.9 14.8m12.14 53.73c.08.52.05 1.04.09 1.56l-.07.07c-1.31.07-2.31-.76-3.42-1.32-1.18-.61-2.13-1.59-3.39-2.05-2.37-.87-5.22-1.39-7.68-2.08-.23.35.32.48.52.57 1.85.75 3.76 1.02 5.64 1.63 2.85.93 5.8 3.92 8.82 5.43.7.35.82 1.28.81 1.98-4.33 1.01-5.38-1.76-8.73-2.55-1.14-.27-2.34-.23-3.49-.43-3.12-.53-2.27-2.31-3.82-4.06-1.08-1.22-5.98-4.19-1.87-6.04 1.44-.65 2.88.6 4.32.64 1.23.03 2.49-.11 3.72-.19 1.56 1.2 3.66.75 5.03 2.17 1.35 1.41 2.1 3.3 3.51 4.67Zm-8.23-37.4c-1.32.94-4.23 7.27-5.31 8.9-.68-.26-2.56-1.69-2.32-2.53.22-.76 1.21-1.35 1.54-2.19.51-1.3.32-3.06 1.73-3.82 3.24-1.76 2.48-4.25 4.03-4.82.6-.22 1.48-.1 1.99.28 3.8 2.84.26 5.25.12 8.1-.05 1.03.37 2.27-.26 3.19-1.11 1.61-1.11 6.52-2.54 6.92-.63.18-1.28-.74-1.68-1.11-2.19-2-.82-4.99.12-7.27.47-1.16 2.9-4.65 2.8-5.38l-.21-.26Z"/><path d="M17.33 62.98c-4.92 1.28-2.83 5.25-5.86 4.96-.34-.65-.12-1.39-.28-2.08 1.19-4.17 2.36-8 5-11.52.32-.42.58-.87.76-1.37l-.38-.12c-1.46 1.17-3.35 3.74-4.17 5.43-.28.56-1.17 3.58-1.78 3.54-.72-1.43-.69-3.12-1.87-4.32-.26-2.17 4.33-4.34 5.6-5.83.96-1.12 1.6-3.09 3.37-3.02 3.4.13 1.16 5.65 1.07 7.51-.16 3.2.77 3.94-1.45 6.82Zm4.27-28.96c.19.75-.38 1.41-.62 2.08-.68 1.91-.52 10.32-4.29 9.32-3.99-3.89.57-6.97 2.47-9.96.26-.41.97-2.07.45-2.43-.9.28-.7 1.41-1.26 2.01-.8.85-1.84 1.43-2.58 2.34-.34.41-1.08 1.65-1.49 1.84-.62.28-3.69-.95-1.09-4.06 1.17-1.4 3.4-1.31 4.39-2.93.52-.84.82-1.99 1.87-2.31 2.47-.74 3.35 2.35 2.16 4.11Zm.88 67.21c-6-4.15-1.35-8.66-2.09-12.58l-.47-.07c-1.53 1.03-1.59 8.44-1.45 10.32-4.8.57-1.73-4.72-1.83-6.73-.09-1.97 1.08-7.48 4.08-6.37 2.03.75.23 4.75 2.21 7.39 1.53 2.04 2.05 6.51-.45 8.05Zm7.78 2.57c-.07 0-.14.02-.14.05-.08.47.36.82.55 1.16.83 1.49.76 3.35 1.19 4.82-.01 1.21.73 2.19 1.35 3.14.58.67 1.3 1.63 2.4 1.54.09-.07.09-.21.09-.31-.36-.88-1.3-1.36-1.85-2.1-1.05-1.22-1.3-2.92-1.61-4.53-.1-1.13-.63-2.44-1.4-3.23-.18-.17-.33-.48-.57-.52Zm6.97 9.44c1.63 3.3 7.88 3.58 11.26 4.41 3.73.92 16.32 5.92 20.18 7.7.73.34 2.05 1.5 2.25 2.29.38 1.5-2.86 0-3.27-.17-3.38-1.31-6.36-3.52-9.65-5.03-1.59-.73-3.14-1.54-4.77-2.17-3.99-1.56-8.33-3.05-12.62-3.47-4.42-.43-8.52.63-12.17-2.76-6.14-5.71-.71-10.23-.64-10.74.21-1.55.62-2.44 2.35-2.57 1.14-.09 3.83 4.71 5.67 5.88.71.45 1.14 1.74 1.19 2.55.08 1.57-.57 2.51.21 4.08ZM22.69 16.55c0-1.97 1.59-3.56 3.56-3.56s3.56 1.59 3.56 3.56-1.59 3.56-3.56 3.56-3.56-1.59-3.56-3.56m9.64-2.9c0-1.97 1.59-3.56 3.56-3.56s3.56 1.59 3.56 3.56-1.59 3.56-3.56 3.56-3.56-1.59-3.56-3.56m9.64-1.24c0-1.97 1.59-3.56 3.56-3.56s3.56 1.59 3.56 3.56-1.59 3.56-3.56 3.56-3.56-1.59-3.56-3.56m9.63-.83c0-1.97 1.59-3.56 3.56-3.56s3.56 1.59 3.56 3.56-1.59 3.56-3.56 3.56-3.56-1.59-3.56-3.56m9.64 0c0-1.97 1.59-3.56 3.56-3.56s3.56 1.59 3.56 3.56-1.59 3.56-3.56 3.56-3.56-1.59-3.56-3.56m9.63.83c0-1.97 1.59-3.56 3.56-3.56s3.56 1.59 3.56 3.56-1.59 3.56-3.56 3.56-3.56-1.59-3.56-3.56m9.64 1.24c0-1.97 1.59-3.56 3.56-3.56s3.56 1.59 3.56 3.56-1.59 3.56-3.56 3.56-3.56-1.59-3.56-3.56m9.63 2.9c0-1.97 1.59-3.56 3.56-3.56s3.56 1.59 3.56 3.56-1.59 3.56-3.56 3.56-3.56-1.59-3.56-3.56M17.62 8.7c0-1.97 1.59-3.56 3.56-3.56s3.56 1.59 3.56 3.56-1.59 3.56-3.56 3.56-3.56-1.59-3.56-3.56m19.27-5.14c0-1.97 1.59-3.56 3.56-3.56s3.56 1.59 3.56 3.56-1.59 3.56-3.56 3.56-3.56-1.59-3.56-3.56m19.27 0c0-1.97 1.59-3.56 3.56-3.56s3.56 1.59 3.56 3.56-1.59 3.56-3.56 3.56-3.56-1.59-3.56-3.56m19.27 0c0-1.97 1.59-3.56 3.56-3.56s3.56 1.59 3.56 3.56-1.59 3.56-3.56 3.56-3.56-1.59-3.56-3.56M94.7 8.7c0-1.97 1.59-3.56 3.56-3.56s3.56 1.59 3.56 3.56-1.59 3.56-3.56 3.56-3.56-1.59-3.56-3.56M23.54 25.9c5.43-4.79 19.79-8.21 36.66-8.21s31.24 3.42 36.66 8.21z"/></svg>