<svg xmlns="http://www.w3.org/2000/svg" viewBox="0 0 293.66 106.65" fill="#fff"><path d="M86.6 58.3c-.14-1.55-.15-4.37 0-5.92 1.02-10.54 10.09-16.93 20.41-13.4 12.49 4.27 12.53 28.23.05 32.77-10.39 3.78-19.47-2.83-20.45-13.45Zm10.69-12.98c-3.37 3.15-3.02 14.27-1.19 18.27 1.91 4.17 7.69 4.65 10.26.91 2.52-3.67 2.4-15.04-.31-18.65-1.86-2.48-6.57-2.58-8.76-.54Zm196.37 26.99v.31l-8.69-.03c-.25-.22-1.18-5.53-1.48-6.46-.12-.37-.16-.8-.61-.95l-9.58-.06-1.74 7.49h-8.72l10.57-34.42c2.64.08 6.7-.59 9.2-.14.35.06.59.15.75.49l10.3 33.76Zm-11.84-13.08-3.43-14.63c-.6.11-.52.65-.63 1.08-1.19 4.47-2.12 9.04-3.1 13.56h7.16ZM165.53 38.06l6.85 27.71 6.54-27.71h7.94l-9.35 34.55-10.28-.13-9.95-34.42zm44.99 0-.62 5.92h-12.14v8.41h10.59v5.6h-10.59v8.72h12.77v5.92h-21.17V38.54s.43-.47.47-.47h20.71Zm-81.26 28.02h12.92c.22 0 .34.37.34.63 0 1.83-.76 4.03-.8 5.91h-20.86V38.53s.43-.47.47-.47h7.47s.47.43.47.47v27.56Zm120.18-28.02v28.02h13.39l-.67 6.03-.42.51h-20.39V38.06zm-25.53 0v28.02h13.39l-.62 5.77-.47.77h-20.39V38.06zm-69.12 34.56h-8.41V38.53s.43-.47.47-.47h7.47s.47.43.47.47zm-56.16 30.52-.62-1.55c.71.11 2.18-1.17 2.18-1.72V86.64h1.87v13.54c0 1.06-2.19 2.55-3.11 2.96h-.31Zm58.19-16.47 3 9.62 2.68-9.62 2.77-.04.93 13.7h-1.87l-.78-11.21-2.93 9.47h-1.93c-.89-2.84-1.6-5.78-2.55-8.6-.11-.33-.07-.94-.53-.87l-.62 11.21h-1.87l1.02-12.85.43-.86zm23.7-.04 2.76.05 5.34 10.7V86.63h1.87v13.7l-2.76-.04-5.34-10.7v10.74h-1.87zm-61.02 0 2.65.31 5.29 10.9-.16-11.21h1.87v13.7l-2.77-.03-5.33-11.18v11.21h-1.55zm27.99.03 4.07 13.67-1.83-.04-1.16-3.41-4.91.06c-.61.21-.92 2.64-1.15 3.36l-1.84.02 4.07-13.67h2.75Zm.65 8.69-1.16-4.29-1.02-2.56c-.16.97-2.22 6.52-1.87 6.85zm-50.44 4.98c-2.82.59-2.04-1.65-2.99-3.44l-4.91.06c-.64.21-1.13 2.63-1.14 3.38h-2.17l4.39-13.66 2.63.28 4.2 13.39Zm-3.42-4.98-1.87-6.85c-.42.04-.51.44-.64.76-.74 1.88-1 4.21-1.85 6.09zm13.38-8.72v9.5c0 .25.67 1.93.92 2.2.96 1 3.11.95 4.16.16.16-.12.84-1.34.84-1.42V86.64h1.87v11.05c0 .1-.95 1.54-1.11 1.69-1.58 1.58-5.35 1.7-7 .19-.53-.49-1.54-2.51-1.54-3.13v-9.81h1.87Zm69.75 0-.31 1.56h-5.3v4.36h4.67v1.56h-4.67v4.67h5.61v1.55h-7.47v-13.7zm-36.12 0v1.56h-4.05v12.14h-1.87V88.19h-4.04v-1.56zm61.34 0-.35 1.53-3.7.03v12.14h-1.87V88.19h-4.05l.01-1.56zM31.18 0l.29 1.12h.64V0h1.85c0 1.01-.27 1.25.92 1.11V0h1.84v1.11h.64l.29-1.12h2.03v2.83c-1.74.54-1.36 2.37-1.3 3.91.02.4.16.73.19 1.1.04.52-.21 1.93.3 2.1 5.62.33 11.23 1.35 16.56 3.14.28-.06 2.21-3.35 2.3-3.81.14-.76-.7-1.95-.26-2.83.16-.22.57-.1.8-.23.76-.41 1.03-.55 1.94-.88.16-.06.29-.61.76-.51.52.36.97.76.86 1.45 1.09-.64 1.25.89 1.51 1.07.12.08.46.02.69.13.44.2.63.74.56 1.2.6-.29.73.19 1.26.4l.2 1.87c-.25.47-.78.52-1.06.98-.64 1.03-2.82 7.5-2.94 8.7-.09.89.58 1.56-.31 2.44-.38.37-.98.46-1.3.73-.43.35-1.9 4.27-2.04 4.99s.22.92-.34 1.67c-1.26 1.68-6.44 2.59-8.52 2.92-7.14 1.14-14.54 1.14-21.75.76-3.94-.2-13.36-.8-16.42-3.14-1.19-.91-.7-1.15-.9-2.22-.18-.94-1.48-4.57-2.15-5.06-.54-.39-1.33-.44-1.57-1.2s.13-1.24.07-1.9c-.12-1.2-2.3-7.67-2.94-8.7-.29-.47-1.07-.62-1.07-1.12.28-.41.06-1.51.21-1.73.14-.2.96-.66 1.26-.4-.07-.46.13-1 .56-1.2.23-.11.57-.05.69-.13.27-.18.42-1.71 1.51-1.07-.11-.69.34-1.09.86-1.45.47-.1.59.45.76.51.51.19 1.28.35 1.66.5.22.09.22.34.28.38.23.12.63 0 .8.23.44.88-.4 2.07-.26 2.83.09.46 2.04 3.76 2.27 3.79 2.65-.95 5.41-1.62 8.18-2.12 2.17-.39 4.58-.77 6.77-.98.49-.05 1.23.11 1.64-.02.52-.17.26-1.58.3-2.1.03-.37.18-.7.19-1.1.06-1.54.44-3.37-1.31-3.91V0h2.04Zm-1.66 2.58h9.78V.37h-1.11v1.11h-1.66l-.1-1.11h-1.19v1.11h-1.66V.37h-1.29c.31.69.35 1.02-.45 1.12-.38.05-.82-.05-1.21 0V.37h-1l-.1 2.22Zm9.41.19h-9.04l.86.93h7.17c.34.07.28-.32.44-.47.23-.22.57-.19.56-.46Zm-6.27 1.29h-1.85v1.66h1.85zm3.13 0h-2.77v1.66h2.77zm2.22 0h-1.85v1.66h1.85zM8.14 6.43l-.03-1.26c-.32-.04-.17.42-.18.64-.02.39-.02.79.02 1.18l3.11 1.13V6.65l-.18.63c-.71.41-.83-.41-.74-1l-.18.74c-.57-.02-1.06-.08-.92-.74h-.18l-.11.38-.61-.22Zm52.73.56c.04-.38.04-.79.02-1.18-.01-.23.14-.68-.18-.64l-.02 1.27-.72.21-.37-.92.18 1.1-.92.19-.18-.74c.05.64.07 1.23-.74 1.11l-.18-.74v1.47zM7.53 6.98c.05-.07.2-1.27-.15-1.26.12.69-.43 1.27-1.02 1.48l-.09-.37c-.61.46-.16 1.34-1.2 1.66l-.18-.55c-.44.56-.17 1.28-.95 1.65-.29.06-.5-.58-.72-.18-.2.36-.05.89-.09 1.29C4.49 9.66 5.77 8.48 7 7.28c.15-.15.47-.23.52-.3Zm1.69-.89v-.37h-.18v.37zm53.32 1.09c-.29.24-1.38-.97-1.1-1.46-.42.1-.16.98 0 1.21.41.64 2.44 2.34 3.14 2.95.34.3.75.54 1.11.83-.04-.4.11-.94-.09-1.29-.23-.42-.4.32-.83.11-.74-.37-.33-1.28-.92-1.58l-.09.55c-.97-.35-.66-1.02-1.11-1.66l-.1.35ZM31 7.75V6.73c0-.22.14-.69-.18-.64-.15.47-.22.89-.19 1.38.02.3.16.52.37.28m3.32-1.66h-2.95v1.66h.74c-.16-1.13.2-1.6 1.31-1.19l.26 1.19h.64zm3.13 0H34.5v1.66h.65l.26-1.19c.16-.23 1.08-.16 1.23.07l.08 1.12h.74V6.09Zm.74 1.66c.03-.33 0-.64-.05-.96-.02-.18-.06-.74-.32-.7.01.46-.02.93 0 1.39.01.3.16.51.37.27m-27.58-.92v.18q.18-.09 0-.18m47.6 0v.18q.18-.09 0-.18M10.7 9.04c.04-.46.34-.43-.11-.72-.71-.46-2.06-.67-2.84-1.13-.67 1.03 2.79 1.96 2.95 1.85m47.42 0c.15.12 3.59-.83 2.95-1.85l-3.13 1.38.18.46ZM3.5 11.25l.64.02 3.39-3.09-.16-.62c-1.14.9-2.55 1.96-3.5 3.04-.18.21-.44.3-.37.65m61.82 0c.21-.18-.93-1.22-1.1-1.39-.85-.79-1.83-1.63-2.77-2.3 0 .33-.32.57-.02.84 1.19.76 2.16 2.01 3.25 2.87.27.22.36-.04.64-.02M32.1 8.12h-1.48v1.66h2.03c.15-.61-.37-.26-.54-.38V8.12Zm.93 1.66h2.77c.15-.61-.37-.25-.54-.38V8.12h-1.68V9.4c-.19.12-.7-.23-.55.38m5.16-1.66h-1.48L36.7 9.4c-.17.12-.69-.23-.54.38h2.03zm-30.44.37-.87.83.6 1.2.78-.82-.51-1.2Zm52.78 1.46c.37-.06.75.78 1.01.39.16-.25.21-.74.41-1.02l-.78-.83-.63 1.46ZM8.66 8.67l-.55.09c.38.43.1 1.22.92 1.02l-.37-1.1Zm52.04 0-.55.12-.37.98c.81.2.6-.63.92-1.1m-50.41.59-1.25-.4c.05 1.12.68 1.17 1.57 1.47l-.31-1.07Zm48.24 0-.31 1.07c.88-.3 1.52-.35 1.57-1.47l-1.25.4Zm-47.46.89-.19-.74h-.18l.19.74zm46.86 0 .19-.74h-.18c.01.22-.26.57-.19.74zM5.72 11.99l1.43-1.2-.61-1.2c-1.15.6-1.47 1.21-.83 2.4Zm57.38 0c.64-1.19.33-1.8-.83-2.4l-.61 1.2 1.43 1.2ZM8.39 10.15v.18q.18-.09 0-.18m2.31 1.47c-.35-.97-.78-1.39-1.84-1.47l.4 1.26 1.44.22Zm19.56-1.47-1.48.18v1.48h1.29c0-.57-.1-1.14.18-1.66Zm.74 0h-.55l-.18 1.66h.74v-1.66Zm3.32 0h-2.95v1.66c1.26.29 1-.36 1.67-.82.34-.24.72-.26 1.05-.43.24-.12.3 0 .23-.41m3.13 0H34.5c-.09.52.11.31.41.41.35.12.77.19 1.07.42.52.4.43 1.09 1.48.83v-1.66Zm.93 0h-.55v1.66h.74l-.18-1.66Zm1.66.18-1.48-.18c.29.52.18 1.09.18 1.66h1.29v-1.48Zm19.93-.18c-1.06.08-1.5.5-1.84 1.47l1.45-.21.4-1.26Zm.46 0v.18q.18-.09 0-.18m-32.02.18-4.98.55.18 1.48 4.78-.57zm16.98.56-4.98-.55v1.37c.04.29 4.17.53 4.8.66zM8.3 11.99l.3-.38-.57-1.09c-1.16.67-1.48 1.14-.83 2.39.45-.04.02-.8 0-1.04-.04-.64.34-.7.9-.61l.2.72Zm.28-1.47v.18q.18-.09 0-.18m3.6 1.47c-.5-.81-.6-1.34-1.66-1.47.3.89.61 1.55 1.66 1.47m45.53-.22c.05-.04.65-1.19.6-1.25-1.08.13-1.08.65-1.66 1.38.14.2.97-.06 1.06-.14Zm2.53-1.25v.18q.18-.09 0-.18m1.39 2.4c.65-1.25.33-1.72-.83-2.39l-.63 1.2.35.27.2-.72c.56-.09.94-.03.9.61-.01.24-.44.99 0 1.04ZM4.89 10.89l-.78.82.6 1.2.82-.66-.63-1.36Zm3.78 0 .28.55.09-.09-.18-.46h-.18Zm27.68 4.06v-2.86c0-.42-.67-1-1.1-1.11-2.96-.72-2.83 1.81-2.77 3.97h.55c-.08-1.24-.18-4.29 1.86-3.61 1.28.43 1.04 2.26 1.1 3.34.01.31.17.51.37.27Zm23.62-4.06-.18.46.09.09.28-.55h-.18Zm3.96 0-.63 1.36.82.66.6-1.2-.78-.82Zm-40.68.18-4.62.83c-.23.46-.11 1.36.52 1.27 1.43-.21 2.86-.58 4.29-.8l-.19-1.29Zm27.12.93-4.8-.93c.04.43-.19 1.29.31 1.45l4.04.73zm-41.15-.19c-1.21.46-.52.61-.39 1.24.07.33-.12.53-.07.79l.97-.82-.51-1.2Zm.9.02c-.91-.28-.4.63-.14.97.23.3.31.36.71.3zm49.11-.02c-.46-.46-1.03.96-.92 1.29.29.33 1.06-1.15.92-1.29m.37 0-.51 1.2.97.82c.05-.26-.14-.45-.07-.79.05-.25.39-.54.34-.76l-.73-.48Zm-52.96.18c-1.37.37-1.73 1.12-1.1 2.4.67-.22 0-.71.04-1.17.02-.17.28-.64.42-.67.52-.12.47.9 1.01.74L6.64 12Zm5.72 1.48c-.39-.84-.79-1.53-1.84-1.47.17 1.02.77 1.64 1.84 1.47m6.09-.19c-.07-.27-.19-1.24-.46-1.26l-4.53 1.26.37 1.29 4.61-1.29Zm11.44-1.29-3.5.38v1.47c1.52-.64 3.93.81 3.5-1.84Zm2.4 0h-2.02l-.19 1.85h2.22v-1.85Zm6.27.01h-1.84v1.84h2.03zm3.87.37-3.5-.38.2 1.64c1.1.08 2.24-.14 3.3.2v-1.47Zm12.73.92-4.34-1.27-.46 1.15 4.61 1.4.18-1.29Zm3.14-1.3c-1.05-.05-1.45.64-1.84 1.47 1.08.16 1.67-.45 1.84-1.47m4.99 2.4c.63-1.28.27-2.03-1.1-2.4l-.37 1.29c.54.17.49-.86 1.01-.74.14.03.4.5.42.67.05.46-.63.95.04 1.17Zm-50.75-2.03c-.19-.04-.49-.05-.36.27.06.14.43.79.73.65zm13.47 0-4.98.83.37 1.2c1.57-.3 3.19-.51 4.8-.56l-.18-1.48Zm21.78.74-4.98-.74-.18 1.48c1.6.03 3.21.3 4.8.56l.37-1.29Zm8.85-.74c-.26-.29-.8.75-.74.92.27.29.84-.81.74-.92M7.97 13.99c-.13-.08-.21-.69-.22-.89-1.37.72-.64.59-.55 1.4.04.33-.15.55-.1.81l1.38-1.2c-.03-.2-.36-.02-.52-.12Zm13.06.4-.45-1.24c-.57.2-4.31.79-4.34 1.15l.47 1.03 4.31-.94Zm31.18.92c-.03-.33.53-.99.2-1.2l-4.43-1.01-.18 1.29 4.42.92Zm9.6 0c-.17-.63-.31-1.02.17-1.57l-.91-.64-.19.92-.55.09 1.47 1.2Zm-51.3-.55-.74-1.47c-.07.34.05.57.15.87.09.28.18.73.59.6m48.16 0 .37-1.48-.71 1.05c-.11.39-.08.5.34.43M4.89 13.47v.18q.18-.09 0-.18m7.24.41c-.09-.08-1.73-.47-1.8-.41.2.31.33.96.68 1.07l1.54.21c-.16-.2-.28-.77-.41-.88Zm.42-.22c-.05.45.25 1.26.83 1.1.52-.33-.13-.84-.09-1.29l-.73.19Zm43.72 0-.73-.19c.04.45-.61.96-.09 1.29.58.15.88-.65.83-1.1Zm2.22-.19c-1.03.19-1.95.12-2.21 1.29l1.67-.27.55-1.02Zm5.44 0v.18q.18-.09 0-.18m-58.77.74v-.37h-.18v.37zm4.43-.37c-.27-.07-.3.06-.46.18-.25.19-1.3.99-1.01 1.29 1.45-.39 2.21.67 1.47-1.48Zm19.19 1.29-.19-1.29c-.21.09-.39.17-.64.19-1.09.08-2.43 0-3.51.18-.65.11-.52.72-.16 1.12l4.49-.19Zm.92-1.29h-.74v1.11h.55l.18-1.11Zm10.15 0h-.74l.18 1.11h.55v-1.11Zm4.78 1.45c.16-.37.4-.9-.09-1.06l-4.31-.4-.19 1.29 4.59.16Zm16.07.03c.3-.34-.76-1.1-1.01-1.29-.16-.12-.18-.25-.46-.18.03.64-.83 1.34.17 1.57.39-.42.84-.34 1.3-.09Zm3.14-1.11v-.37h-.18v.37zM31 14.02h-1.1l-.19.92H31zm1.29 0h-.92v.92h.92zm5.16 0h-.74v.92h.74zm1.48.01h-1.1v.92h1.29zm-22.88.18c-.73.33-2.17.43-2.77.83-.33.22-.08.21 0 .37.13.26.39.48.38.83l2.76-.74zm39.11 2.03.3-1.11-2.69-.91-.37 1.29 2.76.74Zm-49.9-1.85v.18q.18-.09 0-.18M23.8 15.5c0-.46.13-1.05-.47-1.12-1.17.26-2.54.26-3.68.57-.2.05-.37.05-.45.28l.17.82 4.43-.56Zm25.65.55.17-.82-.3-.26c-.74-.01-3.7-.8-4.13-.51-.26.18-.16.72-.17 1.03 1.48-.02 2.98.24 4.43.56m14.11-1.66v.18q.18-.09 0-.18m-56.74.92-.46.02-.28-.76-.7.45.61 1.39c.19-.22 1.04-.87.83-1.1m55.18 0c-.21.23.64.88.83 1.1l.61-1.39-.7-.45-.28.76zm-51.12-.36c-1.18.33-1.27 1.18-.46 2.03.92-.74.95-.97.46-2.03m.91.02-.53-.02.39 1.08.71.03zm1.08.21c-.07-.06-.86-.41-.69.04.08.21.74 1.38 1.1 1.02 0-.23-.3-.97-.41-1.06m43.19 1.02c.06-.04.68-1.15.59-1.26-.61.11-.92.42-1.1 1.02-.11.38.34.35.52.23Zm1.51-1.25c-.75-.2-.67.71-1.11 1.1l.71-.03.39-1.08Zm.37 0c-.49 1.06-.46 1.29.46 2.03.73-.92.76-1.66-.46-2.03M19 16.05c.08-.06.1-.91-.41-.88-.8.04-2.95.72-3.77 1.03-.47.18-.37.71.27.66.41-.03 3.75-.69 3.91-.81m35.25.19-4.01-1.08c-.49-.03-.46.55-.42.89l4.15.91c.22-.02.37-.57.27-.71Zm-46.32-.92-1.46 1.03.63 1.36c.46-.37.19-.95.36-1.48.11-.34.53-.51.47-.91m52.96 0c-.06.4.37.57.47.91.16.53-.1 1.12.36 1.48l.63-1.35zm-50.38 3.13c-.33-.88-.94-3.77-2.32-2.78-.97.7-.2 2.78.11 3.7.34.04.16-.38.1-.56-.19-.65-1.03-2.4-.06-2.81 1.38-.58 1.39 1.85 2.17 2.46Zm21.04-2.95h-2.68c-.11 0-1.08.3-1.27.39-.29.12-.9.55-1.03.81-.18.37.31.26.46.27 1.37.1 2.62-.21 3.96-.19-.1-.62.24-.85.56-1.29Zm4.8 0h-3.78c-.19 0-1.33.61-1.38.83l.28.46h3.97c.08 0 .21-1.22.92-1.11v-.18Zm4.61.19c-1.14-.11-2.21-.3-3.37-.14-.68.1-1.85.39-1.8 1.24l4.42.18c0-.24-.02-.52.09-.74.17-.33.64-.23.65-.55Zm19.56 3.68c.3-.92 1.08-3 .11-3.7-1.38-.99-2.02 1.89-2.32 2.78.78-.61.79-3.04 2.17-2.46.97.41.13 2.17-.06 2.81-.05.18-.24.61.1.56Zm-33.4-3.68c-.96.05-2.13.09-3.05.36-.58.17-1.51.57-1.38 1.3l3.48-.21c.12-.28.14-.64.3-.9.22-.34.61-.24.64-.56Zm18.82.36c-1.11-.08-4.42-.63-5.18.26-.18.22-.2.39-.17.66l4.12.19c.16-.04.27-.49.48-.67.31-.27.73-.13.76-.44Zm-22.88 0c-1.39.25-4.15-.07-4.24 1.84l3.5-.37c.01-.29 0-.6.14-.88.19-.4.56-.27.6-.59m27.31.56c-1.14.07-2.25-.47-3.39-.35-.26.03-2.5.6-1.95 1.09.33.02.69-.04 1.02 0 .61.08 2.3.47 2.75.38.18-.03.09-.67.39-.74l1.19-.38Zm-38.01 1.1-.83-1.29c-.76.51-.26.8-.08 1.47zm1.66-.55c-.31-.72-1.35-.64-2.03-.73l.67 1.12zm.37-.18c.12-.23-.29-.64-.37-.55-.12.23.29.64.37.55m40.04 0c.07.09.49-.32.37-.55-.07-.09-.49.32-.37.55m2.4-.56c-.68.1-1.72.02-2.03.73l1.45.36zm.54 1.48c.17-.68.67-.96-.08-1.47l-.83 1.29zm-50.73.18-.55-1.48c0 .48.05 1.24.55 1.48M19 16.61c-1.39.39-3.99.1-3.69 2.21l3.12-.76c-.07-.7.15-.97.57-1.46Zm43.18 1.47c.5-.24.55-1 .55-1.48zm-7.75-.55c-1.29-.21-2.64-.69-3.97-.56-.54.05-1.38.25-1.38.92.98-.2 2.38.57 3.24.54.33-.01.48-.38.76-.5l1.34-.41Zm-43.55-.37c-.53-.45-.48 1.3.37.92zm47.42 0c-.54-.13-.47.63-.74.92.69.17.71-.39.74-.92m-42.99.19c-.98.16-3.29.75-2.95 2.11.09.36.29.19.48.13.64-.2 1.26-.5 1.92-.67zm19.01-.01h-4.98v1.11h4.98zm5.16 0H34.5v1.11h4.98zm-10.51.19c-1.55-.07-3.08.07-4.61.27l.18 1.02c1.49.06 2.93-.32 4.43-.18zm15.31.18c-1.48-.04-2.94-.29-4.43-.18v1.11l4.43.18zM6.83 19.93c.16.18 1.04-.67 1.08-.86.05-.25-.53-.92-.35-1.36l-.9.87.16 1.34Zm17.34-.92v-1.29c-1.37.26-2.83.44-4.25.55v1.29zm24.72-.74-4.24-.55v1.29l4.24.55zM62 19.93c.14-.92.46-1.77-.74-2.03-.35 1.06-.53 1.61.74 2.03m-3.7-1.11c-1.63-.52-3.8-1.36-5.35-.28.72.13 2.47 1.03 3.05 1.01.36-.01.47-.43.76-.52l1.53-.22Zm-45.94-.55c-1.37.26-3.28 1.07-2.58 2.77l2.39-1.12c-.13-.64-.16-1.06.19-1.65m7.2.18-4.06.74.18 1.29 4.06-.92-.19-1.11Zm33.76.74-3.96-.75-.29 1.11 4.06.92.18-1.29Zm-16.42-.55h-4.98c.01.4-.02.8 0 1.21.01.29-.07.3.28.28.66-.04 1.56-.33 2.21-.34.46 0 1.49.11 2.02.16.17.02.44.21.47.17zm-5.35.18-4.61.19.2 1.27 4.41-.17zm10.33.19-4.61-.19v1.29l4.32.2zM26.75 20.3c0-.36.14-1.15-.3-1.28l-4.31.54.19 1.1 4.43-.37Zm19.74.37c.24-1.67.08-1.14-1.2-1.29-.56-.07-2.75-.5-3.06-.29-.29.19-.15.87-.17 1.21zm10.85-1.44c-.28.02-.68.19-.87.42 0 .14 2.23 1.27 2.38 1.29.54.1 1.02-.51 2.18.05.3.14.49.54.79.5-.66-1.36-3.05-2.39-4.47-2.27Zm-47.84.15c-1.02.68-2.05.76-1.71 2.26s1.19.14 1.8-.35c.05-.22-.34-.55-.35-.9s.31-.69.26-1.02Zm5.81 1.29-.19-1.29-3.32 1.11.19 1.11c.1.14 2.81-1.1 3.32-.92Zm41.7-.19-3.23-1.11c-.08 0-.45.99-.1 1.21.61.38 2.22.39 2.86 1.01l.46-1.1Zm-48.99-.92v.18q.18-.09 0-.18m13.93 0-4.24.74.19 1.11 4.06-.56v-1.29Zm28.97 1.85.14-1.02-.14-.18-4.07-.64v1.29l4.06.56Zm9.88-1.85v.18q.18-.09 0-.18m-53.33.37-.46.46.09.09.46-.46zm53.88 0-.09.09.46.46.09-.09zm-25.19 4.8v-3.6c0-.89-1.88-1.25-2.65-.81-.19.11-.67.66-.67.81v3.6h.37V21.5c0-.84 1.23-1.31 1.95-.84.13.09.63.75.63.84v3.23zm-18.45-3.14-.19-1.29-3.69.92.48 1.1 3.39-.73Zm11.81.18h2.95c-.09-.62.23-1.01.55-1.47l-3.51.18v1.29Zm7.01 0h2.77v-1.28l-3.32-.19zm18.45-.55-3.69-.92c.03.46.04.88-.19 1.29l3.5.93.37-1.29Zm-25.83-.74-4.13.21c-.49.16-.26 1.03-.3 1.45l4.42-.38v-1.29Zm14.95 1.66c-.04-.42.19-1.29-.3-1.45l-4.13-.21v1.29l4.43.38Zm-32.48-1.47c-.84.46-1.69.91-2.31 1.66l.38.74 2.04-1.29zm45.4 1.09 2.11 1.3c1.29-1.14-1.09-1.76-1.85-2.39l-.27 1.09Zm-32.67-.9-3.95.53-.12.14c0 .45-.13 1.15.47 1.18l3.78-.57-.19-1.28Zm24.15.57-4.03-.57-.19 1.28 3.77.57c.62-.07.5-.8.44-1.28ZM8.3 23.06c.01-.53-.59-.71-.78-1.15-.14-.32-.01-.86-.32-.87-.48.96.01 1.96 1.1 2.03Zm50.93-1.66c.87.17 1.09 1.09 1.57 1.66 2.07-.76-.61-2.81-1.57-1.66m-45.58 0-2.77 1.11.19.73c1.13-.54 3.31.11 2.58-1.85Zm6.27 0-3.87.74.2 1.27 3.86-.53zm32.85.75-3.87-.74-.19 1.48 3.88.74.18-1.47Zm4.98 1.1v-.83l-2.58-1.02-.17 1.28c.93.5 1.84.1 2.75.57m-26.02-1.29c-.48-.09-.93.16-1.38.19-.72.04-2.2-.15-2.74.02-.47.15-.27.89-.3 1.27l4.43-.18v-1.29Zm.74 0c-.69-.15-.26.9-.37 1.29.69.15.26-.9.37-1.29m4.25 1.29v-1.29h-.18v1.29zm4.8.18c-.03-.38.16-1.12-.3-1.27-.57-.19-2.17.03-2.93-.02-.4-.03-.78-.25-1.2-.19v1.29l4.43.18Zm-25.84-1.1-2.58.74.57 1.1c1.28-.29 2.77-.08 2.01-1.84m11.26 0-4.43.37.2 1.09c1.47-.05 2.97-.14 4.41-.35l-.19-1.11Zm19.37.37-4.43-.37-.19 1.11c1.42.24 2.88.25 4.32.38l.29-1.12Zm9.23.37-2.4-.74c-.73 1.7.64 1.61 1.91 1.86l.48-1.12Zm-46.32.73c.16-.46.14-.89-.37-1.11-.16.46-.14.89.37 1.11m48.9-1.1c-.38 1.12.22 1.7 1.01 2.4 1-.82-.19-1.95-1.01-2.4m1.84 1.1-.09-1.1c-.39.24-.65 1.17.09 1.1m-49.26-.92c-.24-.19-1.23.91-1.34 1.16-.15.36.06.61.33.86.58-.62 1.45-1.09 1.01-2.03Zm11.62 0-4.06.55.19 1.11c1.26-.31 2.57-.59 3.87-.55zm28.24.55-4.06-.55v1.11c1.3-.03 2.61.25 3.87.55zm-38.38 4.25c-.36-1.04-2.01-4.44.27-4.06.81.14 1.2 2.01 1.52 2.73.08.17.12.66.42.5-.56-.94-.76-3.52-2.13-3.6-.24-.01-1 .26-1.14.41-.59.62.36 2.81.65 3.61.11.3-.1.5.41.41m45.53-4.02c-.45-.47-1.56-.56-1.99.04l-1.2 3.23c.6-.7.87-3.16 1.85-3.32 2.24-.38.68 3 .27 3.97l.37.09c-.02-1 1.45-3.22.69-4.02Zm-39.63-.04c-.16-.17-3.29.54-3.43.72l-.06.64c.13.29.33.31.61.29.7-.04 1.94-.71 2.77-.72l.11-.94Zm11.07 0c-1.38.37-2.84.03-4.24.37l.3 1.12 4.13-.19-.19-1.29Zm3.32 0h-2.95v1.29c.99.05 1.97-.01 2.95-.19zm6.83 0h-2.77l.02 1.09c.9.27 1.83.21 2.75.2zm4.61.37c-1.4-.34-2.86 0-4.24-.37l-.19 1.29 4.13.19.3-1.12Zm10.33.37c-1.14-.34-2.3-.72-3.5-.75l.02.9 3.21.94.27-1.1Zm-29.52.92c-.02-.38.16-1.12-.3-1.27-.7-.23-2.88.5-3.76.35l.03.99.27.29 3.77-.35Zm23.44-.92c-.92.21-3.02-.59-3.76-.35-.46.15-.28.89-.3 1.27l4.06.37zm-33.77 1.1-.18-.92h-.18l.18.92zm5.89-.91-3.69.62c-.3.18-.32 1.2.2 1.13l3.68-.66-.2-1.09Zm32.1.75-3.75-.77-.29 1.11 3.79.7c.29-.03.37-.87.25-1.05Zm2.23.35.18-1.11c-.47.14-.38.7-.37 1.11h.18Zm-43.91-.93h-.37l.19.92h.37zm47.79.01h-.37l-.19.92h.37zM10.33 26.2l-.28-1.11c-.38.19-.26 1.25.28 1.11m48.53 0-.18-1.11c.07.38-.57 1.24.18 1.11m-42.64.17-.18-1.1-1.66.56.19.92zm11.46.2h3.04c.08 0 .43-.22.6-.23l.51-1.06c-1.33.52-3.48-.42-4.15 1.29m8.3-1.29h-3.04c-.3 0-1.49.58-1.2 1.11h3.51c.06 0 .1-1.03.74-.92v-.18Zm3.87.19c-1.14.18-2.9-.41-3.87.28-.22.16-.43.33-.37.64l3.58.2zm-11.81 0c-1.17.23-3.58-.11-3.69 1.47l2.84-.21.85-1.27Zm16.06.18c-1.24.16-2.57-.33-3.73.05-.48.16-.79.28-.69.87l3.38.19 1.05-1.11Zm10.33.19c-.56-.08-1.06-.47-1.65-.36l-.2.9 1.66.37.19-.92Zm-30.48 1.07c.06-.55.39-.82.77-1.17l-1.73.11c-.81.15-1.99.41-1.95 1.46l2.92-.4Zm23.65-.89c-1.27.11-2.44-.55-3.64.14-.68.39-.52.71.21.79s1.62.05 2.39.19c.17-.03.09-.45.28-.66.22-.23.74-.13.74-.46Zm-36.53 0c-.15-.18-.81.44-.86.64l.4.83.63-.48zm47.19.23s-.49-.26-.5-.23c-.21.81-.28 1.23.55 1.66.13-.46.33-1.02-.05-1.43m-37.23-.05c-1.09.11-3.13-.07-2.95 1.47l2.47-.35zm30.08.37c-1.35-.01-3.32-.77-4.24.46.23.37.52.22.83.28.8.14 1.6.19 2.39.38.17-.02.06-.44.28-.66s.74-.13.74-.46m-33.03 0c-1.1.3-2.62.14-2.58 1.66l2.2-.39c-.02-.54.04-.86.39-1.27Zm12.92.37-1.11.18v5.35H31v-5.54Zm1.66 0h-1.48v5.54l1.48.18zm3.32 0h-3.14v5.72h3.14zm1.66 0h-1.48v5.72l1.48-.18zm1.29 5.54v-5.26c-.26-.38-.69-.28-1.11-.28v5.54zM54.8 27.5c-1.19-.21-2.31-.79-3.56-.52-.6.13-1.07.64-.22.87.76.21 1.67.17 2.4.55.08.01.16-.38.37-.52.35-.24.92-.04 1-.38Zm-39.5.9.11-1.27c-.58.23-2.54.63-2.31 1.56.09.35.31.18.5.14.56-.13 1.11-.38 1.7-.43m12.38-1.28h-.74v5.17h.74zm.92 0h-.74v5.35h.74zm1.11 0h-.74v5.35h.74zm10.14 0h-.74v5.35h.74zm1.11 0h-.74v5.35h.74zm.92 0h-.74v5.17h.74zm-30.63 1.11.36-.28v-.35l-.27-.28-.09.92Zm14.4-.92h-.37v4.71s.25.29.37.28v-4.98Zm.92 0h-.55v4.98h.55zm16.24 0h-.55v4.98h.55zm.73 0h-.37v4.98c.12.01.37-.25.37-.28V27.3Zm14.03.92.18-.65-.27-.27-.28.28v.36zm-34.32 3.69v-4.43c-.12-.01-.37.25-.37.28v4.15zm.73-4.43h-.37v4.61h.37zm.93 0h-.55v4.61h.55zm19.56 0h-.55v4.61h.55zm.73 0h-.37v4.61h.37zm.74 4.43v-4.15s-.25-.29-.37-.28v4.43zm-24.17-.18v-4.06h-.18v4.06zm.74-4.06h-.37v4.24h.37zm24.17 0h-.37v4.24h.37zm.55 4.06v-4.06h-.18v4.06zm-36.16-3.32c.12-.23-.3-.64-.37-.55v.55zm9.41 3.13v-3.69h-.18v3.69zm.55.19v-3.87h-.18v3.87zm26.94 0v-3.87h-.18v3.87zm.56-.19v-3.69h-.18v3.69zm9.59-3.13-.09-.55c-.2.17-.34.28-.28.55zm-45.21-.37c-1 .08-2.96 1.68-1.01 1.67.87 0 1.15-.93 1.01-1.67m6.83 3.32v-3.32h-.18v3.32zm29.52 0v-3.32h-.18v3.32zm8.49-2.22c-.75-.92-1.91-1.2-3.05-1.11-.33.03-.59-.06-.82.28l1.98.8c.71-.15 1.19-.21 1.9.03Zm-39.3 2.03v-2.95h-.18v2.95zm32.11 0v-2.95h-.18v2.95zm7.18-1.64-1.46-.2c.43.69-.41.97-.92 1.2-2.96 1.32-9.3 2.04-12.64 2.31-8.01.64-21.74.55-29.25-2.31-1.07-.41-.55-.4-1.75-.46-.34-.02-.58-.37-.84-.27.44.97 1.73 1.42 2.67 1.76 4.95 1.77 11.03 1.99 16.24 2.21 7.58.32 17.5.3 24.77-1.98.62-.2 3.85-1.23 3.17-2.25Zm-23.33 8.29 34.41 34.41-34.41 34.41L0 72.24zm-.28 10.98c.29 1.72-.22 4.19 0 6h-6c-.3 0-1.44-.87-1.57-.74v2.03c.05.06 1.15-.74 1.38-.74h6.18v6.18c0 .21-.91 1.22-.74 1.38h2.21c-.24-.34-.92-1.19-.92-1.57v-6.18h5.26c.06 0 1.06.22 1.21.27.41.13.73.45 1.1.65v-2.21c-.42.28-1.47.92-1.94.92h-5.63v-6.18c0-.38.68-1.23.92-1.57h-2.4c.27.46.84 1.25.92 1.75Zm-12.6 12.65c-.94.57-.34 1.03.24 1.55l19.47 17.06c.99-.78.7-1.04-.09-1.75-5.9-5.35-12.25-11.07-18.37-16.14-.28-.23-.93-.81-1.26-.72Zm24.78 1.46c-.34 1.14-.78 2.37.37 3.23 1.35 1 3.33.14 3.51-1.47.33-2.99-1.9-3.7-4.43-3.05l1.21.55c1.68-.6 3.35.8 2.77 2.59-.38 1.19-2.27 1.76-3.03.62s.75-1.35.72-1.46c-.22-.77-.79-.35-.91-.47l-.19-.54Zm-.74-.92c-.72-.16-.55.38-.92.83-.53.65-2.23 1.95-2.5 2.49-.19.38.25.88.75.56 1.15-.73 2.94-2.39 2.67-3.88m-23.5 2.22c-1.28.71.68 1.2.36 1.83-.06.11-1.23 1.26-1.32 1.28l-1.08-.91-1.57 1.75c.72 1.19 1.22-.56 1.73-.45l.95.91.83-1.02c.44-.24 1.27.99 1.62 1.3l-.88 1.11c.33.46 1.19.52.83 1.2-.19.37-1.32.89-.19 1.3.2 0 1.53-1.49 1.55-1.6.09-.4-.72-.61-.9-.92-.11-.45 1.07-1.39 1.37-1.73l1.11.91.45-.81-4.86-4.16Zm20.37 3.13c.3-.32-.79-1.28-1.01-1.48-.21-.18-.3-.44-.65-.37-.3.32.79 1.28 1.01 1.48.21.18.3.44.65.37m-1.76-.55-5.36 5.16-.07.25.45.48 5.62-5.26-.64-.64ZM33.3 74 19.19 87.93c.23.08.57-.23.74-.36 3.74-3.08 7.69-7.3 11.25-10.71.81-.78 1.85-1.48 2.58-2.4zm9.41 5.34v.18q.18-.09 0-.18m.74.38-.83.83.09.09.83-.83zm6.86 6.5c-.11-.12-.39-.11-.47-.35-.07-.22-.25-3.95-.18-4.19.08-.27.47-.38.53-.78.18-1.21-1.42-1.3-1.59-.07-1.67-.29-3.44.65-4.97-.15-1.08.56-.33 2.12-.27 3.17.03.59.09 1.88-.01 2.4-.08.45-.73.92-.19 1.49.58.35.95-.18 1.41-.28.96-.2 3.5-.36 4.41-.19.34.06.44.37.89.34.66-.04.86-.95.44-1.4Zm-8.33-5.95-.46.46.09.09.46-.46zm.18.92v.18q.18-.09 0-.18"/><path d="m49.08 81.37.18 5.17-5.16.37-.19-5.35z"/></svg>