<svg xmlns="http://www.w3.org/2000/svg" viewBox="0 0 600 320" fill="#fff">
  <path d="M487.98 92.992q23.211-.551 46.416.2c3.244.121 6.499.04 9.737.24-4.073 1.8-26.514 1.126-32.097 1.144-7.753.005-51.351.642-55.308-.939l.08-.125c2.347-.336 4.902-.092 7.288-.171q11.939-.36 23.884-.35m-422.49-.027c9.972-.746 20.373-.205 30.38-.198 16.143.012 32.342-.207 48.463.715-3.468.656-6.848.835-10.373.883-15.857.582-31.855.224-47.726.21-7.197-.005-23.43.626-29.862-.816l-.121-.24c2.79-.653 6.33-.327 9.24-.554M325.856 80.3c2.208.003 4.43.19 6.635.32-1.765 5.784-.703 14.99-.961 21.355 3.151-.44 6.852-1.081 10.006-.721.36 1.647.28 3.25.883 4.851l.113.295-17.428-.005c1.983-6.56 1.263-19.022.752-26.094m-64.865.306c4.236-.369 8.66-.116 12.913-.07q-.478 2.937-1.055 5.855c-2.823-1.18-5.835-.966-8.842-1.015.405 5.222-.335 10.476-.224 15.715 2.151.171 4.844.524 6.919-.117.716-.249 1.043-.508 1.784-.205.943 1.696 1.095 3.822 1.738 5.678-2.926.049-13.195.909-15.396-.673-1.165-3.625-.59-19.149-.002-23.335.44-.92 1.325-1.335 2.165-1.833m30.733-.247c5.467-.272 11.012-.04 16.489-.026a50 50 0 0 0-1.636 5.518c-3.04-.876-5.754-1.006-8.891-.894-.02 1.856-.106 3.718-.163 5.573l6.219-.024q-.335 2.48-.768 4.945a39 39 0 0 0-5.519-.444c.043 2.134.119 4.192-.264 6.304 3.005.253 5.581-.05 8.555-.354 1.643.755 1.929 3.89 2.541 5.536-5.733.008-11.455.184-17.186.266 1.485-5.926 1.803-20.372.623-26.4m-99.505-.064 11.013.058q-.119.38-.225.763c-.194.705-.372 1.384-.353 2.123.101 3.8 2.482 16.783 3.689 20.6.283.896.809 1.759 1.276 2.572l-7.284.085c.31-1.709.416-3.079.067-4.799l-.386-3.24c-1.353.52-3.323 1.036-4.203 2.23-1.118 1.518-.356 4.158-.044 5.857-2.475-.171-4.975-.151-7.455-.189.153-.266.294-.533.439-.803.156-.29.311-.573.446-.872 1.58-3.5 3.922-16.382 3.863-20.5-.02-1.404-.339-2.582-.843-3.885m5.44 6.869c.028 2.24-1.049 4.879-.7 6.954.282.123.395.223.706.187.801-.676 1.323-.964 1.441-2.105.146-1.41-.22-3.657-1.169-4.749-.087-.1-.184-.192-.278-.287m233.136-6.767c2.667-.095 6.706-.584 9.252.29.255 2.9.043 5.761.57 8.663.443 2.434 3.724 15.92 3.506 17.05-2.246.086-4.501.087-6.749.118a5.5 5.5 0 0 0 .48-1.424c.302-1.504.07-3.485-.764-4.784l.116-.981-.418-.456c-1.449-.006-3.285 1.129-4.617 1.686.43 1.022.864 5.091.554 6.148-2.445-.351-5.05-.308-7.522-.421.622-.662 1.168-1.323 1.463-2.197.61-1.807.772-3.879 1.157-5.758.866-4.226 2.129-8.48 2.43-12.792.104-1.487-.554-3.886-.365-4.898zm4.034 7.319c.311 2.146-1.097 4.167-.921 6.341l.411.176.21-.133c.519-.182 1.17-.267 1.46-.78.768-1.36.13-3.906-.251-5.323-.333-.181-.526-.284-.909-.281m-33.159-7.404q3.297.156 6.597.092-.494 3.204-.743 6.436t-.251 6.474.243 6.474.735 6.437c-1.991.529-5.219.046-7.358.092.15-.201.28-.382.392-.608.703-1.416.876-2.721.4-4.236.084-.112.161-.197.22-.322.573-1.197.403-4.017-.089-5.204-.002-.24.013-.285-.079-.545-.658-1.856-3.351-4.934-5.017-5.935.327.62.654 1.227.749 1.93.469 3.502-.047 7.041.139 10.545.068 1.268 1.002 3.171.707 4.32-2.076.535-5.388-.028-7.555-.142 3.172-3.498.714-24.15 1.584-25.724a64 64 0 0 1 5.215.009q.102.086.2.176c.734.702 3.303 5.245 3.341 6.212.133-.218.262-.437.376-.666.789-1.589.748-4.162.194-5.815m-167.996.07c1.482-.072 3.665-.3 4.874.673 1.906 1.534 1.137 7.217 1.39 9.648-.57.572-1.134 1.085-1.507 1.813.364.648.849 1.403 1.017 2.128.856 3.69-.412 6.509 1.275 11.56-2.279.08-4.58.017-6.861.001.813-2.656 1.656-6.686.889-9.405-.29-1.024-.764-1.217-1.629-1.698-.688.29-1.688.592-2.161 1.187-1.797 2.264-.363 7.486.062 10.09-2.395.07-4.789.01-7.184-.034 2.643-5.386 1.617-19.73.43-25.528 3.125-.266 6.271-.325 9.405-.435m-3.114 4.929c-.314 1.96-.189 3.976-.339 5.954 1.155-.357 2.324-.775 3.5-1.049.684-.44.939-.53 1.092-1.388.185-1.045.073-2.28.064-3.345-1.426-.023-2.905.032-4.317-.172m131.172-4.917c2.693-.337 8.401-.706 10.767.469.707.35.95 1.02 1.159 1.732.748 2.545.592 20.035-.59 21.948-.633 1.025-1.576 1.519-2.708 1.79-.195.04-.22.05-.45.071-2.691.252-8.238.604-10.488-1.136-1.002-2.376-1.153-20.137-.332-22.728.372-1.174 1.626-1.657 2.642-2.146m3.056 5.273c-1.933 4.281.859 12.206-.799 15.817 1.334-.052 2.753-.005 4.072-.17.726-.672.851-1.01.879-2.013.039-1.36-.166-2.729-.118-4.096.081-2.297 1.22-7.436-.535-9.175-.619-.614-1.555-.535-2.349-.472q-.576.047-1.15.11m-207.665-5.33c2.21-.127 11.468-.823 12.966.355 1.767 1.39 1.342 7.586 1.486 9.825l-1.749 1.291c-.276 1.075 1.019 1.968 1.261 3.06.563 2.544.267 5.721.504 8.357.102 1.123.697 2.13.612 3.239-5.602.038-11.215.146-16.814-.025 1.358-7.659 1.285-17.729-.025-25.39.507-.596 1.022-.563 1.759-.712m7.039 15.43c-.83.223-1.793.366-2.265 1.156-.572.959-.953 2.07-.625 3.177.167.561.46.99.823 1.439.743.291 1.405.264 2.188.261.455-.024 1.038.081 1.351-.269.544-.608.536-2.238.435-3.013-.12-.922-.269-2.072-1.001-2.698zM161.61 85.09l-.051 6.21 3.285-1.35c.673-.58 1.007-.823 1.063-1.77.055-.946-.019-1.932-.055-2.878-1.41-.065-2.837-.085-4.242-.212m154.941 34.737c14.075-.311 28.201-.094 42.281-.07 3.977.007 7.969.191 11.942.105-.53 1.177-2.276 2.57-3.264 3.449.517 2.011.466 8.211-.213 10.103-.179.256-.082.167-.352.343-1.4.909-3.158 1.976-4.249 3.244a8.6 8.6 0 0 1-1.201 1.154c-5.064-.578-10.358.187-15.391-.6l.016-.261c.519-.354 1.136-.724 1.575-1.171 1.043-1.062.768-6.316.861-8.027-6.239-.338-12.435-.297-18.68-.214 3.087 1.408 6.289 2.351 9.542 3.294-.445 6.937.351 13.937-.098 20.87 3.019-1.372 20.799-10.15 22.192-12.057.094.146.101.15.19.325.718 1.426.705 8.853.223 10.35-1.554 1.868-12.836 6.918-15.792 8.489-5.236 2.408-10.352 5.164-15.457 7.839 2.955-.109 5.927.016 8.883.077-.09 5.439.049 46.957.768 48.496.958 2.051 4.231 2.649 6.163 3.255-3.966-.098-8.119-.429-12.043.22-6.779 1.122-12.719 3.764-19.733 3.678 1.567-.91 3.305-1.85 4.417-3.323.893-1.182.953-2.399 1.037-3.817.377-6.351.102-12.88.099-19.247l-.025-35.772-.04-23.627c-.013-4.068.29-8.52-.273-12.539-.311-2.219-1.7-3.275-3.378-4.566m184.055.11c4.972-.768 14.613-.181 20.138-.187l46.638-.011c-.135 1.861-2.485 3.584-2.804 5.775-.609 4.178.996 14.241-.615 17.338-.191-1.016-.93-1.666-1.632-2.377-10.079-10.21-15.298-9.569-28.729-9.642 2.648.805 8.342 2.667 10.332 4.337.029.046.062.09.087.138q.166.314.255.657.09.343.098.698c.25 8.844.135 17.73.183 26.579l.179 53.342c.008 4.825.779 23.094-.177 26.211 2.42.472 10.791 3.148 12.69 4.254 1.417.289 3.447.711 4.661 1.474 1.396 2.797.714 11.059 1.676 14.936.807 3.248 3.302 5.018 3.663 6.659-2.013-1.296-4.285-2.143-6.314-3.508-3.661-2.463-6.93-5.472-10.586-7.946-7.576-5.124-18.023-8.26-26.93-10.187.893-.684 2.091-1.904 2.396-2.992.193-.403.336-.822.397-1.266.58-4.189.044-9.043.038-13.302q.058-16.857-.367-33.709l-.475-48.011c-.084-5.408.048-10.868-.216-16.267-.045-.931-.112-1.632-.676-2.402-7.423.261-10.527 1.714-16.445 6.101-1.382 1.024-2.758 2.213-4.326 2.932l-.24.107a9 9 0 0 0 .191-.415l.078-.192c.135-.328.233-.621.277-.976.372-3.016.205-12.839-.917-15.448-.458-1.062-1.762-1.616-2.439-2.569zm-327.32-.076c7.219-.424 14.613-.123 21.85-.129 5.81-.004 12.219-.526 17.943.354 1.491 1.96 3.256 3.653 5.812 4.018.82.116 1.654-.003 2.435.3-.264 1.144-1.742 2.51-2.458 3.497-.806 4.52-.307 9.656-.266 14.238-2.703 1.4-4.31 2.748-6.285 5.025-4.962.746-10.472.427-15.486.313l-.124-.318q.098-.073.194-.147c4.074-3.206 1.919-13.444 2.529-18.398-7.264-.074-14.515.233-21.778.241q4.03 1.413 8.025 2.924c-.545 18.192-.724 36.481-.879 54.682-.086 10.04.238 20.213-.45 30.225 7.77-.913 15.514-2.042 23.282-2.94-3.057-.771-6.226-1.248-9.329-1.814l.016-2.737c.139-5.339.95-16.927.029-21.551-.267-1.34-1.1-1.945-2.093-2.808l.074-.246c4.541-1.41 10.801-1.217 15.579-1.351 1.829 2.01 3.699 2.97 6.095 4.16q-.449 13.162-.239 26.33l2.96 2.833c-6.171.436-6.82 4.648-11.282 5.788-3.083.788-6.649.55-9.821.958-9.495 1.221-19.017 3.097-28.556 3.795q-.53-.527-1.083-1.029c-2.558-2.303-5.272-2.27-8.504-2.081.592-.432 1.178-.881 1.7-1.396.976-.963 1.564-2.183 1.763-3.534.406-2.748.315-5.672.391-8.453q.234-9.799.227-19.601l.763-41.485c.034-3.527.682-18.85-.185-21.349-.473-1.364-1.512-2.345-2.5-3.352 5.206-.859 5.564-1.919 9.651-4.962m204.769.074c5.218-.755 12.122-.21 17.502-.211l36.568.056c-.563 1.622-2.126 2.168-2.553 3.987-.69 2.939.891 8.084-.363 10.575-2.495 1.348-4.096 3.148-6.332 4.724-2.969-.074-13.571.147-15.578-.552.24-1.306 1.865-1.464 2.526-2.563.845-1.408.559-5.515.054-7.064l-.071-.199q-9.63-.274-19.263-.396c3.092.901 7.014 1.768 9.78 3.391l.079.121c.824 1.418 1.273 22.526.699 24.819 1.601-.295 20.824-10.675 22.038-11.789.133.206.247.416.346.642.727 1.673.804 8.721.168 10.473-.938 1.235-24.917 13.257-28.085 14.683q-1.776.81-3.684 1.225c3.139.149 6.265.448 9.394.73l.055.178c.501 1.596 1.262 36.038 1.138 40.52-.017.615-.109 1.075-.369 1.635 2.326.083 9.779.897 11.821 1.579 3.435.122 6.71 1.092 10.125 1.382-.055-.088-.106-.178-.164-.264-.888-1.307-7.131-3.743-8.85-4.021.104-.319.204-.652.247-.985.442-3.474-.023-7.568-.035-11.118-.025-7.52.345-15.338-.248-22.821-.049-.617-.145-1.082-.515-1.595-.004-.241.011-.297-.085-.557-.666-1.814-2.779-2.725-4.368-3.535 5.79.875 11.935.432 17.623 1.673.736.408 5.527 5.088 6.044 5.838 1.706 2.992.209 36.454 1.312 43.517.362 2.322 2.357 3.093 2.97 5.106q.024.083.044.166c-2.814-1.488-35.366-5.745-40.787-6.283-4.565-.453-12.869-.512-16.92-2.236l-.068-.34c.949-.434 1.509-.795 1.963-1.762.396-.843.572-1.673.609-2.602.18-4.449-.163-9.007-.194-13.469l-.876-60.226c-.068-3.604.37-16.91-.594-19.355q-.037-.088-.076-.175c-.004-.05 0-.1-.01-.149-.22-1.046-2.161-2.152-3.017-2.753m-116.24-.171c8.744-.017 17.466-.114 26.202.349-.405.292-.801.596-1.203.891-.263.193-.533.375-.763.607-2.175 2.194-1.237 23.922-1.279 28.19-5.327 3.378-11.035 6.311-16.64 9.205 5.196-.057 10.401-.361 15.593-.084-.961.81-1.85 1.685-2.746 2.566-.006 6.401 1.486 13.286 2.449 19.615 1.726 11.35 2.967 23.421 6.509 34.367 1.049 3.242 2.229 5.391 5.319 6.961l.062.343c-.071.035-.14.073-.212.104-2.243.984-10.409-1.557-12.788-2.374-5.266-1.897-11.322-2.378-16.858-2.816 1.352-.475 3.219-.939 4.094-2.144.547-.755.49-1.477.423-2.359-.371-4.863-1.6-9.936-2.433-14.754-2.046-11.842-4.397-23.76-5.975-35.669-6.847 3.762-14.365 7.431-20.725 11.935q5.258-1.459 10.649-2.302-.243 14.844-.154 29.689c-.007 3.652-.586 10.252.26 13.629.349 1.394 1.728 2.046 2.854 2.748-8.906.765-17.898 1.384-26.82 1.946.973-.587 2.543-1.312 3.185-2.257.703-1.033.774-2.627.844-3.836.298-5.15-.052-10.389.088-15.555q.886-28.145.809-56.304l-.002-12.131c.015-2.267.377-4.805-.071-7.025l-.036-.171c-.299-1.522-1.84-1.778-2.162-2.982l1.175-.287c7.966-.359 15.917.191 23.881.223-.882.547-1.903 1.114-2.608 1.88-.498.541-.633 1.213-.715 1.919-.425 3.638-.134 7.649-.163 11.332-.057 7.374-.21 14.785.049 22.155 4.715-2.004 9.39-4.938 13.824-7.533-.781-6.04-.178-13.184-.143-19.351.013-2.418.276-5.211-.368-7.56-.474-1.73-1.971-2.343-3.405-3.16m186.028.173c4.743-.67 10.087-.247 14.904-.254 8.05-.013 16.195-.243 24.235.137.758.398 1.332 1.195 1.937 1.794 2.509 2.481 4.556 3.281 7.973 3.714-.662 1.288-2.011 2.153-2.508 3.512-1.974 5.395 1.222 21.423-.348 24.253-.208.251-.143.221-.361.358-2.561 1.613-3.53 3.252-5.633 5.037-5.597-.069-11.177-.644-16.759-1.036 1.251-.58 2.345-1.199 2.957-2.506q.306-.638.488-1.322.182-.683.233-1.389c.235-2.944.166-20.466-.541-22.447-7.59-.48-15.246-.489-22.85-.704 2.733.734 6.44 1.937 8.867 3.378.083.137.118.188.19.348.626 1.395.587 21.971.001 23.483 1.979.911 4.06 2.634 5.94 3.829q12.278 7.677 24.174 15.933c2.319 1.618 5.527 3.44 7.418 5.521 1.42 2.68.066 43.031 1.129 50.457.295 2.062 2.515 2.974 2.943 4.586.025.097.044.196.066.295-2.095-.072-4 .014-6.078.263-.43.962-2.456 2.47-3.355 3.037-2.677-1.163-15.777-3.645-19.364-4.284-2.608-1.251-16.063-3.246-20.324-4.399-.003-.342-.023-.512-.215-.805-2.273-3.475-5.645-4.971-9.556-5.847 1.251-.516 2.648-1.053 3.311-2.318 1.082-2.062.71-37.408-.279-40.829.717-.194 1.379-.499 2.035-.845 1.451-.767 3.251-2.132 3.765-3.75 5.463-.101 11.128.643 16.543 1.363-.605 1.165-1.99 2.326-3.071 3.065.141.322.807 38.237.767 41.662a4.1 4.1 0 0 1-.294 1.507c2.65.377 5.347 1.104 7.973 1.651 4.967 1.034 9.992 2.011 14.886 3.354-.022-.05-.039-.101-.064-.149-1.069-2.043-6.975-4.613-9.151-5.371q.037-.076.07-.152c.405-.976.024-42.708-.611-44.297-4.276-3.579-32.206-22.14-37.276-23.861.845-2.162.098-24.467-.488-27.121-.389-1.765-1.619-2.878-3.093-3.795 4.487-.46 6.399-1.83 9.414-5.056m-413.187-.124 30.86-.064c6.168-.005 12.46-.288 18.603.117.662.913 1.319 1.852 2.043 2.716 2.042 2.437 4.456 2.726 7.423 2.958-.471.475-.965.923-1.44 1.393-.758.748-1.251 1.473-1.527 2.517-1.452 5.495-.64 23.681-.664 30.43-5.61 4.217-10.965 8.742-16.449 13.119 5.05-.44 10.158-1.434 15.225-1.387-1.08.988-1.899 1.994-2.73 3.198-.127 5.064 1.01 10.265 1.686 15.27l3.116 23.307 1.853 13.878c.538 4.282.906 8.949 2.191 13.068 1.127.93 2.368 1.584 3.648 2.27-4.188.72-8.292 2.078-12.376 3.242q-7.595 2.147-15.249 4.075c.64-.669 1.32-1.35 1.884-2.084.987-1.285 1.317-2.632 1.413-4.229.346-5.731-.826-11.799-1.474-17.493q-2.124-18.411-4.705-36.763c-.506-3.598-.747-7.237-1.052-10.857-2.264 2.407-5.087 4.501-7.573 6.689-4.414 3.883-8.772 7.928-12.853 12.162 3.548-1.463 7.019-3.202 10.54-4.745.35 7.33-.006 14.801-.18 22.137q-.153 10.204-.19 20.408c-.038 5.154-.802 11.619.545 16.554 1.884.598 3.662.617 5.614.647-4.49 1.565-8.82 3.461-12.792 6.1-6.892 4.576-10.02 8.242-18.066 11.838q.832-.753 1.625-1.548c2.261-2.292 3.601-5.162 4.059-8.336.753-5.22.436-10.772.455-16.039l.081-26.845c.1-29.642.434-59.316.134-88.956-.043-4.239-.564-5.698-3.678-8.747m31.269 10.963c-6.165.087-12.39.527-18.545.41l9.933 4.033c-.325 11.41-.423 23.056-.14 34.468-.019.902-.2 2.082.15 2.92.163-.274.317-.558.507-.814l.133.403c4.205-3.63 8.348-7.372 12.774-10.731q.007-15.372.284-30.741c-1.708.13-3.387.099-5.096.052m44.37-10.927c5.019-.339 10.208-.1 15.245-.103 7.951-.003 15.916-.101 23.865.072 2.714 3.086 4.692 4.294 8.761 5.174.093.898-1.701 2.714-2.284 3.45-.476 3.371-.351 6.883-.416 10.286l-.244 21.2c-.276 16.356-.831 32.697-.908 49.06-.016 3.378-.623 10.016.222 12.884.398 1.349 1.9 2.092 3.043 2.708-4.758 1.808-6.605 3.203-10.122 6.894-2.21.598-4.349 1.102-6.622 1.39-10.775 2.779-21.919 4.457-32.745 7.081q-.245-.288-.496-.572c-2.884-3.257-4.599-2.531-8.561-2.778l-.096-.239c.354-.279.683-.575.997-.9 1.326-1.375 1.91-3.136 2.143-4.995.36-2.88.181-5.899.256-8.804.208-8.074.176-16.15.312-24.225.384-22.806 1.192-45.708.568-68.517-.885-1.339-1.904-2.409-3.029-3.542 5.786-.576 5.779-2.026 9.92-5.371zm18.387 9.768q-7.1.166-14.201.215c2.698 1.03 5.488 1.97 8.115 3.163l-.781 55.406-.343 26.033c-.044 4.195.155 8.48-.045 12.662a103 103 0 0 0 7.119-1.275c4.75-.846 9.734-1.504 14.295-3.117-2.632-.517-5.38-.923-7.882-1.906.358-4.367.23-8.843.282-13.229l.262-23.483 1.039-54.639z"/>
</svg>
