<svg viewBox="0 0 74 47" xmlns="http://www.w3.org/2000/svg"><path d="M27.508 16.198 37.814 5.865a12.2 12.2 0 0 0-1.86-2.37C31.46-1.01 26.5-.232 22.974 3.303L10.152 16.198c-3.526 3.534-4.3 8.467.155 12.973s9.453 3.729 12.94.194l2.557-2.563c-2.247-3.807-1.2-7.691 1.705-10.604" fill="#fff"/><path d="M44.865 16.198 55.17 5.865a12.2 12.2 0 0 0-1.86-2.37c-4.494-4.505-9.453-3.69-12.94-.193l-2.557 2.563c2.247 3.807 1.2 7.691-1.705 10.604L25.803 26.802c.504.854 1.162 1.67 1.86 2.37 4.494 4.505 9.414 3.69 12.94.154l2.557-2.563c-2.208-3.768-1.2-7.652 1.705-10.565" fill="#fff"/><path d="M37.814 5.865 27.508 16.198c-2.906 2.913-3.952 6.797-1.705 10.604L36.11 16.469c2.906-2.913 3.952-6.797 1.705-10.604" fill="none"/><path d="M70.668 3.496c-4.494-4.506-9.415-3.69-12.94-.194L55.17 5.865c2.247 3.807 1.2 7.691-1.705 10.604L43.199 26.802c.504.854 1.162 1.67 1.86 2.37 4.494 4.505 9.414 3.69 12.94.154l12.824-12.895c3.526-3.496 4.34-8.43-.155-12.935" fill="#fff"/><path d="M55.17 5.865 44.866 16.198c-2.906 2.913-3.952 6.797-1.705 10.604l10.306-10.333c2.906-2.913 3.952-6.797 1.705-10.604" fill="none"/><path fill="#FFF" d="M0 37.561h2.17l2.402 3.884 2.363-3.884h2.17v9.128H7.129v-5.943l-2.557 3.885h-.078l-2.518-3.846v5.904H0zm11.894 0h6.858v1.787H13.87v1.864h4.3V43h-4.3v1.903h4.92v1.787h-6.896zm9.299 9.129h3.564c2.867 0 4.843-1.982 4.843-4.584v-.04c0-2.563-1.976-4.544-4.843-4.544h-3.564zm2.014-1.788v-5.515h1.55c1.434-.078 2.673 1.049 2.75 2.486v.31c.078 1.438-1.045 2.642-2.479 2.72zm8.097 1.787h2.014v-9.13h-2.014zm3.565 0h2.053l.852-2.06h3.835l.853 2.06h2.092l-3.913-9.207h-1.86zm3.602-3.807 1.201-2.952 1.201 2.952zm7.633 3.807h2.014v-2.76h1.511c2.054 0 3.681-1.087 3.681-3.224v-.038c0-1.865-1.317-3.147-3.487-3.147h-3.72zm2.014-4.507v-2.796h1.55c1.007 0 1.627.466 1.627 1.398v.039c0 .777-.58 1.398-1.588 1.398zm6.935 4.507h2.015v-2.914h1.589l1.937 2.913h2.324l-2.17-3.263a2.81 2.81 0 0 0 1.938-2.835v-.039a2.84 2.84 0 0 0-.775-2.097c-.736-.66-1.666-.972-2.673-.933h-4.146v9.167zm2.015-4.7v-2.642h1.976c.969 0 1.589.427 1.589 1.32 0 .777-.543 1.282-1.55 1.282zm11.933 4.855c2.596.077 4.766-1.943 4.882-4.584v-.195a4.85 4.85 0 0 0-4.843-4.854 4.85 4.85 0 0 0-4.843 4.855v.039c-.039 2.563 2.053 4.66 4.61 4.7a.4.4 0 0 0 .194.039m.039-1.865c-1.511 0-2.75-1.243-2.75-2.797v-.117c-.078-1.514 1.084-2.757 2.595-2.835h.116c1.511 0 2.75 1.243 2.75 2.797v.117c.078 1.515-1.084 2.757-2.595 2.835-.039 0-.077.039-.116 0"/></svg>