<svg xmlns="http://www.w3.org/2000/svg" data-name="Capa 1" viewBox="0 0 425.2 132.41" fill="#fff">
  <path d="M61.21 79.43a10.09 10.09 0 0 0-10.08 10.08v24.37a10.08 10.08 0 1 0 20.15 0V89.51a10.09 10.09 0 0 0-10.07-10.08m4.22 34.45a4.23 4.23 0 1 1-8.45 0V89.51a4.23 4.23 0 1 1 8.45 0Z"/>
  <path d="M61.21 70.98a18.55 18.55 0 0 0-18.53 18.53v24.37a18.55 18.55 0 0 0 18.53 18.53 18.55 18.55 0 0 0 18.52-18.53V89.51a18.55 18.55 0 0 0-18.52-18.53m12.67 42.9a12.68 12.68 0 1 1-25.35 0V89.51a12.68 12.68 0 1 1 25.35 0Zm49.03-41.85h-11.7a1.31 1.31 0 0 0-1.3 1.41v40.51a4.23 4.23 0 0 1-8.45 0V73.32a1.3 1.3 0 0 0-1.3-1.29h-11.7a1.3 1.3 0 0 0-1.33 1.29v40.63a18.51 18.51 0 0 0 18.49 18.46 18.51 18.51 0 0 0 18.53-18.46V73.32a1.3 1.3 0 0 0-1.24-1.29m-4.55 41.93a12.68 12.68 0 0 1-25.35 0V79.19a1.3 1.3 0 0 1 2.6 0V114a10.08 10.08 0 0 0 20.15 0V79.19a1.3 1.3 0 0 1 2.6 0Zm56.69-42.01h-11.61a1.29 1.29 0 0 0-1.31 1.29v26.79l-17.6-27.48a1.29 1.29 0 0 0-1.08-.6h-9a1.29 1.29 0 0 0-1.32 1.29V130a1.29 1.29 0 0 0 1.29 1.29h11.61a1.3 1.3 0 0 0 1.29-1.29v-26.81l17.61 27.5a1.31 1.31 0 0 0 1.09.6h9a1.29 1.29 0 0 0 1.29-1.29V73.24a1.29 1.29 0 0 0-1.26-1.29m-4.52 52.24v.08a.13.13 0 0 1 0 .06v.07a.2.2 0 0 1 0 .08v.16l-.05.07-.06.08-.06.07-.23.33h-.11l-.13.07-.15.06h-.86l-.12-.08-.07-.06h-.05l-.07-.08-.09-.12-26.97-41.54v40.75a1.29 1.29 0 0 1-2.58 0V79.05a.2.2 0 0 1 0-.08v-.21a.4.4 0 0 1 0-.09.3.3 0 0 0 0-.07v-.07l.06-.09.06-.07h1.34l.09.06.07.06v.06L167.19 120V79.05a1.29 1.29 0 1 1 2.58 0Zm33.29-43.78h-10.69v42.57h10.67a11 11 0 0 0 10.93-10.94V91.35a11 11 0 0 0-10.91-10.94m5.13 31.63a5.13 5.13 0 0 1-5.13 5.13h-4.87V86.19h4.87a5.13 5.13 0 0 1 5.13 5.13Z"/>
  <path d="M203.82 72.03h-17.77a1.29 1.29 0 0 0-1.29 1.29v56.75a1.29 1.29 0 0 0 1.29 1.29h17.77a19.35 19.35 0 0 0 19.31-19.32V91.35a19.35 19.35 0 0 0-19.31-19.32m13.51 40a13.53 13.53 0 0 1-13.51 13.52h-12a1.29 1.29 0 0 1-1.29-1.29V79.12a1.29 1.29 0 0 1 1.29-1.29h12a13.53 13.53 0 0 1 13.51 13.52ZM27.59 122.76a12.1 12.1 0 0 1-8.7 3.63c-5.7 0-11-3.24-12.54-7.7a1.3 1.3 0 1 1 2.45-.86c1.2 3.4 5.54 6 10.09 6a9.52 9.52 0 0 0 6.85-2.85 10 10 0 0 0 2.83-7.25c-.1-8-5-9.8-10.77-11.87-5.56-2-11.86-4.27-11.86-13.36 0-6.77 4.87-11.48 12.13-11.73 5.79 0 10.74 3.2 12.33 7.95a1.303 1.303 0 0 1-2.47.83c-1.23-3.69-5.18-6.17-9.84-6.17-5.82.2-9.59 3.78-9.59 9.12 0 7.26 4.7 9 10.15 10.91 5.79 2.09 12.36 4.46 12.49 14.28a12.58 12.58 0 0 1-3.59 9.11m5-22c-2.52-2.69-6.12-4.78-11.71-6.77-5.08-1.74-6.18-2.71-6.18-5.49 0-1.47 1-3.19 3.86-3.19 2.05 0 3.75.87 4.13 2.12a7.7 7.7 0 0 1 .28 2.65v.52a1.3 1.3 0 0 0 1.3 1.3h11.58a1.3 1.3 0 0 0 1.3-1.3 25.6 25.6 0 0 0-.84-7.68c-2.66-8.24-11.16-12-17.94-12-10.42 0-18 7.38-18 17.55 0 12 8.37 16.43 15.67 18.93 5.7 1.94 6.85 3 6.85 6.39a3.92 3.92 0 0 1-4.08 4.19c-1.47 0-3.68-1-4.32-2.31-.3-.6-.32-1-.32-2.78a1.3 1.3 0 0 0-1.3-1.3H1.3a1.3 1.3 0 0 0-1.3 1.3 23.6 23.6 0 0 0 1 7.72c2.43 6.8 10.06 11.73 18.15 11.73A17.84 17.84 0 0 0 32.03 127a18.54 18.54 0 0 0 5.23-13.31c-.12-5.48-1.63-9.71-4.64-12.92m-.26-95.38a18.25 18.25 0 0 0-13-5.38H2.27A1.28 1.28 0 0 0 .99 1.3v56.75a1.28 1.28 0 0 0 1.28 1.29h11.61a1.28 1.28 0 0 0 1.25-1.29V36.77h4.19a18.38 18.38 0 0 0 13-31.38Zm-12.69.11h.06a1.61 1.61 0 0 1 0 3.22h-.08a1.61 1.61 0 0 1 .05-3.22Zm-13.2 7.23a1.61 1.61 0 0 1 3.22 0 1.61 1.61 0 1 1-3.22 0m0 5.65a1.61 1.61 0 1 1 3.22 0 1.61 1.61 0 1 1-3.22 0m0 5.64a1.61 1.61 0 0 1 3.22 0 1.61 1.61 0 1 1-3.22 0m1.66 29.83a1.6 1.6 0 0 1-1.61-1.6 1.61 1.61 0 1 1 1.61 1.6m1.61-7.23a1.61 1.61 0 1 1-3.22 0 1.61 1.61 0 0 1 3.22 0m0-5.64a1.61 1.61 0 0 1-3.22 0 1.61 1.61 0 0 1 3.22 0m0-5.64a1.61 1.61 0 0 1-3.22 0 1.61 1.61 0 0 1 3.22 0m-.27-4.75a1.61 1.61 0 0 1-2.95-.89 1.61 1.61 0 0 1 3.1-.62 1.7 1.7 0 0 1 .13.64 1.6 1.6 0 0 1-.33.87Zm-.71-22a1.7 1.7 0 0 1-.63.13 1.61 1.61 0 0 1-1.61-1.61A1.61 1.61 0 0 1 8.04 5.5h.09a1.62 1.62 0 0 1 .61 3.11Zm5.15-3.11a1.62 1.62 0 0 1 0 3.23 1.62 1.62 0 0 1 0-3.23m.06 25.8a1.61 1.61 0 0 1 0-3.22 1.61 1.61 0 0 1 0 3.22m5.85 0h-.08a1.62 1.62 0 0 1 0-3.23 1.62 1.62 0 1 1 .09 3.23Zm2.56-9.93a4.16 4.16 0 0 1-3 1.22h-4.25v-8.38h4.22a4.19 4.19 0 0 1 2.94 7.16Zm1.46-13.48a1.62 1.62 0 0 1 2.22-.55 1.61 1.61 0 0 1-.84 3 1.6 1.6 0 0 1-.83-.23 1.61 1.61 0 0 1-.6-2.21Zm2.28 21.54h-.05a1.63 1.63 0 0 1-.82.22 1.63 1.63 0 1 1 .87-.25Zm2.32-18a1.61 1.61 0 0 1 2.19.6 1.61 1.61 0 0 1-1.4 2.4 1.64 1.64 0 0 1-1.41-.82 1.6 1.6 0 0 1 .57-2.17Zm2.23 13.29a1.61 1.61 0 0 1-2.2.61 1.61 1.61 0 0 1-.68-2.12 1.62 1.62 0 0 1 2.82 1.58Zm1.64-6.32a1.61 1.61 0 1 1-3.22 0 1.61 1.61 0 1 1 3.22 0m95.32-4.19a1.29 1.29 0 0 0 1.29-1.29V1.3a1.29 1.29 0 0 0-1.29-1.29H93.45a1.29 1.29 0 0 0-1.32 1.29v11.6a1.29 1.29 0 0 0 1.32 1.29h10v31h-10a1.29 1.29 0 0 0-1.32 1.26v11.6a1.29 1.29 0 0 0 1.29 1.29h34.21a1.28 1.28 0 0 0 1.29-1.29v-11.6a1.28 1.28 0 0 0-1.29-1.26h-10v-31Zm-5.82-8.71a1.62 1.62 0 1 1-1.62 1.62 1.62 1.62 0 0 1 1.64-1.61ZM99.27 8.71a1.62 1.62 0 0 1 0-3.23 1.62 1.62 0 1 1 0 3.23m0 45.14a1.61 1.61 0 1 1 0-3.22 1.61 1.61 0 1 1 0 3.22m5.65 0a1.61 1.61 0 0 1 0-3.22 1.61 1.61 0 0 1 0 3.22m0-45.14a1.62 1.62 0 0 1 0-3.23 1.62 1.62 0 0 1 0 3.23m5.64 45.14a1.61 1.61 0 0 1-1.14-2.76 1.65 1.65 0 0 1 1.15-.48 1.63 1.63 0 0 1 1.15.48 1.61 1.61 0 0 1-1.13 2.76Zm0-37.1a1.62 1.62 0 0 1 1.57 1.63 1.62 1.62 0 0 1-3.23 0 1.61 1.61 0 0 1 1.64-1.62Zm-1.61-4a1.62 1.62 0 0 1 3.23 0 1.62 1.62 0 0 1-3.23 0m1.61 9.64a1.62 1.62 0 0 1 1.57 1.63 1.62 1.62 0 0 1-3.23 0 1.61 1.61 0 0 1 1.64-1.61Zm0 5.64a1.62 1.62 0 0 1 1.57 1.63 1.62 1.62 0 1 1-3.23 0 1.61 1.61 0 0 1 1.64-1.61Zm0 5.64a1.62 1.62 0 0 1 1.57 1.63 1.62 1.62 0 0 1-3.23 0 1.61 1.61 0 0 1 1.64-1.61Zm0 5.64a1.63 1.63 0 0 1 1.57 1.64 1.62 1.62 0 0 1-3.23 0 1.62 1.62 0 0 1 1.64-1.62Zm0 5.65a1.62 1.62 0 0 1 1.57 1.63 1.62 1.62 0 0 1-3.23 0 1.61 1.61 0 0 1 1.64-1.61Zm.64-36.39a1.5 1.5 0 0 1-.64.14 1.7 1.7 0 0 1-.91-.28 1.62 1.62 0 0 1 .9-3 1.62 1.62 0 0 1 1.58 1.68 1.6 1.6 0 0 1-.95 1.48Zm10.63 42.05a1.61 1.61 0 1 1-1.62 1.61 1.61 1.61 0 0 1 1.62-1.59Zm-4 1.61a1.61 1.61 0 0 1-1.61 1.61 1.61 1.61 0 0 1 0-3.22 1.61 1.61 0 0 1 1.59 1.63ZM116.22 8.7a1.62 1.62 0 0 1 0-3.23 1.62 1.62 0 0 1 0 3.23M180.45.01h-9a1.29 1.29 0 0 0-1.08.59l-10.3 16L149.88.61a1.28 1.28 0 0 0-1.08-.6h-9a1.29 1.29 0 0 0-1.29 1.29v56.75a1.29 1.29 0 0 0 1.29 1.29h11.63a1.29 1.29 0 0 0 1.29-1.29v-26.8l6.29 9.86a1.3 1.3 0 0 0 1.09.59 1.28 1.28 0 0 0 1.08-.59l6.37-9.92v26.86a1.29 1.29 0 0 0 1.29 1.29h11.61a1.29 1.29 0 0 0 1.29-1.29V1.3a1.29 1.29 0 0 0-1.29-1.29m-34.83 53.84a1.6 1.6 0 0 1-1.61-1.6 1.62 1.62 0 0 1 3.23 0 1.63 1.63 0 0 1-1.62 1.6m1.62-7.23a1.62 1.62 0 1 1-3.23 0 1.62 1.62 0 0 1 3.23 0m0-5.64a1.62 1.62 0 0 1-3.23 0 1.62 1.62 0 0 1 3.23 0m0-5.64a1.62 1.62 0 0 1-3.23 0 1.62 1.62 0 0 1 3.23 0m0-5.64a1.62 1.62 0 0 1-3.23 0 1.62 1.62 0 0 1 3.23 0m0-5.65a1.62 1.62 0 0 1-3.23 0 1.62 1.62 0 0 1 3.23 0m0-5.64a1.62 1.62 0 0 1-3.23 0 1.62 1.62 0 1 1 3.23 0m0-5.64a1.62 1.62 0 0 1-3.23 0 1.62 1.62 0 0 1 3.23 0m-1.62-4a1.61 1.61 0 0 1-1.61-1.61 1.62 1.62 0 1 1 1.61 1.62Zm6.36 8.29a1.6 1.6 0 0 1-2.23-.49 1.613 1.613 0 0 1 2.71-1.75 1.6 1.6 0 0 1-.48 2.2Zm3 4.68a1.6 1.6 0 0 1-.87.25 1.59 1.59 0 0 1-1.35-.74 1.61 1.61 0 0 1 2.71-1.74 1.62 1.62 0 0 1-.49 2.19Zm3 4.67a1.53 1.53 0 0 1-.87.26 1.6 1.6 0 0 1-1.35-.74 1.61 1.61 0 1 1 2.71-1.74 1.62 1.62 0 0 1-.49 2.18Zm3.49 4.16a1.8 1.8 0 0 1-.49.49h-.19a1.45 1.45 0 0 1-.67.17 1.63 1.63 0 0 1-.86-.25 1.6 1.6 0 0 1-.42-.41 1 1 0 0 1-.11-.22 1 1 0 0 1-.08-.25 2 2 0 0 1 0-.23v-.08a2 2 0 0 1 0-.23.3.3 0 0 0 0-.08 2 2 0 0 1 .07-.26 1.6 1.6 0 0 1 .55-.72h.17l.17-.09h.09l.22-.07h.05a1.6 1.6 0 0 1 1.81 1.94 1.4 1.4 0 0 1-.09.27.5.5 0 0 1-.05.11.8.8 0 0 1-.17-.13Zm3-4.67a1.6 1.6 0 0 1-1.35.74 1.67 1.67 0 0 1-.88-.26 1.62 1.62 0 0 1-.48-2.23 1.613 1.613 0 1 1 2.71 1.75m3-4.68a1.614 1.614 0 1 1-2.72-1.74 1.62 1.62 0 0 1 2.75 1.71Zm3-4.66a1.61 1.61 0 0 1-2.24.49 1.61 1.61 0 0 1-.48-2.22 1.613 1.613 0 0 1 2.71 1.75Zm5.76 35.73a1.62 1.62 0 1 1-1.62-1.62 1.61 1.61 0 0 1 1.62 1.62m0-5.63a1.62 1.62 0 1 1-3.23 0 1.62 1.62 0 0 1 3.23 0m0-5.64a1.62 1.62 0 0 1-3.23 0 1.62 1.62 0 0 1 3.23 0m0-5.64a1.62 1.62 0 0 1-3.23 0 1.62 1.62 0 0 1 3.23 0m0-5.64a1.62 1.62 0 0 1-3.23 0 1.62 1.62 0 0 1 3.23 0m0-5.65a1.62 1.62 0 0 1-3.23 0 1.62 1.62 0 0 1 3.23 0m0-5.64a1.62 1.62 0 0 1-3.23 0 1.62 1.62 0 1 1 3.23 0m0-5.64a1.62 1.62 0 0 1-3.23 0 1.62 1.62 0 0 1 3.23 0m0-5.65a1.62 1.62 0 1 1-1.62-1.62 1.62 1.62 0 0 1 1.62 1.62m196.48 50.32-11.8-23.68a18.38 18.38 0 0 0-10-33.79h-17.12a1.29 1.29 0 0 0-1.29 1.29v56.75a1.29 1.29 0 0 0 1.29 1.29h11.61a1.29 1.29 0 0 0 1.29-1.29V37.13l10.74 21.5a1.27 1.27 0 0 0 1.15.71h13a1.28 1.28 0 0 0 1.1-.61 1.27 1.27 0 0 0 .03-1.25m-10.58-32.77a1.64 1.64 0 0 1-1.41.82 1.61 1.61 0 0 1-1.4-2.4 1.612 1.612 0 1 1 2.81 1.58m1.65-6.35a1.61 1.61 0 1 1-3.22 0 1.61 1.61 0 0 1 3.22 0m-3.88-6.94a1.61 1.61 0 0 1 2.2.6 1.61 1.61 0 0 1-1.4 2.4 1.62 1.62 0 0 1-1.41-.82 1.61 1.61 0 0 1 .61-2.18m-4.59-3.54a1.62 1.62 0 0 1 2.22-.55 1.61 1.61 0 0 1-.84 3 1.6 1.6 0 0 1-.83-.23 1.61 1.61 0 0 1-.55-2.22m2.28 21.54h-.06a1.61 1.61 0 0 1-2.2-.57 1.62 1.62 0 1 1 2.26.54Zm-2.46-11.03a4.18 4.18 0 0 1-4.2 4.19h-4.19v-8.39h4.22a4.2 4.2 0 0 1 4.17 4.2m-3.9-12.89a1.61 1.61 0 0 1 0 3.22h-.1a1.61 1.61 0 1 1 .09-3.22ZM339.6 53.85a1.61 1.61 0 0 1-1.62-1.6 1.62 1.62 0 1 1 1.62 1.62Zm1.61-7.23a1.62 1.62 0 0 1-3.23 0 1.62 1.62 0 0 1 3.23 0m0-5.64a1.62 1.62 0 0 1-3.23 0 1.62 1.62 0 1 1 3.23 0m0-5.64a1.62 1.62 0 0 1-3.23 0 1.62 1.62 0 0 1 3.23 0m0-5.65a1.62 1.62 0 1 1-3.23 0 1.62 1.62 0 0 1 3.23 0m0-5.64a1.62 1.62 0 0 1-3.23 0 1.62 1.62 0 0 1 3.23 0m0-5.64a1.62 1.62 0 0 1-3.23 0 1.62 1.62 0 1 1 3.23 0m0-5.64a1.62 1.62 0 0 1-3.23 0 1.62 1.62 0 0 1 3.23 0m-1.61-4a1.62 1.62 0 0 1-1.62-1.61 1.62 1.62 0 1 1 1.62 1.62Zm5.78-3.24a1.62 1.62 0 0 1 0 3.23 1.62 1.62 0 0 1 0-3.23m.06 25.8a1.61 1.61 0 1 1 0-3.22 1.61 1.61 0 1 1 0 3.22m5.82 0h-.05a1.62 1.62 0 0 1-.05-3.23 1.62 1.62 0 0 1 1.65 1.57 1.59 1.59 0 0 1-1.56 1.65Zm2.47 5.66a1.62 1.62 0 0 1-1.45-.89 1.615 1.615 0 0 1 2.85-1.52 1.62 1.62 0 0 1-.73 2.16 1.65 1.65 0 0 1-.67.21Zm3.53 5.47a1.55 1.55 0 0 1-.72.17 1.6 1.6 0 0 1-1.44-.89 1.63 1.63 0 1 1 2.87-1.55 1.6 1.6 0 0 1-.71 2.23Zm2.1 5.82a1.61 1.61 0 0 1-1.44-.9 1.614 1.614 0 0 1 2.89-1.44 1.61 1.61 0 0 1-.72 2.17 1.7 1.7 0 0 1-.73.13Zm3.53 5.45a1.55 1.55 0 0 1-.72.17 1.6 1.6 0 0 1-1.44-.89 1.61 1.61 0 1 1 2.87-1.46 1.61 1.61 0 0 1-.71 2.14Zm-41.16-39.54a1.29 1.29 0 0 0 1.29-1.29V1.3a1.29 1.29 0 0 0-1.29-1.29h-34.18a1.29 1.29 0 0 0-1.29 1.29v56.75a1.29 1.29 0 0 0 1.29 1.29h34.18a1.29 1.29 0 0 0 1.29-1.29V46.44a1.29 1.29 0 0 0-1.29-1.25h-21.28v-8.42h10a1.28 1.28 0 0 0 1.28-1.29V23.87a1.28 1.28 0 0 0-1.28-1.29h-10v-8.39Zm-5.82-8.71a1.62 1.62 0 1 1-1.62 1.62 1.62 1.62 0 0 1 1.64-1.61Zm-5.64 0a1.62 1.62 0 0 1 0 3.23 1.62 1.62 0 1 1 0-3.23m-5.65 0a1.62 1.62 0 0 1 0 3.23 1.62 1.62 0 0 1 0-3.23m-12.88 7.24a1.62 1.62 0 0 1 3.23 0 1.62 1.62 0 0 1-3.23 0m0 5.65a1.62 1.62 0 1 1 3.23 0 1.62 1.62 0 0 1-3.23 0m0 5.64a1.62 1.62 0 0 1 3.23 0 1.62 1.62 0 0 1-3.23 0m0 11.28a1.62 1.62 0 0 1 3.23 0 1.62 1.62 0 0 1-3.23 0m0 5.65a1.62 1.62 0 1 1 3.23 0 1.62 1.62 0 0 1-3.23 0m0 5.64a1.62 1.62 0 0 1 3.23 0 1.62 1.62 0 0 1-3.23 0m1.63 7.27a1.7 1.7 0 0 1-.64-.13 1.6 1.6 0 0 1-1-1.48 1.61 1.61 0 0 1 1.62-1.61 1.64 1.64 0 0 1 1.62 1.63 1.61 1.61 0 0 1-1.6 1.6Zm1.13-23a1.61 1.61 0 0 1-2.76-1.14 1.61 1.61 0 0 1 1.62-1.61 1.64 1.64 0 0 1 1.62 1.63 1.6 1.6 0 0 1-.48 1.1Zm-.51-22.24a1.5 1.5 0 0 1-.63.14 1.61 1.61 0 0 1-1.62-1.61 1.62 1.62 0 0 1 1.62-1.62 1.62 1.62 0 0 1 1.61 1.62 1.6 1.6 0 0 1-.98 1.45Zm21.92 42.05a1.61 1.61 0 1 1-1.62 1.61 1.61 1.61 0 0 1 1.64-1.63Zm-5.64 0a1.61 1.61 0 0 1 0 3.22 1.61 1.61 0 1 1 0-3.22m-5.65 0a1.61 1.61 0 1 1 0 3.22 1.61 1.61 0 0 1 0-3.22m-4 1.61a1.62 1.62 0 0 1-1.62 1.61 1.61 1.61 0 0 1 0-3.22 1.62 1.62 0 0 1 1.63 1.59Zm4-24.18A1.61 1.61 0 1 1 303 29.7a1.61 1.61 0 0 1 1.64-1.63Zm-4 1.61a1.62 1.62 0 0 1-1.62 1.61 1.61 1.61 0 0 1 0-3.22 1.62 1.62 0 0 1 1.63 1.59ZM299 8.7a1.62 1.62 0 0 1 0-3.23 1.62 1.62 0 1 1 0 3.23m-70.65 45.07a1.5 1.5 0 0 1-.52.08 1.61 1.61 0 0 1-1.52-1.09 1.61 1.61 0 1 1 2 1m-3.89-6.57a1.61 1.61 0 1 1 3.06-1 1.61 1.61 0 0 1-1 2 1.6 1.6 0 0 1-.52.08 1.62 1.62 0 0 1-1.54-1.08m-1.57-5.1-.06-.06v-.06a1.6 1.6 0 0 1-.32-1 2 2 0 0 1 0-.25.1.1 0 0 0 0-.05v-.07a.4.4 0 0 1 0-.1 1.61 1.61 0 0 1 3-.15v.06a.1.1 0 0 0 0 .05.5.5 0 0 1 0 .11v.09a.2.2 0 0 1 0 .08v.45a.5.5 0 0 1 0 .13 1 1 0 0 1 0 .13 1.59 1.59 0 0 1-1 1.05 1.6 1.6 0 0 1-.52.08 1.6 1.6 0 0 1-1.2-.54m-2.06-5.74a1.61 1.61 0 1 1 3-1 1.61 1.61 0 0 1-1 2 1.5 1.5 0 0 1-.51.08 1.6 1.6 0 0 1-1.53-1.1m-1.74-5.18a1.61 1.61 0 1 1 3.05-1 1.6 1.6 0 0 1-1 2 1.6 1.6 0 0 1-.52.09 1.61 1.61 0 0 1-1.52-1.1m-.66 11.46a1.62 1.62 0 0 1 0-3.23 1.62 1.62 0 0 1 0 3.23m-5.69 0a1.62 1.62 0 0 1 0-3.23 1.62 1.62 0 1 1 0 3.23m-5.68 0a1.62 1.62 0 1 1 0-3.23 1.62 1.62 0 0 1 0 3.23m-2.3-11.36a1.61 1.61 0 0 1-1-2 1.61 1.61 0 1 1 3 1 1.62 1.62 0 0 1-1.53 1.1 1.5 1.5 0 0 1-.51-.09m.16 4.6a1.63 1.63 0 0 1-1.53 1.1 1.6 1.6 0 0 1-.52-.09 1.61 1.61 0 0 1-1-2 1.61 1.61 0 0 1 3.06 1m-2.5 6.47-.15.09a1.6 1.6 0 0 1-.78.2 1.8 1.8 0 0 1-.51-.08 1.62 1.62 0 0 1-1-2 1.62 1.62 0 0 1 2.78-.5l.06.07a1.66 1.66 0 0 1 .31 1 1.62 1.62 0 0 1-.7 1.33m-1.29 4.82a1.62 1.62 0 0 1-1.52.98 1.5 1.5 0 0 1-.51-.08 1.61 1.61 0 0 1-1-2 1.61 1.61 0 1 1 3.06 1m-1.9 5.64a1.61 1.61 0 0 1-1.53 1.1 1.8 1.8 0 0 1-.51-.08 1.62 1.62 0 1 1 2-1m6.41-29.2a1.61 1.61 0 0 1 3.06 1 1.63 1.63 0 0 1-1.53 1.1 1.5 1.5 0 0 1-.51-.08 1.61 1.61 0 0 1-1-2m1.89-5.66a1.61 1.61 0 0 1 3.06 1 1.61 1.61 0 0 1-3.06-1m1.9-5.64a1.61 1.61 0 0 1 3.05 1 1.61 1.61 0 0 1-1.52 1.1 1.6 1.6 0 0 1-.52-.09 1.61 1.61 0 0 1-1-2m1.87-5.69a1.61 1.61 0 0 1 2-1 1.59 1.59 0 0 1 1 2 1.61 1.61 0 0 1-1.53 1.1 1.5 1.5 0 0 1-.51-.08 1.61 1.61 0 0 1-1-2m5.73 7.91a1.63 1.63 0 0 1-1 2.05 1.5 1.5 0 0 1-.52.08 1.61 1.61 0 0 1-1.52-1.09 1.61 1.61 0 1 1 3.06-1m0 21.28h-8.39l4.2-12.48Zm1.73-16.11a1.61 1.61 0 0 1-1 2 1.6 1.6 0 0 1-.52.09 1.61 1.61 0 0 1-1.52-1.1 1.61 1.61 0 0 1 3-1m1.74 5.19a1.61 1.61 0 0 1-1 2 2 2 0 0 1-.52.08 1.59 1.59 0 0 1-1.52-1.1 1.61 1.61 0 1 1 3.05-1m16.85 32.63-19-56.65a1.29 1.29 0 0 0-1.22-.88h-8.35a1.3 1.3 0 0 0-1.22.88l-19 56.75a1.28 1.28 0 0 0 1.22 1.7h12.24a1.29 1.29 0 0 0 1.23-.88l3.49-10.4h12.53l3.49 10.4a1.29 1.29 0 0 0 1.23.88h12.25a1.29 1.29 0 0 0 1.29-1.29 1.3 1.3 0 0 0-.11-.51m179.14-3.77a1.5 1.5 0 0 1-.51.08 1.6 1.6 0 0 1-1.52-1.09 1.61 1.61 0 1 1 2 1m-3.89-6.57a1.61 1.61 0 1 1 3.05-1 1.61 1.61 0 0 1-1 2 1.6 1.6 0 0 1-.52.08 1.6 1.6 0 0 1-1.53-1.08m-1.58-5.1v-.06l-.05-.06a1.6 1.6 0 0 1-.32-1 1 1 0 0 1 0-.25v-.22a1.61 1.61 0 0 1 3-.15v.06a.1.1 0 0 0 0 .05v.2a.3.3 0 0 0 0 .08v.24a1 1 0 0 0 0 .13v.13a1.59 1.59 0 0 1-1 1.05 1.6 1.6 0 0 1-.52.08 1.62 1.62 0 0 1-1.2-.54m-2.06-5.74a1.61 1.61 0 1 1 3.06-1 1.61 1.61 0 0 1-1 2 1.5 1.5 0 0 1-.51.08 1.61 1.61 0 0 1-1.53-1.1m-1.74-5.18a1.61 1.61 0 0 1 3.06-1 1.62 1.62 0 0 1-1 2 1.5 1.5 0 0 1-.51.09 1.62 1.62 0 0 1-1.53-1.1m-.66 11.46a1.62 1.62 0 1 1 0-3.23 1.62 1.62 0 0 1 0 3.23m-5.68 0a1.62 1.62 0 0 1 0-3.23 1.62 1.62 0 0 1 0 3.23m-5.69 0a1.62 1.62 0 0 1 0-3.23 1.62 1.62 0 0 1 0 3.23m-2.38-11.15a1.61 1.61 0 0 1-1-2 1.61 1.61 0 1 1 3.05 1 1.61 1.61 0 0 1-1.52 1.1 1.5 1.5 0 0 1-.52-.09m.16 4.6a1.61 1.61 0 0 1-3.06-1 1.61 1.61 0 0 1 3.06 1m-2.49 6.47-.15.09a1.6 1.6 0 0 1-.77.2 2 2 0 0 1-.52-.08 1.62 1.62 0 0 1-1-2 1.62 1.62 0 0 1 2.78-.5l.05.07a1.66 1.66 0 0 1 .31 1 1.61 1.61 0 0 1-.69 1.33m-1.3 4.82a1.61 1.61 0 0 1-1.56.99 1.5 1.5 0 0 1-.51-.08 1.61 1.61 0 0 1-1-2 1.61 1.61 0 1 1 3.05 1m-1.89 5.64a1.6 1.6 0 0 1-1.53 1.1 1.8 1.8 0 0 1-.51-.08 1.62 1.62 0 1 1 2.05-1m6.4-29.2a1.61 1.61 0 0 1 3.06 1 1.61 1.61 0 0 1-1.53 1.1 1.5 1.5 0 0 1-.51-.08 1.61 1.61 0 0 1-1-2m1.9-5.66a1.61 1.61 0 1 1 3.05 1 1.61 1.61 0 0 1-1.53 1.1 1.5 1.5 0 0 1-.51-.09 1.6 1.6 0 0 1-1-2m1.89-5.64a1.61 1.61 0 0 1 3.06 1 1.63 1.63 0 0 1-1.53 1.1 1.6 1.6 0 0 1-.52-.09 1.61 1.61 0 0 1-1-2m1.83-5.7a1.62 1.62 0 0 1 3.07 1 1.61 1.61 0 0 1-1.53 1.1 1.5 1.5 0 0 1-.51-.08 1.62 1.62 0 0 1-1-2m5.73 7.91a1.63 1.63 0 0 1-1 2.05 1.5 1.5 0 0 1-.51.08 1.6 1.6 0 0 1-1.52-1.09 1.61 1.61 0 0 1 3.06-1m0 21.28h-8.38l4.19-12.48Zm1.73-16.11a1.61 1.61 0 0 1-1 2 1.5 1.5 0 0 1-.51.09 1.61 1.61 0 0 1-1.53-1.1 1.61 1.61 0 0 1 3.05-1m1.75 5.19a1.61 1.61 0 0 1-1 2 1.8 1.8 0 0 1-.51.08 1.6 1.6 0 0 1-1.53-1.1 1.61 1.61 0 1 1 3.06-1m16.7 32.63-19-56.65a1.3 1.3 0 0 0-1.23-.88h-8.35a1.3 1.3 0 0 0-1.22.88l-19 56.75a1.29 1.29 0 0 0 1.22 1.7h12.25a1.29 1.29 0 0 0 1.22-.88l3.49-10.4h12.53l3.5 10.4a1.28 1.28 0 0 0 1.22.88h12.25a1.29 1.29 0 0 0 1.29-1.29 1.3 1.3 0 0 0-.11-.51M272.33 7.57v.09a1.62 1.62 0 0 1-1.52 1.06 1.8 1.8 0 0 1-.55-.09 1.62 1.62 0 0 1-1-2 1.61 1.61 0 0 1 3.06 1m-1.79 5.34a1.61 1.61 0 0 1-1.53 1.1 1.8 1.8 0 0 1-.51-.08 1.62 1.62 0 0 1-1-2 1.61 1.61 0 1 1 3.05 1m-1.78 5.2v.07a1.6 1.6 0 0 1-1.51 1.06 1.8 1.8 0 0 1-.55-.09 1.63 1.63 0 1 1 2.09-1M267 23.55a1.62 1.62 0 0 1-1.53 1.1 1.8 1.8 0 0 1-.51-.08 1.62 1.62 0 0 1-1-2.05 1.61 1.61 0 0 1 3.06 1m-1.79 5.32a1.61 1.61 0 0 1-1.52 1.1 1.6 1.6 0 0 1-.52-.09 1.61 1.61 0 0 1-1-2 1.61 1.61 0 1 1 3.05 1m-1.84 5.34a1.61 1.61 0 0 1-1.53 1.1 1.5 1.5 0 0 1-.51-.08 1.61 1.61 0 0 1-1-2 1.61 1.61 0 1 1 3.06 1m-1.78 5.32a1.63 1.63 0 0 1-1.53 1.1 1.8 1.8 0 0 1-.51-.08 1.62 1.62 0 0 1-1-2 1.61 1.61 0 1 1 3.06 1m-1.79 5.31a1.63 1.63 0 0 1-1.53 1.1 1.5 1.5 0 0 1-.51-.09 1.61 1.61 0 0 1 1-3.06 1.59 1.59 0 0 1 1 2m-3.68 9a1.6 1.6 0 0 1-.52.08 1.6 1.6 0 0 1-1.5-1.14 1.61 1.61 0 1 1 2 1m-3.93-6.63a1.61 1.61 0 1 1 3.06-1 1.61 1.61 0 0 1-1 2 1.5 1.5 0 0 1-.51.08 1.62 1.62 0 0 1-1.53-1.09m-1.89-5.65a1.61 1.61 0 1 1 3.05-1 1.62 1.62 0 0 1-1 2.05 1.8 1.8 0 0 1-.52.08 1.59 1.59 0 0 1-1.52-1.1m-1.9-5.64a1.61 1.61 0 0 1 3.06-1 1.61 1.61 0 0 1-1 2 1.5 1.5 0 0 1-.51.09 1.63 1.63 0 0 1-1.53-1.1m-1.92-5.65a1.61 1.61 0 1 1 3-1 1.6 1.6 0 0 1-1 2 1.5 1.5 0 0 1-.51.09 1.62 1.62 0 0 1-1.53-1.1m-1.9-5.65a1.61 1.61 0 0 1 3.06-1 1.62 1.62 0 0 1-1 2 1.6 1.6 0 0 1-.52.08 1.61 1.61 0 0 1-1.53-1.1m-1.89-5.64a1.61 1.61 0 1 1 3-1 1.59 1.59 0 0 1-1 2 1.5 1.5 0 0 1-.51.09 1.62 1.62 0 0 1-1.53-1.1m-1.9-5.64a1.61 1.61 0 1 1 3.06-1 1.61 1.61 0 0 1-1 2 1.6 1.6 0 0 1-.52.09 1.63 1.63 0 0 1-1.53-1.1m-1.89-5.65a1.61 1.61 0 1 1 2.05 1 1.6 1.6 0 0 1-.52.09 1.6 1.6 0 0 1-1.52-1.1M279.86.47a1.28 1.28 0 0 0-1-.54h-12.24a1.29 1.29 0 0 0-1.22.88l-9.76 29.07-9.76-29a1.3 1.3 0 0 0-1.22-.88h-12.25a1.31 1.31 0 0 0-1.05.54 1.29 1.29 0 0 0-.17 1.16l19.05 56.75a1.29 1.29 0 0 0 1.22.88h8.35a1.27 1.27 0 0 0 1.22-.88l19.1-56.75a1.3 1.3 0 0 0-.18-1.16M85.74 57.48 73.93 33.8a18.38 18.38 0 0 0-10-33.79H46.82a1.29 1.29 0 0 0-1.29 1.29v56.75a1.29 1.29 0 0 0 1.29 1.29h11.61a1.29 1.29 0 0 0 1.29-1.29V37.13l10.73 21.5a1.29 1.29 0 0 0 1.16.71h13a1.29 1.29 0 0 0 1.16-1.86ZM75.13 24.71a1.61 1.61 0 0 1-2.8-1.52 1.61 1.61 0 1 1 2.8 1.52m1.65-6.35a1.62 1.62 0 1 1-3.23 0 1.62 1.62 0 0 1 3.23 0m-3.85-6.94a1.61 1.61 0 0 1 2.2.6 1.612 1.612 0 0 1-2.81 1.58 1.61 1.61 0 0 1 .61-2.18m-4.59-3.54a1.61 1.61 0 0 1 2.21-.55 1.61 1.61 0 0 1-.83 3 1.55 1.55 0 0 1-.83-.23 1.61 1.61 0 0 1-.55-2.22m2.28 21.54h-.06a1.63 1.63 0 0 1-.82.22 1.62 1.62 0 1 1 .88-.25Zm-2.49-11.03a4.17 4.17 0 0 1-4.19 4.19h-4.22v-8.39h4.22a4.2 4.2 0 0 1 4.19 4.2M64.26 5.5a1.61 1.61 0 0 1 0 3.22h-.13a1.61 1.61 0 0 1 .1-3.22ZM52.62 53.85a1.6 1.6 0 0 1-1.61-1.6 1.62 1.62 0 1 1 1.61 1.62Zm1.62-7.23a1.62 1.62 0 0 1-3.23 0 1.62 1.62 0 0 1 3.23 0m0-5.64a1.62 1.62 0 0 1-3.23 0 1.62 1.62 0 1 1 3.23 0m0-5.64a1.62 1.62 0 0 1-3.23 0 1.62 1.62 0 0 1 3.23 0m0-5.65a1.62 1.62 0 1 1-3.23 0 1.62 1.62 0 0 1 3.23 0m0-5.64a1.62 1.62 0 0 1-3.23 0 1.62 1.62 0 0 1 3.23 0m0-5.64a1.62 1.62 0 0 1-3.23 0 1.62 1.62 0 1 1 3.23 0m0-5.64a1.62 1.62 0 0 1-3.23 0 1.62 1.62 0 0 1 3.23 0m-1.62-4a1.61 1.61 0 0 1-1.61-1.61 1.62 1.62 0 1 1 1.61 1.62Zm5.79-3.24a1.62 1.62 0 1 1 0 3.23 1.62 1.62 0 0 1 0-3.23m.06 25.8a1.61 1.61 0 0 1 0-3.22 1.61 1.61 0 0 1 0 3.22m5.81 0a1.62 1.62 0 0 1 0-3.23 1.62 1.62 0 0 1 1.66 1.57 1.59 1.59 0 0 1-1.56 1.65Zm2.47 5.66a1.61 1.61 0 0 1-1.44-.89 1.614 1.614 0 0 1 2.89-1.44 1.61 1.61 0 0 1-.72 2.16 1.7 1.7 0 0 1-.73.13Zm3.54 5.47a1.55 1.55 0 0 1-.72.17 1.6 1.6 0 0 1-1.44-.93A1.621 1.621 0 1 1 71 40.19a1.6 1.6 0 0 1-.71 2.23Zm2.1 5.82a1.63 1.63 0 0 1-1.45-.9 1.61 1.61 0 0 1 2.88-1.44 1.62 1.62 0 0 1-.69 2.13 1.7 1.7 0 0 1-.74.17Zm3.53 5.45a1.55 1.55 0 0 1-.72.17 1.6 1.6 0 0 1-1.44-.89 1.61 1.61 0 1 1 2.87-1.46 1.61 1.61 0 0 1-.71 2.14Z"/>
</svg>
