<svg xmlns="http://www.w3.org/2000/svg" viewBox="0 0 352 283" fill="#fff"><path d="m146.497 273.763.26 1.208c-1.321.132-3.015.259-4.321-.052 1.221-.583 2.636-.193 3.584-1.115zm144.189 2.471.681.4-.075.359c-1.161.408-2.671.449-3.882.254q-.269-.33-.53-.666c.953-.519 2.522-.112 3.648-.315zm-49.448-27.622c1.443-.424 2.634-.215 4.09.014-.564.761-.872.957-1.791 1.18-.884-.046-1.706-.555-2.299-1.194M86.74 257.107c.515-.394.832-.63 1.496-.632.639.412.844.827 1.151 1.488-.09.089-.105.11-.228.192-.53.351-.973.547-1.607.433-.605-.51-.617-.742-.812-1.481"/><path d="M100.129 248.965c.58-.389.608-.425 1.299-.368.605.508.886 1.022 1.234 1.709l-1.312.763-.853-.275c-.418-.493-.322-1.191-.368-1.829m109.163 3.654c-.016-.411-.045-.83-.034-1.241.021-.78.035-.832.575-1.364.429 1.002.836 2.022 1.358 2.978l-.361 1.077c-.325.071-.592.135-.928.126-.255-.506-.425-1.042-.61-1.576m8.766-2.698c.6-.51 1.173-.808 1.882-1.132.859.401 1.75.855 2.677 1.071-1.296.19-2.179.388-3.156 1.337-.501-.286-.931-.898-1.403-1.276m21.016.036c.631-.58 1.414-.945 2.164-1.345.593.639 1.415 1.148 2.299 1.194l.004.092c-1.491.203-2.199.404-3.208 1.554-.578-.613-.454-.974-1.259-1.495m-.461 5.796c.956-.617.223-1.811.881-2.612.326.997.587 2.118 1.312 2.903-.156.739-.274 1.218.061 1.94q-.181-.079-.359-.163c-1.075-.504-1.496-.96-1.895-2.068m-134.696-2.3c.64 1.305 1.972 3.345 2.037 4.761-.471.318-.621.275-1.174.283-.816-.541-.988-1.327-1.291-2.239.2-.096.348-.261.512-.409-.483-.463-.693-.573-.853-1.238.272.277.434.442.805.585-.176-.524-.061-1.189-.036-1.743m-28.709 15.29c.322-.653.513-1.098 1.212-1.424.65.077.968.113 1.42.658.258.313.464.895.6 1.273-.717.865-.622 1.375-.76 2.461a13.5 13.5 0 0 0-.624-2.033l-.39-.099-.453.455c-.024-.338-.042-.574-.206-.875-.188-.344-.439-.315-.8-.416"/><path d="M239.074 249.957c.805.521.681.882 1.259 1.495l-.839 1.689c-.658.801.075 1.995-.881 2.612a8 8 0 0 1-.273-.785c-.531-1.797-.137-3.398.734-5.011m1.732 6.087c1.166.622 2.023.922 3.347.983.432.643.858.809 1.547 1.072-1.853.475-2.993.409-4.833-.115-.335-.722-.217-1.201-.061-1.94m-83.838 16.771c-.439-.105-.89-.21-1.317-.354-.601-.202-1.221-.664-1.486-1.255-.423-.944-.005-1.924.331-2.817.463.509.588.701 1.233.902l.294 1.177-.249.559c.519.561 1.026 1.016 1.194 1.788m-126.786-4.088c.024-.692.01-.896.367-1.476.67-.03 1.02.145 1.53.597.493.436.93 1.086 1.281 1.637-.552.542-.505.889-.615 1.632-.206-.249-.468-.395-.739-.564l-.58.18c-.164-.698.057-1.282-.366-1.923zm306.554.561c.592-.909.928-1.581 2.069-1.771.611-.101.823.097 1.283.437.278.59.65 1.415.558 2.08l-.686-.12q-.272.538-.553 1.072c.063-.469-.009-.705-.195-1.136-.697-.114-.87.097-1.444.427.076-.409.173-.578-.012-.959zm-231.407.412c.126-.694.341-1.367.876-1.866.503-.469.882-.448 1.519-.458.662.419.782.692 1.144 1.362l-1.087 1.257-.413-.379c-.543.347-.76.758-.917 1.399q-.011.053-.02.109a9 9 0 0 0-.354-1.139zm168.256-.133c.267-.821.477-1.695 1.329-2.094.54-.253.731-.183 1.294-.078.728.489 1.034 1.227 1.26 2.052-.686.732-.64 1.273-.786 2.226a13 13 0 0 0-.624-1.819l-.42-.141-.447.333-.162-1.001-.257-.178zm-53.645-20.778c1.466-.487 3.091-.715 4.522.026.557.288.978.562 1.266 1.142l-.191.447c-.937.336-2.029-.214-2.92-.544-.927-.216-1.818-.67-2.677-1.071m55.737 4.688c.795 1.39 1.563 3.144 1.898 4.709l-.385.602.37-.087c-.674-.117-1.155-.372-1.59-.933-.264-.34-.432-.783-.621-1.168a1.8 1.8 0 0 0-.356-.472l.868-.171.057-.234c-.647-.539-1.157-.589-1.932-.819l.388-.623zm-21.67-4.066-.13-.552.275-.373c.636-.083 1.019-.113 1.597.269.69.456 1.342 1.568 1.829 2.232-.465.317-.871.622-1.256 1.034l-.58-.284c-.209.173-.428.335-.607.539-.227-.358-.225-.852-.28-1.266-.121-.913-.111-1.032-.848-1.599"/><path d="m239.812 275.739.258.036c1.509.195 3.138-1.008 4.347-.352l.058.398c-.629.746-2.107 1.446-3.078 1.545-.94.095-1.964-.124-2.856-.406-.13-.388-.297-.597-.136-.989zm-19.066-19.11.229.061c1.465.38 4.262-.805 5.247.128-.377.648-1.764 1.311-2.491 1.503-.737.195-1.676.186-2.433.115-.441-.359-.773-.594-.962-1.143zm-64.723 13.839q.072.062.144.121c1.381 1.12 4.762 1.248 5.121 3.197.14.761-.196 1.727-.504 2.418-.557-.866-.098-1.963-.532-2.891-.815-.309-1.703-.18-2.56-.14l-.724-.358c-.168-.772-.675-1.227-1.194-1.788zm-7.821 2.35c.664 1.202 1.824 2.849 1.845 4.228l-.387.286c-.802-.156-1.268-.516-1.738-1.201-.369-.539-.52-.903-1.165-1.16l-.26-1.208.47-.843c.495.081.759.063 1.235-.102m57.996-22.083c.221-.601.507-1.437.951-1.901.456-.477.759-.488 1.357-.456.713.414.962.936 1.327 1.636-.54.532-.554.584-.575 1.364-.011.411.018.83.034 1.241-.211-.7-.326-1.375-.93-1.838-.516.119-.506.135-.787.582-.382.606-.614 1.309-.865 1.977-.034-.889-.295-1.747-.512-2.605m-67.583 1.075c-.018-.39.01-.559.201-.901.495.159.941.221 1.458.267 1.068 1.141 1.927 2.503 2.825 3.78-.409.808-.793.624-1.337 1.214-.98-1.527-1.931-3.006-3.147-4.36m98.8 16.541c2.162-1.097 3.261-1.213 5.594-.457.508.164.913.342 1.324.692l.132.463c-.469.407-1.134.342-1.747.278-1.535-.161-2.524-.553-4.078.035-.323-.409-.807-.701-1.225-1.011m-82.919.038c1.334-.903 2.696-1.252 4.308-.947.78.147 1.391.435 2.051.864l.336.539c-.195.29-.188.302-.542.371-1.683.325-3.121-.49-4.92.075-.645-.201-.77-.393-1.233-.902m154.463-18.631c.849.542 1.223.969 1.45 1.969.322 1.419.238 3.258-.591 4.503-.205.307-.405.463-.726.63q-.104.058-.212.112-.069.031-.14.059l-.163-.854-.796-.392c.187-.111.36-.21.514-.365.55-.549.795-1.442.754-2.208-.061-1.142-.586-1.94-1.418-2.675.451-.192.902-.172 1.383-.184zm-97.48 18.915c.874.698 1.343 1.689 1.458 2.795a5.67 5.67 0 0 1-1.295 4.281c-.295-.546-.323-1.33-.417-1.943.109-.853.152-1.967-.143-2.789-.411-1.146-1.209-1.557-2.222-2.085 1.059-.094 1.706.382 2.619-.259"/><path d="M66.095 270.741c.564-.585.493-1.551 1.112-2.273.089 2.57.592 6.675-.328 9.086l-.492.026c-.802-2.203-.729-4.559-.293-6.839m140.104-20.006c.217.858.478 1.716.512 2.605-.285.764-.337.911-.184 1.705l.006.507-.798.389c-.262.647-.515 1.361-.859 1.971-.321.57-.657.685-1.242.831l-.288-.336c-.092-2.321 2.064-5.425 2.853-7.672"/><path d="M62.716 272.725c.17-1.207 1.091-3.255 1.924-4.16l.1-.107c.27-.292.592-.684.944-.878.61-.336.868-.262 1.494-.099l.246.435-.217.552c-.62.722-.548 1.688-1.112 2.273-.939.27-1.108.687-1.68 1.453l-.29-.583c-.288.386-.545.787-.805 1.193zm191.291-23.314c.737.567.727.686.848 1.599.055.414.053.908.28 1.266.508 1.133.53 3.112.475 4.353-.032.724-.158 1.497-.706 2.007l-.421-.175c-1.222-2.229-.566-6.507-.476-9.05m-216.587 23.9c-.154-1.459-.552-4.333.087-5.665l.928-.451c.622 1.244.67 8.219.282 9.602-.048.171-.128.289-.215.437-.515-.378-.614-3.053-1.081-3.923m-7.239-4.584.878.083c.423.641.202 1.225.367 1.923.208.831.266 1.657.308 2.509.062 1.227.169 3.417-.68 4.354l-.41-.343c-1.016-2.607-.567-5.771-.463-8.526m166.489-14.671c-.25-1.655-.627-4.263.42-5.715l.074-.094.343.052c1.278 2.169.703 6.238.589 8.689l-.66.105c-.682-.825-.344-1.917-.72-2.923zm14.52-1.064c.184.755.359 1.402.737 2.088.426.907 1.011 1.859.809 2.889l-.289.445c-.56-.157-.816-.337-1.115-.856-.239-.417-.409-.903-.585-1.351-1.671-.027-3.361.004-5.014-.266l.798-.389-.006-.507c.969-.264 1.8-.497 2.81-.391l.566-.459c.336.009.603-.055.928-.126zm0 0-.361 1.077c-.325.071-.592.135-.928.126l-.566.459.243 1.04c.505.246.606.371 1.164.17.436-.158.823-.5 1.185-.784-.378-.686-.553-1.333-.737-2.088"/><path d="M211.191 252.992c.184.755.359 1.402.737 2.088-.362.284-.749.626-1.185.784-.558.201-.659.076-1.164-.17l-.243-1.04.566-.459c.336.009.603-.055.928-.126zm6.867-3.071c.472.378.902.99 1.403 1.276-.49.968-1.034 1.974-.648 3.086.375 1.08 1.056 1.584 1.879 2.273.023.02.036.049.054.073l-.41.664c.189.549.521.784.962 1.143-.587-.149-1.196-.303-1.759-.53-1.017-.41-1.808-1.393-2.197-2.399-.721-1.87-.061-3.861.716-5.586m-60.366 23.252c.857-.04 1.745-.169 2.56.14.434.928-.025 2.025.532 2.891-.092.16-.134.255-.252.386-.47.526-1.443.784-2.125.848-1.504.14-3.16-.249-4.323-1.258-.425-.368-.648-.621-.683-1.178 1.273-.312 2.86.756 4.285.703.802-.029 1.302-.218 1.842-.801l-.03-.559c-.44-.698-1.077-.884-1.806-1.172m19.973-6.081c.38.139.792.3.968.678.576 1.236.283 8.625-.187 10.021l-.515-.047c-.396-.279-.446-.347-.586-.816-.414-1.394-.346-8.629.32-9.836m119.031 9.648-.117-.131c-1.357-1.585-1.429-4.281-1.262-6.266.088-1.043.213-2.43 1.063-3.142 1.131.697.281 6.512 1.557 8.417q.032.049.066.096c-.395.304-1.057.606-1.307 1.026m-103.413-25.653c.709 1.076 1.839 3.282 3.031 3.707.131-.243.273-.475.357-.738l.046.114c.376 1.006.038 2.098.72 2.923l.66-.105c.011.093.03.185.031.279.003.578-.118.937-.483 1.358l-.464-.043c-2.069-1.271-4.085-4.436-5.217-6.549l.485.236c.56-.234.603-.649.834-1.182m43.039 24.507c-.449-1.122-.705-2.212-.655-3.427.066-1.606.591-2.724 1.748-3.816.418.31.902.602 1.225 1.011-.807 1.111-1.551 2.187-1.326 3.637.131.847.677 1.627 1.382 2.1.354.236.734.453 1.116.64l-1.407.232c-.161.392.006.601.136.989-.837-.254-1.521-.854-2.219-1.366M77.453 248.339c.189.036.417.064.597.142.194.084.48.26.555.453.51 1.305.476 8.383-.118 9.784l-1.359-.302c-.025-1.61-.244-8.898.325-10.077M23.42 267.087l.89.295c.798 1.493.433 8.56.116 10.411l-.583-.043c-.407-.34-.544-.428-.698-.957-.424-1.452-.425-8.463.275-9.706m9.94 2.398.15.163c.794.865 2.546 4.014 3.573 4.11l.338-.447c.467.87.566 3.545 1.081 3.923-.199.245-.311.283-.592.41-1.76-.715-4.327-4.866-5.165-6.527.11-.743.063-1.09.615-1.632m97.069-13.669c.075.852.074 2.042-.448 2.756-.126.172-.303.129-.504.156-1.113-1.374-.478-7.592-.776-9.78-.04-.288.116-.456.249-.707.605-.216.608-.16 1.202.106.447.702.399 1.041.415 1.85-.181 1.87-.065 3.745-.138 5.619m0 0c.073-1.874-.043-3.749.138-5.619-.206.083-.64.18-.723.381-.46 1.113-.395 3.476.088 4.562.1.226.258.395.418.577q.041.049.079.099"/><path d="M130.429 255.816q-.038-.05-.079-.099c-.16-.182-.318-.351-.418-.577-.483-1.086-.548-3.449-.088-4.562.083-.201.517-.298.723-.381-.181 1.87-.065 3.745-.138 5.619m101.204-7.718c.59.165.712.189 1.121.635.612 2.139.456 7.827-.059 10.016l-.703-.023c-.171-.149-.416-.3-.497-.513-.571-1.5-.507-8.683.138-10.115m45.835 21.349c1.042 1.696 3.097 6.106 2.724 7.976q-.012.057-.027.112c-.712-.135-.774-.135-1.187-.758-.325-.49-.526-1.069-.739-1.615-1.478-.013-3.511.186-4.918-.206 1.048-.798 2.523-.174 3.702-1.065.081-.142.124-.202.173-.372.197-.678-.234-1.254-.514-1.846.146-.953.1-1.494.786-2.226m7.17 8.109c1.311-2.761-.464-8.436 1.201-10.564l.355.335c.719 2.18.869 6.453-.089 8.519 1.155.075 3.615-.148 4.581.388l-.158.032c-1.126.203-2.695-.204-3.648.315q.261.336.53.666a54 54 0 0 1-2.772.309m31.243-3.566c1.571-1.642-.501-5.984 1.469-6.709l.492.223c.43 1.356.488 8.772-.2 10.026-.023.041-.054.076-.081.114-1.632-.314-1.99-1.582-3.096-2.636.484-.175 1.048-.211 1.559-.272zm-70.553-25.364c1.505.682 2.4 1.317 2.978 2.918.504 1.397.547 2.899-.108 4.254-.488 1.011-1.45 1.89-2.498 2.301-.689-.263-1.115-.429-1.547-1.072.242-.097.479-.203.706-.332q.189-.105.366-.23t.34-.267.31-.302q.147-.159.276-.332t.24-.36.201-.383.159-.402.116-.417q.075-.334.082-.676.006-.342-.057-.678t-.192-.653-.32-.601c-.688-1.022-1.718-1.258-2.839-1.496l-.004-.092c.919-.223 1.227-.419 1.791-1.18m6.264 20.355c.233-.645.407-1.077.909-1.567.466-.099.626-.177 1.064.086 1.508.903 3.943 7.114 4.278 8.98.055.305.027.552-.029.853-.375.089-.366.114-.703-.093-.623-.382-.833-.688-1.186-1.333-.143-.262-.301-.517-.448-.777l.598-.286-.127-.29q-.821-.346-1.651-.669c.303-.259.32-.376.454-.759-.281-1.105-.563-2.753-1.527-3.473l-.493.189-.393.894-.015-.196c-.069-.793-.136-1.061-.731-1.559M138.615 251.81l-.186.051c-.715 1.018-.033 4.368-.104 5.753-.035.666-.126 1.01-.631 1.455-.341-.101-.45-.072-.625-.387-.666-1.199-.867-8.476-.397-9.915.138-.425.312-.414.693-.565 1.224.334 2.19 1.981 2.909 2.974-.517-.046-.963-.108-1.458-.267-.191.342-.219.511-.201.901m4.484 3.146c.166-.098.328-.126.381-.319.532-1.946-.683-4.899.711-6.468l.532.028c.84 1.19.747 8.208.469 9.967-.029.183-.104.301-.194.458-.665.086-1.023-.151-1.54-.565-.644-.516-1.218-1.219-1.696-1.887.544-.59.928-.406 1.337-1.214m154.904 20.758c1.127.138 2.545.453 3.525-.304.666-.515.94-1.389.99-2.2.11-1.806-.24-3.857.176-5.611l.453-.382.59.086c.775 1.168.433 5.363.148 6.81-.206 1.039-.639 2.165-1.554 2.781-1.302.876-3.064.591-4.487.222-.39-.101-.771-.234-1.148-.376.25-.42.912-.722 1.307-1.026m-106.039-23.681-.703.165c-.785 1.869.398 4.409-.334 6.391-.409.369-.387.379-.977.386-.973-1.472-.644-7.056-.55-8.991.035-.712.117-1.307.668-1.808l.503.032c1.112.679 1.905 1.875 2.712 2.879-.231.533-.274.948-.834 1.182zm-72.394 19.543-.729-.67-.381.084c-.658 1.916.57 4.428-.204 6.277-.182.436-.287.479-.709.651a4 4 0 0 1-.412-.372c-.898-.955-.687-5.775-.6-7.166.071-1.128.107-2.134.988-2.911l.676.07c1.209.742 2.013 2.18 2.866 3.292-.496.245-1.014.473-1.495.745m163.217-23.333c.527-.055.606-.059 1.11.18.822 1.449.566 6.033.212 7.621-.074.336-.252.652-.405.957 1.517-.016 4.109-.294 5.36.649-.193.406-.255.499-.685.672-1.338.536-3.638.091-5.151.27q-.036-.013-.068-.031c-.484-.299-.572-.471-.66-1.042-.206-1.329-.381-8.374.287-9.276m.441 10.349c1.029-1.533.576-6.875.39-8.768-.078-.798-.221-1.078-.831-1.581-.668.902-.493 7.947-.287 9.276.088.571.176.743.66 1.042q.033.018.068.031"/><path d="M283.228 258.592q-.036-.013-.068-.031c-.484-.299-.572-.471-.66-1.042-.206-1.329-.381-8.374.287-9.276.61.503.753.783.831 1.581.186 1.893.639 7.235-.39 8.768m-9.643 10.975 1.187-.7.257.178.162 1.001.447-.333.42.141c.257.602.457 1.186.624 1.819.28.592.711 1.168.514 1.846-.049.17-.092.23-.173.372-1.179.891-2.654.267-3.702 1.065q-.127.256-.259.51c-.525 1.01-.949 1.694-2.094 2.055l-.196-.306c.399-2.414 1.957-5.315 2.813-7.648m1.606.479a51 51 0 0 1-1.585 3.627c1.187-.054 2.259-.112 3.417.218.081-.142.124-.202.173-.372.197-.678-.234-1.254-.514-1.846a13 13 0 0 0-.624-1.819l-.42-.141zm-99.593-21.676c1.933-.016 3.818.012 5.741.214-.605.803-1.49 1.166-2.492 1.332l-1.048.154c-.698 1.013-.611 2.149-.49 3.314.205.267.316.46.626.612 1.307.049 2.341.04 3.557.557l.005.317c-.82.237-1.375.339-2.232.326-.112-.002-.238.01-.352.019l-1.302.011c-.55.836-.08 2.116-.433 3.054-.161.428-.188.451-.6.641l-.328-.153c-1.162-2.7-.373-7.38-.652-10.398m-10.882 19.15c2.281-.196 6.492-.546 8.532.495l-.135.324c-1.092.602-2.307.521-3.518.54.121 2.146.147 4.284.149 6.433.024.366.079.829-.002 1.186-.132.589-.462 1.049-.933 1.409l-.362-.278c-1.01-2.375-.378-6.294-.201-8.836-.746.052-1.517.131-2.265.118-.698-.012-.893-.187-1.341-.666zm-35.016-.303c2.388-.074 6.031-.139 8.316.586l.034.533c-.961.723-2.354.2-3.422.801-.452 1.785-.134 4.22-.108 6.082q.022.52.02 1.04c-.007.783-.202 1.091-.755 1.635l-.372-.198c-1.037-2.462-.398-6.179-.51-8.857-.946.027-2.117.317-2.96-.171-.322-.588-.279-.77-.243-1.451m-18.901-18.933c.538.08.897.141 1.348.454.987 2.131.319 5.996.132 8.328 1.046-.003 2.123-.046 3.165.034.725.056 1.151.237 1.618.778l-.11.574c-1.983.098-4.25.417-6.2.07-.079-.165-.12-.227-.153-.429-.21-1.298-.432-8.922.2-9.809m10.266 22.547c.665.987 1.347 2.297 2.377 2.926l.402-.154c.55-1.786-.739-5.284.701-6.46.191.037.408.013.521.182.755 1.127.578 7.923.25 9.396-.114.513-.243.591-.682.844-1.388-.263-2.549-2.243-3.301-3.346-.589-.864-1.242-1.737-1.763-2.643.481-.272.999-.5 1.495-.745m139.479-3.522c2.128.066 4.257.05 6.384.117.727.023 1.247.023 1.758.568-.557 1.425-2.166.474-3.312 1.118-.49 1.45-.184 3.713-.149 5.267.023 1.064.004 1.918-.439 2.913-.148.333-.232.718-.581.852-.042-.04-.088-.075-.124-.119-1.261-1.578-.562-7.067-.492-9.12-.994.018-2.389.25-3.23-.318-.138-.627-.085-.685.185-1.278M66.082 248.628c1.557-.226 5.332-.399 6.636.473l-.06.541c-.691.547-2.124.412-3.01.572-.771.982-.325 5.565-.274 7.097l-.087.811c-.393.484-.48.663-1.08.881l-.304-.211c-.987-1.755-.508-6.168-.172-8.15-.752-.611-2.036-.281-2.99-.711-.206-.492-.248-.497-.08-1.034.499-.207.884-.25 1.421-.269m185.51 20.353c.595.498.662.766.731 1.559l.015.196.393-.894.493-.189c.964.72 1.246 2.368 1.527 3.473-.134.383-.151.5-.454.759q.83.323 1.651.669l.127.29-.598.286q-2.42-.113-4.841-.169c-.476 1.111-.75 2.005-1.929 2.522l-.252-.235c.032-2.434 1.972-6.114 3.137-8.267m.746 1.755c-.419.996-.877 1.94-1.404 2.884 1.133.02 2.251.013 3.363.265.303-.259.32-.376.454-.759-.281-1.105-.563-2.753-1.527-3.473l-.493.189zm8.753-15c-.073-1.994-.632-5.719.396-7.418l.436-.22c.834.81.672 2.871.687 3.991.022 1.687.359 5.078-.575 6.492-.911-.053-1.571-.87-2.161-1.533-1.354-1.522-2.372-3.366-3.552-5.027.385-.412.791-.717 1.256-1.034 1.143 1.605 2.37 3.147 3.513 4.749m-110.368-7.412c2.321-.017 5.077-.264 7.32.328.419.111.526.108.743.473-1.003 1.025-2.564.849-3.89.868.186 2.243.102 4.546.113 6.799-.032.694-.045 1.245-.405 1.866-.121.209-.298.186-.52.248-.147-.12-.214-.159-.325-.298-1.21-1.529-.514-6.648-.263-8.58l-.186-.005c-1.201-.032-2.825.084-3.697-.833.318-.547.556-.589 1.11-.866m175.576 23.822c1.772-1.034 2.378-4.373 4.409-4.936.062.188.101.301.092.502-.06 1.405-1.137 3.005-2.154 3.913.093.921-.697 2.132-.958 3.017-.183.622-.045 1.256-.129 1.884-.086.642-.094.75-.602 1.149l-.547-.183c-.638-1.085-.218-2.381-.588-3.523-.607-1.873-3.513-4.808-3.211-6.599l.747-.014c.376.129.656.325.923.617.845.925 2.054 2.883 2.018 4.173"/><path d="M86.74 257.107c-1.086-2.057-3.146-5.703-2.843-8.03l.318-.336c.77.233 1.195.986 1.553 1.663.869 1.647 1.13 4.084 2.323 5.437l.423.027c1.476-1.627 1.462-7.275 3.954-7.466.308.475.223.872.098 1.412-.58 2.515-1.946 5.874-3.179 8.149-.306-.661-.512-1.076-1.15-1.488-.665.002-.982.238-1.497.632m130.134-55.555c.881-.023 1.986-.18 2.76.285.712 2.077.565 16.016-.137 18.184-.515.532-1.043.722-1.718.971 1.231-3.397.869-15.288.286-19.115zm97.591 73.456c-.119-.605-2.262-3.5-2.815-4.008l-.398.072c-.762 2.085.463 4.782-.64 6.755l-.399-.032a3.6 3.6 0 0 1-.695-1.325c-.49-1.666-.524-7.079.3-8.508.199-.345.374-.325.736-.433 1.99.653 4.195 4.757 5.327 6.461l.143.746c-.511.061-1.075.097-1.559.272m-13.503-26.624c1.995-.03 3.943.011 5.932.179l.083.587c-.704.556-1.914.541-2.794.63l-.734.073c-.691 1.02-.81 4.221-.571 5.442.15.766.386 1.218 1.044 1.647 1.015.33 2.215-.111 3.224-.356.243-.242.531-.465.635-.801l.796.392.163.854c-.05.215-.196.442-.295.642-1.618 1.147-5.483.783-7.526.939a2.4 2.4 0 0 0 .183-.419c.657-2.041.837-7.911-.14-9.809M92.733 267.302c1.718.008 5.83-.282 7.081.839-1.218 1.022-3.95.773-5.461.755.039 1 .001 2.005-.017 3.005 1.702-.085 3.422-.165 5.049.411-.09.19-.155.43-.322.562-1.119.883-3.422.403-4.759.274l.04.717c.066 1.308.291 2.366-.661 3.419l-.462-.037c-.077-.116-.114-.165-.185-.297-.812-1.487-.79-7.855-.303-9.648m-60.781-18.954c1.529.099 3.668.138 5.06.787-.946.965-2.974.596-4.173.983-.616.2-1.274.638-1.572 1.229-.26.513-.205.616-.049 1.13 1.114.988 2.38.371 3.674.661.581.13.814.235 1.142.74-.452.562-.717.513-1.401.64l-3.365-.039c.123 1.042.553 2.677-.058 3.583-.547.443-.647.564-1.336.634l-.326-.321c-.35-3.169-.163-6.692-.016-9.883.794-.127 1.618-.115 2.42-.144m-17.594 18.971c1.93.177 3.122.573 4.534 1.929-1.535.559-3.853-.479-5.637.041-.785.228-1.407.696-1.772 1.436-.366.745-.545 2.116-.255 2.9.307.833 1.152 1.484 1.93 1.853 1.315.624 2.727.259 4.027-.197.446-.106.481-.106.909.059l.017.443c-.66.879-1.649 1.4-2.721 1.607-1.291.25-2.98-.233-4.046-.97a4.55 4.55 0 0 1-1.916-2.995c-.25-1.395.121-2.811.938-3.957 1.062-1.489 2.27-1.833 3.992-2.149m173.041.203c.958-.178 2.092-.206 3.038.064.773.22 1.963.841 2.384 1.534-1.702.771-4.67-.985-6.658.892-.642.606-.837 1.42-.885 2.267-.048.826.024 1.508.628 2.129 1.126 1.158 2.057 1.406 3.638 1.422.811-.286 1.723-.718 2.563-.363l.094.422c-.411.674-1.102 1.072-1.831 1.33-1.432.506-2.785.289-4.138-.36-1.136-.544-2-1.428-2.387-2.64-.624-1.954.057-3.824.977-5.544.798-.49 1.71-.804 2.577-1.153m-122.983 4.672c-.4.994-1.168 3.601-2.18 4.043-.313.137-.539-.037-.842-.15-.876-.934-2.07-4.891-3.087-4.928-.56 1.762.576 4.877-.483 6.253l-.55.253c-.375-.248-.54-.306-.66-.771-.375-1.442-.069-7.23-.038-9.054l.354-.509c.66-.096.927-.159 1.502.274 1.344 1.012 2.286 5.699 3.8 5.691l.484-.571.604.079c.26-.406.517-.807.806-1.193zm139.077 5.428c.159-3.263.127-6.537.14-9.803.267-.357.444-.392.88-.475 2.11-.4 5.204.111 6.966 1.329-.913.641-1.56.165-2.619.259-1.154.014-2.275-.091-3.421-.209-.046 2.433-.046 4.878-.17 7.308 1.585-.061 3.949.127 5.13-1.124.312-.331.572-.725.826-1.101.094.613.122 1.397.417 1.943-.068.131-.049.108-.15.239-1.425 1.844-5.803 1.376-7.999 1.634m-61.057-2.703c-.16.555-.338 1.24-.679 1.71-.362.497-.853.664-1.422.759l-.213-.371c.129-1.334 3.466-8.887 4.291-9.559.381-.31.498-.264.978-.217 1.561 1.12 2.181 3.848 2.811 5.577-.476.165-.74.183-1.235.102l-.47.843-.477.041c-.948.922-2.363.532-3.584 1.115m2.501-6.072c-.582 1.659-1.174 3.145-2.059 4.671 1.035.07 2.127.078 3.142.286l.477-.041.47-.843c-.863-1.247-1.42-2.69-2.03-4.073m-46.334-12.653c-.54.977-1.046 1.984-2.102 2.478l-.226-.333c.157-2.117 2.39-7.845 3.854-9.374.046.638-.05 1.336.368 1.829l.853.275 1.312-.763c.425 1.009.996 2.087 1.255 3.147-.025.554-.14 1.219.036 1.743-.371-.143-.533-.308-.805-.585.16.665.37.775.853 1.238-.164.148-.312.313-.512.409-1.633.056-3.255-.004-4.886-.064m1.894-5.4c-.447 1.466-.924 2.787-1.631 4.153 1.398-.082 2.707-.101 4.106.037-.554-1.296-1.144-2.589-1.622-3.915zm80.842-2.21c.741.169 1.522.327 1.968 1.011.462.71.709 1.765.476 2.587-.33 1.167-1.582 2.354-1.45 3.56.493.715 1.295 1.618 1.326 2.497l-.415.322c-.799-.131-1.252-.527-1.73-1.188-.905-1.251-1.06-1.737-2.601-2.158.114-.009.24-.021.352-.019.857.013 1.412-.089 2.232-.326l-.005-.317c-1.216-.517-2.25-.508-3.557-.557-.31-.152-.421-.345-.626-.612-.121-1.165-.208-2.301.49-3.314l1.048-.154c1.002-.166 1.887-.529 2.492-1.332m-2.492 1.332-1.048.154c-.698 1.013-.611 2.149-.49 3.314.205.267.316.46.626.612 1.125-.255 2.513-.087 3.535-.62.7-.365 1.028-.737 1.252-1.478-.122-.329-.244-.56-.489-.812-1.105-1.136-1.852-1.151-3.386-1.17m137.797-1.541c1.743.011 5.779-.379 7.131.612l-.112.43c-1.731.923-4.176-.017-5.957.847-.288.446-.299 1.216-.148 1.724.464 1.565 3.712.233 5.078 1.031l.034.394q-.052.05-.106.099c-1.175 1.035-3.289.599-4.745.509-.055.07-.119.133-.166.209-.309.51-.418 1.513-.215 2.034 1.119 1.073 3.519.661 4.984.78.583.047.727-.006 1.131.465l-.124.442c-1.242.799-6.211.507-7.958.556 1.33-2.166-.101-7.122.594-9.714.057-.212.388-.314.579-.418m20.092 20.913 1.02.03c.185.381.088.55.012.959.574-.33.747-.541 1.444-.427.186.431.258.667.195 1.136q.281-.534.553-1.072l.686.12c1.228 1.176 1.616 3.708 2.43 5.226.279.519.703.911.973 1.445-.379.469-.511.486-1.062.681-.821-.447-1.144-1.204-1.644-1.978-1.154-.716-3.907-.396-5.298-.406.019.131.027.14.009.293-.072.63-.653 1.77-1.189 2.116-.337.217-.426.113-.808.014-.884-2.01 3.136-5.692 2.679-8.137m1.032.989c.192.89-.132 1.678-.619 2.417q-.403.617-.922 1.14c1.368-.082 2.779-.24 4.147-.147.074-1.097-.264-1.868-.967-2.701.063-.469-.009-.705-.195-1.136-.697-.114-.87.097-1.444.427M56.429 248.502c.336-.011.633.02.964.079 1.002.182 2.568.449 3.188 1.34l-.23.335c-1.365.58-2.44-.054-3.87.154-.654.095-1.024.222-1.44.745.364 1.09 3.332 1.751 4.324 2.361.569.35.99.839 1.098 1.513.15.944-.264 2.122-.799 2.883-.726.481-1.355.577-2.2.704q-.701.001-1.403-.034c-1.357-.077-2.229-.595-3.11-1.59l.042-.387c1.163-.272 2.468.308 3.68.319.67.007 1.442-.113 1.933-.597-.131-1.458-4.07-2.689-5.113-3.908-.527-.614-.528-1.011-.443-1.754.776-1.344 1.98-1.687 3.379-2.163m106.574-.25c2.49.2 4.964.069 7.425.552l-.025.435c-1.845.805-4.269.329-5.94 1.608-.207.38-.46.622-.258 1.069.77 1.707 3.765.262 5.227.973.344.167.353.4.486.739-1.114.867-3.506.473-4.888.422l-.372.223c-.207.534-.404 1.129-.193 1.697.61 1.642 4.1.738 5.623 1.562l.051.377c-1.62 1.046-5.323.555-7.334.693.105-3.191-.446-7.328.198-10.35m111.99 7.876c-1.364.027-2.965-.278-4.293.017-.86.192-1.025 1.224-1.506 1.836-.428.547-.713.521-1.354.584l-.383-.334-.007-.129c-.02-.959 3.772-8.82 4.601-9.719.317-.119.518-.286.846-.144 1.335.578 2.301 3.887 2.78 5.238l-1.303.804-.388.623c.775.23 1.285.28 1.932.819l-.057.234zm-1.007-1.224.388-.623c-.355-.875-.974-3.114-1.709-3.493-.889.619-1.493 2.365-1.607 3.417-.021.188.009.318.048.501.92.048 1.983.004 2.88.198"/><path d="M306.894 248.563c.726.2 1.464.314 1.998.877l.067.318.055.595c-.481.012-.932-.008-1.383.184-1.037-.552-2.297-.608-3.448-.757.88-.089 2.09-.074 2.794-.63zM44.451 267.236c2.438.272 5.152-.158 7.507.504l.102.314c-1.208 1.185-4.146.545-5.79 1.041-.194.059-.14.017-.242.226-.201.41-.062 1.376.115 1.785.472 1.091 3.675.357 4.793.727l.167.413-.45.53c-1.28.594-2.766.389-4.16.409-.121.054-.194.075-.292.186-.45.506-.53.93-.435 1.562 1.241 1.607 4.455.679 6.228 1.575l-.056.265c-2.126 1.024-5.382.609-7.762.914.302-3.327-.46-7.248.275-10.451m63.33 2.759 1.087-1.257c1.02 2.457 2.973 5.989 3.384 8.472-.488.374-.476.398-1.083.337-.626-.636-.827-1.613-1.354-2.155-.509-.523-4.137-.339-5.044-.352-.511 1.319-.838 2.049-2.2 2.641l-.152.064-.183-.177c.289-2.501 2.063-5.544 3.093-7.868l.748.285c.136.378.267.745.354 1.139q.008-.056.02-.109c.157-.641.374-1.052.917-1.399zm-1.35 1.129c-.437.758-.879 1.288-.68 2.161.861.597 2.494.46 3.535.511a56 56 0 0 1-1.505-3.801l-.413-.379c-.543.347-.76.758-.917 1.399q-.011.053-.02.109m111.416-3.821c1.987.045 5.737-.245 7.39.844l-.286.284c-1.997.513-3.558.54-5.583.362-.025.617-.085 1.279-.012 1.893.248 2.092 3.346.102 5.116 1.45l.063.542c-1.139.848-3.586.501-4.956.347-.407.525-.465 1.371-.461 2.012 1.23 1.549 4.409.482 6.23 1.53l-.017.277c-2.068 1.044-5.52.393-7.867.792.182-2.303-.436-8.503.383-10.333M41.245 248.462c2.734-.042 5.522.08 8.19.697-2.306 1.223-4.996.484-6.487 1.66-.305.644-.282.787-.203 1.504.84 1.023 3.235.253 4.553.568.441.382.53.365.6.97-.066.059-.128.123-.197.178-.862.685-3.063.364-4.132.304l-.63.277c-.267.569-.323 1.014-.341 1.638.821 1.508 4.396.552 5.958 1.349.202.103.17.19.233.395-1.79 1.002-5.768.624-7.871.662.12-2.595-.408-7.953.327-10.202m33.963 20.281c.36.101.611.072.799.416.164.301.182.537.206.875l.454-.455.389.099c.273.676.458 1.326.623 2.033.139-1.086.044-1.596.76-2.461q.253.496.492.999c.811 1.714 2.998 5.561 2.356 7.347l-.61-.127.335.189c-.043-.013-.089-.021-.13-.039-.931-.411-1.254-1.607-1.56-2.481q-2.578-.008-5.156-.051c-.393 1.002-.675 1.905-1.654 2.44l-.592-.193-.256-.586c.745-2.708 2.425-5.398 3.544-8.005m1.005 1.291c-.454 1.26-.99 2.45-1.567 3.657 1.145-.022 2.615.18 3.604-.411.075-.679-.24-1-.57-1.569a13.5 13.5 0 0 0-.624-2.033l-.39-.099zm-4.163-52.196c.664-7.446.305-16.408.3-23.984-.001-4.047.474-9.215-.255-13.1-.339-1.804-3.243-1.953-4.452-2.941-.651-.533-.825-1.175-.854-1.984-.011-.304.152-.358.351-.57 1.999-.66 19.381-.605 20.857.075l.2.625c-.198 1.019-.491 1.634-1.377 2.236-1.232.838-2.852 1.129-3.936 2.157-.656 5.515-.276 11.393-.274 16.954.003 6.679-.323 13.676.296 20.323 1.46.984 4.606 1.546 5.234 3.33.209.595.119 1.081-.14 1.635-.301.22-.486.326-.868.348-2.79.156-18.837.652-20.223-.693-.39-.377-.317-.56-.306-1.066 1.058-1.811 3.615-2.511 5.447-3.345m10.834-37.486c1.084-1.028 2.704-1.319 3.936-2.157.886-.602 1.179-1.217 1.377-2.236-.66-.128-1.105-.187-1.752.02-.16.425-.165.774-.164 1.224-.363.617-.69.872-1.39 1.05-.86.217-1.041.214-1.711.869-.107.409-.216.815-.296 1.23"/><path d="M82.884 180.352c.08-.415.189-.821.296-1.23.67-.655.852-.652 1.71-.869.7-.178 1.028-.433 1.39-1.05 0-.45.006-.799.165-1.224.647-.207 1.093-.148 1.752-.02-.198 1.019-.491 1.634-1.377 2.236-1.232.838-2.852 1.129-3.936 2.157m28.542-5.283c9.576-.412 19.364-.211 28.956-.122 4.635.043 9.328-.221 13.951.046.866.05 1.793.051 2.544.522.821 1.467.349 4.584.23 6.236-.146 2.028-.457 8.123-2.157 9.429-.256.197-.489.319-.818.228-1.968-.549-4.423-9.276-5.321-11.343-2.303-.42-6.497-.652-8.751.036-.34.104-.415.145-.565.492-.623 1.446-.878 35.488-.136 37.481 2.178.996 4.858.884 6.45 2.864.051.232.203.589.083.802-.341.606-1.134.845-1.769.993-2.277.53-20.479.466-21.774-.323-.226-.663-.184-1.039.001-1.709 1.228-1.762 3.479-1.448 5.205-2.398.45-.248.743-.595.873-1.083 1.062-4.012.229-12.464.24-17.014.013-5.565.447-11.271.103-16.82-.052-.842-.177-1.827-.657-2.541-.3-.445-.703-.741-1.234-.827-1.39-.224-6.082-.621-7.343.052-2.156 1.151-2.779 9.311-5.417 10.814-.605.344-.96.212-1.591.068-.62-.477-.838-1.163-.934-1.914-.374-2.909-1.901-11.668-.169-13.969m210.758 5.674c.066 1.212-.83 2.58-.906 3.885-.327 5.63 8.748 9.108 12.687 11.462 2.177 1.3 4.518 2.971 6.218 4.859 2.499 2.774 3.294 6.166 3.085 9.814-.194 3.398-1.478 6.642-4.065 8.928-4.107 3.629-10.655 4.52-15.938 4.151-3.138-.219-9.963-.778-12.136-3.267-.844-2.992.498-7.952 1.267-10.887.265-1.013.59-1.91 1.543-2.464 3.644-.516 2.82 8.796 6.708 11.215 1.787 1.112 3.927.997 5.896.493 2.255-.579 4.399-1.694 5.603-3.767.808-1.393 1.054-3.175.636-4.733-1.257-4.681-7.773-6.781-11.525-8.986-3.851-2.262-8.722-5.995-9.848-10.492-.843-3.368-.584-7.289 1.251-10.278 1.926-3.136 4.91-5.158 8.47-5.984 4.022-.935 15.753-.743 19.148 1.451.585.378.85.836.978 1.517.476 2.541-.388 8.396-1.885 10.523-.46.653-.883.842-1.639.956-2.924-1.236-2.151-7.085-4.47-9.271-1.729-1.631-4.925-1.176-7.104-1.091-1.344.611-2.707 1.205-3.974 1.966m0 0c1.267-.761 2.63-1.355 3.974-1.966-.804-.376-1.493-.499-2.358-.211-.508.169-1.098.575-1.338 1.067-.156.319-.213.762-.278 1.11"/><path d="M322.184 180.743c.065-.348.122-.791.278-1.11.24-.492.83-.898 1.338-1.067.865-.288 1.554-.165 2.358.211-1.344.611-2.707 1.205-3.974 1.966M24.63 174.105c4.41-.086 10.801.074 14.482 2.786-.052 3.284-.259 8.428-1.495 11.418-.26.625-.688.686-1.268.898-3.613-.337-3.01-7.549-5.08-9.56-.83-.806-3.284-.8-4.428-.804-2.373-.009-4.644.039-6.408 1.859-1.029 1.061-1.424 2.522-1.386 3.973.167 6.555 13.462 10.934 18.238 15.409 2.763 2.589 3.7 5.339 3.816 9.072.111 3.541-.848 7.256-3.344 9.868-3.906 4.088-9.936 4.765-15.257 4.913-4.129-.366-9.16-.583-12.901-2.544-.342-.44-.544-.832-.644-1.378-.484-2.646.579-9.93 2.182-12.164.424-.591.763-.758 1.45-.855 2.426 1.115 2.557 7.416 3.988 9.721.699 1.126 1.764 1.816 3.046 2.113 2.455.57 5.685.468 7.86-.936 2.464-1.591 2.9-4.041 3.482-6.696-.236-.851-.476-1.725-.988-2.458-3.062-4.386-11.716-7.114-16.21-10.957-2.792-2.386-4.491-5.188-4.76-8.9-.244-3.398.507-7.495 2.812-10.124 3.336-3.805 8.081-4.379 12.813-4.654m193.149 46.887c-1.973.84-4.354 1.338-6.45 1.8-7.289 1.604-16.077 1.575-22.566-2.614-4.535-2.929-7.703-7.16-8.829-12.467-1.695-7.991-1.526-17.165 3.086-24.211 3.178-4.855 8.465-7.661 14.046-8.791 5.58-1.129 16.214-1.137 21.06 2.059a51 51 0 0 1-.215 3.204c-.267 2.871-.238 8.041-2.608 10.011-.328.076-.525.185-.85.051-1.67-.686-3.855-8.746-4.712-10.712-2.937-.613-5.935-.847-8.87-.041-3.237.888-5.93 3.234-7.57 6.124-3.429 6.046-3.598 15.512-1.787 22.096 1.135 4.124 3.923 8.112 7.696 10.198 4.155 2.298 7.916 1.338 12.181.081.239-2.049.629-9.131-.249-10.79-.914-1.728-4.619-1.086-5.701-2.933-.378-.645-.253-1.271-.08-1.956 1.898-1.157 8.985-.581 11.513-.549l1.191.325c.583 3.827.945 15.718-.286 19.115m58.291-2.791c1.03-2.29 2.503-7.7 4.927-8.682.632.054.823.095 1.258.619 1.684 2.026 1.7 9.154 1.609 11.762-.51.669-1.171.841-1.987.96-4.195.616-11.853.119-16.346.104-5.193-.017-13.382.519-18.145-.252-.403-.309-.416-.392-.485-.903-.06-.448.036-.822.309-1.186 1.043-1.389 3.673-1.349 4.51-2.679 1.307-2.078 1.152-30.809.795-34.838-.091-1.034-.204-2.786-1.003-3.546-1.138-1.081-4.419-1.197-4.558-3.077-.024-.316.034-.651.084-.962.628-.423 1.388-.458 2.122-.505 2.548-.161 30.994-.349 32.219-.033.476.122.878.491 1.109.915 1.181 2.165-.142 8.1-.923 10.39a4.4 4.4 0 0 1-.587 1.133c-.86.175-1.878-.355-2.686-.66-.605-1.966-1.271-5.559-3.125-6.638-1.101-.641-9.347-.241-11.684-.4-.889 5.183-.772 11.984.229 17.167 1.98.201 3.775.375 5.75.001.94-1.307 1.814-2.607 2.612-4.007q.036-.053.076-.104c.373-.478 1.026-.938 1.649-.989.573-.046.643.093 1.037.454.43 3.706.989 11.108-.22 14.631-.439.334-.802.249-1.334.169-.643-.096-.987-.393-1.346-.901-.907-1.283-.914-3.674-2.69-4.111-1.858-.457-3.932-.033-5.84-.364-.65 5.427-.367 11.131-.366 16.6 4.241.099 8.838.523 13.03-.068m-3.996-25.317c.757-.028 1.022.088 1.636.553l.157.121.447-.236c.158-.367.341-.721.522-1.077-.394-.361-.464-.5-1.037-.454-.623.051-1.276.511-1.649.989q-.04.051-.076.104"/><path d="M272.074 192.884q.036-.053.076-.104c.373-.478 1.026-.938 1.649-.989.573-.046.643.093 1.037.454-.181.356-.364.71-.522 1.077l-.447.236-.157-.121c-.614-.465-.879-.581-1.636-.553M153.253 5.568c2.395-.355 5.14-.16 7.443.537 2.316.7 4.304 1.977 5.439 4.17 1.327 2.56 1.465 6.152.575 8.869-.684 2.084-2.073 3.815-4.05 4.8-4.09 2.038-7.924.34-11.878-1.004-.86.19-1.734.376-2.464.894-1.38.98-3.622 3.602-3.796 5.305-.072.701.189.97.574 1.505 1.213.688 3.41.375 4.816.466 2.615.169 10.138 1.906 12.074 1.506 3.547-.734 6.626-6.083 8.923-8.614 1.621-1.787 3.585-3.426 4.97-5.407 1.147-1.642 1.878-3.557 3.007-5.21 1.114-1.632 2.597-2.759 4.563-3.122 1.674-.31 4.164-.234 5.763.393 1.906.747 3.753 2.458 5.583 3.459 2.615 1.43 5.967 2.485 8.339 4.227 2.411 1.77.247 5.134.665 7.495.512 2.893 3.209 4.8 3.607 7.958.524 4.147-1.473 8.325-3.942 11.503 1.572 1.477 5.943 2.965 8.084 4.256 9.695 5.85 18.791 14.9 23.575 25.259 3.913 8.475 6.245 20.978 2.835 29.99-.913 2.415-2.579 4.49-4.976 5.544-2.73 1.2-6.23.983-8.952-.119-2.342-.948-4.311-2.581-5.288-4.951-.731-1.774-.901-3.877-.788-5.776.436-7.395 4.482-5.332 6.077-9.192.061-1.438-.875-2.781-1.622-3.956-3.318-5.213-8.588-7.772-14.445-9.079-2.904 4.034-5.092 8.709-7.65 12.981-.906 1.513-2.16 2.768-3.025 4.295q-.352.61-.581 1.275-.23.665-.328 1.362c-1.044 7.499 9.687 15.351 13.708 20.684 3.576 4.021 5.524 10.379 5.62 15.686.032 1.744-.423 3.611.229 5.278 1.131 2.891 4.885 3.815 5.985 6.689.5 1.308.225 2.64-.352 3.869-.225.128-.384.22-.64.274-2.55.536-21.484.354-24.799.122-1.22-.085-2.768-.143-3.832-.757-1.187-1.697-.094-5.996-.218-8.16-.171-2.999-2.357-5.215-4.523-7.108-7.457-6.522-17.932-8.395-27.534-7.733-5.605.387-12.517 2.204-16.301 6.637-3.691 4.325-1.813 8.52-1.524 13.465.05.845.023 2.075-.635 2.696-1.624 1.529-18.478 1.051-21.743.962-1.48-.04-6.016.083-6.991-1.06-.411-.482-.655-1.272-.587-1.9.336-3.08 3.893-4.792 5.97-6.626 3.262-2.879 1.536-10.697 1.917-14.67.274-2.868 1.11-5.386 2.191-8.036 1.399-3.428 2.926-7.065 5.253-9.979 1.282-1.605 2.875-2.958 4.37-4.359 3.749-3.512 6.305-7.335 7.505-12.39 1.15-4.851-.317-9.701-.47-14.6-.159-5.07.102-10.12.45-15.177-5.705-.61-13.514-.584-18.406-3.885-2.567-1.731-4.095-4.22-4.695-7.235q-.138-.717-.24-1.44t-.169-1.45-.097-1.458q-.031-.73-.026-1.46t.047-1.46q.041-.728.118-1.455.077-.726.189-1.448.113-.721.261-1.436.148-.716.331-1.423t.4-1.404q.218-.697.469-1.383.252-.685.537-1.358.285-.672.603-1.33.318-.657.667-1.299.35-.64.731-1.264.381-.623.792-1.227c6.364-9.486 21.045-19.755 32.312-22.01"/></svg>